<svg width="97" height="18" viewBox="0 0 97 18" fill="none" xmlns="http://www.w3.org/2000/svg">
<path d="M11.504 15.5645V18.0005H1.736V15.5645H5.192V6.03649C5.192 5.82849 5.196 5.61649 5.204 5.40049C5.212 5.18449 5.224 4.96449 5.24 4.74049L2.96 6.63649C2.8 6.75649 2.644 6.83249 2.492 6.86449C2.34 6.89649 2.196 6.90049 2.06 6.87649C1.924 6.84449 1.804 6.79649 1.7 6.73249C1.596 6.66049 1.516 6.58849 1.46 6.51649L0.416 5.11249L5.768 0.576488H8.492V15.5645H11.504ZM26.0859 0.588487V2.00449C26.0859 2.42049 26.0379 2.75649 25.9419 3.01249C25.8539 3.26849 25.7659 3.48449 25.6779 3.66049L19.3419 16.8965C19.1819 17.2005 18.9659 17.4605 18.6939 17.6765C18.4219 17.8925 18.0539 18.0005 17.5899 18.0005H15.1899L21.6819 5.07649C21.8419 4.77249 22.0059 4.49649 22.1739 4.24849C22.3419 4.00049 22.5299 3.76449 22.7379 3.54049H14.7099C14.5179 3.54049 14.3419 3.46449 14.1819 3.31249C14.0299 3.16049 13.9539 2.98849 13.9539 2.79649V0.588487H26.0859ZM38.5918 14.9645C38.9518 14.9645 39.2318 15.0645 39.4318 15.2645C39.6398 15.4645 39.7438 15.7285 39.7438 16.0565V18.0005H27.6718V16.9205C27.6718 16.7125 27.7158 16.4885 27.8038 16.2485C27.8918 16.0005 28.0398 15.7765 28.2478 15.5765L33.4078 10.4045C33.8478 9.96449 34.2358 9.54449 34.5718 9.14449C34.9078 8.73649 35.1878 8.34049 35.4118 7.95649C35.6358 7.56449 35.8038 7.16849 35.9158 6.76849C36.0278 6.36849 36.0838 5.94849 36.0838 5.50849C36.0838 4.73249 35.8838 4.14449 35.4838 3.74449C35.0838 3.33649 34.5198 3.13249 33.7918 3.13249C33.4718 3.13249 33.1758 3.18049 32.9037 3.27649C32.6398 3.36449 32.3998 3.48849 32.1838 3.64849C31.9758 3.80849 31.7958 3.99649 31.6438 4.21249C31.4918 4.42849 31.3798 4.66449 31.3078 4.92049C31.1638 5.32049 30.9678 5.58849 30.7198 5.72449C30.4798 5.85249 30.1358 5.88049 29.6878 5.80849L27.9358 5.49649C28.0638 4.64849 28.3038 3.90449 28.6558 3.26449C29.0078 2.62449 29.4478 2.09249 29.9758 1.66849C30.5038 1.24449 31.1078 0.928488 31.7878 0.720488C32.4678 0.504487 33.1998 0.396487 33.9838 0.396487C34.8078 0.396487 35.5558 0.520487 36.2278 0.768487C36.9078 1.00849 37.4878 1.34849 37.9678 1.78849C38.4478 2.22049 38.8198 2.74449 39.0838 3.36049C39.3478 3.97649 39.4798 4.65649 39.4798 5.40049C39.4798 6.04049 39.3878 6.63249 39.2038 7.17649C39.0198 7.72049 38.7678 8.24049 38.4478 8.73649C38.1358 9.22449 37.7718 9.70049 37.3558 10.1645C36.9398 10.6285 36.4998 11.0965 36.0358 11.5685L32.3398 15.3485C32.7478 15.2285 33.1518 15.1365 33.5518 15.0725C33.9518 15.0005 34.3278 14.9645 34.6798 14.9645H38.5918ZM53.2696 15.5645V18.0005H43.5016V15.5645H46.9576V6.03649C46.9576 5.82849 46.9616 5.61649 46.9696 5.40049C46.9776 5.18449 46.9896 4.96449 47.0056 4.74049L44.7256 6.63649C44.5656 6.75649 44.4096 6.83249 44.2576 6.86449C44.1056 6.89649 43.9616 6.90049 43.8256 6.87649C43.6896 6.84449 43.5696 6.79649 43.4656 6.73249C43.3616 6.66049 43.2816 6.58849 43.2256 6.51649L42.1816 5.11249L47.5336 0.576488H50.2576V15.5645H53.2696ZM65.8068 7.77649H66.5148C67.1068 7.77649 67.5348 7.59249 67.7988 7.22449L72.2028 1.33249C72.4108 1.05249 72.6388 0.860488 72.8868 0.756488C73.1348 0.644487 73.4388 0.588487 73.7988 0.588487H76.9188L71.3748 7.72849C71.0148 8.19249 70.6428 8.52449 70.2588 8.72449C70.5388 8.83649 70.7908 8.98449 71.0148 9.16849C71.2388 9.34449 71.4548 9.58049 71.6628 9.87649L77.3508 18.0005H74.1468C73.9388 18.0005 73.7588 17.9845 73.6068 17.9525C73.4628 17.9205 73.3348 17.8765 73.2228 17.8205C73.1108 17.7645 73.0148 17.6965 72.9348 17.6165C72.8548 17.5285 72.7788 17.4285 72.7068 17.3165L68.2308 11.0525C68.0788 10.8365 67.8988 10.6845 67.6908 10.5965C67.4828 10.5005 67.1908 10.4525 66.8148 10.4525H65.8068V18.0005H62.2068V0.588487H65.8068V7.77649ZM78.4383 18.0005V5.62849H80.4783C80.8943 5.62849 81.1703 5.82049 81.3063 6.20449L81.4983 7.00849C81.7143 6.78449 81.9343 6.57649 82.1583 6.38449C82.3903 6.19249 82.6383 6.02849 82.9023 5.89249C83.1663 5.74849 83.4503 5.63649 83.7543 5.55649C84.0663 5.47649 84.4023 5.43649 84.7623 5.43649C85.5223 5.43649 86.1503 5.64049 86.6463 6.04849C87.1423 6.44849 87.5183 6.98449 87.7743 7.65649C87.9743 7.26449 88.2183 6.92849 88.5063 6.64849C88.8023 6.36049 89.1223 6.12849 89.4663 5.95249C89.8183 5.77649 90.1863 5.64849 90.5703 5.56849C90.9623 5.48049 91.3543 5.43649 91.7463 5.43649C92.4423 5.43649 93.0583 5.54049 93.5943 5.74849C94.1303 5.95649 94.5783 6.26449 94.9383 6.67249C95.3063 7.07249 95.5863 7.56449 95.7783 8.14849C95.9703 8.73249 96.0663 9.39649 96.0663 10.1405V18.0005H92.7543V10.1405C92.7543 8.69249 92.1343 7.96849 90.8943 7.96849C90.6143 7.96849 90.3543 8.01649 90.1143 8.11249C89.8823 8.20049 89.6743 8.33649 89.4903 8.52049C89.3143 8.70449 89.1743 8.93249 89.0703 9.20449C88.9743 9.47649 88.9263 9.78849 88.9263 10.1405V18.0005H85.6143V10.1405C85.6143 9.35649 85.4583 8.80049 85.1463 8.47249C84.8423 8.13649 84.3903 7.96849 83.7903 7.96849C83.4063 7.96849 83.0423 8.06049 82.6983 8.24449C82.3623 8.42049 82.0463 8.66849 81.7503 8.98849V18.0005H78.4383Z" fill="#142D5D"/>
</svg>
