<svg width="94" height="20" viewBox="0 0 94 20" fill="none" xmlns="http://www.w3.org/2000/svg">
<path d="M12.164 0.588487V2.00449C12.164 2.42049 12.116 2.75649 12.02 3.01249C11.932 3.26849 11.844 3.48449 11.756 3.66049L5.42 16.8965C5.26 17.2005 5.044 17.4605 4.772 17.6765C4.5 17.8925 4.132 18.0005 3.668 18.0005H1.268L7.76 5.07649C7.92 4.77249 8.084 4.49649 8.252 4.24849C8.42 4.00049 8.608 3.76449 8.816 3.54049H0.788C0.596 3.54049 0.42 3.46449 0.26 3.31249C0.108 3.16049 0.032 2.98849 0.032 2.79649V0.588487H12.164ZM21.3699 11.3525V6.16849C21.3699 5.89649 21.3779 5.60849 21.3939 5.30449C21.4179 4.99249 21.4499 4.66849 21.4899 4.33249L16.4499 11.3525H21.3699ZM26.2659 11.3525V13.2245C26.2659 13.4005 26.2059 13.5525 26.0859 13.6805C25.9739 13.8005 25.8139 13.8605 25.6059 13.8605H24.2499V18.0005H21.3699V13.8605H14.1819C13.9739 13.8605 13.7819 13.7965 13.6059 13.6685C13.4379 13.5405 13.3339 13.3725 13.2939 13.1645L12.9459 11.5085L21.1059 0.576488H24.2499V11.3525H26.2659ZM37.9631 7.77649H38.6711C39.2631 7.77649 39.6911 7.59249 39.9551 7.22449L44.3591 1.33249C44.5671 1.05249 44.7951 0.860488 45.0431 0.756488C45.2911 0.644487 45.5951 0.588487 45.9551 0.588487H49.0751L43.5311 7.72849C43.1711 8.19249 42.7991 8.52449 42.4151 8.72449C42.6951 8.83649 42.9471 8.98449 43.1711 9.16849C43.3951 9.34449 43.6111 9.58049 43.8191 9.87649L49.5071 18.0005H46.3031C46.0951 18.0005 45.9151 17.9845 45.7631 17.9525C45.6191 17.9205 45.4911 17.8765 45.3791 17.8205C45.2671 17.7645 45.1711 17.6965 45.0911 17.6165C45.0111 17.5285 44.9351 17.4285 44.8631 17.3165L40.3871 11.0525C40.2351 10.8365 40.0551 10.6845 39.8471 10.5965C39.6391 10.5005 39.3471 10.4525 38.9711 10.4525H37.9631V18.0005H34.3631V0.588487H37.9631V7.77649ZM50.5946 18.0005V5.62849H52.6346C53.0506 5.62849 53.3266 5.82049 53.4626 6.20449L53.6546 7.00849C53.8706 6.78449 54.0906 6.57649 54.3146 6.38449C54.5466 6.19249 54.7946 6.02849 55.0586 5.89249C55.3226 5.74849 55.6066 5.63649 55.9106 5.55649C56.2226 5.47649 56.5586 5.43649 56.9186 5.43649C57.6786 5.43649 58.3066 5.64049 58.8026 6.04849C59.2986 6.44849 59.6746 6.98449 59.9306 7.65649C60.1306 7.26449 60.3746 6.92849 60.6626 6.64849C60.9586 6.36049 61.2786 6.12849 61.6226 5.95249C61.9746 5.77649 62.3426 5.64849 62.7266 5.56849C63.1186 5.48049 63.5106 5.43649 63.9026 5.43649C64.5986 5.43649 65.2146 5.54049 65.7506 5.74849C66.2866 5.95649 66.7346 6.26449 67.0946 6.67249C67.4626 7.07249 67.7426 7.56449 67.9346 8.14849C68.1266 8.73249 68.2226 9.39649 68.2226 10.1405V18.0005H64.9106V10.1405C64.9106 8.69249 64.2906 7.96849 63.0506 7.96849C62.7706 7.96849 62.5106 8.01649 62.2706 8.11249C62.0386 8.20049 61.8306 8.33649 61.6466 8.52049C61.4706 8.70449 61.3306 8.93249 61.2266 9.20449C61.1306 9.47649 61.0826 9.78849 61.0826 10.1405V18.0005H57.7706V10.1405C57.7706 9.35649 57.6146 8.80049 57.3026 8.47249C56.9986 8.13649 56.5466 7.96849 55.9466 7.96849C55.5626 7.96849 55.1986 8.06049 54.8546 8.24449C54.5186 8.42049 54.2026 8.66849 53.9066 8.98849V18.0005H50.5946ZM73.2806 17.9525C73.1286 18.3525 72.8846 18.6525 72.5486 18.8525C72.2206 19.0605 71.8846 19.1645 71.5406 19.1645H70.1366L77.0606 1.24849C77.1966 0.888487 77.4126 0.608487 77.7086 0.408487C78.0046 0.208488 78.3446 0.108488 78.7286 0.108488H80.1446L73.2806 17.9525ZM85.4769 6.84049C85.7089 6.63249 85.9489 6.44449 86.1969 6.27649C86.4529 6.10049 86.7209 5.95249 87.0009 5.83249C87.2889 5.70449 87.5929 5.60849 87.9129 5.54449C88.2409 5.47249 88.5929 5.43649 88.9689 5.43649C89.6409 5.43649 90.2369 5.55249 90.7569 5.78449C91.2769 6.01649 91.7129 6.34049 92.0649 6.75649C92.4249 7.17249 92.6929 7.66849 92.8689 8.24449C93.0529 8.82049 93.1449 9.45249 93.1449 10.1405V18.0005H89.8449V10.1405C89.8449 9.45249 89.6849 8.92049 89.3649 8.54449C89.0449 8.16049 88.5729 7.96849 87.9489 7.96849C87.4849 7.96849 87.0489 8.06849 86.6409 8.26849C86.2329 8.46849 85.8449 8.74849 85.4769 9.10849V18.0005H82.1649V0.108488H85.4769V6.84049Z" fill="#43C365"/>
</svg>
