<svg width="356" height="66" viewBox="0 0 356 66" fill="none" xmlns="http://www.w3.org/2000/svg">
<g filter="url(#filter0_dddd_2019_1293)">
<rect x="3" y="4.00049" width="345" height="54" rx="10" fill="white" shape-rendering="crispEdges"/>
<rect width="24" height="24" transform="translate(18 19.0005)" fill="white"/>
<path fill-rule="evenodd" clip-rule="evenodd" d="M41.04 31.2619C41.04 30.4465 40.9668 29.6624 40.8309 28.9097H30V33.3581H36.1891C35.9225 34.7956 35.1123 36.0135 33.8943 36.829V39.7144H37.6109C39.7855 37.7124 41.04 34.7642 41.04 31.2619Z" fill="#4285F4"/>
<path fill-rule="evenodd" clip-rule="evenodd" d="M30 42.5003C33.105 42.5003 35.7081 41.4705 37.6109 39.7142L33.8943 36.8287C32.8645 37.5187 31.5472 37.9264 30 37.9264C27.0047 37.9264 24.4695 35.9035 23.5652 33.1853H19.7231V36.1648C21.6154 39.9233 25.5045 42.5003 30 42.5003Z" fill="#34A853"/>
<path fill-rule="evenodd" clip-rule="evenodd" d="M23.5652 33.1855C23.3352 32.4955 23.2045 31.7584 23.2045 31.0005C23.2045 30.2425 23.3352 29.5055 23.5652 28.8155V25.8359H19.7232C18.9443 27.3884 18.5 29.1448 18.5 31.0005C18.5 32.8562 18.9443 34.6125 19.7232 36.165L23.5652 33.1855Z" fill="#FBBC05"/>
<path fill-rule="evenodd" clip-rule="evenodd" d="M30 24.0744C31.6884 24.0744 33.2043 24.6546 34.3961 25.7941L37.6945 22.4957C35.7029 20.64 33.0997 19.5005 30 19.5005C25.5045 19.5005 21.6154 22.0775 19.7231 25.8359L23.5652 28.8155C24.4695 26.0973 27.0047 24.0744 30 24.0744Z" fill="#EA4335"/>
<path d="M65.9258 33.3384C65.9258 33.0454 65.8802 32.785 65.7891 32.5571C65.7044 32.3293 65.5514 32.1209 65.3301 31.9321C65.1087 31.7433 64.7962 31.561 64.3926 31.3853C63.9954 31.203 63.4876 31.0174 62.8691 30.8286C62.1921 30.6203 61.5671 30.3892 60.9941 30.1353C60.4277 29.8748 59.9329 29.5754 59.5098 29.2368C59.0866 28.8918 58.7578 28.4979 58.5234 28.0552C58.2891 27.606 58.1719 27.0884 58.1719 26.5024C58.1719 25.923 58.2923 25.3957 58.5332 24.9204C58.7806 24.4451 59.1289 24.035 59.5781 23.6899C60.0339 23.3384 60.571 23.0682 61.1895 22.8794C61.8079 22.6841 62.4915 22.5864 63.2402 22.5864C64.2949 22.5864 65.2031 22.7817 65.9648 23.1724C66.7331 23.563 67.3223 24.0871 67.7324 24.7446C68.1491 25.4022 68.3574 26.1281 68.3574 26.9224H65.9258C65.9258 26.4536 65.8249 26.0402 65.623 25.6821C65.4277 25.3175 65.1283 25.0311 64.7246 24.8228C64.3275 24.6144 63.8229 24.5103 63.2109 24.5103C62.6315 24.5103 62.1497 24.5981 61.7656 24.7739C61.3815 24.9497 61.0951 25.1873 60.9062 25.4868C60.7174 25.7863 60.623 26.1248 60.623 26.5024C60.623 26.7694 60.6849 27.0135 60.8086 27.2349C60.9323 27.4497 61.1211 27.6515 61.375 27.8403C61.6289 28.0226 61.9479 28.1951 62.332 28.3579C62.7161 28.5207 63.1686 28.6769 63.6895 28.8267C64.4772 29.061 65.1641 29.3215 65.75 29.6079C66.3359 29.8879 66.8242 30.2069 67.2148 30.5649C67.6055 30.923 67.8984 31.3299 68.0938 31.7856C68.2891 32.2349 68.3867 32.7459 68.3867 33.3188C68.3867 33.9178 68.2663 34.4582 68.0254 34.9399C67.7845 35.4152 67.4395 35.8221 66.9902 36.1606C66.5475 36.4927 66.0137 36.7498 65.3887 36.9321C64.7702 37.1079 64.0801 37.1958 63.3184 37.1958C62.6348 37.1958 61.9609 37.1047 61.2969 36.9224C60.6393 36.7401 60.0404 36.4634 59.5 36.0923C58.9596 35.7147 58.5299 35.2459 58.2109 34.686C57.8919 34.1196 57.7324 33.4588 57.7324 32.7036H60.1836C60.1836 33.1659 60.2617 33.5597 60.418 33.8853C60.5807 34.2108 60.8053 34.4777 61.0918 34.686C61.3783 34.8879 61.7103 35.0376 62.0879 35.1353C62.472 35.2329 62.8822 35.2817 63.3184 35.2817C63.8913 35.2817 64.3698 35.2004 64.7539 35.0376C65.1445 34.8748 65.4375 34.647 65.6328 34.354C65.8281 34.061 65.9258 33.7225 65.9258 33.3384ZM72.8398 26.4341V37.0005H70.4766V26.4341H72.8398ZM70.3203 23.6606C70.3203 23.3026 70.4375 23.0063 70.6719 22.772C70.9128 22.5311 71.2448 22.4106 71.668 22.4106C72.0846 22.4106 72.4134 22.5311 72.6543 22.772C72.8952 23.0063 73.0156 23.3026 73.0156 23.6606C73.0156 24.0122 72.8952 24.3052 72.6543 24.5396C72.4134 24.7739 72.0846 24.8911 71.668 24.8911C71.2448 24.8911 70.9128 24.7739 70.6719 24.5396C70.4375 24.3052 70.3203 24.0122 70.3203 23.6606ZM82.1855 26.4341H84.3242V36.7075C84.3242 37.658 84.1224 38.4653 83.7188 39.1294C83.3151 39.7935 82.752 40.298 82.0293 40.6431C81.3066 40.9946 80.4701 41.1704 79.5195 41.1704C79.1159 41.1704 78.6667 41.1118 78.1719 40.9946C77.6836 40.8774 77.2083 40.6886 76.7461 40.4282C76.2904 40.1743 75.9095 39.839 75.6035 39.4224L76.707 38.0356C77.0846 38.4849 77.5013 38.8136 77.957 39.022C78.4128 39.2303 78.8913 39.3345 79.3926 39.3345C79.9329 39.3345 80.3919 39.2336 80.7695 39.0317C81.1536 38.8364 81.4499 38.5467 81.6582 38.1626C81.8665 37.7785 81.9707 37.3097 81.9707 36.7563V28.8267L82.1855 26.4341ZM75.0078 31.8345V31.6294C75.0078 30.8286 75.1055 30.0994 75.3008 29.4419C75.4961 28.7778 75.776 28.2082 76.1406 27.7329C76.5052 27.2511 76.9479 26.8833 77.4688 26.6294C77.9896 26.369 78.5788 26.2388 79.2363 26.2388C79.9199 26.2388 80.5026 26.3625 80.9844 26.6099C81.4727 26.8573 81.8796 27.2121 82.2051 27.6743C82.5306 28.13 82.7845 28.6769 82.9668 29.3149C83.1556 29.9465 83.2956 30.6496 83.3867 31.4243V32.0786C83.3021 32.8338 83.1589 33.5239 82.957 34.1489C82.7552 34.7739 82.4883 35.3143 82.1562 35.77C81.8242 36.2257 81.4141 36.5773 80.9258 36.8247C80.444 37.0721 79.8743 37.1958 79.2168 37.1958C78.5723 37.1958 77.9896 37.0623 77.4688 36.7954C76.9544 36.5285 76.5117 36.1541 76.1406 35.6724C75.776 35.1906 75.4961 34.6242 75.3008 33.9731C75.1055 33.3156 75.0078 32.6027 75.0078 31.8345ZM77.3613 31.6294V31.8345C77.3613 32.3162 77.4069 32.7655 77.498 33.1821C77.5957 33.5988 77.7422 33.9666 77.9375 34.2856C78.1393 34.5981 78.3932 34.8455 78.6992 35.0278C79.0117 35.2036 79.3796 35.2915 79.8027 35.2915C80.3561 35.2915 80.8086 35.1743 81.1602 34.9399C81.5182 34.7056 81.7917 34.3898 81.9805 33.9927C82.1758 33.589 82.3125 33.1398 82.3906 32.645V30.8774C82.3516 30.4933 82.2702 30.1353 82.1465 29.8032C82.0293 29.4712 81.8698 29.1815 81.668 28.9341C81.4661 28.6802 81.2122 28.4849 80.9062 28.3481C80.6003 28.2049 80.2389 28.1333 79.8223 28.1333C79.3991 28.1333 79.0312 28.2244 78.7188 28.4067C78.4062 28.589 78.1491 28.8397 77.9473 29.1587C77.752 29.4777 77.6055 29.8488 77.5078 30.272C77.4102 30.6951 77.3613 31.1476 77.3613 31.6294ZM89.0996 28.6899V37.0005H86.7461V26.4341H88.9629L89.0996 28.6899ZM88.6797 31.3267L87.918 31.3169C87.9245 30.5682 88.0286 29.8813 88.2305 29.2563C88.4388 28.6313 88.7253 28.0942 89.0898 27.645C89.4609 27.1958 89.9036 26.8507 90.418 26.6099C90.9323 26.3625 91.5052 26.2388 92.1367 26.2388C92.6445 26.2388 93.1035 26.3104 93.5137 26.4536C93.9303 26.5903 94.2852 26.8149 94.5781 27.1274C94.8776 27.4399 95.1055 27.8468 95.2617 28.3481C95.418 28.8429 95.4961 29.4517 95.4961 30.1743V37.0005H93.1328V30.1646C93.1328 29.6567 93.0579 29.2563 92.9082 28.9634C92.765 28.6639 92.5534 28.4523 92.2734 28.3286C92 28.1984 91.6582 28.1333 91.248 28.1333C90.8444 28.1333 90.4831 28.2179 90.1641 28.3872C89.8451 28.5565 89.5749 28.7876 89.3535 29.0806C89.1387 29.3735 88.9727 29.7121 88.8555 30.0962C88.7383 30.4803 88.6797 30.8905 88.6797 31.3267ZM105.73 22.7817V37.0005H103.279V22.7817H105.73ZM110.877 28.6899V37.0005H108.523V26.4341H110.74L110.877 28.6899ZM110.457 31.3267L109.695 31.3169C109.702 30.5682 109.806 29.8813 110.008 29.2563C110.216 28.6313 110.503 28.0942 110.867 27.645C111.238 27.1958 111.681 26.8507 112.195 26.6099C112.71 26.3625 113.283 26.2388 113.914 26.2388C114.422 26.2388 114.881 26.3104 115.291 26.4536C115.708 26.5903 116.062 26.8149 116.355 27.1274C116.655 27.4399 116.883 27.8468 117.039 28.3481C117.195 28.8429 117.273 29.4517 117.273 30.1743V37.0005H114.91V30.1646C114.91 29.6567 114.835 29.2563 114.686 28.9634C114.542 28.6639 114.331 28.4523 114.051 28.3286C113.777 28.1984 113.436 28.1333 113.025 28.1333C112.622 28.1333 112.26 28.2179 111.941 28.3872C111.622 28.5565 111.352 28.7876 111.131 29.0806C110.916 29.3735 110.75 29.7121 110.633 30.0962C110.516 30.4803 110.457 30.8905 110.457 31.3267ZM127.527 34.6567L129.969 26.4341H131.473L131.062 28.895L128.602 37.0005H127.254L127.527 34.6567ZM126.092 26.4341L127.996 34.6958L128.152 37.0005H126.648L123.787 26.4341H126.092ZM133.758 34.5981L135.604 26.4341H137.898L135.047 37.0005H133.543L133.758 34.5981ZM131.727 26.4341L134.139 34.5591L134.441 37.0005H133.094L130.604 28.8853L130.193 26.4341H131.727ZM142.02 26.4341V37.0005H139.656V26.4341H142.02ZM139.5 23.6606C139.5 23.3026 139.617 23.0063 139.852 22.772C140.092 22.5311 140.424 22.4106 140.848 22.4106C141.264 22.4106 141.593 22.5311 141.834 22.772C142.075 23.0063 142.195 23.3026 142.195 23.6606C142.195 24.0122 142.075 24.3052 141.834 24.5396C141.593 24.7739 141.264 24.8911 140.848 24.8911C140.424 24.8911 140.092 24.7739 139.852 24.5396C139.617 24.3052 139.5 24.0122 139.5 23.6606ZM149.441 26.4341V28.1528H143.484V26.4341H149.441ZM145.203 23.8462H147.557V34.0806C147.557 34.4061 147.602 34.6567 147.693 34.8325C147.791 35.0018 147.924 35.1157 148.094 35.1743C148.263 35.2329 148.462 35.2622 148.689 35.2622C148.852 35.2622 149.008 35.2524 149.158 35.2329C149.308 35.2134 149.428 35.1938 149.52 35.1743L149.529 36.9712C149.334 37.0298 149.106 37.0819 148.846 37.1274C148.592 37.173 148.299 37.1958 147.967 37.1958C147.426 37.1958 146.948 37.1014 146.531 36.9126C146.115 36.7173 145.789 36.4015 145.555 35.9653C145.32 35.5291 145.203 34.9497 145.203 34.2271V23.8462ZM153.582 22.0005V37.0005H151.238V22.0005H153.582ZM153.172 31.3267L152.41 31.3169C152.417 30.5877 152.518 29.9139 152.713 29.2954C152.915 28.6769 153.195 28.1398 153.553 27.6841C153.917 27.2218 154.354 26.867 154.861 26.6196C155.369 26.3657 155.932 26.2388 156.551 26.2388C157.072 26.2388 157.54 26.3104 157.957 26.4536C158.38 26.5968 158.745 26.828 159.051 27.147C159.357 27.4595 159.588 27.8696 159.744 28.3774C159.907 28.8787 159.988 29.4907 159.988 30.2134V37.0005H157.625V30.1938C157.625 29.686 157.55 29.2824 157.4 28.9829C157.257 28.6834 157.046 28.4686 156.766 28.3384C156.486 28.2017 156.144 28.1333 155.74 28.1333C155.317 28.1333 154.943 28.2179 154.617 28.3872C154.298 28.5565 154.031 28.7876 153.816 29.0806C153.602 29.3735 153.439 29.7121 153.328 30.0962C153.224 30.4803 153.172 30.8905 153.172 31.3267ZM178.504 29.7349V35.1646C178.302 35.4315 177.986 35.7244 177.557 36.0435C177.133 36.356 176.57 36.6261 175.867 36.854C175.164 37.0819 174.288 37.1958 173.24 37.1958C172.348 37.1958 171.531 37.0461 170.789 36.7466C170.047 36.4406 169.406 35.9946 168.865 35.4087C168.331 34.8228 167.918 34.1099 167.625 33.27C167.332 32.4237 167.186 31.4601 167.186 30.3794V29.3931C167.186 28.3188 167.319 27.3618 167.586 26.522C167.859 25.6756 168.25 24.9595 168.758 24.3735C169.266 23.7876 169.878 23.3449 170.594 23.0454C171.316 22.7394 172.133 22.5864 173.045 22.5864C174.21 22.5864 175.174 22.7817 175.936 23.1724C176.704 23.5565 177.296 24.0903 177.713 24.7739C178.13 25.4575 178.393 26.2388 178.504 27.1177H176.102C176.023 26.6229 175.87 26.1802 175.643 25.7896C175.421 25.3989 175.102 25.0929 174.686 24.8716C174.275 24.6437 173.742 24.5298 173.084 24.5298C172.518 24.5298 172.02 24.6372 171.59 24.8521C171.16 25.0669 170.802 25.3826 170.516 25.7993C170.236 26.216 170.024 26.7238 169.881 27.3228C169.738 27.9217 169.666 28.6053 169.666 29.3735V30.3794C169.666 31.1606 169.747 31.854 169.91 32.4595C170.079 33.0649 170.32 33.576 170.633 33.9927C170.952 34.4093 171.339 34.7251 171.795 34.9399C172.251 35.1483 172.765 35.2524 173.338 35.2524C173.898 35.2524 174.357 35.2069 174.715 35.1157C175.073 35.0181 175.356 34.9041 175.564 34.7739C175.779 34.6372 175.945 34.507 176.062 34.3833V31.561H173.104V29.7349H178.504ZM180.535 31.8345V31.6099C180.535 30.8481 180.646 30.1418 180.867 29.4907C181.089 28.8332 181.408 28.2635 181.824 27.7817C182.247 27.2935 182.762 26.9159 183.367 26.6489C183.979 26.3755 184.669 26.2388 185.438 26.2388C186.212 26.2388 186.902 26.3755 187.508 26.6489C188.12 26.9159 188.637 27.2935 189.061 27.7817C189.484 28.2635 189.806 28.8332 190.027 29.4907C190.249 30.1418 190.359 30.8481 190.359 31.6099V31.8345C190.359 32.5962 190.249 33.3026 190.027 33.9536C189.806 34.6047 189.484 35.1743 189.061 35.6626C188.637 36.1444 188.123 36.522 187.518 36.7954C186.912 37.0623 186.225 37.1958 185.457 37.1958C184.682 37.1958 183.989 37.0623 183.377 36.7954C182.771 36.522 182.257 36.1444 181.834 35.6626C181.411 35.1743 181.089 34.6047 180.867 33.9536C180.646 33.3026 180.535 32.5962 180.535 31.8345ZM182.889 31.6099V31.8345C182.889 32.3097 182.938 32.759 183.035 33.1821C183.133 33.6053 183.286 33.9764 183.494 34.2954C183.702 34.6144 183.969 34.8651 184.295 35.0474C184.62 35.2297 185.008 35.3208 185.457 35.3208C185.893 35.3208 186.271 35.2297 186.59 35.0474C186.915 34.8651 187.182 34.6144 187.391 34.2954C187.599 33.9764 187.752 33.6053 187.85 33.1821C187.954 32.759 188.006 32.3097 188.006 31.8345V31.6099C188.006 31.1411 187.954 30.6984 187.85 30.2817C187.752 29.8586 187.596 29.4842 187.381 29.1587C187.173 28.8332 186.906 28.5793 186.58 28.397C186.261 28.2082 185.88 28.1138 185.438 28.1138C184.995 28.1138 184.611 28.2082 184.285 28.397C183.966 28.5793 183.702 28.8332 183.494 29.1587C183.286 29.4842 183.133 29.8586 183.035 30.2817C182.938 30.6984 182.889 31.1411 182.889 31.6099ZM191.883 31.8345V31.6099C191.883 30.8481 191.993 30.1418 192.215 29.4907C192.436 28.8332 192.755 28.2635 193.172 27.7817C193.595 27.2935 194.109 26.9159 194.715 26.6489C195.327 26.3755 196.017 26.2388 196.785 26.2388C197.56 26.2388 198.25 26.3755 198.855 26.6489C199.467 26.9159 199.985 27.2935 200.408 27.7817C200.831 28.2635 201.154 28.8332 201.375 29.4907C201.596 30.1418 201.707 30.8481 201.707 31.6099V31.8345C201.707 32.5962 201.596 33.3026 201.375 33.9536C201.154 34.6047 200.831 35.1743 200.408 35.6626C199.985 36.1444 199.471 36.522 198.865 36.7954C198.26 37.0623 197.573 37.1958 196.805 37.1958C196.03 37.1958 195.337 37.0623 194.725 36.7954C194.119 36.522 193.605 36.1444 193.182 35.6626C192.758 35.1743 192.436 34.6047 192.215 33.9536C191.993 33.3026 191.883 32.5962 191.883 31.8345ZM194.236 31.6099V31.8345C194.236 32.3097 194.285 32.759 194.383 33.1821C194.48 33.6053 194.633 33.9764 194.842 34.2954C195.05 34.6144 195.317 34.8651 195.643 35.0474C195.968 35.2297 196.355 35.3208 196.805 35.3208C197.241 35.3208 197.618 35.2297 197.938 35.0474C198.263 34.8651 198.53 34.6144 198.738 34.2954C198.947 33.9764 199.1 33.6053 199.197 33.1821C199.301 32.759 199.354 32.3097 199.354 31.8345V31.6099C199.354 31.1411 199.301 30.6984 199.197 30.2817C199.1 29.8586 198.943 29.4842 198.729 29.1587C198.52 28.8332 198.253 28.5793 197.928 28.397C197.609 28.2082 197.228 28.1138 196.785 28.1138C196.342 28.1138 195.958 28.2082 195.633 28.397C195.314 28.5793 195.05 28.8332 194.842 29.1587C194.633 29.4842 194.48 29.8586 194.383 30.2817C194.285 30.6984 194.236 31.1411 194.236 31.6099ZM210.447 26.4341H212.586V36.7075C212.586 37.658 212.384 38.4653 211.98 39.1294C211.577 39.7935 211.014 40.298 210.291 40.6431C209.568 40.9946 208.732 41.1704 207.781 41.1704C207.378 41.1704 206.928 41.1118 206.434 40.9946C205.945 40.8774 205.47 40.6886 205.008 40.4282C204.552 40.1743 204.171 39.839 203.865 39.4224L204.969 38.0356C205.346 38.4849 205.763 38.8136 206.219 39.022C206.674 39.2303 207.153 39.3345 207.654 39.3345C208.195 39.3345 208.654 39.2336 209.031 39.0317C209.415 38.8364 209.712 38.5467 209.92 38.1626C210.128 37.7785 210.232 37.3097 210.232 36.7563V28.8267L210.447 26.4341ZM203.27 31.8345V31.6294C203.27 30.8286 203.367 30.0994 203.562 29.4419C203.758 28.7778 204.038 28.2082 204.402 27.7329C204.767 27.2511 205.21 26.8833 205.73 26.6294C206.251 26.369 206.84 26.2388 207.498 26.2388C208.182 26.2388 208.764 26.3625 209.246 26.6099C209.734 26.8573 210.141 27.2121 210.467 27.6743C210.792 28.13 211.046 28.6769 211.229 29.3149C211.417 29.9465 211.557 30.6496 211.648 31.4243V32.0786C211.564 32.8338 211.421 33.5239 211.219 34.1489C211.017 34.7739 210.75 35.3143 210.418 35.77C210.086 36.2257 209.676 36.5773 209.188 36.8247C208.706 37.0721 208.136 37.1958 207.479 37.1958C206.834 37.1958 206.251 37.0623 205.73 36.7954C205.216 36.5285 204.773 36.1541 204.402 35.6724C204.038 35.1906 203.758 34.6242 203.562 33.9731C203.367 33.3156 203.27 32.6027 203.27 31.8345ZM205.623 31.6294V31.8345C205.623 32.3162 205.669 32.7655 205.76 33.1821C205.857 33.5988 206.004 33.9666 206.199 34.2856C206.401 34.5981 206.655 34.8455 206.961 35.0278C207.273 35.2036 207.641 35.2915 208.064 35.2915C208.618 35.2915 209.07 35.1743 209.422 34.9399C209.78 34.7056 210.053 34.3898 210.242 33.9927C210.438 33.589 210.574 33.1398 210.652 32.645V30.8774C210.613 30.4933 210.532 30.1353 210.408 29.8032C210.291 29.4712 210.132 29.1815 209.93 28.9341C209.728 28.6802 209.474 28.4849 209.168 28.3481C208.862 28.2049 208.501 28.1333 208.084 28.1333C207.661 28.1333 207.293 28.2244 206.98 28.4067C206.668 28.589 206.411 28.8397 206.209 29.1587C206.014 29.4777 205.867 29.8488 205.77 30.272C205.672 30.6951 205.623 31.1476 205.623 31.6294ZM217.547 22.0005V37.0005H215.184V22.0005H217.547ZM224.783 37.1958C224.002 37.1958 223.296 37.0688 222.664 36.8149C222.039 36.5545 221.505 36.1932 221.062 35.731C220.626 35.2687 220.291 34.7251 220.057 34.1001C219.822 33.4751 219.705 32.8013 219.705 32.0786V31.688C219.705 30.8612 219.826 30.1125 220.066 29.4419C220.307 28.7713 220.643 28.1984 221.072 27.7231C221.502 27.2414 222.01 26.8735 222.596 26.6196C223.182 26.3657 223.816 26.2388 224.5 26.2388C225.255 26.2388 225.916 26.3657 226.482 26.6196C227.049 26.8735 227.518 27.2316 227.889 27.6938C228.266 28.1496 228.546 28.6932 228.729 29.3247C228.917 29.9562 229.012 30.6528 229.012 31.4146V32.4204H220.848V30.731H226.688V30.5454C226.674 30.1222 226.59 29.7251 226.434 29.354C226.284 28.9829 226.053 28.6834 225.74 28.4556C225.428 28.2277 225.011 28.1138 224.49 28.1138C224.1 28.1138 223.751 28.1984 223.445 28.3677C223.146 28.5304 222.895 28.7681 222.693 29.0806C222.492 29.3931 222.335 29.7707 222.225 30.2134C222.12 30.6496 222.068 31.1411 222.068 31.688V32.0786C222.068 32.5409 222.13 32.9705 222.254 33.3677C222.384 33.7583 222.573 34.1001 222.82 34.3931C223.068 34.686 223.367 34.9172 223.719 35.0864C224.07 35.2492 224.471 35.3306 224.92 35.3306C225.486 35.3306 225.991 35.2166 226.434 34.9888C226.876 34.7609 227.26 34.4386 227.586 34.022L228.826 35.2231C228.598 35.5552 228.302 35.8742 227.938 36.1802C227.573 36.4797 227.127 36.7238 226.6 36.9126C226.079 37.1014 225.473 37.1958 224.783 37.1958Z" fill="black" fill-opacity="0.54"/>
</g>
<defs>
<filter id="filter0_dddd_2019_1293" x="0" y="0.000488281" width="356" height="66" filterUnits="userSpaceOnUse" color-interpolation-filters="sRGB">
<feFlood flood-opacity="0" result="BackgroundImageFix"/>
<feColorMatrix in="SourceAlpha" type="matrix" values="0 0 0 0 0 0 0 0 0 0 0 0 0 0 0 0 0 0 127 0" result="hardAlpha"/>
<feOffset dy="2"/>
<feGaussianBlur stdDeviation="1.5"/>
<feColorMatrix type="matrix" values="0 0 0 0 0 0 0 0 0 0 0 0 0 0 0 0 0 0 0.168 0"/>
<feBlend mode="normal" in2="BackgroundImageFix" result="effect1_dropShadow_2019_1293"/>
<feColorMatrix in="SourceAlpha" type="matrix" values="0 0 0 0 0 0 0 0 0 0 0 0 0 0 0 0 0 0 127 0" result="hardAlpha"/>
<feOffset/>
<feGaussianBlur stdDeviation="1.5"/>
<feColorMatrix type="matrix" values="0 0 0 0 0 0 0 0 0 0 0 0 0 0 0 0 0 0 0.084 0"/>
<feBlend mode="normal" in2="effect1_dropShadow_2019_1293" result="effect2_dropShadow_2019_1293"/>
<feColorMatrix in="SourceAlpha" type="matrix" values="0 0 0 0 0 0 0 0 0 0 0 0 0 0 0 0 0 0 127 0" result="hardAlpha"/>
<feOffset dx="4" dy="4"/>
<feGaussianBlur stdDeviation="2"/>
<feComposite in2="hardAlpha" operator="out"/>
<feColorMatrix type="matrix" values="0 0 0 0 0 0 0 0 0 0 0 0 0 0 0 0 0 0 0.25 0"/>
<feBlend mode="normal" in2="effect2_dropShadow_2019_1293" result="effect3_dropShadow_2019_1293"/>
<feColorMatrix in="SourceAlpha" type="matrix" values="0 0 0 0 0 0 0 0 0 0 0 0 0 0 0 0 0 0 127 0" result="hardAlpha"/>
<feOffset dx="4"/>
<feGaussianBlur stdDeviation="2"/>
<feComposite in2="hardAlpha" operator="out"/>
<feColorMatrix type="matrix" values="0 0 0 0 0 0 0 0 0 0 0 0 0 0 0 0 0 0 0.25 0"/>
<feBlend mode="normal" in2="effect3_dropShadow_2019_1293" result="effect4_dropShadow_2019_1293"/>
<feBlend mode="normal" in="SourceGraphic" in2="effect4_dropShadow_2019_1293" result="shape"/>
</filter>
</defs>
</svg>
