<svg width="55" height="55" viewBox="0 0 55 55" fill="none" xmlns="http://www.w3.org/2000/svg">
<circle cx="27.5" cy="27.5005" r="27" fill="#142D5D" stroke="#FFF7F7"/>
<path fill-rule="evenodd" clip-rule="evenodd" d="M23.5859 32.2472C23.2657 31.9424 23.0858 31.5291 23.0859 31.0982C23.086 30.6673 23.266 30.2541 23.5863 29.9494L27.2102 26.5033L23.5873 23.0562C23.4286 22.9053 23.3027 22.7261 23.2168 22.5289C23.1309 22.3318 23.0866 22.1204 23.0866 21.907C23.0866 21.6935 23.1307 21.4822 23.2165 21.285C23.3024 21.0878 23.4282 20.9086 23.5868 20.7576C23.7454 20.6066 23.9338 20.4869 24.1411 20.4052C24.3484 20.3235 24.5705 20.2814 24.7949 20.2813C25.0193 20.2813 25.2415 20.3233 25.4488 20.4049C25.6562 20.4866 25.8445 20.6063 26.0032 20.7572L30.8337 25.355C31.1539 25.6598 31.3338 26.0731 31.3337 26.504C31.3336 26.9349 31.1537 27.3481 30.8334 27.6528L26.0015 32.2475C25.6811 32.5521 25.2466 32.7232 24.7936 32.7231C24.3406 32.7231 23.9062 32.5518 23.5859 32.2472Z" fill="white"/>
</svg>
