<svg width="63" height="63" viewBox="0 0 63 63" fill="none" xmlns="http://www.w3.org/2000/svg">
<g opacity="0.2">
<mask id="path-1-inside-1_3024_588" fill="white">
<path d="M63 31.5005C63 48.8975 48.897 63.0005 31.5 63.0005C14.103 63.0005 0 48.8975 0 31.5005C0 14.1035 14.103 0.000488281 31.5 0.000488281C48.897 0.000488281 63 14.1035 63 31.5005ZM4.095 31.5005C4.095 46.6359 16.3646 58.9055 31.5 58.9055C46.6354 58.9055 58.905 46.6359 58.905 31.5005C58.905 16.3651 46.6354 4.09549 31.5 4.09549C16.3646 4.09549 4.095 16.3651 4.095 31.5005Z"/>
</mask>
<path d="M63 31.5005C63 48.8975 48.897 63.0005 31.5 63.0005C14.103 63.0005 0 48.8975 0 31.5005C0 14.1035 14.103 0.000488281 31.5 0.000488281C48.897 0.000488281 63 14.1035 63 31.5005ZM4.095 31.5005C4.095 46.6359 16.3646 58.9055 31.5 58.9055C46.6354 58.9055 58.905 46.6359 58.905 31.5005C58.905 16.3651 46.6354 4.09549 31.5 4.09549C16.3646 4.09549 4.095 16.3651 4.095 31.5005Z" stroke="#CCCCCC" stroke-width="32" stroke-linecap="round" mask="url(#path-1-inside-1_3024_588)"/>
</g>
<mask id="path-2-inside-2_3024_588" fill="white">
<path d="M31.5 3.30709C31.5 1.48091 32.9845 -0.0174913 34.8006 0.173839C40.8262 0.808631 46.5666 3.17163 51.3132 7.01197C56.9201 11.5484 60.8005 17.8716 62.3061 24.9251C63.8116 31.9785 62.851 39.335 59.5849 45.7654C56.82 51.209 52.5446 55.7099 47.3033 58.7495C45.7236 59.6656 43.7567 58.9039 43.0111 57.2369V57.2369C42.2655 55.5699 43.0276 53.632 44.5811 52.6721C48.4505 50.2814 51.6099 46.8633 53.6887 42.7706C56.2691 37.6902 57.028 31.8782 55.8385 26.3055C54.6491 20.7329 51.5834 15.7372 47.1535 12.1532C43.5849 9.26587 39.3052 7.43555 34.797 6.83301C32.9869 6.59109 31.5 5.13328 31.5 3.30709V3.30709Z"/>
</mask>
<path d="M31.5 3.30709C31.5 1.48091 32.9845 -0.0174913 34.8006 0.173839C40.8262 0.808631 46.5666 3.17163 51.3132 7.01197C56.9201 11.5484 60.8005 17.8716 62.3061 24.9251C63.8116 31.9785 62.851 39.335 59.5849 45.7654C56.82 51.209 52.5446 55.7099 47.3033 58.7495C45.7236 59.6656 43.7567 58.9039 43.0111 57.2369V57.2369C42.2655 55.5699 43.0276 53.632 44.5811 52.6721C48.4505 50.2814 51.6099 46.8633 53.6887 42.7706C56.2691 37.6902 57.028 31.8782 55.8385 26.3055C54.6491 20.7329 51.5834 15.7372 47.1535 12.1532C43.5849 9.26587 39.3052 7.43555 34.797 6.83301C32.9869 6.59109 31.5 5.13328 31.5 3.30709V3.30709Z" stroke="#142D5D" stroke-width="32" stroke-linecap="round" mask="url(#path-2-inside-2_3024_588)"/>
<path d="M31.385 25.9086V27.2066C31.385 27.588 31.341 27.896 31.253 28.1306C31.1723 28.3653 31.0916 28.5633 31.011 28.7246L25.203 40.8576C25.0563 41.1363 24.8583 41.3746 24.609 41.5726C24.3596 41.7706 24.0223 41.8696 23.597 41.8696H21.397L27.348 30.0226C27.4946 29.744 27.645 29.491 27.799 29.2636C27.953 29.0363 28.1253 28.82 28.316 28.6146H20.957C20.781 28.6146 20.6196 28.545 20.473 28.4056C20.3336 28.2663 20.264 28.1086 20.264 27.9326V25.9086H31.385ZM35.9297 31.6396C36.1423 31.449 36.3623 31.2766 36.5897 31.1226C36.8243 30.9613 37.07 30.8256 37.3267 30.7156C37.5907 30.5983 37.8693 30.5103 38.1627 30.4516C38.4633 30.3856 38.786 30.3526 39.1307 30.3526C39.7467 30.3526 40.293 30.459 40.7697 30.6716C41.2463 30.8843 41.646 31.1813 41.9687 31.5626C42.2987 31.944 42.5443 32.3986 42.7057 32.9266C42.8743 33.4546 42.9587 34.034 42.9587 34.6646V41.8696H39.9337V34.6646C39.9337 34.034 39.787 33.5463 39.4937 33.2016C39.2003 32.8496 38.7677 32.6736 38.1957 32.6736C37.7703 32.6736 37.3707 32.7653 36.9967 32.9486C36.6227 33.132 36.267 33.3886 35.9297 33.7186V41.8696H32.8937V25.4686H35.9297V31.6396Z" fill="#142D5D"/>
<circle cx="43" cy="57.0005" r="4.5" fill="#142D5D" stroke="white"/>
</svg>
