<svg width="78" height="77" viewBox="0 0 78 77" fill="none" xmlns="http://www.w3.org/2000/svg">
<rect x="76.1511" y="76" width="75.1509" height="75" rx="37.5" transform="rotate(-180 76.1511 76)" fill="url(#paint0_linear_2990_609)"/>
<g filter="url(#filter0_f_2990_609)">
<rect x="76.1509" y="76" width="75.1509" height="75" rx="37.5" transform="rotate(-180 76.1509 76)" fill="url(#paint1_linear_2990_609)"/>
</g>
<g filter="url(#filter1_dd_2990_609)">
<path d="M38.8699 28C37.8986 28 37.1084 28.7886 37.1084 29.758V36.8289C37.1084 37.7983 37.8986 38.5869 38.8699 38.5869C39.8412 38.5869 40.6314 37.7983 40.6314 36.8289V29.758C40.6314 28.7886 39.8412 28 38.8699 28Z" fill="#98A29B"/>
<path d="M44.7644 32.6461C44.0232 31.9788 42.9443 32.0547 42.297 32.7192C41.646 33.3876 41.5957 34.5195 42.4204 35.2699C43.7292 36.4572 44.3908 38.2565 44.0774 40.0717C43.6521 42.5353 41.5052 44.4767 38.8697 44.4825C36.1701 44.4884 34.102 42.4993 33.6754 40.1615C33.3428 38.3354 33.9564 36.5071 35.3182 35.271C36.1406 34.5238 36.0976 33.3869 35.4448 32.7179C34.7964 32.0533 33.7111 31.9815 32.9633 32.6569C30.8924 34.5289 29.8114 37.2963 30.1121 40.1015C30.5903 44.5615 34.3637 47.9992 38.8905 47.9992C43.3653 47.9992 47.0292 44.5533 47.5942 40.3921C47.9881 37.4925 46.9302 34.5968 44.7644 32.6461Z" fill="#98A29B"/>
</g>
<defs>
<filter id="filter0_f_2990_609" x="0" y="0" width="77.1509" height="77" filterUnits="userSpaceOnUse" color-interpolation-filters="sRGB">
<feFlood flood-opacity="0" result="BackgroundImageFix"/>
<feBlend mode="normal" in="SourceGraphic" in2="BackgroundImageFix" result="shape"/>
<feGaussianBlur stdDeviation="0.5" result="effect1_foregroundBlur_2990_609"/>
</filter>
<filter id="filter1_dd_2990_609" x="5.0625" y="3" width="67.6128" height="69.999" filterUnits="userSpaceOnUse" color-interpolation-filters="sRGB">
<feFlood flood-opacity="0" result="BackgroundImageFix"/>
<feColorMatrix in="SourceAlpha" type="matrix" values="0 0 0 0 0 0 0 0 0 0 0 0 0 0 0 0 0 0 127 0" result="hardAlpha"/>
<feOffset/>
<feGaussianBlur stdDeviation="12.5"/>
<feColorMatrix type="matrix" values="0 0 0 0 0.14902 0 0 0 0 0.670588 0 0 0 0 0.968627 0 0 0 0.2 0"/>
<feBlend mode="normal" in2="BackgroundImageFix" result="effect1_dropShadow_2990_609"/>
<feColorMatrix in="SourceAlpha" type="matrix" values="0 0 0 0 0 0 0 0 0 0 0 0 0 0 0 0 0 0 127 0" result="hardAlpha"/>
<feOffset/>
<feGaussianBlur stdDeviation="5"/>
<feColorMatrix type="matrix" values="0 0 0 0 0.3875 0 0 0 0 0.811538 0 0 0 0 1 0 0 0 0.5 0"/>
<feBlend mode="normal" in2="effect1_dropShadow_2990_609" result="effect2_dropShadow_2990_609"/>
<feBlend mode="normal" in="SourceGraphic" in2="effect2_dropShadow_2990_609" result="shape"/>
</filter>
<linearGradient id="paint0_linear_2990_609" x1="138.151" y1="141.625" x2="91.2942" y2="84.3452" gradientUnits="userSpaceOnUse">
<stop stop-color="#005EA3"/>
<stop offset="1" stop-color="#11A8FD"/>
</linearGradient>
<linearGradient id="paint1_linear_2990_609" x1="138.15" y1="141.625" x2="91.294" y2="84.3452" gradientUnits="userSpaceOnUse">
<stop stop-color="#016BB8"/>
<stop offset="1" stop-color="#001C2C"/>
</linearGradient>
</defs>
</svg>
