<svg width="57" height="57" viewBox="0 0 57 57" fill="none" xmlns="http://www.w3.org/2000/svg">
<path d="M28.5499 39.2505C29.4355 39.2505 30.2893 39.5804 30.9449 40.1758C31.6005 40.7712 32.0108 41.5895 32.0958 42.471L32.1124 42.813V47.563C32.1126 48.4781 31.7606 49.3581 31.1294 50.0207C30.4982 50.6833 29.6363 51.0776 28.7223 51.1219C27.8083 51.1662 26.9122 50.8571 26.22 50.2586C25.5277 49.6601 25.0923 48.8182 25.004 47.9074L24.9874 47.563V42.813C24.9874 41.8682 25.3627 40.962 26.0308 40.2939C26.6989 39.6258 27.6051 39.2505 28.5499 39.2505ZM19.9144 6.10736C20.8308 6.33673 21.6186 6.92071 22.1046 7.73087C22.5905 8.54102 22.7347 9.511 22.5055 10.4275L13.0055 48.4275C12.7652 49.3319 12.1786 50.1055 11.3726 50.581C10.5665 51.0564 9.60577 51.1957 8.69792 50.9686C7.79007 50.7414 7.00804 50.1662 6.52085 49.3672C6.03365 48.5682 5.88042 47.6096 6.09427 46.6985L15.5943 8.69849C15.8236 7.78205 16.4076 6.99425 17.2178 6.50833C18.0279 6.02242 18.9979 5.87819 19.9144 6.10736ZM41.5055 8.69849L51.0055 46.6985C51.1268 47.1549 51.1561 47.6308 51.0918 48.0986C51.0275 48.5664 50.8708 49.0168 50.6309 49.4235C50.391 49.8302 50.0726 50.1852 49.6943 50.4677C49.3159 50.7503 48.8852 50.9548 48.4271 51.0694C47.969 51.184 47.4927 51.2064 47.0259 51.1353C46.5591 51.0641 46.111 50.9009 45.7079 50.6551C45.3047 50.4092 44.9544 50.0857 44.6774 49.7033C44.4004 49.3209 44.2022 48.8872 44.0943 48.4275L34.5943 10.4275C34.3804 9.51642 34.5336 8.55779 35.0208 7.75878C35.508 6.95976 36.2901 6.38454 37.1979 6.15742C38.1058 5.9303 39.0665 6.06953 39.8726 6.54501C40.6786 7.0205 41.2652 7.79405 41.5055 8.69849ZM28.5499 22.6255C29.4947 22.6255 30.4009 23.0008 31.069 23.6689C31.7371 24.337 32.1124 25.2432 32.1124 26.188V30.938C32.1124 31.8828 31.7371 32.789 31.069 33.4571C30.4009 34.1252 29.4947 34.5005 28.5499 34.5005C27.6051 34.5005 26.6989 34.1252 26.0308 33.4571C25.3627 32.789 24.9874 31.8828 24.9874 30.938V26.188C24.9874 25.2432 25.3627 24.337 26.0308 23.6689C26.6989 23.0008 27.6051 22.6255 28.5499 22.6255ZM28.5499 6.00049C29.4355 6.00053 30.2893 6.33042 30.9449 6.92583C31.6005 7.52124 32.0108 8.33948 32.0958 9.22099L32.1124 9.56299V14.313C32.1126 15.2281 31.7606 16.1081 31.1294 16.7707C30.4982 17.4333 29.6363 17.8276 28.7223 17.8719C27.8083 17.9162 26.9122 17.6071 26.22 17.0086C25.5277 16.4101 25.0923 15.5682 25.004 14.6574L24.9874 14.313V9.56299C24.9874 8.61815 25.3627 7.71202 26.0308 7.04392C26.6989 6.37582 27.6051 6.00049 28.5499 6.00049Z" fill="#09244B"/>
</svg>
