<svg width="24" height="24" viewBox="0 0 24 24" fill="none" xmlns="http://www.w3.org/2000/svg">
<rect width="24" height="24" transform="translate(0 0.000488281)" fill="white"/>
<path fill-rule="evenodd" clip-rule="evenodd" d="M23.04 12.2619C23.04 11.4465 22.9668 10.6624 22.8309 9.90967H12V14.3581H18.1891C17.9225 15.7956 17.1123 17.0135 15.8943 17.829V20.7144H19.6109C21.7855 18.7124 23.04 15.7642 23.04 12.2619Z" fill="#4285F4"/>
<path fill-rule="evenodd" clip-rule="evenodd" d="M12 23.5003C15.105 23.5003 17.7081 22.4705 19.6109 20.7142L15.8943 17.8287C14.8645 18.5187 13.5472 18.9264 12 18.9264C9.00474 18.9264 6.46951 16.9035 5.56519 14.1853H1.72314V17.1648C3.61542 20.9233 7.50451 23.5003 12 23.5003Z" fill="#34A853"/>
<path fill-rule="evenodd" clip-rule="evenodd" d="M5.56523 14.1855C5.33523 13.4955 5.20455 12.7584 5.20455 12.0005C5.20455 11.2425 5.33523 10.5055 5.56523 9.81548V6.83594H1.72318C0.944318 8.38844 0.5 10.1448 0.5 12.0005C0.5 13.8562 0.944318 15.6125 1.72318 17.165L5.56523 14.1855Z" fill="#FBBC05"/>
<path fill-rule="evenodd" clip-rule="evenodd" d="M12 5.07435C13.6884 5.07435 15.2043 5.65458 16.3961 6.79412L19.6945 3.49572C17.7029 1.64003 15.0997 0.500488 12 0.500488C7.50451 0.500488 3.61542 3.07753 1.72314 6.83594L5.56519 9.81549C6.46951 7.09731 9.00474 5.07435 12 5.07435Z" fill="#EA4335"/>
</svg>
