<svg width="32" height="32" viewBox="0 0 32 32" fill="none" xmlns="http://www.w3.org/2000/svg">
<path fill-rule="evenodd" clip-rule="evenodd" d="M13.437 20.6472C13.1967 20.3972 13.0637 20.06 13.0671 19.7098C13.0706 19.3596 13.2102 19.0251 13.4554 18.7799L16.2292 16.0058L13.5104 13.1778C13.3913 13.054 13.2973 12.9075 13.2337 12.7466C13.1702 12.5857 13.1383 12.4136 13.1399 12.2402C13.1416 12.0667 13.1767 11.8953 13.2433 11.7356C13.3099 11.576 13.4067 11.4313 13.5281 11.3098C13.6495 11.1882 13.7932 11.0923 13.951 11.0274C14.1087 10.9625 14.2775 10.9299 14.4475 10.9315C14.6176 10.9331 14.7857 10.9689 14.9422 11.0368C15.0987 11.1046 15.2405 11.2033 15.3596 11.3271L18.9846 15.0991C19.2249 15.3491 19.358 15.6863 19.3546 16.0365C19.3511 16.3867 19.2115 16.7212 18.9663 16.9664L15.2679 20.6652C15.0227 20.9104 14.692 21.0463 14.3487 21.0429C14.0053 21.0395 13.6774 20.8972 13.437 20.6472Z" fill="#09244B"/>
</svg>
