<svg width="36" height="36" viewBox="0 0 36 36" fill="none" xmlns="http://www.w3.org/2000/svg">
<g clip-path="url(#clip0_2975_727)">
<path d="M18 4.5C18.3823 4.50042 18.75 4.64682 19.0281 4.90927C19.3061 5.17173 19.4734 5.53043 19.4958 5.91209C19.5182 6.29375 19.394 6.66957 19.1486 6.96275C18.9032 7.25593 18.5551 7.44434 18.1755 7.4895L18 7.5H10.5C10.1326 7.50005 9.77799 7.63493 9.50344 7.87907C9.22889 8.12321 9.05349 8.45962 9.0105 8.8245L9 9V27C9.00005 27.3674 9.13493 27.722 9.37907 27.9966C9.62321 28.2711 9.95962 28.4465 10.3245 28.4895L10.5 28.5H17.25C17.6323 28.5004 18 28.6468 18.2781 28.9093C18.5561 29.1717 18.7234 29.5304 18.7458 29.9121C18.7682 30.2938 18.644 30.6696 18.3986 30.9627C18.1532 31.2559 17.8051 31.4443 17.4255 31.4895L17.25 31.5H10.5C9.35218 31.5001 8.24773 31.0615 7.41261 30.2741C6.57749 29.4866 6.07484 28.4098 6.0075 27.264L6 27V9C5.99994 7.85218 6.43849 6.74773 7.22593 5.91261C8.01336 5.07749 9.09016 4.57484 10.236 4.5075L10.5 4.5H18ZM26.5605 12.696L30.8025 16.9395C31.0837 17.2208 31.2417 17.6023 31.2417 18C31.2417 18.3977 31.0837 18.7792 30.8025 19.0605L26.5605 23.304C26.279 23.5853 25.8974 23.7432 25.4995 23.7431C25.1016 23.7429 24.72 23.5847 24.4387 23.3032C24.1575 23.0218 23.9996 22.6401 23.9997 22.2422C23.9998 21.8443 24.158 21.4628 24.4395 21.1815L26.121 19.5H18C17.6022 19.5 17.2206 19.342 16.9393 19.0607C16.658 18.7794 16.5 18.3978 16.5 18C16.5 17.6022 16.658 17.2206 16.9393 16.9393C17.2206 16.658 17.6022 16.5 18 16.5H26.121L24.4395 14.8185C24.158 14.5372 23.9998 14.1557 23.9997 13.7578C23.9996 13.3599 24.1575 12.9782 24.4387 12.6968C24.72 12.4153 25.1016 12.2571 25.4995 12.2569C25.8974 12.2568 26.279 12.4147 26.5605 12.696Z" fill="#D91919"/>
</g>
<defs>
<clipPath id="clip0_2975_727">
<rect width="36" height="36" fill="white"/>
</clipPath>
</defs>
</svg>
