<svg width="42" height="42" viewBox="0 0 42 42" fill="none" xmlns="http://www.w3.org/2000/svg">
<circle cx="21" cy="21" r="21" fill="white"/>
<path d="M12.5002 13.9168C12.5002 12.0382 13.2464 10.2365 14.5748 8.90816C15.9032 7.57977 17.7049 6.8335 19.5835 6.8335C21.4621 6.8335 23.2638 7.57977 24.5922 8.90816C25.9206 10.2365 26.6668 12.0382 26.6668 13.9168C26.6668 15.7954 25.9206 17.5971 24.5922 18.9255C23.2638 20.2539 21.4621 21.0002 19.5835 21.0002C17.7049 21.0002 15.9032 20.2539 14.5748 18.9255C13.2464 17.5971 12.5002 15.7954 12.5002 13.9168ZM10.8313 24.7855C13.1022 23.4 16.1906 22.4168 19.5835 22.4168C20.2167 22.4168 20.8401 22.4508 21.4478 22.516C21.6912 22.5421 21.9236 22.6308 22.1225 22.7735C22.3213 22.9161 22.4798 23.1078 22.5826 23.33C22.6853 23.5521 22.7287 23.7971 22.7086 24.041C22.6885 24.2849 22.6055 24.5194 22.4678 24.7217C21.5082 26.1302 20.9966 27.7958 21.0002 29.5002C21.0002 30.8035 21.2934 32.036 21.8147 33.1367C21.9163 33.3512 21.9624 33.5877 21.9488 33.8246C21.9352 34.0615 21.8622 34.2912 21.7367 34.4925C21.6112 34.6939 21.4372 34.8605 21.2305 34.9771C21.0238 35.0937 20.7912 35.1565 20.5539 35.1597L19.5835 35.1668C16.4257 35.1668 13.4422 34.9685 11.2067 34.3763C10.0947 34.0817 9.04775 33.6595 8.25441 33.022C7.41433 32.3477 6.8335 31.4056 6.8335 30.2085C6.8335 29.0936 7.34066 28.0509 8.02916 27.1782C8.729 26.2928 9.69658 25.4782 10.8313 24.7841V24.7855ZM26.6668 29.5002C26.6668 29.1244 26.8161 28.7641 27.0818 28.4984C27.3474 28.2328 27.7078 28.0835 28.0835 28.0835H29.486C30.2765 28.0835 30.9168 28.7238 30.9168 29.5143V32.5233C31.1869 32.6793 31.3979 32.92 31.5173 33.2081C31.6366 33.4962 31.6575 33.8156 31.5768 34.1168C31.4961 34.418 31.3183 34.6842 31.0709 34.8741C30.8235 35.0639 30.5203 35.1668 30.2085 35.1668H29.5143C29.1349 35.1668 28.7709 35.0161 28.5026 34.7477C28.2342 34.4794 28.0835 34.1155 28.0835 33.736V30.9168C27.7078 30.9168 27.3474 30.7676 27.0818 30.5019C26.8161 30.2362 26.6668 29.8759 26.6668 29.5002ZM29.5002 23.8335C29.1391 23.8339 28.7918 23.9722 28.5292 24.22C28.2667 24.4679 28.1087 24.8067 28.0875 25.1671C28.0663 25.5276 28.1836 25.8825 28.4154 26.1594C28.6471 26.4363 28.9759 26.6143 29.3344 26.6569L29.503 26.6668C29.8641 26.6664 30.2114 26.5282 30.4739 26.2803C30.7365 26.0324 30.8945 25.6936 30.9157 25.3332C30.9368 24.9727 30.8195 24.6178 30.5878 24.3409C30.356 24.064 30.0273 23.8861 29.6687 23.8434L29.5002 23.8335Z" fill="#09244B"/>
</svg>
