<svg width="42" height="42" viewBox="0 0 42 42" fill="none" xmlns="http://www.w3.org/2000/svg">
<circle cx="21" cy="21" r="21" fill="white"/>
<g clip-path="url(#clip0_2049_2016)">
<path d="M22.7 7.64375C22.2096 7.28674 21.613 7.09375 21 7.09375C20.387 7.09375 19.7904 7.28674 19.3 7.64375L9.38333 14.8625C9.03144 15.1187 8.74583 15.4508 8.54912 15.8327C8.35241 16.2145 8.25 16.6356 8.25 17.0625V30.125C8.25 30.8543 8.54851 31.5538 9.07986 32.0695C9.61122 32.5853 10.3319 32.875 11.0833 32.875H16.6083C17.0216 32.875 17.418 32.7156 17.7102 32.432C18.0025 32.1484 18.1667 31.7636 18.1667 31.3625V24.625C18.1667 23.8957 18.4652 23.1962 18.9965 22.6805C19.5279 22.1647 20.2486 21.875 21 21.875C21.7514 21.875 22.4721 22.1647 23.0035 22.6805C23.5348 23.1962 23.8333 23.8957 23.8333 24.625V31.3625C23.8333 31.7636 23.9975 32.1484 24.2898 32.432C24.582 32.7156 24.9784 32.875 25.3917 32.875H30.9167C31.6681 32.875 32.3888 32.5853 32.9201 32.0695C33.4515 31.5538 33.75 30.8543 33.75 30.125V17.0625C33.75 16.6356 33.6476 16.2145 33.4509 15.8327C33.2542 15.4508 32.9686 15.1187 32.6167 14.8625L22.7 7.64375Z" fill="#09244B"/>
</g>
<defs>
<clipPath id="clip0_2049_2016">
<rect x="4" y="4" width="34" height="33" rx="16.5" fill="white"/>
</clipPath>
</defs>
</svg>
