<svg width="34" height="34" viewBox="0 0 34 34" fill="none" xmlns="http://www.w3.org/2000/svg">
<g clip-path="url(#clip0_3006_2459)">
<path d="M8.50016 9.91683C8.50016 8.03821 9.24644 6.23654 10.5748 4.90816C11.9032 3.57977 13.7049 2.8335 15.5835 2.8335C17.4621 2.8335 19.2638 3.57977 20.5922 4.90816C21.9206 6.23654 22.6668 8.03821 22.6668 9.91683C22.6668 11.7954 21.9206 13.5971 20.5922 14.9255C19.2638 16.2539 17.4621 17.0002 15.5835 17.0002C13.7049 17.0002 11.9032 16.2539 10.5748 14.9255C9.24644 13.5971 8.50016 11.7954 8.50016 9.91683ZM6.83133 20.7855C9.10225 19.4 12.1906 18.4168 15.5835 18.4168C16.2167 18.4168 16.8401 18.4508 17.4478 18.516C17.6912 18.5421 17.9236 18.6308 18.1225 18.7735C18.3213 18.9161 18.4798 19.1078 18.5826 19.33C18.6853 19.5521 18.7287 19.7971 18.7086 20.041C18.6885 20.2849 18.6055 20.5194 18.4678 20.7217C17.5082 22.1302 16.9966 23.7958 17.0002 25.5002C17.0002 26.8035 17.2934 28.036 17.8147 29.1367C17.9163 29.3512 17.9624 29.5877 17.9488 29.8246C17.9352 30.0615 17.8622 30.2912 17.7367 30.4925C17.6112 30.6939 17.4372 30.8605 17.2305 30.9771C17.0238 31.0937 16.7912 31.1565 16.5539 31.1597L15.5835 31.1668C12.4257 31.1668 9.44225 30.9685 7.20675 30.3763C6.09466 30.0817 5.04775 29.6595 4.25441 29.022C3.41433 28.3477 2.8335 27.4056 2.8335 26.2085C2.8335 25.0936 3.34066 24.0509 4.02916 23.1782C4.729 22.2928 5.69658 21.4782 6.83133 20.7841V20.7855ZM22.6668 25.5002C22.6668 25.1244 22.8161 24.7641 23.0818 24.4984C23.3474 24.2328 23.7078 24.0835 24.0835 24.0835H25.486C26.2765 24.0835 26.9168 24.7238 26.9168 25.5143V28.5233C27.1869 28.6793 27.3979 28.92 27.5173 29.2081C27.6366 29.4962 27.6575 29.8156 27.5768 30.1168C27.4961 30.418 27.3183 30.6842 27.0709 30.8741C26.8235 31.0639 26.5203 31.1668 26.2085 31.1668H25.5143C25.1348 31.1668 24.7709 31.0161 24.5026 30.7477C24.2342 30.4794 24.0835 30.1155 24.0835 29.736V26.9168C23.7078 26.9168 23.3474 26.7676 23.0818 26.5019C22.8161 26.2362 22.6668 25.8759 22.6668 25.5002ZM25.5002 19.8335C25.1391 19.8339 24.7918 19.9722 24.5292 20.22C24.2667 20.4679 24.1087 20.8067 24.0875 21.1671C24.0663 21.5276 24.1836 21.8825 24.4154 22.1594C24.6471 22.4363 24.9759 22.6143 25.3344 22.6569L25.503 22.6668C25.8641 22.6664 26.2114 22.5282 26.4739 22.2803C26.7365 22.0324 26.8945 21.6936 26.9157 21.3332C26.9368 20.9727 26.8195 20.6178 26.5878 20.3409C26.356 20.064 26.0273 19.8861 25.6687 19.8434L25.5002 19.8335Z" fill="white"/>
</g>
<defs>
<clipPath id="clip0_3006_2459">
<rect width="34" height="34" fill="white"/>
</clipPath>
</defs>
</svg>
