<svg width="34" height="34" viewBox="0 0 34 34" fill="none" xmlns="http://www.w3.org/2000/svg">
<path fill-rule="evenodd" clip-rule="evenodd" d="M26.9167 7.06789C26.9167 7.8589 27.5966 8.47148 28.2887 8.85451C28.5184 8.98161 28.7312 9.14109 28.9201 9.33001C29.4515 9.86136 29.75 10.582 29.75 11.3335V25.5001C29.75 26.2516 29.4515 26.9723 28.9201 27.5036C28.3888 28.035 27.6681 28.3335 26.9167 28.3335H7.08333C6.33189 28.3335 5.61122 28.035 5.07986 27.5036C4.54851 26.9723 4.25 26.2516 4.25 25.5001V11.3335C4.25 9.85306 5.43292 8.51006 6.81842 8.11481L22.4017 3.66223C22.9289 3.51157 23.4838 3.48535 24.0228 3.58562C24.5618 3.6859 25.0701 3.90993 25.5078 4.24008C25.9455 4.57023 26.3005 4.99748 26.545 5.48819C26.7895 5.97889 26.9167 6.51966 26.9167 7.06789ZM21.9583 16.2918C21.3947 16.2918 20.8542 16.5157 20.4557 16.9142C20.0572 17.3127 19.8333 17.8532 19.8333 18.4168C19.8333 18.9804 20.0572 19.5209 20.4557 19.9194C20.8542 20.3179 21.3947 20.5418 21.9583 20.5418C22.5219 20.5418 23.0624 20.3179 23.4609 19.9194C23.8594 19.5209 24.0833 18.9804 24.0833 18.4168C24.0833 17.8532 23.8594 17.3127 23.4609 16.9142C23.0624 16.5157 22.5219 16.2918 21.9583 16.2918ZM24.0833 7.06789C24.0834 6.9679 24.0623 6.86901 24.0214 6.77776C23.9805 6.6865 23.9208 6.60493 23.8461 6.53842C23.7714 6.47191 23.6835 6.42196 23.5882 6.39187C23.4928 6.36177 23.3922 6.35221 23.2928 6.36381L23.1795 6.38648L22.7833 6.49968C21.6462 6.82457 21.8808 8.50014 23.0635 8.50014C23.6267 8.50014 24.0833 8.04354 24.0833 7.48029V7.06789Z" fill="white"/>
</svg>
