<svg width="34" height="34" viewBox="0 0 34 34" fill="none" xmlns="http://www.w3.org/2000/svg">
<path d="M13.4585 17C16.9793 17 19.8335 14.1458 19.8335 10.625C19.8335 7.10419 16.9793 4.25 13.4585 4.25C9.93768 4.25 7.0835 7.10419 7.0835 10.625C7.0835 14.1458 9.93768 17 13.4585 17ZM29.7502 12.75C29.7502 15.0973 27.8474 17 25.5002 17C23.1529 17 21.2502 15.0973 21.2502 12.75C21.2502 10.4028 23.1529 8.5 25.5002 8.5C27.8474 8.5 29.7502 10.4028 29.7502 12.75ZM13.4585 18.4167C16.2813 18.4167 18.8485 19.2787 20.7366 20.4941C21.6807 21.1018 22.4903 21.8206 23.0772 22.6045C23.6548 23.376 24.0835 24.3033 24.0835 25.2976C24.0835 26.3664 23.5888 27.2249 22.8588 27.8433C22.1721 28.4247 21.2776 28.8013 20.351 29.0601C18.4919 29.5794 16.0313 29.75 13.4585 29.75C10.8856 29.75 8.42505 29.5794 6.56604 29.0601C5.63939 28.8013 4.74481 28.4247 4.05825 27.8433C3.32814 27.2249 2.8335 26.3664 2.8335 25.2976C2.8335 24.3033 3.26215 23.376 3.8398 22.6045C4.42674 21.8206 5.23635 21.1018 6.18043 20.4941C8.06855 19.2787 10.6356 18.4167 13.4585 18.4167ZM25.5002 18.4167C27.371 18.4167 29.068 19.0346 30.3174 19.906C31.4813 20.7175 32.5835 21.9987 32.5835 23.4761C32.5835 24.3067 32.2256 24.9952 31.6792 25.4965C31.1736 25.9603 30.5337 26.2443 29.9175 26.4309C28.6858 26.8036 27.0982 26.9167 25.5002 26.9167L25.2123 26.9154C25.3958 26.4241 25.5002 25.8835 25.5002 25.2976C25.5002 23.8959 24.9005 22.676 24.2111 21.7553C23.5231 20.8363 22.611 20.0284 21.5916 19.3602C22.7052 18.7877 24.0505 18.4167 25.5002 18.4167Z" fill="white"/>
</svg>
