<svg width="34" height="34" viewBox="0 0 34 34" fill="none" xmlns="http://www.w3.org/2000/svg">
<path d="M17.0002 2.8335C24.8244 2.8335 31.1668 9.17591 31.1668 17.0002C31.1668 24.8244 24.8244 31.1668 17.0002 31.1668H5.66683C4.91538 31.1668 4.19471 30.8683 3.66336 30.337C3.13201 29.8056 2.8335 29.0849 2.8335 28.3335V17.0002C2.8335 9.17591 9.17591 2.8335 17.0002 2.8335ZM17.0002 19.8335H12.7502C12.3744 19.8335 12.0141 19.9828 11.7484 20.2484C11.4828 20.5141 11.3335 20.8744 11.3335 21.2502C11.3335 21.6259 11.4828 21.9862 11.7484 22.2519C12.0141 22.5176 12.3744 22.6668 12.7502 22.6668H17.0002C17.3759 22.6668 17.7362 22.5176 18.0019 22.2519C18.2676 21.9862 18.4168 21.6259 18.4168 21.2502C18.4168 20.8744 18.2676 20.5141 18.0019 20.2484C17.7362 19.9828 17.3759 19.8335 17.0002 19.8335ZM21.2502 14.1668H12.7502C12.3891 14.1672 12.0418 14.3055 11.7792 14.5534C11.5167 14.8012 11.3587 15.14 11.3375 15.5005C11.3163 15.8609 11.4336 16.2159 11.6654 16.4928C11.8971 16.7697 12.2259 16.9476 12.5844 16.9902L12.7502 17.0002H21.2502C21.6112 16.9998 21.9585 16.8615 22.2211 16.6136C22.4837 16.3658 22.6417 16.027 22.6628 15.6665C22.684 15.3061 22.5667 14.9511 22.335 14.6742C22.1032 14.3973 21.7745 14.2194 21.4159 14.1767L21.2502 14.1668Z" fill="white"/>
</svg>
