<svg width="42" height="42" viewBox="0 0 42 42" fill="none" xmlns="http://www.w3.org/2000/svg">
<ellipse cx="21" cy="21.2408" rx="21" ry="20.6016" fill="white"/>
<path fill-rule="evenodd" clip-rule="evenodd" d="M30.9167 11.4973V12.9024C31.6681 12.9024 32.3888 13.1952 32.9201 13.7165C33.4515 14.2378 33.75 14.9448 33.75 15.6819V29.5799C33.75 30.3171 33.4515 31.0241 32.9201 31.5453C32.3888 32.0666 31.6681 32.3595 30.9167 32.3595H11.0833C10.3319 32.3595 9.61122 32.0666 9.07986 31.5453C8.54851 31.0241 8.25 30.3171 8.25 29.5799V15.6819C8.25 14.2296 9.43292 12.9121 10.8184 12.5243L26.4017 8.15622C26.9289 8.00843 27.4838 7.9827 28.0228 8.08107C28.5618 8.17944 29.0701 8.39923 29.5078 8.72311C29.9455 9.047 30.3005 9.46614 30.545 9.94754C30.7895 10.4289 30.9167 10.9594 30.9167 11.4973ZM25.9583 20.5462C25.3947 20.5462 24.8542 20.7659 24.4557 21.1568C24.0572 21.5478 23.8333 22.078 23.8333 22.6309C23.8333 23.1838 24.0572 23.7141 24.4557 24.105C24.8542 24.496 25.3947 24.7156 25.9583 24.7156C26.5219 24.7156 27.0624 24.496 27.4609 24.105C27.8594 23.7141 28.0833 23.1838 28.0833 22.6309C28.0833 22.078 27.8594 21.5478 27.4609 21.1568C27.0624 20.7659 26.5219 20.5462 25.9583 20.5462ZM28.0833 11.4973C28.0834 11.3992 28.0623 11.3022 28.0214 11.2126C27.9805 11.1231 27.9208 11.0431 27.8461 10.9779C27.7714 10.9126 27.6835 10.8636 27.5882 10.8341C27.4928 10.8046 27.3922 10.7952 27.2928 10.8066L27.1795 10.8288L19.7817 12.9024H28.0833V11.4973Z" fill="#09244B"/>
</svg>
