<svg width="34" height="34" viewBox="0 0 34 34" fill="none" xmlns="http://www.w3.org/2000/svg">
<g clip-path="url(#clip0_2049_2058)">
<path d="M18.7 3.64375C18.2096 3.28674 17.613 3.09375 17 3.09375C16.387 3.09375 15.7904 3.28674 15.3 3.64375L5.38333 10.8625C5.03144 11.1187 4.74583 11.4508 4.54912 11.8327C4.35241 12.2145 4.25 12.6356 4.25 13.0625V26.125C4.25 26.8543 4.54851 27.5538 5.07986 28.0695C5.61122 28.5853 6.33189 28.875 7.08333 28.875H12.6083C13.0216 28.875 13.418 28.7156 13.7102 28.432C14.0025 28.1484 14.1667 27.7636 14.1667 27.3625V20.625C14.1667 19.8957 14.4652 19.1962 14.9965 18.6805C15.5279 18.1647 16.2486 17.875 17 17.875C17.7514 17.875 18.4721 18.1647 19.0035 18.6805C19.5348 19.1962 19.8333 19.8957 19.8333 20.625V27.3625C19.8333 27.7636 19.9975 28.1484 20.2898 28.432C20.582 28.7156 20.9784 28.875 21.3917 28.875H26.9167C27.6681 28.875 28.3888 28.5853 28.9201 28.0695C29.4515 27.5538 29.75 26.8543 29.75 26.125V13.0625C29.75 12.6356 29.6476 12.2145 29.4509 11.8327C29.2542 11.4508 28.9686 11.1187 28.6167 10.8625L18.7 3.64375Z" fill="#09244B"/>
</g>
<g clip-path="url(#clip1_2049_2058)">
<path d="M18.7 4.64375C18.2096 4.28674 17.613 4.09375 17 4.09375C16.387 4.09375 15.7904 4.28674 15.3 4.64375L5.38333 11.8625C5.03144 12.1187 4.74583 12.4508 4.54912 12.8327C4.35241 13.2145 4.25 13.6356 4.25 14.0625V27.125C4.25 27.8543 4.54851 28.5538 5.07986 29.0695C5.61122 29.5853 6.33189 29.875 7.08333 29.875H12.6083C13.0216 29.875 13.418 29.7156 13.7102 29.432C14.0025 29.1484 14.1667 28.7636 14.1667 28.3625V21.625C14.1667 20.8957 14.4652 20.1962 14.9965 19.6805C15.5279 19.1647 16.2486 18.875 17 18.875C17.7514 18.875 18.4721 19.1647 19.0035 19.6805C19.5348 20.1962 19.8333 20.8957 19.8333 21.625V28.3625C19.8333 28.7636 19.9975 29.1484 20.2898 29.432C20.582 29.7156 20.9784 29.875 21.3917 29.875H26.9167C27.6681 29.875 28.3888 29.5853 28.9201 29.0695C29.4515 28.5538 29.75 27.8543 29.75 27.125V14.0625C29.75 13.6356 29.6476 13.2145 29.4509 12.8327C29.2542 12.4508 28.9686 12.1187 28.6167 11.8625L18.7 4.64375Z" fill="white"/>
</g>
<defs>
<clipPath id="clip0_2049_2058">
<rect width="34" height="33" rx="16.5" fill="white"/>
</clipPath>
<clipPath id="clip1_2049_2058">
<rect y="1" width="34" height="33" rx="16.5" fill="white"/>
</clipPath>
</defs>
</svg>
