<svg width="50" height="50" viewBox="0 0 50 50" fill="none" xmlns="http://www.w3.org/2000/svg">
<circle cx="25.1538" cy="25.1538" r="21.1538" fill="#FF0000"/>
<circle cx="25" cy="25" r="23.5" stroke="white" stroke-width="3"/>
<path fill-rule="evenodd" clip-rule="evenodd" d="M25.2204 26.9571L32.2916 34.0284C32.5274 34.2561 32.8431 34.3821 33.1709 34.3792C33.4986 34.3764 33.8121 34.2449 34.0439 34.0132C34.2756 33.7814 34.4071 33.4679 34.41 33.1401C34.4128 32.8124 34.2868 32.4966 34.0591 32.2609L26.9879 25.1896L34.0591 18.1184C34.2868 17.8826 34.4128 17.5669 34.41 17.2391C34.4071 16.9114 34.2756 16.5979 34.0439 16.3661C33.8121 16.1344 33.4986 16.0029 33.1709 16C32.8431 15.9972 32.5274 16.1232 32.2916 16.3509L25.2204 23.4221L18.1491 16.3509C17.9123 16.1288 17.5984 16.0076 17.2738 16.0129C16.9492 16.0181 16.6394 16.1495 16.4099 16.3791C16.1804 16.6088 16.0493 16.9187 16.0442 17.2433C16.0392 17.5679 16.1606 17.8817 16.3829 18.1184L23.4529 25.1896L16.3816 32.2609C16.2622 32.3762 16.167 32.5141 16.1015 32.6666C16.036 32.8191 16.0015 32.9832 16 33.1491C15.9986 33.3151 16.0302 33.4797 16.0931 33.6333C16.1559 33.787 16.2488 33.9265 16.3661 34.0439C16.4835 34.1612 16.623 34.2541 16.7767 34.3169C16.9303 34.3798 17.0949 34.4114 17.2609 34.41C17.4268 34.4085 17.5909 34.374 17.7434 34.3085C17.8959 34.243 18.0338 34.1478 18.1491 34.0284L25.2204 26.9571Z" fill="white"/>
</svg>
