<svg width="7" height="12" viewBox="0 0 7 12" fill="none" xmlns="http://www.w3.org/2000/svg">
<path fill-rule="evenodd" clip-rule="evenodd" d="M0.43705 10.6472C0.196743 10.3972 0.0636778 10.06 0.0671169 9.70982C0.0705559 9.35964 0.210218 9.02514 0.455389 8.77987L3.22918 6.00579L0.510405 3.17778C0.391309 3.05399 0.297294 2.90747 0.233728 2.74659C0.170163 2.58572 0.138292 2.41364 0.139936 2.24018C0.141579 2.06671 0.176704 1.89527 0.243306 1.73562C0.309908 1.57598 0.406681 1.43127 0.528103 1.30975C0.649523 1.18823 0.793214 1.09229 0.950969 1.02739C1.10872 0.962497 1.27745 0.929923 1.44752 0.931532C1.6176 0.93314 1.78568 0.968901 1.94218 1.03677C2.09867 1.10464 2.24052 1.20328 2.35962 1.32708L5.98464 5.09908C6.22495 5.34912 6.35801 5.6863 6.35458 6.03649C6.35114 6.38667 6.21148 6.72117 5.9663 6.96644L2.26791 10.6652C2.02266 10.9104 1.69202 11.0463 1.34868 11.0429C1.00535 11.0395 0.677431 10.8972 0.43705 10.6472Z" fill="#09244B"/>
</svg>
