<svg width="11" height="11" viewBox="0 0 11 11" fill="none" xmlns="http://www.w3.org/2000/svg">
<path d="M4.68752 9.83333C4.68752 10.0488 4.77312 10.2555 4.9255 10.4079C5.07787 10.5602 5.28453 10.6458 5.50002 10.6458C5.71551 10.6458 5.92217 10.5602 6.07454 10.4079C6.22692 10.2555 6.31252 10.0488 6.31252 9.83333V6.3125H9.83335C10.0488 6.3125 10.2555 6.2269 10.4079 6.07452C10.5603 5.92215 10.6459 5.71549 10.6459 5.5C10.6459 5.28451 10.5603 5.07785 10.4079 4.92547C10.2555 4.7731 10.0488 4.6875 9.83335 4.6875H6.31252V1.16666C6.31252 0.951176 6.22692 0.744513 6.07454 0.59214C5.92217 0.439767 5.71551 0.354164 5.50002 0.354164C5.28453 0.354164 5.07787 0.439767 4.9255 0.59214C4.77312 0.744513 4.68752 0.951176 4.68752 1.16666V4.6875H1.16669C0.951199 4.6875 0.744536 4.7731 0.592163 4.92547C0.439789 5.07785 0.354187 5.28451 0.354187 5.5C0.354187 5.71549 0.439789 5.92215 0.592163 6.07452C0.744536 6.2269 0.951199 6.3125 1.16669 6.3125H4.68752V9.83333Z" fill="white"/>
</svg>
