<svg width="89" height="85" viewBox="0 0 89 85" fill="none" xmlns="http://www.w3.org/2000/svg">
<ellipse cx="24.552" cy="26.2434" rx="24.552" ry="26.2434" transform="matrix(0.163081 0.984318 -0.98211 0.197924 65.0574 12.049)" fill="#5243E6"/>
<path style="mix-blend-mode:multiply" d="M81.2111 43.1028C80.8233 39.6771 76.9949 37.4559 73.2604 38.0462L13.1082 47.555C11.3161 47.8397 9.67179 48.7654 8.53666 50.1287C7.40152 51.4919 6.86842 53.1812 7.05452 54.8253L6.4919 56.5819C6.87965 60.0075 11.4802 66.7036 15.2089 66.1142L75.3379 56.6091C82.0763 55.5439 81.2111 43.1028 81.2111 43.1028Z" fill="url(#paint0_linear_1014_560)"/>
<path d="M83.1679 41.8294L80.1641 42.3043L78.5384 27.942L81.5422 27.4672C83.2553 32.0074 83.811 36.9168 83.1679 41.8294Z" fill="url(#paint1_linear_1014_560)"/>
<path d="M46.6347 24.4032C50.0197 23.906 65.4531 21.2281 74.3011 20.8095C77.648 20.654 77.3113 21.3299 78.8025 22.1446C78.7527 22.5911 77.9971 22.5914 78.3362 22.9276L80.7238 25.9776C80.6395 26.5226 80.6184 27.0705 80.6609 27.6119L78.985 27.8768L80.6107 42.239L81.6661 42.0722C81.8837 42.6293 82.1871 43.15 82.5672 43.6191L81.0854 47.2158C80.8337 47.6508 81.5419 47.4414 81.6886 47.8514C80.4311 49.1006 80.9277 49.6285 77.6632 50.5127C69.0332 52.857 53.5468 55.0668 50.1703 55.6385C49.4744 55.7485 45.1748 55.9354 39.6224 56.8402C27.3528 58.8393 8.6446 61.7371 7.55221 60.9514C5.62468 59.5668 2.78214 34.4541 4.33396 32.5195C5.21441 31.4327 23.9377 28.408 36.1974 26.5296C41.732 25.6764 45.9376 24.5026 46.6347 24.4032Z" fill="url(#paint2_linear_1014_560)"/>
<path d="M59.7276 44.425C59.7496 46.1847 59.5921 47.9535 59.2572 49.7081L58.3587 49.6444C58.7618 47.868 58.9541 46.069 58.932 44.28C58.8006 40.3552 58.3601 36.4636 57.614 32.636C57.2375 30.903 56.6518 29.2269 55.8678 27.6382L56.7211 27.303C57.4357 28.8914 57.9811 30.5493 58.3499 32.2543C59.1159 36.2577 59.5762 40.3244 59.7276 44.425Z" fill="url(#paint3_linear_1014_560)"/>
<g style="mix-blend-mode:multiply">
<path d="M62.6566 37.7677C62.6566 37.7677 63.7611 37.409 65.4289 37.0208C66.262 36.8187 67.2411 36.6044 68.3097 36.3975C68.8374 36.3141 69.3777 36.1854 69.928 36.093L71.6039 35.8281C72.1838 35.7364 72.7289 35.6502 73.2798 35.5632C73.8307 35.4761 74.3794 35.4218 74.9089 35.3544C75.9685 35.2248 76.9546 35.123 77.8264 35.0556C79.5226 34.9174 80.668 34.9205 80.668 34.9205C80.668 34.9205 79.5629 35.2738 77.8957 35.6673C77.0569 35.8703 76.0835 36.0838 75.0149 36.2906C74.4872 36.374 73.9527 36.5018 73.396 36.5898C72.8393 36.6778 72.2826 36.7658 71.7201 36.8547C71.1576 36.9436 70.6009 37.0316 70.0442 37.1196C69.4875 37.2076 68.9446 37.261 68.4157 37.3338C67.3613 37.4571 66.3694 37.5598 65.4976 37.6272C63.8014 37.7654 62.6566 37.7677 62.6566 37.7677Z" fill="#F2F2F2"/>
<ellipse cx="34.5262" cy="35.5555" rx="34.5262" ry="35.5555" transform="matrix(0.162971 0.984342 -0.982096 0.198015 72.6472 1.18689)" fill="#8D84E1"/>
<path d="M51.1664 54.1383C50.396 54.2601 45.7688 54.0495 39.9059 55.1387C27.4193 57.4699 8.81945 60.7946 7.68538 59.9776C5.6372 58.5416 3.2635 34.768 4.67486 33.3808C5.7535 32.3331 24.3158 29.7346 36.8483 28.0729C42.7455 27.2869 47.1484 25.6217 47.9311 25.5034C51.2293 25.0253 66.2346 21.5704 74.8408 21.1304C80.4533 20.8442 79.8358 21.8406 81.4681 24.8909C83.8831 29.4093 85.1789 39.0589 83.6694 44.3384C82.5913 48.0879 83.5897 48.5527 78.1108 50.0198C69.7059 52.2906 54.4303 53.6224 51.1664 54.1383Z" fill="url(#paint4_radial_1014_560)"/>
<path d="M68.2047 44.8012L81.1107 39.1929C81.6906 39.1012 81.9853 37.1162 81.7192 34.7651C81.453 32.4139 80.7504 30.5866 80.1473 30.6819L66.4484 29.2847L68.2047 44.8012Z" fill="url(#paint5_linear_1014_560)"/>
</g>
<path d="M66.9787 49.2996C67.372 47.4126 67.6125 45.5103 67.6981 43.6089C67.8636 39.1784 67.3668 34.7892 66.2217 30.5659C65.7171 28.7577 65.0619 26.9969 64.262 25.2987C64.1489 25.0067 63.9848 24.7366 63.776 24.4984L63.8049 24.4938C63.8049 24.4938 64.416 24.2077 64.598 24.3035C64.8671 24.5346 65.0631 24.8299 65.1673 25.161C65.9672 26.8592 66.6223 28.62 67.127 30.4282C68.272 34.6515 68.7688 39.0408 68.6033 43.4713C68.5177 45.3726 68.2772 47.2749 67.8839 49.1619C67.8541 49.5134 67.7309 49.8585 67.5254 50.1662C67.3705 50.3098 66.7173 50.2235 66.7173 50.2235L66.6883 50.2281C66.8381 49.9319 66.9362 49.6183 66.9787 49.2996Z" fill="url(#paint6_linear_1014_560)"/>
<path d="M59.7265 44.425C59.5752 40.3245 59.1149 36.2578 58.3489 32.2544C57.9801 30.5493 57.4347 28.8915 56.7201 27.3031L63.7751 24.4985C63.984 24.7367 64.1481 25.0069 64.2612 25.2988C65.0611 26.997 65.7162 28.7578 66.2209 30.566C67.3659 34.7893 67.8628 39.1786 67.6972 43.6091C67.6116 45.5104 67.3711 47.4127 66.9779 49.2997C66.9338 49.6149 66.8353 49.9249 66.6863 50.2176L59.2562 49.7082C59.5911 47.9536 59.7485 46.1847 59.7265 44.425Z" fill="url(#paint7_linear_1014_560)"/>
<path d="M49.1008 53.4902C47.4818 53.7414 45.8523 53.8723 44.2282 53.8814L43.3247 52.4702L43.3109 52.3479L53.5707 51.1051L65.9839 51.2599C65.9839 51.2599 62.8787 51.9349 58.3873 52.4608C55.5384 52.792 51.6106 53.0826 49.1008 53.4902Z" fill="url(#paint8_linear_1014_560)"/>
<path d="M40.7339 29.5811L41.2713 27.7581C42.0603 27.5846 43.6968 27.1797 46.0807 26.8083C48.5917 26.4114 52.4234 25.4808 55.2638 24.9181C59.7143 24.0305 62.8604 23.7172 62.8604 23.7172L50.9181 27.7221L40.7426 29.7097L40.7339 29.5811Z" fill="url(#paint9_linear_1014_560)"/>
<path style="mix-blend-mode:screen" d="M64.2616 25.2988C65.0615 26.997 65.7166 28.7578 66.2213 30.5659C66.492 31.4978 66.7306 32.5105 66.9334 33.5721C64.9715 36.6816 61.235 40.5914 59.6458 42.1962C59.419 38.8498 58.992 35.5299 58.3667 32.2516C57.9979 30.5465 57.4525 28.8887 56.7379 27.3003L63.7929 24.4957C63.9958 24.7358 64.154 25.0069 64.2616 25.2988Z" fill="url(#paint10_linear_1014_560)"/>
<path d="M80.7314 43.2976C80.7314 43.2976 81.6534 47.9492 76.0445 49.3448C70.3057 50.7934 65.7075 51.8885 65.7075 51.8885C65.7075 51.8885 78.115 47.8209 80.7314 43.2976Z" fill="url(#paint11_linear_1014_560)"/>
<path d="M78.2821 26.8781C78.296 26.7405 80.252 21.9102 72.9949 22.4076C67.1358 22.7924 62.4557 23.164 62.4557 23.164C64.2703 23.1858 74.4912 23.0591 78.2821 26.8781Z" fill="url(#paint12_linear_1014_560)"/>
<path d="M62.2316 23.8925C62.2316 23.8925 61.7399 22.4163 60.3619 22.6016C58.984 22.7869 56.3769 24.7855 58.1434 24.5387C59.9099 24.292 61.7196 24.1142 62.2316 23.8925Z" fill="url(#paint13_linear_1014_560)"/>
<path d="M58.6212 19.0596C59.1346 19.3196 60.4859 22.2356 60.4859 22.2356C60.7633 22.809 60.2185 23.1063 59.745 23.2515L57.8431 19.0689C57.967 19.0109 58.102 18.9798 58.2372 18.9782C58.3724 18.9766 58.5039 19.0045 58.6212 19.0596Z" fill="url(#paint14_linear_1014_560)"/>
<path d="M59.7559 23.2496C59.5675 23.3087 59.3748 23.3518 59.1802 23.3785L57.5303 19.2319C57.6233 19.1667 57.7243 19.1125 57.8308 19.0707L59.7559 23.2496Z" fill="url(#paint15_linear_1014_560)"/>
<path d="M50.0328 24.5384C50.0246 24.4514 49.9795 24.3732 49.9073 24.3206C49.8351 24.2681 49.7415 24.2454 49.6469 24.2575L46.7472 24.7159C46.6532 24.7336 46.568 24.7845 46.51 24.8576C46.452 24.9308 46.4259 25.0203 46.4373 25.1068L50.0328 24.5384Z" fill="#595959"/>
<path d="M53.4296 54.5493C53.4352 54.5919 53.4317 54.6357 53.4191 54.6781C53.4065 54.7205 53.3852 54.7608 53.3563 54.7966C53.3275 54.8324 53.2917 54.863 53.251 54.8868C53.2103 54.9105 53.1655 54.9268 53.1191 54.9349L50.2194 55.3932C50.1729 55.3999 50.126 55.398 50.0815 55.3878C50.0369 55.3775 49.9956 55.3591 49.9598 55.3335C49.924 55.3079 49.8945 55.2757 49.8729 55.2387C49.8513 55.2016 49.8381 55.1605 49.8341 55.1177L53.4296 54.5493Z" fill="#595959"/>
<path d="M38.7186 30.7011C39.5421 30.5709 40.3307 30.4462 41.0904 30.3262L43.5042 51.6514C42.7446 51.7715 41.9559 51.8962 41.1325 52.0264C39.6943 52.2537 42.4455 54.813 42.3981 54.8639C30.2715 57.241 8.73659 60.7698 7.67101 60.0123C5.64867 58.5723 3.27063 34.7994 4.66049 33.4156C5.62498 32.4455 21.512 30.0207 33.691 28.5233L38.8056 27.7148C38.8056 27.7148 37.2869 30.9328 38.7186 30.7011Z" fill="url(#paint16_linear_1014_560)"/>
<path d="M5.90342 42.884C6.02231 42.8652 6.14129 42.8902 6.23458 42.9535C6.32786 43.0167 6.38795 43.1133 6.40183 43.2221L7.1683 49.9936C7.18075 50.1036 7.14507 50.2167 7.0691 50.3079C6.99313 50.3991 6.8831 50.461 6.76321 50.4799C6.64417 50.4973 6.52564 50.4709 6.43333 50.4065C6.34101 50.342 6.28234 50.2447 6.27 50.1356L5.50474 43.3748C5.4978 43.3204 5.5026 43.2646 5.51889 43.2105C5.53517 43.1564 5.56261 43.1051 5.59963 43.0596C5.63665 43.014 5.68255 42.975 5.73467 42.9449C5.7868 42.9148 5.84413 42.8941 5.90342 42.884Z" fill="#08080A"/>
<path style="mix-blend-mode:multiply" d="M56.2158 28.2655L56.1399 27.5953L6.24599 35.4824L6.32185 36.1526L56.2158 28.2655Z" fill="url(#paint17_linear_1014_560)"/>
<path style="mix-blend-mode:multiply" d="M58.6303 49.6013L58.5544 48.931L8.66054 56.8181L8.7364 57.4884L58.6303 49.6013Z" fill="url(#paint18_linear_1014_560)"/>
<path style="mix-blend-mode:multiply" d="M58.6303 49.6013L58.5544 48.9311L8.66054 56.8182L8.7364 57.4884L58.6303 49.6013Z" fill="url(#paint19_linear_1014_560)"/>
<path d="M43.4919 51.648L41.078 30.3227C46.3493 29.4894 54.5779 28.1886 54.5779 28.1886C54.5779 28.1886 56.8052 30.5005 57.6762 38.5604C58.5472 46.6203 56.9936 49.5299 56.9936 49.5299C56.9936 49.5299 47.6341 51.0094 41.1219 52.0388C41.9546 51.8856 42.7438 51.7662 43.4919 51.648Z" fill="url(#paint20_linear_1014_560)"/>
<path d="M53.6421 31.8126C53.961 31.7622 54.2027 31.5508 54.1792 31.3433C54.1551 31.1305 53.8813 31.006 53.5566 31.0573L8.9049 38.1157C8.58596 38.1662 8.34367 38.3723 8.36775 38.5851C8.39124 38.7925 8.67145 38.9215 8.99039 38.8711L53.6421 31.8126Z" fill="url(#paint21_linear_1014_560)"/>
<path d="M53.8159 33.3446C54.1348 33.2942 54.3765 33.0827 54.3531 32.8753C54.3296 32.6678 54.0552 32.538 53.7304 32.5893L9.07872 39.6477C8.75978 39.6981 8.5181 39.9096 8.54158 40.1171C8.56506 40.3245 8.84528 40.4535 9.16422 40.4031L53.8159 33.3446Z" fill="url(#paint22_linear_1014_560)"/>
<path d="M53.9893 34.8766C54.3082 34.8262 54.5499 34.6147 54.5264 34.4073C54.5029 34.1998 54.2285 34.0699 53.9038 34.1213L9.25206 41.1797C8.93312 41.2301 8.69144 41.4416 8.71492 41.6491C8.73841 41.8565 9.01862 41.9855 9.33756 41.9351L53.9893 34.8766Z" fill="url(#paint23_linear_1014_560)"/>
<path d="M55.0296 44.0737C55.3486 44.0233 55.5897 43.8065 55.5662 43.5991C55.5427 43.3916 55.2683 43.2617 54.9435 43.313L10.2919 50.3715C9.97292 50.4219 9.73124 50.6334 9.75472 50.8408C9.7782 51.0483 10.059 51.1826 10.378 51.1322L55.0296 44.0737Z" fill="url(#paint24_linear_1014_560)"/>
<path d="M55.2032 45.6057C55.5222 45.5553 55.7639 45.3438 55.7404 45.1364C55.7163 44.9236 55.4419 44.7937 55.1171 44.845L10.4654 51.9035C10.1465 51.9539 9.90482 52.1654 9.9289 52.3781C9.95239 52.5856 10.2326 52.7146 10.5515 52.6641L55.2032 45.6057Z" fill="url(#paint25_linear_1014_560)"/>
<path d="M55.3759 47.1324C55.6948 47.082 55.9371 46.8758 55.9136 46.6684C55.8895 46.4556 55.6157 46.331 55.291 46.3824L10.6393 53.4408C10.3203 53.4912 10.078 53.6974 10.1021 53.9102C10.1256 54.1176 10.4052 54.2413 10.7242 54.1908L55.3759 47.1324Z" fill="url(#paint26_linear_1014_560)"/>
<path d="M54.3701 38.2492C54.689 38.1987 54.9307 37.9873 54.9073 37.7798C54.8838 37.5724 54.6093 37.4425 54.2846 37.4938L9.63292 44.5523C9.31398 44.6027 9.0723 44.8142 9.09578 45.0216C9.11926 45.2291 9.39948 45.358 9.71842 45.3076L54.3701 38.2492Z" fill="url(#paint27_linear_1014_560)"/>
<path d="M54.5434 39.781C54.8624 39.7306 55.1041 39.5191 55.0806 39.3116C55.0571 39.1042 54.7827 38.9743 54.4579 39.0256L9.80626 46.0841C9.48732 46.1345 9.24564 46.346 9.26912 46.5534C9.2926 46.7609 9.57282 46.8898 9.89176 46.8394L54.5434 39.781Z" fill="url(#paint28_linear_1014_560)"/>
<path d="M54.7173 41.313C55.0362 41.2625 55.2785 41.0564 55.2544 40.8436C55.2309 40.6362 54.9565 40.5063 54.6318 40.5576L9.98009 47.616C9.66115 47.6665 9.41947 47.8779 9.44295 48.0854C9.46703 48.2982 9.74665 48.4218 10.0656 48.3714L54.7173 41.313Z" fill="url(#paint29_linear_1014_560)"/>
<path d="M65.382 51.3065C65.382 51.3065 65.2417 52.8826 63.8716 53.1371C62.5014 53.3916 59.5409 52.2678 61.2996 51.9519C63.0582 51.6359 64.8387 51.2516 65.382 51.3065Z" fill="url(#paint30_linear_1014_560)"/>
<path d="M62.9961 57.0872C63.4337 56.6769 64.0889 53.4437 64.0889 53.4437C64.2296 52.8097 63.643 52.6858 63.1539 52.6927L62.2433 57.3199C62.3757 57.3392 62.5133 57.3281 62.6445 57.2876C62.7756 57.2471 62.8962 57.1783 62.9961 57.0872Z" fill="url(#paint31_linear_1014_560)"/>
<path d="M63.1309 52.6964C62.936 52.7012 62.7408 52.7194 62.5468 52.7509L61.9061 57.2596C62.0086 57.2932 62.1161 57.3145 62.2261 57.3227L63.1309 52.6964Z" fill="url(#paint32_linear_1014_560)"/>
<path d="M52.8234 38.9701C52.487 39.0233 52.261 39.2164 52.2827 39.4083C52.3044 39.6002 52.5881 39.7073 52.9012 39.6578C53.2144 39.6083 53.4637 39.4116 53.4425 39.225C53.4214 39.0384 53.154 38.9178 52.8234 38.9701Z" fill="url(#paint33_linear_1014_560)"/>
<path d="M52.8447 39.2104L44.9158 40.5017L44.9303 40.6295L52.8682 39.418L52.8447 39.2104Z" fill="black"/>
<path d="M80.7193 25.9351C80.7193 25.9351 79.4101 22.2436 77.6433 21.7053C75.8765 21.167 75.4329 21.941 75.4329 21.941C75.4329 21.941 77.2878 25.2918 80.7193 25.9351Z" fill="url(#paint34_linear_1014_560)"/>
<path d="M75.9095 22.1417C76.4402 21.9093 77.0288 21.8468 77.5776 21.9646C78.506 22.2402 79.6247 23.9368 80.1487 25.0722C78.019 25.0298 76.4453 22.9125 75.9095 22.1417Z" fill="url(#paint35_linear_1014_560)"/>
<path style="mix-blend-mode:screen" d="M77.5435 23.275C77.4565 23.2888 77.3387 23.1341 77.278 22.9109C77.2173 22.6877 77.2298 22.4853 77.333 22.4582C77.4362 22.4311 77.5378 22.5991 77.5985 22.8223C77.6592 23.0456 77.6293 23.2506 77.5435 23.275Z" fill="url(#paint36_linear_1014_560)"/>
<path style="mix-blend-mode:screen" d="M77.2198 23.44C77.0746 23.463 76.887 23.2165 76.792 22.847C76.6969 22.4776 76.7137 22.1555 76.8809 22.1182C77.0482 22.0809 77.2079 22.3427 77.3023 22.7068C77.3968 23.0709 77.3574 23.402 77.2198 23.44Z" fill="url(#paint37_linear_1014_560)"/>
<path d="M82.7532 43.8984C82.7532 43.8984 82.3117 47.872 80.7261 48.9349C79.1405 49.9977 78.5409 49.394 78.5409 49.394C78.5409 49.394 79.5854 45.5849 82.7532 43.8984Z" fill="url(#paint38_linear_1014_560)"/>
<path d="M78.9563 49.0522C79.5196 49.1142 80.1019 48.9935 80.6058 48.7102C81.4396 48.1506 82.1423 46.1715 82.3948 44.908C80.3493 45.6103 79.3013 48.1367 78.9563 49.0522Z" fill="url(#paint39_linear_1014_560)"/>
<path style="mix-blend-mode:screen" d="M80.28 47.4514C80.193 47.4651 80.1137 47.6509 80.1048 47.8852C80.0959 48.1194 80.1529 48.3107 80.2585 48.3049C80.3641 48.299 80.4248 48.1053 80.4337 47.8711C80.4426 47.6368 80.3682 47.4483 80.28 47.4514Z" fill="url(#paint40_linear_1014_560)"/>
<path style="mix-blend-mode:screen" d="M79.9311 47.393C79.7858 47.416 79.6597 47.7121 79.6502 48.098C79.6406 48.484 79.7284 48.7896 79.8987 48.7789C80.069 48.7682 80.1637 48.4555 80.1738 48.0748C80.1839 47.6942 80.0741 47.4029 79.9311 47.393Z" fill="url(#paint41_linear_1014_560)"/>
<path d="M37.3724 30.0206L23.1277 32.3536L22.9374 30.6726L37.7585 28.1132L37.3724 30.0206Z" fill="#08080A"/>
<path d="M22.0915 32.436L7.86189 34.9019L8.43791 33.1595L21.8862 30.6221L22.0915 32.436Z" fill="#08080A"/>
<path d="M39.9866 53.1171L25.7239 55.2905L25.9147 56.9767L40.784 54.8428L39.9866 53.1171Z" fill="#08080A"/>
<path d="M24.7061 55.5325L10.4289 57.5783L11.378 59.0797L24.912 57.3517L24.7061 55.5325Z" fill="#08080A"/>
<defs>
<linearGradient id="paint0_linear_1014_560" x1="43.8769" y1="50.0928" x2="45.5489" y2="61.7321" gradientUnits="userSpaceOnUse">
<stop stop-color="#242424"/>
<stop offset="1" stop-color="white"/>
</linearGradient>
<linearGradient id="paint1_linear_1014_560" x1="81.903" y1="42.0294" x2="79.6492" y2="27.7718" gradientUnits="userSpaceOnUse">
<stop/>
<stop offset="1" stop-color="#1B1C1C"/>
</linearGradient>
<linearGradient id="paint2_linear_1014_560" x1="39.4789" y1="57.3112" x2="34.5679" y2="26.2436" gradientUnits="userSpaceOnUse">
<stop stop-color="#D1D1D1"/>
<stop offset="0.17" stop-color="#E5E6E6"/>
<stop offset="0.88" stop-color="#BDBFBE"/>
<stop offset="1" stop-color="#7C807D"/>
</linearGradient>
<linearGradient id="paint3_linear_1014_560" x1="59.4601" y1="49.676" x2="55.9421" y2="27.4207" gradientUnits="userSpaceOnUse">
<stop/>
<stop offset="1" stop-color="#1B1C1C"/>
</linearGradient>
<radialGradient id="paint4_radial_1014_560" cx="0" cy="0" r="1" gradientUnits="userSpaceOnUse" gradientTransform="translate(49.4066 39.1471) rotate(-96.4579) scale(22.6428 45.9633)">
<stop stop-color="white"/>
<stop offset="1" stop-color="#D6D6D6"/>
</radialGradient>
<linearGradient id="paint5_linear_1014_560" x1="67.4532" y1="37.0148" x2="81.7493" y2="35.3966" gradientUnits="userSpaceOnUse">
<stop stop-color="#F7F7F7"/>
<stop offset="1" stop-color="#DBDBDB"/>
</linearGradient>
<linearGradient id="paint6_linear_1014_560" x1="68.2597" y1="50.0826" x2="64.1871" y2="24.3197" gradientUnits="userSpaceOnUse">
<stop/>
<stop offset="1" stop-color="#1B1C1C"/>
</linearGradient>
<linearGradient id="paint7_linear_1014_560" x1="64.1753" y1="50.6145" x2="60.1379" y2="25.0735" gradientUnits="userSpaceOnUse">
<stop stop-color="#363B39"/>
<stop offset="1" stop-color="#0C0D0D"/>
</linearGradient>
<linearGradient id="paint8_linear_1014_560" x1="54.7894" y1="53.1107" x2="54.3911" y2="50.5909" gradientUnits="userSpaceOnUse">
<stop stop-color="#363B39"/>
<stop offset="1"/>
</linearGradient>
<linearGradient id="paint9_linear_1014_560" x1="51.9403" y1="27.9395" x2="51.542" y2="25.4198" gradientUnits="userSpaceOnUse">
<stop stop-color="#363B39"/>
<stop offset="1"/>
</linearGradient>
<linearGradient id="paint10_linear_1014_560" x1="65.9092" y1="37.508" x2="60.3019" y2="31.0965" gradientUnits="userSpaceOnUse">
<stop stop-color="#363B39"/>
<stop offset="1"/>
</linearGradient>
<linearGradient id="paint11_linear_1014_560" x1="88.2156" y1="49.9169" x2="68.6005" y2="45.0046" gradientUnits="userSpaceOnUse">
<stop stop-color="#F7F7F7"/>
<stop offset="1" stop-color="#DBDBDB"/>
</linearGradient>
<linearGradient id="paint12_linear_1014_560" x1="84.9806" y1="17.7949" x2="66.143" y2="27.6469" gradientUnits="userSpaceOnUse">
<stop stop-color="#F7F7F7"/>
<stop offset="1" stop-color="#DBDBDB"/>
</linearGradient>
<linearGradient id="paint13_linear_1014_560" x1="61.7169" y1="24.2987" x2="54.7431" y2="21.4185" gradientUnits="userSpaceOnUse">
<stop stop-color="#363B39"/>
<stop offset="1" stop-color="#1B1C1C"/>
</linearGradient>
<linearGradient id="paint14_linear_1014_560" x1="59.4769" y1="23.2298" x2="58.7787" y2="18.8127" gradientUnits="userSpaceOnUse">
<stop stop-color="#363B39"/>
<stop offset="1" stop-color="#0C0D0D"/>
</linearGradient>
<linearGradient id="paint15_linear_1014_560" x1="58.8902" y1="23.4243" x2="58.193" y2="19.0134" gradientUnits="userSpaceOnUse">
<stop stop-color="#D6D6D6"/>
<stop offset="1" stop-color="white"/>
</linearGradient>
<linearGradient id="paint16_linear_1014_560" x1="25.1156" y1="57.3197" x2="20.9036" y2="30.6746" gradientUnits="userSpaceOnUse">
<stop stop-color="#C2C2C2"/>
<stop offset="0.06" stop-color="#E1E1E1"/>
<stop offset="0.1" stop-color="#F0F0F0"/>
<stop offset="0.2" stop-color="#F5F5F5"/>
<stop offset="0.51" stop-color="#F7F7F7"/>
<stop offset="0.81" stop-color="#F5F5F5"/>
<stop offset="0.9" stop-color="#F0F0F0"/>
<stop offset="0.94" stop-color="#E0E0E0"/>
<stop offset="1" stop-color="#BFBFBF"/>
</linearGradient>
<linearGradient id="paint17_linear_1014_560" x1="31.2688" y1="32.2091" x2="31.1636" y2="31.5435" gradientUnits="userSpaceOnUse">
<stop stop-color="#F7F7F7"/>
<stop offset="0.28" stop-color="white"/>
<stop offset="1"/>
</linearGradient>
<linearGradient id="paint18_linear_1014_560" x1="33.6834" y1="53.5448" x2="33.579" y2="52.8845" gradientUnits="userSpaceOnUse">
<stop stop-color="#7A7A7A"/>
<stop offset="0.72" stop-color="white"/>
<stop offset="1" stop-color="#F7F7F7"/>
</linearGradient>
<linearGradient id="paint19_linear_1014_560" x1="33.6834" y1="53.5449" x2="33.579" y2="52.8846" gradientUnits="userSpaceOnUse">
<stop stop-color="#7A7A7A"/>
<stop offset="0.72" stop-color="white"/>
<stop offset="1" stop-color="#F7F7F7"/>
</linearGradient>
<linearGradient id="paint20_linear_1014_560" x1="57.6872" y1="38.5533" x2="43.5135" y2="40.1576" gradientUnits="userSpaceOnUse">
<stop stop-color="#DBDBDB"/>
<stop offset="1" stop-color="#F7F7F7"/>
</linearGradient>
<linearGradient id="paint21_linear_1014_560" x1="31.1959" y1="34.592" x2="31.3145" y2="35.3421" gradientUnits="userSpaceOnUse">
<stop stop-color="#F7F7F7"/>
<stop offset="1" stop-color="#DBDBDB"/>
</linearGradient>
<linearGradient id="paint22_linear_1014_560" x1="31.3698" y1="36.124" x2="31.4883" y2="36.8741" gradientUnits="userSpaceOnUse">
<stop stop-color="#F7F7F7"/>
<stop offset="1" stop-color="#DBDBDB"/>
</linearGradient>
<linearGradient id="paint23_linear_1014_560" x1="31.5431" y1="37.656" x2="31.6617" y2="38.4061" gradientUnits="userSpaceOnUse">
<stop stop-color="#F7F7F7"/>
<stop offset="1" stop-color="#DBDBDB"/>
</linearGradient>
<linearGradient id="paint24_linear_1014_560" x1="32.5829" y1="46.8478" x2="32.7023" y2="47.6032" gradientUnits="userSpaceOnUse">
<stop stop-color="#F7F7F7"/>
<stop offset="1" stop-color="#DBDBDB"/>
</linearGradient>
<linearGradient id="paint25_linear_1014_560" x1="32.7571" y1="48.3851" x2="32.8757" y2="49.1352" gradientUnits="userSpaceOnUse">
<stop stop-color="#F7F7F7"/>
<stop offset="1" stop-color="#DBDBDB"/>
</linearGradient>
<linearGradient id="paint26_linear_1014_560" x1="32.9303" y1="49.9171" x2="33.0489" y2="50.6672" gradientUnits="userSpaceOnUse">
<stop stop-color="#F7F7F7"/>
<stop offset="1" stop-color="#DBDBDB"/>
</linearGradient>
<linearGradient id="paint27_linear_1014_560" x1="31.924" y1="41.0285" x2="32.0425" y2="41.7787" gradientUnits="userSpaceOnUse">
<stop stop-color="#F7F7F7"/>
<stop offset="1" stop-color="#DBDBDB"/>
</linearGradient>
<linearGradient id="paint28_linear_1014_560" x1="32.0973" y1="42.5603" x2="32.2159" y2="43.3105" gradientUnits="userSpaceOnUse">
<stop stop-color="#F7F7F7"/>
<stop offset="1" stop-color="#DBDBDB"/>
</linearGradient>
<linearGradient id="paint29_linear_1014_560" x1="32.2711" y1="44.0923" x2="32.3897" y2="44.8425" gradientUnits="userSpaceOnUse">
<stop stop-color="#F7F7F7"/>
<stop offset="1" stop-color="#DBDBDB"/>
</linearGradient>
<linearGradient id="paint30_linear_1014_560" x1="64.7956" y1="51.0798" x2="58.5081" y2="55.743" gradientUnits="userSpaceOnUse">
<stop stop-color="#363B39"/>
<stop offset="1" stop-color="#1B1C1C"/>
</linearGradient>
<linearGradient id="paint31_linear_1014_560" x1="62.9155" y1="53.1943" x2="63.6137" y2="57.6114" gradientUnits="userSpaceOnUse">
<stop stop-color="#363B39"/>
<stop offset="1" stop-color="#0C0D0D"/>
</linearGradient>
<linearGradient id="paint32_linear_1014_560" x1="62.2685" y1="52.7949" x2="62.9666" y2="57.2111" gradientUnits="userSpaceOnUse">
<stop stop-color="#D6D6D6"/>
<stop offset="1" stop-color="white"/>
</linearGradient>
<linearGradient id="paint33_linear_1014_560" x1="52.8936" y1="39.6428" x2="52.7898" y2="38.9862" gradientUnits="userSpaceOnUse">
<stop stop-color="#363B39"/>
<stop offset="1" stop-color="#0C0D0D"/>
</linearGradient>
<linearGradient id="paint34_linear_1014_560" x1="76.3398" y1="23.1642" x2="82.3331" y2="25.1858" gradientUnits="userSpaceOnUse">
<stop stop-color="#9C9C9C"/>
<stop offset="1" stop-color="#1B1C1C"/>
</linearGradient>
<linearGradient id="paint35_linear_1014_560" x1="76.5073" y1="23.9359" x2="80.5043" y2="23.1355" gradientUnits="userSpaceOnUse">
<stop stop-color="white"/>
<stop offset="1"/>
</linearGradient>
<linearGradient id="paint36_linear_1014_560" x1="77.2591" y1="22.8364" x2="77.7661" y2="23.0057" gradientUnits="userSpaceOnUse">
<stop stop-color="#9C9C9C"/>
<stop offset="1" stop-color="#1B1C1C"/>
</linearGradient>
<linearGradient id="paint37_linear_1014_560" x1="76.7672" y1="22.7244" x2="77.595" y2="23.0055" gradientUnits="userSpaceOnUse">
<stop stop-color="#9C9C9C"/>
<stop offset="1" stop-color="#1B1C1C"/>
</linearGradient>
<linearGradient id="paint38_linear_1014_560" x1="79.3479" y1="47.5859" x2="84.8717" y2="44.0992" gradientUnits="userSpaceOnUse">
<stop stop-color="#9C9C9C"/>
<stop offset="1" stop-color="#1B1C1C"/>
</linearGradient>
<linearGradient id="paint39_linear_1014_560" x1="79.3417" y1="46.79" x2="83.3733" y2="46.6999" gradientUnits="userSpaceOnUse">
<stop stop-color="white"/>
<stop offset="1"/>
</linearGradient>
<linearGradient id="paint40_linear_1014_560" x1="80.2995" y1="47.6206" x2="80.7739" y2="47.3276" gradientUnits="userSpaceOnUse">
<stop stop-color="#9C9C9C"/>
<stop offset="1" stop-color="#1B1C1C"/>
</linearGradient>
<linearGradient id="paint41_linear_1014_560" x1="79.8558" y1="47.8794" x2="80.6198" y2="47.4019" gradientUnits="userSpaceOnUse">
<stop stop-color="#9C9C9C"/>
<stop offset="1" stop-color="#1B1C1C"/>
</linearGradient>
</defs>
</svg>
