<svg width="26" height="50" viewBox="0 0 26 50" fill="none" xmlns="http://www.w3.org/2000/svg">
<path d="M17.7235 0.552685V2.4317H8.05615V0.552685C11.2376 -0.184228 14.5421 -0.184228 17.7235 0.552685Z" fill="url(#paint0_linear_441_511)"/>
<path d="M2.38106 21.7913C2.40613 19.6765 2.24858 10.0058 2.89665 4.5392C3.14371 2.47156 3.55547 2.72548 4.25008 1.86578C4.5401 1.92744 4.46133 2.39176 4.71913 2.20676L6.98558 0.95166C7.33719 1.04138 7.69732 1.09245 8.05973 1.10401V2.15234H17.7271V1.49215C18.1182 1.39714 18.4943 1.24694 18.8442 1.04597L21.0677 2.20676C21.3291 2.39176 21.2646 1.94195 21.5511 1.88028C22.2457 2.73999 22.6467 2.47156 22.8902 4.5392C23.5382 10.0058 23.3807 19.6765 23.4058 21.7913C23.4058 22.2266 23.0799 24.8819 23.0978 28.357C23.1372 36.0363 23.0978 47.7348 22.4641 48.3515C21.347 49.4397 4.44342 49.4397 3.32631 48.3515C2.69972 47.7348 2.65676 36.0181 2.69615 28.3534C2.71047 24.8928 2.3739 22.2266 2.38106 21.7913Z" fill="url(#paint1_linear_441_511)"/>
<path d="M22.518 21.4646C22.518 21.9398 21.895 24.7293 22.0024 28.3568C22.2388 36.0832 22.493 47.5822 21.8342 48.2134C20.6705 49.356 4.70146 49.1638 3.93166 48.2134C3.35162 47.4879 3.57361 36.0615 3.78485 28.3532C3.88153 24.7257 3.24063 21.9435 3.24421 21.461C3.27285 19.4296 2.55675 10.0999 3.16544 4.85458C3.56287 1.4339 4.15722 1.87645 6.34491 1.09655C9.58526 -0.0569755 16.1018 -0.180308 19.4352 1.09655C21.8019 2.00704 22.2137 1.4339 22.6111 4.85458C23.2341 10.1035 22.518 19.4514 22.518 21.4646Z" fill="url(#paint2_radial_441_511)"/>
<path d="M18.1245 9.95498L15.765 1.63362C15.765 1.27088 14.4831 0.95166 12.9006 0.95166C11.318 0.95166 10.0362 1.25637 10.0362 1.63362L7.68018 9.95498H18.1245Z" fill="url(#paint3_linear_441_511)"/>
<path d="M16.9897 15.1383C18.1556 15.2472 19.3088 15.467 20.4341 15.7949L20.298 16.3426C19.1655 15.9713 17.9959 15.728 16.8106 15.6172C14.2015 15.4249 11.582 15.4249 8.97292 15.6172C7.78761 15.728 6.61802 15.9713 5.4855 16.3426L5.35303 15.7949C6.47811 15.4662 7.63142 15.2464 8.79747 15.1383C11.5249 14.9461 14.2622 14.9461 16.9897 15.1383Z" fill="url(#paint4_linear_441_511)"/>
<g style="mix-blend-mode:multiply">
<path d="M12.8937 12.8752C12.8937 12.8752 12.772 12.1715 12.6896 11.1196C12.6431 10.5936 12.6037 9.97691 12.5786 9.30583C12.5786 8.97573 12.55 8.63475 12.5464 8.29015V7.24182C12.5464 6.87907 12.5464 6.53809 12.5464 6.19349C12.5464 5.84888 12.5679 5.5079 12.5786 5.1778C12.6037 4.51761 12.6395 3.90457 12.686 3.36408C12.772 2.31212 12.8937 1.6084 12.8937 1.6084C12.8937 1.6084 13.0119 2.31212 13.0978 3.36408C13.1443 3.89369 13.1837 4.50672 13.2088 5.1778C13.2088 5.5079 13.2374 5.84525 13.2374 6.19349C13.2374 6.54172 13.2374 6.88995 13.2374 7.24182C13.2374 7.59368 13.2374 7.94191 13.2374 8.29015C13.2374 8.63838 13.2159 8.97573 13.2088 9.30583C13.1801 9.9624 13.1443 10.5791 13.0978 11.1196C13.0119 12.1715 12.8937 12.8752 12.8937 12.8752Z" fill="#F2F2F2"/>
</g>
<path d="M20.9713 11.0213C19.7646 10.6484 18.5317 10.3682 17.2834 10.1834C14.3709 9.77346 11.4165 9.77346 8.50398 10.1834C7.25552 10.3677 6.02268 10.6479 4.81607 11.0213C4.61118 11.0705 4.41537 11.1525 4.23603 11.2643V11.2462C4.23603 11.2462 4.11072 10.8508 4.19307 10.7456C4.37407 10.5963 4.58978 10.4964 4.81966 10.4554C6.02626 10.082 7.25911 9.80186 8.50757 9.61749C11.42 9.20758 14.3745 9.20758 17.287 9.61749C18.5353 9.80236 19.7681 10.0825 20.9749 10.4554C21.2042 10.4982 21.4195 10.5979 21.6015 10.7456C21.6802 10.8508 21.5549 11.2462 21.5549 11.2462V11.2643C21.3747 11.1517 21.1776 11.0696 20.9713 11.0213Z" fill="url(#paint5_linear_441_511)"/>
<path d="M16.9896 15.1385C14.2621 14.9462 11.5248 14.9462 8.79739 15.1385C7.63134 15.2466 6.47804 15.4664 5.35295 15.7951L4.23584 11.2644C4.41517 11.1526 4.61099 11.0705 4.81588 11.0213C6.02249 10.6479 7.25533 10.3678 8.50379 10.1834C11.4163 9.7735 14.3707 9.7735 17.2832 10.1834C18.5316 10.3683 19.7644 10.6484 20.9711 11.0213C21.1749 11.0704 21.3696 11.1524 21.5476 11.2644L20.434 15.7951C19.3088 15.4672 18.1555 15.2474 16.9896 15.1385Z" fill="url(#paint6_linear_441_511)"/>
<path d="M21.8738 22.2995C21.8707 23.3119 21.7869 24.3224 21.6231 25.3212L20.5955 25.7782H20.5132L20.7638 19.3867L22.1638 11.769C22.1638 11.769 22.2855 13.7242 22.1638 16.521C22.085 18.2948 21.8666 20.7288 21.8738 22.2995Z" fill="url(#paint7_linear_441_511)"/>
<path d="M5.18812 25.778L4.03878 25.321C4.00656 24.824 3.90988 23.7902 3.91346 22.2993C3.91346 20.7286 3.69863 18.3091 3.62344 16.5244C3.5017 13.7276 3.62344 11.7725 3.62344 11.7725L5.02342 19.3901L5.27405 25.7816L5.18812 25.778Z" fill="url(#paint8_linear_441_511)"/>
<path style="mix-blend-mode:screen" d="M4.81588 11.0215C6.02249 10.6481 7.25533 10.368 8.50379 10.1836C9.14828 10.082 9.8429 10.0059 10.5662 9.95508C12.4173 11.377 14.6121 13.9453 15.5073 15.0335C13.2706 14.9401 11.0306 14.9716 8.79739 15.1278C7.63134 15.2359 6.47804 15.4557 5.35295 15.7844L4.23584 11.2537C4.41584 11.1457 4.61162 11.0673 4.81588 11.0215Z" fill="url(#paint9_linear_441_511)"/>
<path d="M18.4399 2.15246C18.4399 2.15246 21.6123 1.90942 21.9488 5.45344C22.3069 9.08088 22.5504 11.9828 22.5504 11.9828C22.5504 11.9828 21.1575 4.07501 18.4399 2.15246Z" fill="url(#paint10_linear_441_511)"/>
<path d="M7.32575 2.51487C7.23624 2.49674 4.24651 0.958702 3.81685 5.4531C3.4588 9.08054 3.21533 11.9825 3.21533 11.9825C3.41942 10.8689 4.40406 4.57889 7.32575 2.51487Z" fill="url(#paint11_linear_441_511)"/>
<path d="M3.67343 12.1714C3.67343 12.1714 2.64583 12.3709 2.62435 13.2306C2.60287 14.0903 3.65195 15.8315 3.67343 14.7287C3.69492 13.626 3.76653 12.5015 3.67343 12.1714Z" fill="url(#paint12_linear_441_511)"/>
<path d="M0.100575 14.0539C0.326146 13.7564 2.39567 13.1289 2.39567 13.1289C2.80384 12.9983 2.94348 13.3538 2.99003 13.6548L0.0253763 14.5327C-4.35739e-05 14.4525 -0.00647979 14.3674 0.00658222 14.2842C0.0196442 14.201 0.0518458 14.1221 0.100575 14.0539Z" fill="url(#paint13_linear_441_511)"/>
<path d="M2.99004 13.6475C3.00942 13.7673 3.01781 13.8888 3.01511 14.0102L0.100589 14.7357C0.067224 14.674 0.0419393 14.6081 0.0253906 14.5398L2.99004 13.6475Z" fill="url(#paint14_linear_441_511)"/>
<path d="M2.82518 19.7129C2.76691 19.7119 2.7106 19.7342 2.66839 19.7749C2.62619 19.8157 2.60148 19.8716 2.59961 19.9306V21.7443C2.60148 21.8033 2.62619 21.8592 2.66839 21.8999C2.7106 21.9406 2.76691 21.9629 2.82518 21.9619V19.7129Z" fill="#595959"/>
<path d="M23.0264 19.7129C23.0551 19.7124 23.0835 19.7177 23.1102 19.7284C23.1369 19.739 23.1612 19.7549 23.1819 19.7752C23.2025 19.7954 23.219 19.8195 23.2304 19.8462C23.2418 19.8728 23.2479 19.9015 23.2484 19.9306V21.7443C23.2479 21.7734 23.2418 21.802 23.2304 21.8287C23.219 21.8554 23.2025 21.8795 23.1819 21.8997C23.1612 21.9199 23.1369 21.9358 23.1102 21.9465C23.0835 21.9572 23.0551 21.9624 23.0264 21.9619V19.7129Z" fill="#595959"/>
<path d="M5.71813 27.0945C5.71813 26.5794 5.71813 26.086 5.71813 25.6108H20.0724C20.0724 26.086 20.0724 26.5794 20.0724 27.0945C20.0724 27.9941 22.0524 26.4814 22.081 26.5141C22.3854 34.1317 22.4677 47.6113 21.8554 48.2134C20.6918 49.3561 4.72275 49.1638 3.95294 48.2134C3.41229 47.5532 3.46958 37.6213 3.75244 30.0327V26.8333C3.75244 26.8333 5.72171 27.9904 5.71813 27.0945Z" fill="url(#paint15_linear_441_511)"/>
<path d="M10.3447 48.1086C10.3447 48.0342 10.3737 47.9628 10.4253 47.9098C10.4769 47.8569 10.547 47.8266 10.6204 47.8257H15.1784C15.2525 47.8257 15.3235 47.8555 15.3759 47.9086C15.4283 47.9616 15.4577 48.0336 15.4577 48.1086C15.4567 48.183 15.4269 48.2541 15.3746 48.3064C15.3224 48.3586 15.2519 48.3879 15.1784 48.3879H10.6276C10.5909 48.3884 10.5545 48.3816 10.5204 48.3678C10.4864 48.354 10.4553 48.3336 10.429 48.3076C10.4028 48.2817 10.3818 48.2508 10.3673 48.2166C10.3529 48.1825 10.3452 48.1458 10.3447 48.1086Z" fill="#08080A"/>
<path style="mix-blend-mode:multiply" d="M5.93698 16.1724H5.48584V47.3829H5.93698V16.1724Z" fill="url(#paint16_linear_441_511)"/>
<path style="mix-blend-mode:multiply" d="M20.2978 16.1724H19.8467V47.3829H20.2978V16.1724Z" fill="url(#paint17_linear_441_511)"/>
<path d="M20.0686 25.6183H5.71436C5.71436 22.321 5.71436 17.1737 5.71436 17.1737C5.71436 17.1737 7.47596 15.9657 12.8968 15.9911C18.3177 16.0165 20.0793 17.1737 20.0793 17.1737C20.0793 17.1737 20.0793 23.0284 20.0793 27.102C20.065 26.5796 20.0686 26.0863 20.0686 25.6183Z" fill="url(#paint18_linear_441_511)"/>
<path d="M8.01331 18.0004C8.01331 17.8009 7.89873 17.6377 7.7591 17.6377C7.61588 17.6377 7.50488 17.7973 7.50488 18.0004V45.9317C7.50488 46.1313 7.61588 46.2945 7.7591 46.2945C7.89873 46.2945 8.01331 46.1313 8.01331 45.9317V18.0004Z" fill="url(#paint19_linear_441_511)"/>
<path d="M9.04456 18.0009C9.04456 17.8014 8.92998 17.6382 8.79035 17.6382C8.65071 17.6382 8.53613 17.7978 8.53613 18.0009V45.9322C8.53613 46.1317 8.65071 46.295 8.79035 46.295C8.92998 46.295 9.04456 46.1317 9.04456 45.9322V18.0009Z" fill="url(#paint20_linear_441_511)"/>
<path d="M10.0753 18.0009C10.0753 17.8014 9.96076 17.6382 9.82112 17.6382C9.68148 17.6382 9.56689 17.7978 9.56689 18.0009V45.9322C9.56689 46.1317 9.68148 46.295 9.82112 46.295C9.96076 46.295 10.0753 46.1317 10.0753 45.9322V18.0009Z" fill="url(#paint21_linear_441_511)"/>
<path d="M16.2664 18.0009C16.2664 17.8014 16.1483 17.6382 16.0086 17.6382C15.869 17.6382 15.7544 17.7978 15.7544 18.0009V45.9322C15.7544 46.1317 15.869 46.295 16.0086 46.295C16.1483 46.295 16.2664 46.1317 16.2664 45.9322V18.0009Z" fill="url(#paint22_linear_441_511)"/>
<path d="M17.2977 18.0004C17.2977 17.8009 17.1831 17.6377 17.0434 17.6377C16.9002 17.6377 16.7856 17.7973 16.7856 18.0004V45.9317C16.7856 46.1313 16.9002 46.2945 17.0434 46.2945C17.1831 46.2945 17.2977 46.1313 17.2977 45.9317V18.0004Z" fill="url(#paint23_linear_441_511)"/>
<path d="M18.3252 18.0004C18.3252 17.8009 18.2142 17.6377 18.0745 17.6377C17.9313 17.6377 17.8203 17.7973 17.8203 18.0004V45.9317C17.8203 46.1313 17.9313 46.2945 18.0745 46.2945C18.2142 46.2945 18.3252 46.1313 18.3252 45.9317V18.0004Z" fill="url(#paint24_linear_441_511)"/>
<path d="M12.3458 18.0004C12.3458 17.8009 12.2313 17.6377 12.0916 17.6377C11.952 17.6377 11.8374 17.7973 11.8374 18.0004V45.9317C11.8374 46.1313 11.952 46.2945 12.0916 46.2945C12.2313 46.2945 12.3458 46.1313 12.3458 45.9317V18.0004Z" fill="url(#paint25_linear_441_511)"/>
<path d="M13.3766 18.0004C13.3766 17.8009 13.262 17.6377 13.1224 17.6377C12.9827 17.6377 12.8682 17.7973 12.8682 18.0004V45.9317C12.8682 46.1313 12.9827 46.2945 13.1224 46.2945C13.262 46.2945 13.3766 46.1313 13.3766 45.9317V18.0004Z" fill="url(#paint26_linear_441_511)"/>
<path d="M14.4083 18.0009C14.4083 17.8014 14.2973 17.6382 14.1541 17.6382C14.0145 17.6382 13.8999 17.7978 13.8999 18.0009V45.9322C13.8999 46.1317 14.0145 46.295 14.1541 46.295C14.2973 46.295 14.4083 46.1317 14.4083 45.9322V18.0009Z" fill="url(#paint27_linear_441_511)"/>
<path d="M22.1315 12.1426C22.1315 12.1426 23.1591 12.3385 23.1842 13.1982C23.2092 14.0579 22.1566 15.799 22.1315 14.6963C22.1064 13.5936 22.0384 12.4727 22.1315 12.1426Z" fill="url(#paint28_linear_441_511)"/>
<path d="M25.7044 14.0106C25.4788 13.7132 23.4093 13.0856 23.4093 13.0856C23.0047 12.955 22.8615 13.3069 22.8149 13.608L25.7796 14.4894C25.8062 14.4094 25.8133 14.3241 25.8002 14.2407C25.7871 14.1573 25.7542 14.0783 25.7044 14.0106Z" fill="url(#paint29_linear_441_511)"/>
<path d="M22.8151 13.6221C22.7979 13.7422 22.7895 13.8634 22.7901 13.9848L25.7046 14.6922C25.7376 14.6316 25.7628 14.567 25.7798 14.4999L22.8151 13.6221Z" fill="url(#paint30_linear_441_511)"/>
<path d="M12.6611 19.0019C12.6611 19.2123 12.765 19.3646 12.8939 19.3646C13.0228 19.3646 13.123 19.1978 13.123 19.0019C13.123 18.806 13.0192 18.6392 12.8939 18.6392C12.7685 18.6392 12.6611 18.7951 12.6611 19.0019Z" fill="url(#paint31_linear_441_511)"/>
<path d="M12.8218 19.0054L12.8468 23.9677H12.9328L12.9614 19.0054H12.8218Z" fill="black"/>
<path d="M6.95675 0.95166C6.95675 0.95166 4.37878 1.4994 3.83812 2.54773C3.29747 3.59606 3.76294 3.92254 3.76294 3.92254C3.76294 3.92254 6.17262 3.01567 6.95675 0.95166Z" fill="url(#paint32_linear_441_511)"/>
<path d="M3.9456 3.64355C3.84739 3.30123 3.86761 2.93519 4.00289 2.6061C4.28217 2.05473 5.52102 1.48523 6.32663 1.24219C6.076 2.54807 4.51132 3.36787 3.9456 3.64355Z" fill="url(#paint33_linear_441_511)"/>
<path style="mix-blend-mode:screen" d="M4.86566 2.71811C4.86566 2.77252 4.75109 2.83418 4.59713 2.85595C4.44317 2.87771 4.31068 2.85595 4.30352 2.79066C4.29636 2.72536 4.4181 2.67458 4.57206 2.65281C4.72602 2.63105 4.8585 2.66369 4.86566 2.71811Z" fill="url(#paint34_linear_441_511)"/>
<path style="mix-blend-mode:screen" d="M4.94138 2.92836C4.94138 3.01905 4.75878 3.11699 4.50456 3.14964C4.25035 3.18228 4.0391 3.14964 4.03193 3.04444C4.02477 2.93925 4.21454 2.85944 4.46517 2.82679C4.71581 2.79415 4.93064 2.8413 4.94138 2.92836Z" fill="url(#paint35_linear_441_511)"/>
<path d="M19.0483 0.95166C19.0483 0.95166 21.6299 1.4994 22.167 2.54773C22.704 3.59606 22.2422 3.92254 22.2422 3.92254C22.2422 3.92254 19.8325 3.01567 19.0483 0.95166Z" fill="url(#paint36_linear_441_511)"/>
<path d="M22.0597 3.64306C22.1597 3.30122 22.1407 2.93499 22.006 2.60562C21.7232 2.05424 20.4879 1.48474 19.6787 1.2417C19.9293 2.54758 21.4904 3.36738 22.0597 3.64306Z" fill="url(#paint37_linear_441_511)"/>
<path style="mix-blend-mode:screen" d="M21.1392 2.71811C21.1392 2.77252 21.2537 2.83418 21.4077 2.85595C21.5617 2.87771 21.6941 2.85595 21.7013 2.79066C21.7085 2.72536 21.5867 2.67458 21.4328 2.65281C21.2788 2.63105 21.1463 2.66369 21.1392 2.71811Z" fill="url(#paint38_linear_441_511)"/>
<path style="mix-blend-mode:screen" d="M21.0645 2.92885C21.0645 3.01954 21.2471 3.11748 21.5013 3.15012C21.7555 3.18277 21.9667 3.15013 21.9775 3.04493C21.9882 2.93973 21.7913 2.85993 21.5407 2.82728C21.29 2.79464 21.0859 2.84179 21.0645 2.92885Z" fill="url(#paint39_linear_441_511)"/>
<path d="M5.12769 27.8749L5.1814 36.7911H4.04996L3.90674 27.5049L5.12769 27.8749Z" fill="#08080A"/>
<path d="M5.1272 37.4326L5.27042 46.3489L4.17837 45.8737L3.90625 37.4326H5.1272Z" fill="#08080A"/>
<path d="M20.6738 27.8744L20.6201 36.7906H21.7551L21.8984 27.5044L20.6738 27.8744Z" fill="#08080A"/>
<path d="M20.6738 37.4326L20.5342 46.3489L21.6262 45.87L21.8984 37.4326H20.6738Z" fill="#08080A"/>
<defs>
<linearGradient id="paint0_linear_441_511" x1="17.7235" y1="1.34394" x2="8.05973" y2="1.34394" gradientUnits="userSpaceOnUse">
<stop/>
<stop offset="1" stop-color="#1B1C1C"/>
</linearGradient>
<linearGradient id="paint1_linear_441_511" x1="23.3943" y1="28.4779" x2="2.33666" y2="28.4779" gradientUnits="userSpaceOnUse">
<stop stop-color="#D1D1D1"/>
<stop offset="0.17" stop-color="#E5E6E6"/>
<stop offset="0.88" stop-color="#BDBFBE"/>
<stop offset="1" stop-color="#7C807D"/>
</linearGradient>
<radialGradient id="paint2_radial_441_511" cx="0" cy="0" r="1" gradientUnits="userSpaceOnUse" gradientTransform="translate(12.4207 21.5027) rotate(180) scale(15.1444 28.0303)">
<stop stop-color="white"/>
<stop offset="1" stop-color="#D6D6D6"/>
</radialGradient>
<linearGradient id="paint3_linear_441_511" x1="12.897" y1="9.87517" x2="12.897" y2="0.977052" gradientUnits="userSpaceOnUse">
<stop stop-color="#F7F7F7"/>
<stop offset="1" stop-color="#DBDBDB"/>
</linearGradient>
<linearGradient id="paint4_linear_441_511" x1="20.4341" y1="15.6679" x2="5.34945" y2="15.6679" gradientUnits="userSpaceOnUse">
<stop/>
<stop offset="1" stop-color="#1B1C1C"/>
</linearGradient>
<linearGradient id="paint5_linear_441_511" x1="21.6229" y1="10.2886" x2="4.16085" y2="10.2886" gradientUnits="userSpaceOnUse">
<stop/>
<stop offset="1" stop-color="#1B1C1C"/>
</linearGradient>
<linearGradient id="paint6_linear_441_511" x1="21.5476" y1="12.8351" x2="4.23584" y2="12.8351" gradientUnits="userSpaceOnUse">
<stop stop-color="#363B39"/>
<stop offset="1" stop-color="#0C0D0D"/>
</linearGradient>
<linearGradient id="paint7_linear_441_511" x1="22.2175" y1="18.7773" x2="20.5096" y2="18.7773" gradientUnits="userSpaceOnUse">
<stop stop-color="#363B39"/>
<stop offset="1"/>
</linearGradient>
<linearGradient id="paint8_linear_441_511" x1="5.27405" y1="18.7771" x2="3.56615" y2="18.7771" gradientUnits="userSpaceOnUse">
<stop stop-color="#363B39"/>
<stop offset="1"/>
</linearGradient>
<linearGradient id="paint9_linear_441_511" x1="13.0618" y1="10.8583" x2="8.41717" y2="14.1167" gradientUnits="userSpaceOnUse">
<stop stop-color="#363B39"/>
<stop offset="1"/>
</linearGradient>
<linearGradient id="paint10_linear_441_511" x1="23.5994" y1="-1.98645" x2="19.3485" y2="10.0949" gradientUnits="userSpaceOnUse">
<stop stop-color="#F7F7F7"/>
<stop offset="1" stop-color="#DBDBDB"/>
</linearGradient>
<linearGradient id="paint11_linear_441_511" x1="2.01944" y1="-2.23345" x2="6.35832" y2="10.1011" gradientUnits="userSpaceOnUse">
<stop stop-color="#F7F7F7"/>
<stop offset="1" stop-color="#DBDBDB"/>
</linearGradient>
<linearGradient id="paint12_linear_441_511" x1="3.88826" y1="12.516" x2="1.64428" y2="16.8052" gradientUnits="userSpaceOnUse">
<stop stop-color="#363B39"/>
<stop offset="1" stop-color="#1B1C1C"/>
</linearGradient>
<linearGradient id="paint13_linear_441_511" x1="2.94764" y1="13.8181" x2="-0.0462314" y2="13.8181" gradientUnits="userSpaceOnUse">
<stop stop-color="#363B39"/>
<stop offset="1" stop-color="#0C0D0D"/>
</linearGradient>
<linearGradient id="paint14_linear_441_511" x1="3.01511" y1="14.1916" x2="0.0253906" y2="14.1916" gradientUnits="userSpaceOnUse">
<stop stop-color="#D6D6D6"/>
<stop offset="1" stop-color="white"/>
</linearGradient>
<linearGradient id="paint15_linear_441_511" x1="21.8984" y1="37.3057" x2="3.83837" y2="37.3057" gradientUnits="userSpaceOnUse">
<stop stop-color="#C2C2C2"/>
<stop offset="0.06" stop-color="#E1E1E1"/>
<stop offset="0.1" stop-color="#F0F0F0"/>
<stop offset="0.2" stop-color="#F5F5F5"/>
<stop offset="0.51" stop-color="#F7F7F7"/>
<stop offset="0.81" stop-color="#F5F5F5"/>
<stop offset="0.9" stop-color="#F0F0F0"/>
<stop offset="0.94" stop-color="#E0E0E0"/>
<stop offset="1" stop-color="#BFBFBF"/>
</linearGradient>
<linearGradient id="paint16_linear_441_511" x1="5.93698" y1="31.7776" x2="5.48584" y2="31.7776" gradientUnits="userSpaceOnUse">
<stop stop-color="#F7F7F7"/>
<stop offset="0.28" stop-color="white"/>
<stop offset="1"/>
</linearGradient>
<linearGradient id="paint17_linear_441_511" x1="20.2978" y1="31.7776" x2="19.8503" y2="31.7776" gradientUnits="userSpaceOnUse">
<stop stop-color="#7A7A7A"/>
<stop offset="0.72" stop-color="white"/>
<stop offset="1" stop-color="#F7F7F7"/>
</linearGradient>
<linearGradient id="paint18_linear_441_511" x1="12.8933" y1="15.9839" x2="12.8933" y2="24.8058" gradientUnits="userSpaceOnUse">
<stop stop-color="#DBDBDB"/>
<stop offset="1" stop-color="#F7F7F7"/>
</linearGradient>
<linearGradient id="paint19_linear_441_511" x1="7.50488" y1="31.9879" x2="8.01331" y2="31.9879" gradientUnits="userSpaceOnUse">
<stop stop-color="#F7F7F7"/>
<stop offset="1" stop-color="#DBDBDB"/>
</linearGradient>
<linearGradient id="paint20_linear_441_511" x1="8.53613" y1="31.9883" x2="9.04456" y2="31.9883" gradientUnits="userSpaceOnUse">
<stop stop-color="#F7F7F7"/>
<stop offset="1" stop-color="#DBDBDB"/>
</linearGradient>
<linearGradient id="paint21_linear_441_511" x1="9.56689" y1="31.9883" x2="10.0753" y2="31.9883" gradientUnits="userSpaceOnUse">
<stop stop-color="#F7F7F7"/>
<stop offset="1" stop-color="#DBDBDB"/>
</linearGradient>
<linearGradient id="paint22_linear_441_511" x1="15.7544" y1="31.9883" x2="16.2664" y2="31.9883" gradientUnits="userSpaceOnUse">
<stop stop-color="#F7F7F7"/>
<stop offset="1" stop-color="#DBDBDB"/>
</linearGradient>
<linearGradient id="paint23_linear_441_511" x1="16.7892" y1="31.9879" x2="17.2977" y2="31.9879" gradientUnits="userSpaceOnUse">
<stop stop-color="#F7F7F7"/>
<stop offset="1" stop-color="#DBDBDB"/>
</linearGradient>
<linearGradient id="paint24_linear_441_511" x1="17.8203" y1="31.9879" x2="18.3287" y2="31.9879" gradientUnits="userSpaceOnUse">
<stop stop-color="#F7F7F7"/>
<stop offset="1" stop-color="#DBDBDB"/>
</linearGradient>
<linearGradient id="paint25_linear_441_511" x1="11.8374" y1="31.9879" x2="12.3458" y2="31.9879" gradientUnits="userSpaceOnUse">
<stop stop-color="#F7F7F7"/>
<stop offset="1" stop-color="#DBDBDB"/>
</linearGradient>
<linearGradient id="paint26_linear_441_511" x1="12.8682" y1="31.9879" x2="13.3766" y2="31.9879" gradientUnits="userSpaceOnUse">
<stop stop-color="#F7F7F7"/>
<stop offset="1" stop-color="#DBDBDB"/>
</linearGradient>
<linearGradient id="paint27_linear_441_511" x1="13.8999" y1="31.9883" x2="14.4083" y2="31.9883" gradientUnits="userSpaceOnUse">
<stop stop-color="#F7F7F7"/>
<stop offset="1" stop-color="#DBDBDB"/>
</linearGradient>
<linearGradient id="paint28_linear_441_511" x1="21.9203" y1="12.4872" x2="24.1606" y2="16.7728" gradientUnits="userSpaceOnUse">
<stop stop-color="#363B39"/>
<stop offset="1" stop-color="#1B1C1C"/>
</linearGradient>
<linearGradient id="paint29_linear_441_511" x1="23.1217" y1="13.7894" x2="26.1156" y2="13.7894" gradientUnits="userSpaceOnUse">
<stop stop-color="#363B39"/>
<stop offset="1" stop-color="#0C0D0D"/>
</linearGradient>
<linearGradient id="paint30_linear_441_511" x1="22.7901" y1="14.1589" x2="25.7834" y2="14.1589" gradientUnits="userSpaceOnUse">
<stop stop-color="#D6D6D6"/>
<stop offset="1" stop-color="white"/>
</linearGradient>
<linearGradient id="paint31_linear_441_511" x1="13.1123" y1="19.0055" x2="12.6683" y2="19.0055" gradientUnits="userSpaceOnUse">
<stop stop-color="#363B39"/>
<stop offset="1" stop-color="#0C0D0D"/>
</linearGradient>
<linearGradient id="paint32_linear_441_511" x1="4.66657" y1="3.45031" x2="6.29814" y2="-0.238927" gradientUnits="userSpaceOnUse">
<stop stop-color="#9C9C9C"/>
<stop offset="1" stop-color="#1B1C1C"/>
</linearGradient>
<linearGradient id="paint33_linear_441_511" x1="5.19458" y1="3.40097" x2="4.99807" y2="0.89565" gradientUnits="userSpaceOnUse">
<stop stop-color="white"/>
<stop offset="1"/>
</linearGradient>
<linearGradient id="paint34_linear_441_511" x1="4.54588" y1="2.86238" x2="4.68279" y2="2.55026" gradientUnits="userSpaceOnUse">
<stop stop-color="#9C9C9C"/>
<stop offset="1" stop-color="#1B1C1C"/>
</linearGradient>
<linearGradient id="paint35_linear_441_511" x1="4.42086" y1="3.1563" x2="4.64678" y2="2.64734" gradientUnits="userSpaceOnUse">
<stop stop-color="#9C9C9C"/>
<stop offset="1" stop-color="#1B1C1C"/>
</linearGradient>
<linearGradient id="paint36_linear_441_511" x1="21.1309" y1="3.30083" x2="19.5169" y2="-0.386284" gradientUnits="userSpaceOnUse">
<stop stop-color="#9C9C9C"/>
<stop offset="1" stop-color="#1B1C1C"/>
</linearGradient>
<linearGradient id="paint37_linear_441_511" x1="20.6041" y1="3.24883" x2="20.8142" y2="0.752228" gradientUnits="userSpaceOnUse">
<stop stop-color="white"/>
<stop offset="1"/>
</linearGradient>
<linearGradient id="paint38_linear_441_511" x1="21.2531" y1="2.71789" x2="21.1182" y2="2.40204" gradientUnits="userSpaceOnUse">
<stop stop-color="#9C9C9C"/>
<stop offset="1" stop-color="#1B1C1C"/>
</linearGradient>
<linearGradient id="paint39_linear_441_511" x1="21.3782" y1="3.0088" x2="21.1583" y2="2.50005" gradientUnits="userSpaceOnUse">
<stop stop-color="#9C9C9C"/>
<stop offset="1" stop-color="#1B1C1C"/>
</linearGradient>
</defs>
</svg>
