<svg width="53" height="53" viewBox="0 0 53 53" fill="none" xmlns="http://www.w3.org/2000/svg">
<g clip-path="url(#clip0_3181_721)">
<path d="M26.4999 4.41675C30.3667 4.41675 33.5445 5.72408 35.7043 6.97621C38.6281 8.67 39.7499 11.8566 39.7499 14.701V18.4772C41.754 19.7347 43.6884 21.1 45.5446 22.567C45.9851 22.9379 46.2632 23.4662 46.3198 24.0393C46.3764 24.6123 46.2069 25.1848 45.8474 25.6347C45.488 26.0846 44.967 26.3763 44.3956 26.4476C43.8242 26.5189 43.2476 26.3642 42.7886 26.0165C41.8005 25.2384 40.7871 24.493 39.7499 23.7816V38.8358C39.7499 41.4211 38.7229 43.9004 36.8949 45.7284C35.0669 47.5564 32.5876 48.5834 30.0023 48.5834H22.9975C20.4123 48.5834 17.9329 47.5564 16.1049 45.7284C14.2769 43.9004 13.2499 41.4211 13.2499 38.8358V23.7816C12.2186 24.4971 11.1962 25.2325 10.2135 26.0165C9.75604 26.3825 9.17194 26.5519 8.58966 26.4873C8.00737 26.4226 7.4746 26.1294 7.10855 25.672C6.74249 25.2145 6.57314 24.6304 6.63775 24.0481C6.70235 23.4659 6.99563 22.9331 7.45305 22.567C9.30997 21.1006 11.2451 19.7361 13.2499 18.4794V14.701C13.2499 11.8544 14.3718 8.67 17.2956 6.97621C19.4553 5.72408 22.6353 4.41675 26.4999 4.41675ZM35.3333 25.206L35.066 25.4754L34.7657 25.7934C33.8167 26.8773 33.2469 28.241 33.1426 29.6779L33.1249 30.1593V37.5417L33.1139 37.873C33.0349 38.9245 32.5822 39.9131 31.8378 40.66C31.0933 41.4068 30.1062 41.8627 29.055 41.9452L28.7083 41.9584H24.2916L23.9603 41.9474C22.9088 41.8684 21.9202 41.4157 21.1734 40.6713C20.4265 39.9268 19.9706 38.9397 19.8882 37.8885L19.8749 37.5417V30.1593L19.8595 29.722C19.765 28.2845 19.2044 26.9169 18.2628 25.8265L17.9338 25.4732L17.6666 25.2082V38.8336L17.6843 39.2576C17.7848 40.5214 18.3324 41.708 19.2289 42.6045C20.1253 43.5009 21.3119 44.0486 22.5757 44.1491L22.9975 44.1667H30.0023L30.4241 44.1491C31.6879 44.0486 32.8745 43.5009 33.771 42.6045C34.6674 41.708 35.2151 40.5214 35.3156 39.2576L35.3333 38.8358V25.206ZM26.4999 17.6667C25.2765 17.6667 23.6644 18.0907 21.8006 18.8747C21.1734 19.1397 20.5374 19.4356 19.9036 19.7536L18.954 20.2461L21.0586 22.3506C22.9861 24.2787 24.1322 26.8516 24.2761 29.5741L24.2916 30.1593V37.5417H28.7083V30.1593C28.7078 27.4326 29.7162 24.8022 31.5393 22.7746L31.9413 22.3506L34.0458 20.2461C33.0984 19.7382 32.14 19.27 31.197 18.8747C29.3376 18.0907 27.7255 17.6667 26.4999 17.6667ZM26.4999 8.83341C23.6357 8.83341 21.222 9.80508 19.5105 10.7988C18.3799 11.4503 17.6666 12.8592 17.6666 14.6987V15.9354C18.4638 15.5269 19.2765 15.1426 20.0869 14.8003C22.1583 13.9302 24.4108 13.2501 26.4999 13.2501C28.589 13.2501 30.8415 13.9302 32.9129 14.8025C33.7234 15.1448 34.536 15.5291 35.3333 15.9354V14.6987C35.3333 12.8614 34.62 11.4525 33.4893 10.7966C31.7778 9.80508 29.3641 8.83341 26.4999 8.83341Z" fill="#09244B"/>
<g clip-path="url(#clip1_3181_721)">
<path fill-rule="evenodd" clip-rule="evenodd" d="M46.7648 2.01829C45.8837 2.83211 45.0692 3.72247 44.33 4.67996C43.1055 6.28353 42.0884 8.17828 42.0884 9.96886C42.0884 11.2741 42.5811 12.5259 43.4581 13.4488C44.3351 14.3718 45.5246 14.8903 46.7648 14.8903C48.0051 14.8903 49.1946 14.3718 50.0716 13.4488C50.9486 12.5259 51.4413 11.2741 51.4413 9.96886C51.4413 8.17828 50.4242 6.28353 49.1997 4.67996C48.4604 3.72247 47.6459 2.8321 46.7648 2.01829ZM46.1795 0.389298C46.3443 0.246223 46.5512 0.167969 46.7648 0.167969C46.9785 0.167969 47.1854 0.246223 47.3502 0.389298C48.4702 1.36938 49.4964 2.4625 50.414 3.65303C51.6923 5.32549 53.0001 7.59509 53.0001 9.96886C53.0001 11.7092 52.3432 13.3782 51.1739 14.6088C50.0045 15.8394 48.4185 16.5308 46.7648 16.5308C45.1111 16.5308 43.5252 15.8394 42.3558 14.6088C41.1865 13.3782 40.5295 11.7092 40.5295 9.96886C40.5295 7.59509 41.8374 5.32549 43.1156 3.6522C44.0331 2.46201 45.0598 1.36917 46.1795 0.389298Z" fill="#09244B"/>
<path fill-rule="evenodd" clip-rule="evenodd" d="M40.5295 0.856185C40.089 1.23276 39.6817 1.64475 39.3121 2.0878C38.6998 2.82981 38.1913 3.70655 38.1913 4.53509C38.1913 5.13906 38.4376 5.71828 38.8761 6.14535C39.3146 6.57242 39.9094 6.81234 40.5295 6.81234C41.1497 6.81234 41.7444 6.57242 42.1829 6.14535C42.6214 5.71828 42.8677 5.13906 42.8677 4.53509C42.8677 3.70655 42.3592 2.82981 41.747 2.0878C41.3773 1.64475 40.9701 1.23275 40.5295 0.856185ZM40.2368 0.102414C40.3192 0.0362099 40.4227 0 40.5295 0C40.6363 0 40.7398 0.0362099 40.8222 0.102414C41.3822 0.555919 41.8953 1.06173 42.3541 1.61261C42.9932 2.3865 43.6472 3.43669 43.6472 4.53509C43.6472 5.34038 43.3187 6.11268 42.734 6.68211C42.1493 7.25153 41.3564 7.57143 40.5295 7.57143C39.7027 7.57143 38.9097 7.25153 38.325 6.68211C37.7403 6.11268 37.4119 5.34038 37.4119 4.53509C37.4119 3.43669 38.0658 2.3865 38.7049 1.61223C39.1636 1.0615 39.677 0.55582 40.2368 0.102414Z" fill="#09244B"/>
</g>
</g>
<defs>
<clipPath id="clip0_3181_721">
<rect width="53" height="53" fill="white"/>
</clipPath>
<clipPath id="clip1_3181_721">
<rect width="18.7059" height="19.6857" fill="white" transform="translate(37.4119 -1.5144)"/>
</clipPath>
</defs>
</svg>
