<svg width="57" height="57" viewBox="0 0 57 57" fill="none" xmlns="http://www.w3.org/2000/svg">
<path d="M40.4107 7.2561C40.9022 6.90541 41.5089 6.7551 42.1073 6.83573C42.7057 6.91637 43.2509 7.2219 43.632 7.69019C44.0132 8.15848 44.2017 8.75437 44.1592 9.35668C44.1167 9.95899 43.8463 10.5225 43.4032 10.9326L43.1704 11.1202L38.1806 14.6851C37.4642 15.1958 36.907 15.8989 36.5733 16.7129C36.2396 17.527 36.143 18.4189 36.2948 19.2855L36.3708 19.6465L44.3104 11.7069C44.7378 11.2809 45.3113 11.0336 45.9145 11.0152C46.5176 10.9968 47.1051 11.2086 47.5577 11.6077C48.0103 12.0068 48.294 12.5632 48.3513 13.1639C48.4085 13.7645 48.2349 14.3645 47.8658 14.8419L47.6687 15.0651L39.7291 23.0047C41.4034 23.4322 43.2559 22.9097 44.4458 21.5085L44.6904 21.195L48.2553 16.2051C48.607 15.7155 49.1317 15.3779 49.723 15.2609C50.3144 15.1438 50.9281 15.256 51.4398 15.5746C51.9515 15.8933 52.3229 16.3947 52.4786 16.977C52.6344 17.5594 52.5629 18.1792 52.2786 18.7107L52.1194 18.9649L48.5569 23.9571C47.2384 25.8021 45.2989 27.1098 43.0941 27.6403C40.8893 28.1708 38.5671 27.8885 36.5537 26.8451L36.1262 26.6076L30.6708 32.0606L40.5437 41.9359C40.9526 42.3448 41.1982 42.8889 41.2345 43.4661C41.2708 44.0433 41.0953 44.6139 40.7408 45.0709L40.5437 45.2941C40.1347 45.703 39.5906 45.9487 39.0134 45.985C38.4362 46.0213 37.8656 45.8457 37.4087 45.4912L37.1854 45.2941L27.3126 35.4189L17.4397 45.2941C17.0307 45.703 16.4866 45.9487 15.9094 45.985C15.3322 46.0213 14.7616 45.8457 14.3047 45.4912L14.0814 45.2941C13.6725 44.8851 13.4269 44.341 13.3906 43.7638C13.3543 43.1867 13.5298 42.6161 13.8843 42.1591L14.0814 41.9359L23.9543 32.0606L20.1306 28.2369C19.1245 28.7803 18.0381 29.1595 16.9124 29.3602L16.3187 29.4481C14.8977 29.6275 13.4546 29.4741 12.103 29.0001C10.7515 28.5261 9.5287 27.7444 8.53105 26.7169C6.32468 24.5081 5.06355 21.7317 4.75005 19.0646C4.4413 16.4402 5.03505 13.6282 6.9588 11.7069C8.88018 9.7831 11.6898 9.18935 14.3142 9.4981C16.9813 9.81398 19.7601 11.0751 21.9664 13.2815C22.9937 14.2789 23.7751 15.5013 24.2491 16.8524C24.7231 18.2034 24.8767 19.6462 24.6977 21.0667C24.5552 22.2661 24.2061 23.4037 23.7334 24.3941L23.4864 24.8786L27.3102 28.7024L32.7679 23.2494C31.6242 21.2966 31.2213 18.9975 31.633 16.7722C32.0446 14.5469 33.2433 12.5441 35.0099 11.1297L35.4184 10.821L40.4107 7.2561Z" fill="#09244B"/>
</svg>
