<svg width="61" height="54" viewBox="0 0 61 54" fill="none" xmlns="http://www.w3.org/2000/svg">
<path d="M41.04 6.75V47.25" stroke="#09244B" stroke-width="5" stroke-linecap="round"/>
<path d="M18.1523 6.75V47.25" stroke="#09244B" stroke-width="5" stroke-linecap="round"/>
<path d="M30.0453 38.25C30.6585 38.2501 31.2504 38.4524 31.7087 38.8186C32.167 39.1848 32.4597 39.6894 32.5315 40.2368L32.549 40.5V45C32.5483 45.5735 32.3039 46.1251 31.8659 46.5421C31.4278 46.9591 30.8291 47.21 30.192 47.2436C29.5549 47.2772 28.9276 47.091 28.4383 46.7229C27.9489 46.3548 27.6344 45.8327 27.559 45.2633L27.5415 45V40.5C27.5415 39.9033 27.8053 39.331 28.2748 38.909C28.7444 38.4871 29.3812 38.25 30.0453 38.25ZM30.0453 22.5C30.7093 22.5 31.3461 22.7371 31.8157 23.159C32.2852 23.581 32.549 24.1533 32.549 24.75V29.25C32.549 29.8467 32.2852 30.419 31.8157 30.841C31.3461 31.2629 30.7093 31.5 30.0453 31.5C29.3812 31.5 28.7444 31.2629 28.2748 30.841C27.8053 30.419 27.5415 29.8467 27.5415 29.25V24.75C27.5415 24.1533 27.8053 23.581 28.2748 23.159C28.7444 22.7371 29.3812 22.5 30.0453 22.5ZM30.0453 6.75C30.6585 6.75007 31.2504 6.9524 31.7087 7.31861C32.167 7.68482 32.4597 8.18943 32.5315 8.73675L32.549 9V13.5C32.5483 14.0735 32.3039 14.6251 31.8659 15.0421C31.4278 15.4591 30.8291 15.71 30.192 15.7436C29.5549 15.7772 28.9276 15.591 28.4383 15.2229C27.9489 14.8548 27.6344 14.3327 27.559 13.7632L27.5415 13.5V9C27.5415 8.40326 27.8053 7.83097 28.2748 7.40901C28.7444 6.98705 29.3812 6.75 30.0453 6.75Z" fill="#09244B"/>
<g clip-path="url(#clip0_3181_706)">
<path d="M52.5984 1.39648C56.4652 1.39648 59.5997 4.52267 59.5997 8.37924C59.5997 12.2358 56.4652 15.362 52.5984 15.362C48.7316 15.362 45.5972 12.2358 45.5972 8.37924C45.5972 4.52267 48.7316 1.39648 52.5984 1.39648ZM52.5984 2.79304C51.1129 2.79304 49.6883 3.38158 48.6379 4.4292C47.5875 5.47681 46.9974 6.89769 46.9974 8.37924C46.9974 9.8608 47.5875 11.2817 48.6379 12.3293C49.6883 13.3769 51.1129 13.9654 52.5984 13.9654C54.0839 13.9654 55.5085 13.3769 56.5589 12.3293C57.6093 11.2817 58.1994 9.8608 58.1994 8.37924C58.1994 6.89769 57.6093 5.47681 56.5589 4.4292C55.5085 3.38158 54.0839 2.79304 52.5984 2.79304ZM52.5984 4.18959C52.7699 4.18961 52.9354 4.2524 53.0636 4.36605C53.1917 4.4797 53.2736 4.63631 53.2936 4.80616L53.2985 4.88786V5.58614H54.6988C54.8772 5.58634 55.0489 5.65449 55.1786 5.77666C55.3084 5.89884 55.3865 6.06582 55.3969 6.24349C55.4074 6.42116 55.3494 6.59611 55.2349 6.73259C55.1204 6.86907 54.9579 6.95678 54.7807 6.9778L54.6988 6.98269H51.1982C51.1107 6.98253 51.0263 7.01504 50.9617 7.07382C50.897 7.1326 50.8568 7.21339 50.8489 7.30028C50.841 7.38717 50.866 7.47386 50.919 7.54329C50.972 7.61271 51.0491 7.65984 51.1352 7.67538L51.1982 7.68097H53.9987C54.4537 7.67986 54.8912 7.85552 55.2186 8.1707C55.5459 8.48588 55.7374 8.91581 55.7523 9.36937C55.7672 9.82292 55.6045 10.2645 55.2986 10.6004C54.9926 10.9363 54.5676 11.1402 54.1135 11.1689L53.9987 11.1723H53.2985V11.8706C53.2983 12.0486 53.23 12.2198 53.1075 12.3492C52.985 12.4786 52.8176 12.5565 52.6395 12.5669C52.4613 12.5774 52.2859 12.5195 52.1491 12.4053C52.0122 12.2911 51.9243 12.1291 51.9032 11.9523L51.8983 11.8706V11.1723H50.498C50.3196 11.1721 50.148 11.104 50.0182 10.9818C49.8884 10.8596 49.8104 10.6927 49.7999 10.515C49.7894 10.3373 49.8474 10.1624 49.9619 10.0259C50.0765 9.88941 50.2389 9.8017 50.4161 9.78068L50.498 9.77579H53.9987C54.0861 9.77595 54.1705 9.74344 54.2352 9.68466C54.2998 9.62588 54.34 9.54509 54.3479 9.4582C54.3558 9.37131 54.3308 9.28462 54.2779 9.2152C54.2249 9.14577 54.1478 9.09865 54.0617 9.0831L53.9987 9.07752H51.1982C50.7432 9.07862 50.3056 8.90297 49.9783 8.58779C49.6509 8.27261 49.4595 7.84268 49.4445 7.38912C49.4296 6.93556 49.5924 6.49403 49.8983 6.15811C50.2042 5.8222 50.6293 5.6183 51.0833 5.58963L51.1982 5.58614H51.8983V4.88786C51.8983 4.70267 51.9721 4.52506 52.1034 4.39411C52.2347 4.26316 52.4127 4.18959 52.5984 4.18959Z" fill="#09244B"/>
</g>
<defs>
<clipPath id="clip0_3181_706">
<rect width="16.803" height="16.7586" fill="white" transform="translate(44.197)"/>
</clipPath>
</defs>
</svg>
