<svg width="57" height="57" viewBox="0 0 57 57" fill="none" xmlns="http://www.w3.org/2000/svg">
<path fill-rule="evenodd" clip-rule="evenodd" d="M11.875 7.12549C10.6152 7.12549 9.40704 7.62593 8.51624 8.51673C7.62544 9.40753 7.125 10.6157 7.125 11.8755V45.1255C6.49511 45.1255 5.89102 45.3757 5.44562 45.8211C5.00022 46.2665 4.75 46.8706 4.75 47.5005C4.75 48.1304 5.00022 48.7345 5.44562 49.1799C5.89102 49.6253 6.49511 49.8755 7.125 49.8755H35.625C36.2549 49.8755 36.859 49.6253 37.3044 49.1799C37.7498 48.7345 38 48.1304 38 47.5005C38 46.8706 37.7498 46.2665 37.3044 45.8211C36.859 45.3757 36.2549 45.1255 35.625 45.1255V33.2505H38V39.188C38 40.7627 38.6256 42.2729 39.7391 43.3864C40.8526 44.4999 42.3628 45.1255 43.9375 45.1255C45.5122 45.1255 47.0224 44.4999 48.1359 43.3864C49.2494 42.2729 49.875 40.7627 49.875 39.188V24.7337C49.8747 23.4741 49.3741 22.2661 48.4832 21.3755L42.0541 14.9464C41.835 14.7195 41.573 14.5386 41.2832 14.4141C40.9935 14.2897 40.6818 14.2241 40.3665 14.2214C40.0511 14.2187 39.7384 14.2787 39.4465 14.3982C39.1546 14.5176 38.8894 14.6939 38.6664 14.9169C38.4434 15.1399 38.2671 15.4051 38.1477 15.697C38.0283 15.9889 37.9682 16.3016 37.9709 16.6169C37.9736 16.9323 38.0392 17.2439 38.1636 17.5337C38.2881 17.8235 38.469 18.0855 38.6959 18.3046L41.3084 20.9195C40.7828 21.6261 40.4641 22.4651 40.388 23.3425C40.3118 24.2199 40.4813 25.1011 40.8773 25.8878C41.2733 26.6744 41.8803 27.3353 42.6305 27.7968C43.3806 28.2582 44.2443 28.5018 45.125 28.5005L45.1274 39.188C45.1274 39.5029 45.0023 39.805 44.7796 40.0277C44.5569 40.2504 44.2548 40.3755 43.9399 40.3755C43.6249 40.3755 43.3229 40.2504 43.1002 40.0277C42.8775 39.805 42.7524 39.5029 42.7524 39.188V33.2505C42.7524 31.9907 42.2519 30.7825 41.3611 29.8917C40.4703 29.0009 39.2622 28.5005 38.0024 28.5005H35.6274V11.8755C35.6274 10.6157 35.1269 9.40753 34.2361 8.51673C33.3453 7.62593 32.1372 7.12549 30.8774 7.12549H11.875ZM30.875 23.7505V11.8755H11.875V23.7505H30.875Z" fill="#09244B"/>
</svg>
