<svg width="52" height="52" viewBox="0 0 52 52" fill="none" xmlns="http://www.w3.org/2000/svg">
<path d="M29.3312 19.5252C30.1531 16.8948 30.2455 14.2233 29.6086 11.5107C28.9716 8.79812 27.6669 6.43488 25.6944 4.42098C24.174 2.85918 22.3864 1.69811 20.3318 0.937763C18.2771 0.177415 16.1608 -0.12056 13.9829 0.0438399C13.3254 0.0849398 12.8014 0.331539 12.411 0.783638C12.0207 1.23574 11.8152 1.75976 11.7946 2.35571C11.7741 2.95166 11.9898 3.49623 12.4419 3.98943C13.1815 4.68813 14.476 5.767 16.3252 7.22605C18.1744 8.6851 19.4483 9.76397 20.1468 10.4627C20.8454 11.1614 21.1845 11.9731 21.1639 12.8978C21.1434 13.8226 20.8043 14.6138 20.1468 15.2714L15.2773 20.1417C14.6198 20.7993 13.8185 21.1384 12.8733 21.1589C11.9282 21.1795 11.1474 20.8609 10.531 20.2033L3.99719 12.4971C3.50407 12.045 2.95959 11.819 2.36373 11.819C1.76788 11.819 1.24394 12.0142 0.791916 12.4046C0.33989 12.7951 0.0933305 13.3191 0.0522372 13.9767C-0.153229 16.4427 0.24743 18.8162 1.25422 21.0973C2.261 23.3783 3.74036 25.2895 5.69229 26.8307C7.64422 28.372 9.85298 29.3686 12.3186 29.8207C14.7842 30.2728 17.1881 30.129 19.5304 29.3892C19.9003 29.2659 20.2599 29.2556 20.6091 29.3584C20.9584 29.4611 21.2358 29.6563 21.4413 29.944L36.3581 49.1171C37.5088 50.3501 38.8751 51.1927 40.4572 51.6448C42.0393 52.0969 43.6316 52.1174 45.2343 51.7064C46.8369 51.2954 48.2136 50.5043 49.3642 49.3329C50.5148 48.1616 51.2955 46.7847 51.7065 45.2024C52.1174 43.62 52.0969 42.0274 51.6448 40.4245C51.1928 38.8216 50.3504 37.4653 49.1176 36.3556L29.9476 21.4363C29.6599 21.2308 29.4647 20.9534 29.362 20.6041C29.2593 20.2547 29.249 19.8951 29.3312 19.5252ZM44.8644 44.8633C44.4535 45.3154 43.9501 45.5928 43.3543 45.6956C42.7584 45.7983 42.1728 45.7367 41.5975 45.5106C41.0222 45.2846 40.5702 44.9249 40.2415 44.4317C39.9127 43.9385 39.7483 43.3837 39.7483 42.7672C39.7483 42.1507 39.9127 41.5856 40.2415 41.0718C40.5702 40.5581 41.0222 40.1882 41.5975 39.9621C42.1728 39.7361 42.7584 39.6847 43.3543 39.808C43.9501 39.9313 44.4535 40.1985 44.8644 40.6095C45.4398 41.1849 45.7274 41.8938 45.7274 42.7364C45.7274 43.5789 45.4398 44.2879 44.8644 44.8633Z" fill="#09244B"/>
</svg>
