<svg width="52" height="52" viewBox="0 0 52 52" fill="none" xmlns="http://www.w3.org/2000/svg">
<path fill-rule="evenodd" clip-rule="evenodd" d="M26 0C40.3598 0 52 11.6402 52 26C52 40.3598 40.3598 52 26 52C11.6402 52 0 40.3598 0 26C0 11.6402 11.6402 0 26 0ZM26 5.2C20.4835 5.2 15.1929 7.39142 11.2922 11.2922C7.39142 15.1929 5.2 20.4835 5.2 26C5.2 31.5165 7.39142 36.8071 11.2922 40.7078C15.1929 44.6086 20.4835 46.8 26 46.8C31.5165 46.8 36.8071 44.6086 40.7078 40.7078C44.6086 36.8071 46.8 31.5165 46.8 26C46.8 20.4835 44.6086 15.1929 40.7078 11.2922C36.8071 7.39142 31.5165 5.2 26 5.2ZM29.9 13C32.2725 12.9966 34.5525 13.9198 36.2542 15.5731C37.9559 17.2263 38.9446 19.4787 39.0097 21.8503C39.0748 24.2219 38.2111 26.5252 36.6027 28.2693C34.9943 30.0133 32.7683 31.0603 30.3992 31.187L29.9 31.2H23.4V36.4C23.3993 37.0627 23.1455 37.7001 22.6906 38.182C22.2357 38.6638 21.6139 38.9538 20.9524 38.9926C20.2908 39.0315 19.6394 38.8162 19.1312 38.3909C18.6231 37.9656 18.2965 37.3623 18.2182 36.7042L18.2 36.4V18.2C18.1996 16.8881 18.6951 15.6245 19.5871 14.6626C20.4791 13.7006 21.7018 13.1114 23.01 13.013L23.4 13H29.9ZM29.9 18.2H23.4V26H29.9C30.9016 25.9995 31.8645 25.6137 32.5894 24.9225C33.3143 24.2314 33.7454 23.2878 33.7936 22.2874C33.8417 21.287 33.5031 20.3064 32.8479 19.5489C32.1928 18.7913 31.2713 18.3148 30.2744 18.2182L29.9 18.2Z" fill="#09244B"/>
</svg>
