<svg width="52" height="52" viewBox="0 0 52 52" fill="none" xmlns="http://www.w3.org/2000/svg">
<path d="M28.503 32.2344L28.1802 32.5573C26.9105 33.827 26.9105 35.8833 28.1802 37.1531C28.815 37.7879 29.647 38.1043 30.479 38.1043C31.311 38.1043 32.1429 37.7879 32.7778 37.1531L47.9441 21.9855C49.2137 20.7157 49.2137 18.6594 47.9441 17.3897C46.6745 16.1199 44.6183 16.1199 43.3487 17.3897L42.755 17.9834L30.9188 6.17647L31.5471 5.5481C32.8168 4.27835 32.8168 2.22206 31.5471 0.95231C30.2775 -0.317437 28.2214 -0.317437 26.9517 0.95231L11.7854 16.1199C10.5157 17.3897 10.5157 19.446 11.7854 20.7157C12.4202 21.3506 13.2522 21.6669 14.0842 21.6669C14.9161 21.6669 15.7481 21.3506 16.3829 20.7157L16.6689 20.4297L20.3089 24.0613L0.965285 43.1898C-0.310854 44.4509 -0.323853 46.5093 0.939286 47.7856C1.57411 48.4291 2.41259 48.7498 3.2489 48.7498C4.07438 48.7498 4.90203 48.4356 5.53469 47.8094L24.9086 28.6484L28.503 32.2344ZM26.3234 10.7701L38.1596 22.577L33.1006 27.6365L21.2643 15.8296L26.3234 10.7701ZM52 48.7498C52 50.5439 50.544 52 48.7501 52H22.7506C20.9567 52 19.5007 50.5439 19.5007 48.7498C19.5007 47.3024 20.4519 46.0911 21.7605 45.6708C22.1982 43.1183 24.4103 41.166 27.0839 41.166H44.4168C47.0926 41.166 49.3047 43.1183 49.7402 45.6708C51.0467 46.0911 52 47.3045 52 48.7498Z" fill="#09244B"/>
</svg>
