<svg width="340" height="135" viewBox="0 0 340 135" fill="none" xmlns="http://www.w3.org/2000/svg">
<rect width="340" height="135" rx="6" fill="#C3EAFE"/>
<path d="M160.968 59.243C160.32 59.243 159.708 59.117 159.132 58.865C158.556 58.613 158.055 58.256 157.629 57.794C157.209 57.332 156.906 56.786 156.72 56.156L158.817 55.589C158.967 56.105 159.24 56.504 159.636 56.786C160.038 57.062 160.479 57.197 160.959 57.191C161.385 57.191 161.766 57.092 162.102 56.894C162.438 56.696 162.702 56.429 162.894 56.093C163.086 55.751 163.182 55.37 163.182 54.95C163.182 54.308 162.975 53.771 162.561 53.339C162.147 52.907 161.613 52.691 160.959 52.691C160.761 52.691 160.566 52.718 160.374 52.772C160.188 52.826 160.008 52.901 159.834 52.997L158.844 51.287L163.2 47.561L163.389 48.083H157.224V46.04H165.171V48.092L161.67 51.458L161.652 50.819C162.438 50.873 163.107 51.092 163.659 51.476C164.217 51.86 164.643 52.355 164.937 52.961C165.237 53.567 165.387 54.23 165.387 54.95C165.387 55.766 165.186 56.498 164.784 57.146C164.388 57.794 163.854 58.307 163.182 58.685C162.516 59.057 161.778 59.243 160.968 59.243ZM167.359 58.982V57.092L172.903 52.151C173.335 51.767 173.635 51.404 173.803 51.062C173.971 50.72 174.055 50.39 174.055 50.072C174.055 49.64 173.962 49.256 173.776 48.92C173.59 48.578 173.332 48.308 173.002 48.11C172.678 47.912 172.303 47.813 171.877 47.813C171.427 47.813 171.028 47.918 170.68 48.128C170.338 48.332 170.071 48.605 169.879 48.947C169.687 49.289 169.597 49.658 169.609 50.054H167.377C167.377 49.19 167.569 48.437 167.953 47.795C168.343 47.153 168.877 46.655 169.555 46.301C170.239 45.947 171.028 45.77 171.922 45.77C172.75 45.77 173.494 45.956 174.154 46.328C174.814 46.694 175.333 47.204 175.711 47.858C176.089 48.506 176.278 49.253 176.278 50.099C176.278 50.717 176.194 51.236 176.026 51.656C175.858 52.076 175.606 52.463 175.27 52.817C174.94 53.171 174.529 53.564 174.037 53.996L170.104 57.479L169.906 56.939H176.278V58.982H167.359ZM178.802 59V56.777H181.025V59H178.802ZM188.147 59.27C187.289 59.27 186.527 59.096 185.861 58.748C185.195 58.4 184.673 57.917 184.295 57.299C183.917 56.681 183.728 55.973 183.728 55.175C183.728 54.461 183.893 53.798 184.223 53.186C184.553 52.574 185.036 52.085 185.672 51.719L185.627 52.412C185.129 52.034 184.742 51.599 184.466 51.107C184.196 50.609 184.061 50.051 184.061 49.433C184.061 48.689 184.235 48.044 184.583 47.498C184.937 46.952 185.42 46.529 186.032 46.229C186.644 45.923 187.349 45.77 188.147 45.77C188.945 45.77 189.65 45.923 190.262 46.229C190.88 46.529 191.363 46.952 191.711 47.498C192.065 48.044 192.242 48.689 192.242 49.433C192.242 50.051 192.11 50.606 191.846 51.098C191.588 51.59 191.195 52.034 190.667 52.43L190.658 51.728C191.282 52.082 191.759 52.568 192.089 53.186C192.425 53.798 192.593 54.461 192.593 55.175C192.593 55.973 192.401 56.681 192.017 57.299C191.639 57.917 191.114 58.4 190.442 58.748C189.776 59.096 189.011 59.27 188.147 59.27ZM188.147 57.227C188.783 57.227 189.299 57.053 189.695 56.705C190.097 56.357 190.298 55.847 190.298 55.175C190.298 54.503 190.1 53.993 189.704 53.645C189.308 53.291 188.789 53.114 188.147 53.114C187.511 53.114 186.998 53.291 186.608 53.645C186.218 53.993 186.023 54.503 186.023 55.175C186.023 55.847 186.218 56.357 186.608 56.705C186.998 57.053 187.511 57.227 188.147 57.227ZM188.147 51.053C188.681 51.053 189.113 50.921 189.443 50.657C189.779 50.387 189.947 49.979 189.947 49.433C189.947 48.887 189.779 48.482 189.443 48.218C189.113 47.948 188.681 47.813 188.147 47.813C187.619 47.813 187.187 47.948 186.851 48.218C186.521 48.482 186.356 48.887 186.356 49.433C186.356 49.979 186.521 50.387 186.851 50.657C187.187 50.921 187.619 51.053 188.147 51.053ZM198.515 59L198.533 46.04H200.729V53.96L204.284 49.28H206.993L203.222 54.14L207.317 59H204.446L200.729 54.32V59H198.515ZM210.955 59L207.166 46.04H209.443L212.026 55.4L214.6 46.058L216.877 46.04L219.46 55.4L222.034 46.04H224.311L220.531 59H218.389L215.734 49.784L213.097 59H210.955ZM232.503 59V54.32C232.503 54.014 232.482 53.675 232.44 53.303C232.398 52.931 232.299 52.574 232.143 52.232C231.993 51.884 231.765 51.599 231.459 51.377C231.159 51.155 230.751 51.044 230.235 51.044C229.959 51.044 229.686 51.089 229.416 51.179C229.146 51.269 228.9 51.425 228.678 51.647C228.462 51.863 228.288 52.163 228.156 52.547C228.024 52.925 227.958 53.411 227.958 54.005L226.671 53.456C226.671 52.628 226.83 51.878 227.148 51.206C227.472 50.534 227.946 50 228.57 49.604C229.194 49.202 229.962 49.001 230.874 49.001C231.594 49.001 232.188 49.121 232.656 49.361C233.124 49.601 233.496 49.907 233.772 50.279C234.048 50.651 234.252 51.047 234.384 51.467C234.516 51.887 234.6 52.286 234.636 52.664C234.678 53.036 234.699 53.339 234.699 53.573V59H232.503ZM225.762 59V46.04H227.697V52.862H227.958V59H225.762Z" fill="black"/>
<path d="M157.184 87V75.8H160.864C161.739 75.8 162.459 75.944 163.024 76.232C163.589 76.52 164.005 76.9093 164.272 77.4C164.549 77.8907 164.688 78.4453 164.688 79.064C164.688 79.672 164.555 80.2213 164.288 80.712C164.021 81.2027 163.605 81.5973 163.04 81.896C162.475 82.184 161.749 82.328 160.864 82.328H158.528V87H157.184ZM158.528 81.192H160.832C161.728 81.192 162.363 81.0053 162.736 80.632C163.12 80.248 163.312 79.7253 163.312 79.064C163.312 78.392 163.12 77.8693 162.736 77.496C162.363 77.112 161.728 76.92 160.832 76.92H158.528V81.192ZM169.517 87.192C168.77 87.192 168.098 87.0213 167.501 86.68C166.904 86.3387 166.429 85.8587 166.077 85.24C165.736 84.6107 165.565 83.8747 165.565 83.032C165.565 82.1893 165.741 81.4587 166.093 80.84C166.445 80.2107 166.92 79.7253 167.517 79.384C168.125 79.0427 168.802 78.872 169.549 78.872C170.296 78.872 170.968 79.0427 171.565 79.384C172.162 79.7253 172.632 80.2107 172.973 80.84C173.325 81.4587 173.501 82.1893 173.501 83.032C173.501 83.8747 173.325 84.6107 172.973 85.24C172.621 85.8587 172.141 86.3387 171.533 86.68C170.936 87.0213 170.264 87.192 169.517 87.192ZM169.517 86.04C169.976 86.04 170.402 85.928 170.797 85.704C171.192 85.48 171.512 85.144 171.757 84.696C172.002 84.248 172.125 83.6933 172.125 83.032C172.125 82.3707 172.002 81.816 171.757 81.368C171.522 80.92 171.208 80.584 170.813 80.36C170.418 80.136 169.997 80.024 169.549 80.024C169.09 80.024 168.664 80.136 168.269 80.36C167.874 80.584 167.554 80.92 167.309 81.368C167.064 81.816 166.941 82.3707 166.941 83.032C166.941 83.6933 167.064 84.248 167.309 84.696C167.554 85.144 167.869 85.48 168.253 85.704C168.648 85.928 169.069 86.04 169.517 86.04ZM176.673 87L174.353 79.064H175.697L177.377 85.288L179.233 79.064H180.753L182.625 85.288L184.289 79.064H185.649L183.329 87H181.953L180.001 80.456L178.049 87H176.673ZM190.406 87.192C189.649 87.192 188.977 87.0213 188.39 86.68C187.804 86.328 187.34 85.8427 186.998 85.224C186.668 84.6053 186.502 83.8747 186.502 83.032C186.502 82.2 186.668 81.4747 186.998 80.856C187.329 80.2267 187.788 79.7413 188.374 79.4C188.972 79.048 189.66 78.872 190.438 78.872C191.206 78.872 191.868 79.048 192.422 79.4C192.988 79.7413 193.42 80.1947 193.718 80.76C194.017 81.3253 194.166 81.9333 194.166 82.584C194.166 82.7013 194.161 82.8187 194.15 82.936C194.15 83.0533 194.15 83.1867 194.15 83.336H187.83C187.862 83.944 188.001 84.4507 188.246 84.856C188.502 85.2507 188.817 85.5493 189.19 85.752C189.574 85.9547 189.98 86.056 190.406 86.056C190.961 86.056 191.425 85.928 191.798 85.672C192.172 85.416 192.444 85.0693 192.614 84.632H193.942C193.729 85.368 193.318 85.9813 192.71 86.472C192.113 86.952 191.345 87.192 190.406 87.192ZM190.406 80.008C189.766 80.008 189.196 80.2053 188.694 80.6C188.204 80.984 187.921 81.5493 187.846 82.296H192.838C192.806 81.5813 192.561 81.0213 192.102 80.616C191.644 80.2107 191.078 80.008 190.406 80.008ZM195.948 87V79.064H197.164L197.276 80.584C197.521 80.0613 197.894 79.6453 198.396 79.336C198.897 79.0267 199.516 78.872 200.252 78.872V80.28H199.884C199.414 80.28 198.982 80.3653 198.588 80.536C198.193 80.696 197.878 80.9733 197.644 81.368C197.409 81.7627 197.292 82.3067 197.292 83V87H195.948ZM208.891 87.192C207.952 87.192 207.205 86.9093 206.651 86.344C206.096 85.768 205.819 84.888 205.819 83.704V79.064H207.163V83.56C207.163 85.2133 207.84 86.04 209.195 86.04C209.888 86.04 210.459 85.7947 210.907 85.304C211.365 84.8027 211.595 84.0933 211.595 83.176V79.064H212.939V87H211.723L211.627 85.576C211.381 86.0773 211.013 86.472 210.523 86.76C210.043 87.048 209.499 87.192 208.891 87.192ZM218.191 87.192C217.242 87.192 216.452 86.952 215.823 86.472C215.194 85.992 214.826 85.3413 214.719 84.52H216.095C216.18 84.936 216.399 85.2987 216.751 85.608C217.114 85.9067 217.599 86.056 218.207 86.056C218.772 86.056 219.188 85.9387 219.455 85.704C219.722 85.4587 219.855 85.1707 219.855 84.84C219.855 84.36 219.679 84.04 219.327 83.88C218.986 83.72 218.5 83.576 217.871 83.448C217.444 83.3627 217.018 83.24 216.591 83.08C216.164 82.92 215.807 82.696 215.519 82.408C215.231 82.1093 215.087 81.72 215.087 81.24C215.087 80.5467 215.343 79.9813 215.855 79.544C216.378 79.096 217.082 78.872 217.967 78.872C218.81 78.872 219.498 79.0853 220.031 79.512C220.575 79.928 220.89 80.5253 220.975 81.304H219.647C219.594 80.8987 219.418 80.584 219.119 80.36C218.831 80.1253 218.442 80.008 217.951 80.008C217.471 80.008 217.098 80.1093 216.831 80.312C216.575 80.5147 216.447 80.7813 216.447 81.112C216.447 81.432 216.612 81.6827 216.943 81.864C217.284 82.0453 217.743 82.2 218.319 82.328C218.81 82.4347 219.274 82.568 219.711 82.728C220.159 82.8773 220.522 83.1067 220.799 83.416C221.087 83.7147 221.231 84.152 221.231 84.728C221.242 85.4427 220.97 86.0347 220.415 86.504C219.871 86.9627 219.13 87.192 218.191 87.192ZM225.791 87.192C225.13 87.192 224.58 87.08 224.143 86.856C223.706 86.632 223.38 86.3333 223.167 85.96C222.954 85.5867 222.847 85.1813 222.847 84.744C222.847 83.9333 223.156 83.3093 223.775 82.872C224.394 82.4347 225.236 82.216 226.303 82.216H228.447V82.12C228.447 81.4267 228.266 80.904 227.903 80.552C227.54 80.1893 227.055 80.008 226.447 80.008C225.924 80.008 225.471 80.1413 225.087 80.408C224.714 80.664 224.479 81.0427 224.383 81.544H223.007C223.06 80.968 223.252 80.4827 223.583 80.088C223.924 79.6933 224.346 79.3947 224.847 79.192C225.348 78.9787 225.882 78.872 226.447 78.872C227.556 78.872 228.388 79.1707 228.943 79.768C229.508 80.3547 229.791 81.1387 229.791 82.12V87H228.591L228.511 85.576C228.287 86.024 227.956 86.408 227.519 86.728C227.092 87.0373 226.516 87.192 225.791 87.192ZM225.999 86.056C226.511 86.056 226.948 85.9227 227.311 85.656C227.684 85.3893 227.967 85.0427 228.159 84.616C228.351 84.1893 228.447 83.7413 228.447 83.272V83.256H226.415C225.626 83.256 225.066 83.3947 224.735 83.672C224.415 83.9387 224.255 84.2747 224.255 84.68C224.255 85.096 224.404 85.432 224.703 85.688C225.012 85.9333 225.444 86.056 225.999 86.056ZM234.943 84.504C234.495 84.504 234.084 84.4453 233.711 84.328L232.911 85.08C233.028 85.1653 233.172 85.24 233.343 85.304C233.524 85.3573 233.78 85.4107 234.111 85.464C234.442 85.5067 234.906 85.5547 235.503 85.608C236.57 85.6827 237.332 85.928 237.791 86.344C238.25 86.76 238.479 87.304 238.479 87.976C238.479 88.4347 238.351 88.872 238.095 89.288C237.85 89.704 237.466 90.0453 236.943 90.312C236.431 90.5787 235.77 90.712 234.959 90.712C234.244 90.712 233.61 90.616 233.055 90.424C232.5 90.2427 232.068 89.96 231.759 89.576C231.45 89.2027 231.295 88.728 231.295 88.152C231.295 87.8533 231.375 87.528 231.535 87.176C231.695 86.8347 231.994 86.5093 232.431 86.2C232.196 86.104 231.994 86.0027 231.823 85.896C231.663 85.7787 231.514 85.6507 231.375 85.512V85.144L232.735 83.8C232.106 83.2667 231.791 82.5627 231.791 81.688C231.791 81.1653 231.914 80.6907 232.159 80.264C232.404 79.8373 232.762 79.5013 233.231 79.256C233.7 79 234.271 78.872 234.943 78.872C235.402 78.872 235.818 78.936 236.191 79.064H239.119V80.072L237.631 80.136C237.94 80.584 238.095 81.1013 238.095 81.688C238.095 82.2107 237.967 82.6853 237.711 83.112C237.466 83.5387 237.108 83.88 236.639 84.136C236.18 84.3813 235.615 84.504 234.943 84.504ZM234.943 83.4C235.508 83.4 235.956 83.256 236.287 82.968C236.628 82.6693 236.799 82.2427 236.799 81.688C236.799 81.144 236.628 80.728 236.287 80.44C235.956 80.1413 235.508 79.992 234.943 79.992C234.367 79.992 233.908 80.1413 233.567 80.44C233.236 80.728 233.071 81.144 233.071 81.688C233.071 82.2427 233.236 82.6693 233.567 82.968C233.908 83.256 234.367 83.4 234.943 83.4ZM232.607 88.024C232.607 88.5573 232.831 88.952 233.279 89.208C233.727 89.4747 234.287 89.608 234.959 89.608C235.62 89.608 236.148 89.464 236.543 89.176C236.948 88.888 237.151 88.504 237.151 88.024C237.151 87.6827 237.012 87.384 236.735 87.128C236.458 86.8827 235.946 86.7387 235.199 86.696C234.612 86.6533 234.106 86.6 233.679 86.536C233.242 86.7707 232.954 87.0213 232.815 87.288C232.676 87.5653 232.607 87.8107 232.607 88.024ZM243.891 87.192C243.133 87.192 242.461 87.0213 241.875 86.68C241.288 86.328 240.824 85.8427 240.483 85.224C240.152 84.6053 239.987 83.8747 239.987 83.032C239.987 82.2 240.152 81.4747 240.483 80.856C240.813 80.2267 241.272 79.7413 241.859 79.4C242.456 79.048 243.144 78.872 243.923 78.872C244.691 78.872 245.352 79.048 245.907 79.4C246.472 79.7413 246.904 80.1947 247.203 80.76C247.501 81.3253 247.651 81.9333 247.651 82.584C247.651 82.7013 247.645 82.8187 247.635 82.936C247.635 83.0533 247.635 83.1867 247.635 83.336H241.315C241.347 83.944 241.485 84.4507 241.731 84.856C241.987 85.2507 242.301 85.5493 242.675 85.752C243.059 85.9547 243.464 86.056 243.891 86.056C244.445 86.056 244.909 85.928 245.283 85.672C245.656 85.416 245.928 85.0693 246.099 84.632H247.427C247.213 85.368 246.803 85.9813 246.195 86.472C245.597 86.952 244.829 87.192 243.891 87.192ZM243.891 80.008C243.251 80.008 242.68 80.2053 242.179 80.6C241.688 80.984 241.405 81.5493 241.331 82.296H246.323C246.291 81.5813 246.045 81.0213 245.587 80.616C245.128 80.2107 244.563 80.008 243.891 80.008ZM256.803 87C256.077 87 255.507 86.824 255.091 86.472C254.675 86.12 254.467 85.4853 254.467 84.568V80.2H253.09V79.064H254.467L254.643 77.16H255.811V79.064H258.147V80.2H255.811V84.568C255.811 85.0693 255.912 85.4107 256.115 85.592C256.317 85.7627 256.675 85.848 257.187 85.848H258.019V87H256.803ZM263.251 87.192C262.505 87.192 261.833 87.0213 261.235 86.68C260.638 86.3387 260.163 85.8587 259.811 85.24C259.47 84.6107 259.299 83.8747 259.299 83.032C259.299 82.1893 259.475 81.4587 259.827 80.84C260.179 80.2107 260.654 79.7253 261.251 79.384C261.859 79.0427 262.537 78.872 263.283 78.872C264.03 78.872 264.702 79.0427 265.299 79.384C265.897 79.7253 266.366 80.2107 266.707 80.84C267.059 81.4587 267.235 82.1893 267.235 83.032C267.235 83.8747 267.059 84.6107 266.707 85.24C266.355 85.8587 265.875 86.3387 265.267 86.68C264.67 87.0213 263.998 87.192 263.251 87.192ZM263.251 86.04C263.71 86.04 264.137 85.928 264.531 85.704C264.926 85.48 265.246 85.144 265.491 84.696C265.737 84.248 265.859 83.6933 265.859 83.032C265.859 82.3707 265.737 81.816 265.491 81.368C265.257 80.92 264.942 80.584 264.547 80.36C264.153 80.136 263.731 80.024 263.283 80.024C262.825 80.024 262.398 80.136 262.003 80.36C261.609 80.584 261.289 80.92 261.043 81.368C260.798 81.816 260.675 82.3707 260.675 83.032C260.675 83.6933 260.798 84.248 261.043 84.696C261.289 85.144 261.603 85.48 261.987 85.704C262.382 85.928 262.803 86.04 263.251 86.04ZM272.704 87.192C271.915 87.192 271.221 87.0107 270.624 86.648C270.037 86.2853 269.579 85.7893 269.248 85.16C268.928 84.5307 268.768 83.816 268.768 83.016C268.768 82.216 268.933 81.5067 269.264 80.888C269.595 80.2587 270.053 79.768 270.64 79.416C271.227 79.0533 271.92 78.872 272.72 78.872C273.371 78.872 273.947 79.0053 274.448 79.272C274.949 79.5387 275.339 79.912 275.616 80.392V75.48H276.96V87H275.744L275.616 85.688C275.36 86.072 274.992 86.4187 274.512 86.728C274.032 87.0373 273.429 87.192 272.704 87.192ZM272.848 86.024C273.381 86.024 273.851 85.9013 274.256 85.656C274.672 85.4 274.992 85.048 275.216 84.6C275.451 84.152 275.568 83.6293 275.568 83.032C275.568 82.4347 275.451 81.912 275.216 81.464C274.992 81.016 274.672 80.6693 274.256 80.424C273.851 80.168 273.381 80.04 272.848 80.04C272.325 80.04 271.856 80.168 271.44 80.424C271.035 80.6693 270.715 81.016 270.48 81.464C270.256 81.912 270.144 82.4347 270.144 83.032C270.144 83.6293 270.256 84.152 270.48 84.6C270.715 85.048 271.035 85.4 271.44 85.656C271.856 85.9013 272.325 86.024 272.848 86.024ZM281.791 87.192C281.13 87.192 280.58 87.08 280.143 86.856C279.706 86.632 279.38 86.3333 279.167 85.96C278.954 85.5867 278.847 85.1813 278.847 84.744C278.847 83.9333 279.156 83.3093 279.775 82.872C280.394 82.4347 281.236 82.216 282.303 82.216H284.447V82.12C284.447 81.4267 284.266 80.904 283.903 80.552C283.54 80.1893 283.055 80.008 282.447 80.008C281.924 80.008 281.471 80.1413 281.087 80.408C280.714 80.664 280.479 81.0427 280.383 81.544H279.007C279.06 80.968 279.252 80.4827 279.583 80.088C279.924 79.6933 280.346 79.3947 280.847 79.192C281.348 78.9787 281.882 78.872 282.447 78.872C283.556 78.872 284.388 79.1707 284.943 79.768C285.508 80.3547 285.791 81.1387 285.791 82.12V87H284.591L284.511 85.576C284.287 86.024 283.956 86.408 283.519 86.728C283.092 87.0373 282.516 87.192 281.791 87.192ZM281.999 86.056C282.511 86.056 282.948 85.9227 283.311 85.656C283.684 85.3893 283.967 85.0427 284.159 84.616C284.351 84.1893 284.447 83.7413 284.447 83.272V83.256H282.415C281.626 83.256 281.066 83.3947 280.735 83.672C280.415 83.9387 280.255 84.2747 280.255 84.68C280.255 85.096 280.404 85.432 280.703 85.688C281.012 85.9333 281.444 86.056 281.999 86.056ZM288.437 90.52L290.405 86.232H289.941L286.789 79.064H288.245L290.869 85.24L293.653 79.064H295.045L289.845 90.52H288.437Z" fill="#787878"/>
<g clip-path="url(#clip0_1_526)">
<path d="M118.16 88C121.385 88 124.044 85.3716 123.575 82.1807C122.331 73.7244 118.4 65.8318 112.284 59.7157C104.783 52.2143 94.6087 48 84 48C73.3913 48 63.2172 52.2143 55.7157 59.7157C49.5997 65.8318 45.6688 73.7244 44.4254 82.1807C43.9562 85.3716 46.6146 88 49.8398 88C53.065 88 55.619 85.3582 56.2794 82.2013C57.3985 76.8524 60.0516 71.8972 63.9744 67.9744C69.2855 62.6633 76.489 59.6795 84 59.6795C91.5111 59.6795 98.7145 62.6633 104.026 67.9744C107.948 71.8972 110.602 76.8524 111.721 82.2013C112.381 85.3582 114.935 88 118.16 88Z" fill="white" fill-opacity="0.6"/>
<path d="M49.8398 88C46.6146 88 43.9563 85.3717 44.4255 82.1808C45.285 76.3362 47.4324 70.7292 50.7412 65.7772C55.1365 59.1992 61.3836 54.0723 68.6927 51.0448C76.0017 48.0173 84.0444 47.2252 91.8036 48.7686C97.6449 49.9305 103.128 52.3768 107.869 55.9019C110.457 57.8264 110.436 61.5645 108.155 63.8451C105.874 66.1256 102.2 66.0637 99.5011 64.2984C96.4821 62.324 93.0982 60.9345 89.525 60.2237C84.0314 59.131 78.3371 59.6918 73.1622 61.8353C67.9873 63.9788 63.5643 67.6087 60.4524 72.266C58.4284 75.2952 57.0181 78.6705 56.2795 82.2014C55.6191 85.3583 53.065 88 49.8398 88Z" fill="#5243E6"/>
</g>
<defs>
<clipPath id="clip0_1_526">
<rect width="80" height="40" fill="white" transform="translate(44 48)"/>
</clipPath>
</defs>
</svg>
