<svg width="49" height="49" viewBox="0 0 49 49" fill="none" xmlns="http://www.w3.org/2000/svg">
<rect width="49" height="49" rx="24.5" fill="#6254EB"/>
<path d="M17.7071 31.7071C17.3166 32.0976 16.6834 32.0976 16.2929 31.7071C15.9024 31.3166 15.9024 30.6834 16.2929 30.2929L17.7071 31.7071ZM31.1421 15.8579C31.6944 15.8579 32.1421 16.3056 32.1421 16.8579L32.1421 25.8579C32.1421 26.4101 31.6944 26.8579 31.1421 26.8579C30.5899 26.8579 30.1421 26.4101 30.1421 25.8579L30.1421 17.8579L22.1421 17.8579C21.5899 17.8579 21.1421 17.4101 21.1421 16.8579C21.1421 16.3056 21.5899 15.8579 22.1421 15.8579L31.1421 15.8579ZM16.2929 30.2929L30.435 16.1508L31.8492 17.565L17.7071 31.7071L16.2929 30.2929Z" fill="white"/>
</svg>
