<svg width="95" height="42" viewBox="0 0 95 42" fill="none" xmlns="http://www.w3.org/2000/svg">
<g filter="url(#filter0_d_1635_1927)">
<rect x="10.9097" y="8" width="73.132" height="22" rx="8" fill="#D9F8FF" shape-rendering="crispEdges"/>
</g>
<path d="M35.9358 21.76H33.3158L32.8958 23H31.1058L33.6458 15.98H35.6258L38.1658 23H36.3558L35.9358 21.76ZM35.4958 20.44L34.6258 17.87L33.7658 20.44H35.4958ZM38.5988 20.21C38.5988 19.63 38.7155 19.1233 38.9488 18.69C39.1888 18.2567 39.5188 17.9233 39.9388 17.69C40.3655 17.4567 40.8522 17.34 41.3988 17.34C42.0988 17.34 42.6822 17.5233 43.1488 17.89C43.6222 18.2567 43.9322 18.7733 44.0788 19.44H42.2588C42.1055 19.0133 41.8088 18.8 41.3688 18.8C41.0555 18.8 40.8055 18.9233 40.6188 19.17C40.4322 19.41 40.3388 19.7567 40.3388 20.21C40.3388 20.6633 40.4322 21.0133 40.6188 21.26C40.8055 21.5 41.0555 21.62 41.3688 21.62C41.8088 21.62 42.1055 21.4067 42.2588 20.98H44.0788C43.9322 21.6333 43.6222 22.1467 43.1488 22.52C42.6755 22.8933 42.0922 23.08 41.3988 23.08C40.8522 23.08 40.3655 22.9633 39.9388 22.73C39.5188 22.4967 39.1888 22.1633 38.9488 21.73C38.7155 21.2967 38.5988 20.79 38.5988 20.21ZM48.1035 21.55V23H47.2335C46.6135 23 46.1302 22.85 45.7835 22.55C45.4369 22.2433 45.2635 21.7467 45.2635 21.06V18.84H44.5835V17.42H45.2635V16.06H46.9735V17.42H48.0935V18.84H46.9735V21.08C46.9735 21.2467 47.0135 21.3667 47.0935 21.44C47.1735 21.5133 47.3069 21.55 47.4935 21.55H48.1035ZM49.916 16.84C49.616 16.84 49.3694 16.7533 49.176 16.58C48.9894 16.4 48.896 16.18 48.896 15.92C48.896 15.6533 48.9894 15.4333 49.176 15.26C49.3694 15.08 49.616 14.99 49.916 14.99C50.2094 14.99 50.4494 15.08 50.636 15.26C50.8294 15.4333 50.926 15.6533 50.926 15.92C50.926 16.18 50.8294 16.4 50.636 16.58C50.4494 16.7533 50.2094 16.84 49.916 16.84ZM50.766 17.42V23H49.056V17.42H50.766ZM54.5153 21.4L55.7253 17.42H57.5453L55.5653 23H53.4553L51.4753 17.42H53.3053L54.5153 21.4ZM63.525 20.12C63.525 20.28 63.515 20.4467 63.495 20.62H59.625C59.6517 20.9667 59.7617 21.2333 59.955 21.42C60.155 21.6 60.3984 21.69 60.685 21.69C61.1117 21.69 61.4084 21.51 61.575 21.15H63.395C63.3017 21.5167 63.1317 21.8467 62.885 22.14C62.645 22.4333 62.3417 22.6633 61.975 22.83C61.6084 22.9967 61.1984 23.08 60.745 23.08C60.1984 23.08 59.7117 22.9633 59.285 22.73C58.8584 22.4967 58.525 22.1633 58.285 21.73C58.045 21.2967 57.925 20.79 57.925 20.21C57.925 19.63 58.0417 19.1233 58.275 18.69C58.515 18.2567 58.8484 17.9233 59.275 17.69C59.7017 17.4567 60.1917 17.34 60.745 17.34C61.285 17.34 61.765 17.4533 62.185 17.68C62.605 17.9067 62.9317 18.23 63.165 18.65C63.405 19.07 63.525 19.56 63.525 20.12ZM61.775 19.67C61.775 19.3767 61.675 19.1433 61.475 18.97C61.275 18.7967 61.025 18.71 60.725 18.71C60.4384 18.71 60.195 18.7933 59.995 18.96C59.8017 19.1267 59.6817 19.3633 59.635 19.67H61.775Z" fill="#62BCF9"/>
<defs>
<filter id="filter0_d_1635_1927" x="0.909668" y="0" width="93.1321" height="42" filterUnits="userSpaceOnUse" color-interpolation-filters="sRGB">
<feFlood flood-opacity="0" result="BackgroundImageFix"/>
<feColorMatrix in="SourceAlpha" type="matrix" values="0 0 0 0 0 0 0 0 0 0 0 0 0 0 0 0 0 0 127 0" result="hardAlpha"/>
<feOffset dy="2"/>
<feGaussianBlur stdDeviation="5"/>
<feComposite in2="hardAlpha" operator="out"/>
<feColorMatrix type="matrix" values="0 0 0 0 0.486275 0 0 0 0 0.552941 0 0 0 0 0.709804 0 0 0 0.12 0"/>
<feBlend mode="normal" in2="BackgroundImageFix" result="effect1_dropShadow_1635_1927"/>
<feBlend mode="normal" in="SourceGraphic" in2="effect1_dropShadow_1635_1927" result="shape"/>
</filter>
</defs>
</svg>
