<svg width="121" height="19" viewBox="0 0 121 19" fill="none" xmlns="http://www.w3.org/2000/svg">
<rect width="120.7" height="19" rx="9.5" fill="#D8FFD9"/>
<path d="M34.7454 14L37.1654 6.08H39.3984L41.8184 14H40.2784L38.1224 7.015H38.4084L36.2854 14H34.7454ZM36.1974 12.35V10.953H40.3774V12.35H36.1974ZM45.7192 14.165C45.1288 14.165 44.6357 14.0275 44.2397 13.7525C43.8437 13.4775 43.5448 13.1035 43.3432 12.6305C43.1452 12.1575 43.0462 11.624 43.0462 11.03C43.0462 10.436 43.1452 9.9025 43.3432 9.4295C43.5412 8.9565 43.8327 8.5825 44.2177 8.3075C44.6027 8.0325 45.0775 7.895 45.6422 7.895C46.2105 7.895 46.7055 8.03067 47.1272 8.302C47.5488 8.57333 47.8752 8.9455 48.1062 9.4185C48.3408 9.88783 48.4582 10.425 48.4582 11.03C48.4582 11.624 48.3427 12.1575 48.1117 12.6305C47.8843 13.1035 47.5653 13.4775 47.1547 13.7525C46.744 14.0275 46.2655 14.165 45.7192 14.165ZM42.7932 16.64V8.06H44.1132V12.13H44.3002V16.64H42.7932ZM45.4772 12.834C45.7998 12.834 46.0638 12.7533 46.2692 12.592C46.4745 12.4307 46.6267 12.2143 46.7257 11.943C46.8247 11.668 46.8742 11.3637 46.8742 11.03C46.8742 10.7 46.8228 10.3993 46.7202 10.128C46.6175 9.853 46.458 9.63483 46.2417 9.4735C46.029 9.3085 45.7558 9.226 45.4222 9.226C45.1105 9.226 44.8575 9.30117 44.6632 9.4515C44.4725 9.60183 44.3332 9.81267 44.2452 10.084C44.1572 10.3553 44.1132 10.6707 44.1132 11.03C44.1132 11.3893 44.1572 11.7047 44.2452 11.976C44.3332 12.2473 44.4762 12.4582 44.6742 12.6085C44.8758 12.7588 45.1435 12.834 45.4772 12.834ZM52.5834 14.165C51.9931 14.165 51.4999 14.0275 51.1039 13.7525C50.7079 13.4775 50.4091 13.1035 50.2074 12.6305C50.0094 12.1575 49.9104 11.624 49.9104 11.03C49.9104 10.436 50.0094 9.9025 50.2074 9.4295C50.4054 8.9565 50.6969 8.5825 51.0819 8.3075C51.4669 8.0325 51.9418 7.895 52.5064 7.895C53.0748 7.895 53.5698 8.03067 53.9914 8.302C54.4131 8.57333 54.7394 8.9455 54.9704 9.4185C55.2051 9.88783 55.3224 10.425 55.3224 11.03C55.3224 11.624 55.2069 12.1575 54.9759 12.6305C54.7486 13.1035 54.4296 13.4775 54.0189 13.7525C53.6083 14.0275 53.1298 14.165 52.5834 14.165ZM49.6574 16.64V8.06H50.9774V12.13H51.1644V16.64H49.6574ZM52.3414 12.834C52.6641 12.834 52.9281 12.7533 53.1334 12.592C53.3388 12.4307 53.4909 12.2143 53.5899 11.943C53.6889 11.668 53.7384 11.3637 53.7384 11.03C53.7384 10.7 53.6871 10.3993 53.5844 10.128C53.4818 9.853 53.3223 9.63483 53.1059 9.4735C52.8933 9.3085 52.6201 9.226 52.2864 9.226C51.9748 9.226 51.7218 9.30117 51.5274 9.4515C51.3368 9.60183 51.1974 9.81267 51.1094 10.084C51.0214 10.3553 50.9774 10.6707 50.9774 11.03C50.9774 11.3893 51.0214 11.7047 51.1094 11.976C51.1974 12.2473 51.3404 12.4582 51.5384 12.6085C51.7401 12.7588 52.0078 12.834 52.3414 12.834ZM56.5327 14V8.06H57.8527V9.512L57.7097 9.325C57.7867 9.11967 57.8894 8.93267 58.0177 8.764C58.146 8.59533 58.3037 8.456 58.4907 8.346C58.6337 8.258 58.7895 8.19017 58.9582 8.1425C59.1269 8.09117 59.301 8.06 59.4807 8.049C59.6604 8.03433 59.84 8.038 60.0197 8.06V9.457C59.8547 9.40567 59.6622 9.38917 59.4422 9.4075C59.2259 9.42217 59.0297 9.47167 58.8537 9.556C58.6777 9.63667 58.5292 9.74483 58.4082 9.8805C58.2872 10.0125 58.1955 10.1702 58.1332 10.3535C58.0709 10.5332 58.0397 10.7367 58.0397 10.964V14H56.5327ZM63.6315 14.165C63.0338 14.165 62.5095 14.0312 62.0585 13.7635C61.6075 13.4958 61.2555 13.1273 61.0025 12.658C60.7531 12.185 60.6285 11.6423 60.6285 11.03C60.6285 10.4103 60.7568 9.86583 61.0135 9.3965C61.2701 8.9235 61.624 8.555 62.075 8.291C62.526 8.027 63.0448 7.895 63.6315 7.895C64.2291 7.895 64.7535 8.02883 65.2045 8.2965C65.6591 8.56417 66.013 8.9345 66.266 9.4075C66.519 9.87683 66.6455 10.4177 66.6455 11.03C66.6455 11.646 66.5171 12.1905 66.2605 12.6635C66.0075 13.1328 65.6536 13.5013 65.199 13.769C64.748 14.033 64.2255 14.165 63.6315 14.165ZM63.6315 12.768C64.1118 12.768 64.4693 12.6067 64.704 12.284C64.9423 11.9577 65.0615 11.5397 65.0615 11.03C65.0615 10.502 64.9405 10.0803 64.6985 9.765C64.4601 9.44967 64.1045 9.292 63.6315 9.292C63.3051 9.292 63.0375 9.36533 62.8285 9.512C62.6195 9.65867 62.4636 9.86217 62.361 10.1225C62.262 10.3828 62.2125 10.6853 62.2125 11.03C62.2125 11.5617 62.3316 11.9852 62.57 12.3005C62.812 12.6122 63.1658 12.768 63.6315 12.768ZM69.2461 14L67.0901 8.06H68.5861L69.9941 12.174L71.4021 8.06H72.8981L70.7421 14H69.2461ZM76.4382 14.165C75.8296 14.165 75.2924 14.0348 74.8267 13.7745C74.3647 13.5105 74.0017 13.1493 73.7377 12.691C73.4774 12.229 73.3472 11.701 73.3472 11.107C73.3472 10.458 73.4756 9.89333 73.7322 9.413C73.9889 8.93267 74.3427 8.5605 74.7937 8.2965C75.2447 8.02883 75.7636 7.895 76.3502 7.895C76.9736 7.895 77.5034 8.04167 77.9397 8.335C78.3761 8.62833 78.6987 9.04083 78.9077 9.5725C79.1167 10.1042 79.1901 10.7293 79.1277 11.448H77.6482V10.898C77.6482 10.293 77.5511 9.8585 77.3567 9.5945C77.1661 9.32683 76.8526 9.193 76.4162 9.193C75.9066 9.193 75.5307 9.34883 75.2887 9.6605C75.0504 9.9685 74.9312 10.425 74.9312 11.03C74.9312 11.5837 75.0504 12.0127 75.2887 12.317C75.5307 12.6177 75.8846 12.768 76.3502 12.768C76.6436 12.768 76.8947 12.7038 77.1037 12.5755C77.3127 12.4472 77.4722 12.262 77.5822 12.02L79.0782 12.449C78.8546 12.9917 78.5007 13.4133 78.0167 13.714C77.5364 14.0147 77.0102 14.165 76.4382 14.165ZM74.4692 11.448V10.337H78.4072V11.448H74.4692ZM82.7786 14.165C82.2323 14.165 81.7538 14.0275 81.3431 13.7525C80.9324 13.4775 80.6116 13.1035 80.3806 12.6305C80.1533 12.1575 80.0396 11.624 80.0396 11.03C80.0396 10.425 80.1551 9.88783 80.3861 9.4185C80.6208 8.9455 80.9489 8.57333 81.3706 8.302C81.7923 8.03067 82.2873 7.895 82.8556 7.895C83.4203 7.895 83.8951 8.0325 84.2801 8.3075C84.6651 8.5825 84.9566 8.9565 85.1546 9.4295C85.3526 9.9025 85.4516 10.436 85.4516 11.03C85.4516 11.624 85.3508 12.1575 85.1491 12.6305C84.9511 13.1035 84.6541 13.4775 84.2581 13.7525C83.8621 14.0275 83.3689 14.165 82.7786 14.165ZM83.0206 12.834C83.3543 12.834 83.6201 12.7588 83.8181 12.6085C84.0198 12.4582 84.1646 12.2473 84.2526 11.976C84.3406 11.7047 84.3846 11.3893 84.3846 11.03C84.3846 10.6707 84.3406 10.3553 84.2526 10.084C84.1646 9.81267 84.0234 9.60183 83.8291 9.4515C83.6384 9.30117 83.3873 9.226 83.0756 9.226C82.7419 9.226 82.4669 9.3085 82.2506 9.4735C82.0379 9.63483 81.8803 9.853 81.7776 10.128C81.6749 10.3993 81.6236 10.7 81.6236 11.03C81.6236 11.3637 81.6731 11.668 81.7721 11.943C81.8711 12.2143 82.0233 12.4307 82.2286 12.592C82.4339 12.7533 82.6979 12.834 83.0206 12.834ZM84.3846 14V9.93H84.1976V6.08H85.7046V14H84.3846Z" fill="#2A2828"/>
<circle cx="8" cy="9" r="4" fill="#46EF4D"/>
</svg>
