<svg width="15" height="15" viewBox="0 0 15 15" fill="none" xmlns="http://www.w3.org/2000/svg">
<g clip-path="url(#clip0_2726_789)">
<path fill-rule="evenodd" clip-rule="evenodd" d="M13.2449 3.41566C13.3621 3.53286 13.4279 3.6918 13.4279 3.85753C13.4279 4.02326 13.3621 4.1822 13.2449 4.29941L6.21869 11.3263C6.15484 11.3902 6.07904 11.4408 5.99561 11.4754C5.91217 11.51 5.82275 11.5278 5.73244 11.5278C5.64213 11.5278 5.5527 11.51 5.46927 11.4754C5.38584 11.4408 5.31003 11.3902 5.24619 11.3263L1.75494 7.83503C1.69687 7.77696 1.65081 7.70803 1.61938 7.63216C1.58795 7.55628 1.57178 7.47497 1.57178 7.39285C1.57178 7.31072 1.58795 7.22941 1.61938 7.15353C1.65081 7.07766 1.69687 7.00873 1.75494 6.95066C1.81301 6.89259 1.88194 6.84653 1.95781 6.8151C2.03369 6.78367 2.115 6.7675 2.19712 6.7675C2.27925 6.7675 2.36056 6.78367 2.43644 6.8151C2.51231 6.84653 2.58124 6.89259 2.63931 6.95066L5.73306 10.0444L12.3606 3.41566C12.4778 3.29849 12.6367 3.23267 12.8024 3.23267C12.9682 3.23267 13.1277 3.29849 13.2449 3.41566Z" fill="#46EF4D"/>
</g>
<defs>
<clipPath id="clip0_2726_789">
<rect width="15" height="15" fill="white"/>
</clipPath>
</defs>
</svg>
