<svg width="20" height="20" viewBox="0 0 20 20" fill="none" xmlns="http://www.w3.org/2000/svg">
<g clip-path="url(#clip0_2726_785)">
<path d="M9.9783 1.66675C14.5708 1.66675 18.2935 5.39758 18.2935 10.0001C18.2935 14.6026 14.5708 18.3334 9.9783 18.3334C5.38581 18.3334 1.66309 14.6026 1.66309 10.0001C1.66309 5.39758 5.38581 1.66675 9.9783 1.66675ZM9.9783 3.33341C8.21404 3.33341 6.52203 4.03579 5.27451 5.28604C4.02698 6.53628 3.32613 8.23197 3.32613 10.0001C3.32613 11.7682 4.02698 13.4639 5.27451 14.7141C6.52203 15.9644 8.21404 16.6667 9.9783 16.6667C11.7426 16.6667 13.4346 15.9644 14.6821 14.7141C15.9296 13.4639 16.6305 11.7682 16.6305 10.0001C16.6305 8.23197 15.9296 6.53628 14.6821 5.28604C13.4346 4.03579 11.7426 3.33341 9.9783 3.33341ZM12.9177 6.98425C13.067 6.8332 13.2683 6.74505 13.4803 6.73784C13.6923 6.73064 13.8991 6.80491 14.0582 6.94547C14.2174 7.08603 14.3169 7.28224 14.3365 7.49393C14.356 7.70563 14.2941 7.91681 14.1634 8.08425L14.0943 8.16258L9.44946 12.8184C9.29092 12.9773 9.0797 13.0722 8.85589 13.0853C8.63209 13.0984 8.41129 13.0286 8.23543 12.8892L8.15561 12.8184L5.86227 10.5201C5.71155 10.3705 5.6236 10.1688 5.6164 9.95629C5.60921 9.74381 5.68332 9.53661 5.82358 9.3771C5.96383 9.21759 6.15961 9.11783 6.37085 9.09824C6.58209 9.07866 6.79281 9.14073 6.95988 9.27175L7.03804 9.34175L8.80253 11.1092L12.9186 6.98425H12.9177Z" fill="#46EF4D"/>
</g>
<defs>
<clipPath id="clip0_2726_785">
<rect width="19.9565" height="20" fill="white"/>
</clipPath>
</defs>
</svg>
