<svg width="5" height="8" viewBox="0 0 5 8" fill="none" xmlns="http://www.w3.org/2000/svg">
<path fill-rule="evenodd" clip-rule="evenodd" d="M4.70715 0.465001C4.89462 0.652529 4.99994 0.906837 4.99994 1.172C4.99994 1.43717 4.89462 1.69147 4.70715 1.879L2.58615 4L4.70715 6.121C4.80006 6.21385 4.87377 6.32408 4.92408 6.44541C4.97439 6.56675 5.00031 6.6968 5.00035 6.82815C5.0004 6.9595 4.97457 7.08957 4.92435 7.21094C4.87413 7.3323 4.80049 7.44259 4.70765 7.5355C4.61481 7.62841 4.50457 7.70212 4.38324 7.75243C4.2619 7.80274 4.13185 7.82866 4.0005 7.8287C3.86916 7.82875 3.73908 7.80292 3.61772 7.7527C3.49635 7.70248 3.38606 7.62885 3.29315 7.536L0.46515 4.707C0.277679 4.51947 0.172363 4.26517 0.172363 4C0.172363 3.73484 0.277679 3.48053 0.46515 3.293L3.29315 0.465001C3.48068 0.27753 3.73499 0.172215 4.00015 0.172215C4.26531 0.172215 4.51962 0.27753 4.70715 0.465001Z" fill="#09244B"/>
</svg>
