<svg width="450" height="110" viewBox="0 0 450 110" fill="none" xmlns="http://www.w3.org/2000/svg">
<g filter="url(#filter0_d_25_229)">
<rect x="25" y="13" width="400" height="60" rx="10" fill="#4461F2"/>
</g>
<path d="M196.394 50.285C195.393 50.285 194.49 50.1108 193.686 49.7625C192.888 49.4142 192.229 48.917 191.71 48.271C191.197 47.6187 190.871 46.846 190.732 45.953L193.107 45.592C193.309 46.4027 193.724 47.0297 194.351 47.473C194.984 47.9163 195.713 48.138 196.536 48.138C197.024 48.138 197.483 48.062 197.914 47.91C198.344 47.758 198.693 47.5363 198.959 47.245C199.231 46.9537 199.367 46.5958 199.367 46.1715C199.367 45.9815 199.335 45.8073 199.272 45.649C199.209 45.4843 199.114 45.3387 198.987 45.212C198.867 45.0853 198.708 44.9713 198.512 44.87C198.322 44.7623 198.1 44.6705 197.847 44.5945L194.313 43.5495C194.009 43.4608 193.68 43.3437 193.325 43.198C192.977 43.046 192.644 42.8402 192.328 42.5805C192.017 42.3145 191.761 41.9788 191.558 41.5735C191.362 41.1618 191.264 40.6552 191.264 40.0535C191.264 39.1732 191.485 38.4353 191.929 37.84C192.378 37.2383 192.98 36.7887 193.734 36.491C194.494 36.1933 195.336 36.0477 196.261 36.054C197.198 36.0603 198.034 36.2218 198.769 36.5385C199.503 36.8488 200.118 37.3017 200.612 37.897C201.106 38.4923 201.454 39.2112 201.657 40.0535L199.196 40.481C199.095 39.9997 198.898 39.5912 198.607 39.2555C198.322 38.9135 197.971 38.6538 197.553 38.4765C197.141 38.2992 196.701 38.2042 196.232 38.1915C195.776 38.1852 195.352 38.2548 194.959 38.4005C194.573 38.5398 194.259 38.7425 194.019 39.0085C193.784 39.2745 193.667 39.5848 193.667 39.9395C193.667 40.2752 193.768 40.5507 193.971 40.766C194.174 40.975 194.424 41.1428 194.722 41.2695C195.026 41.3898 195.333 41.4912 195.643 41.5735L198.094 42.2575C198.43 42.3462 198.807 42.4665 199.225 42.6185C199.643 42.7705 200.045 42.9827 200.431 43.255C200.817 43.5273 201.134 43.8852 201.381 44.3285C201.634 44.7718 201.761 45.3355 201.761 46.0195C201.761 46.7288 201.612 47.3527 201.315 47.891C201.023 48.423 200.627 48.8663 200.127 49.221C199.627 49.5757 199.054 49.8417 198.408 50.019C197.768 50.1963 197.097 50.285 196.394 50.285ZM205.717 38.182V36.0825H208.007V38.182H205.717ZM205.717 50V39.74H208.007V50H205.717ZM216.876 54.845C216.306 54.845 215.758 54.7563 215.232 54.579C214.713 54.4017 214.244 54.1452 213.826 53.8095C213.408 53.4802 213.066 53.0812 212.8 52.6125L214.909 51.5675C215.105 51.9412 215.381 52.2167 215.736 52.394C216.097 52.5777 216.48 52.6695 216.885 52.6695C217.36 52.6695 217.784 52.584 218.158 52.413C218.532 52.2483 218.82 52.0013 219.023 51.672C219.232 51.349 219.33 50.9437 219.317 50.456V47.5395H219.602V39.74H221.607V50.494C221.607 50.7537 221.594 51.0007 221.569 51.235C221.55 51.4757 221.515 51.71 221.464 51.938C221.312 52.603 221.021 53.1477 220.59 53.572C220.159 54.0027 219.624 54.3225 218.985 54.5315C218.351 54.7405 217.648 54.845 216.876 54.845ZM216.676 50.285C215.732 50.285 214.909 50.0475 214.206 49.5725C213.503 49.0975 212.958 48.4515 212.572 47.6345C212.186 46.8175 211.993 45.896 211.993 44.87C211.993 43.8313 212.186 42.9067 212.572 42.096C212.965 41.279 213.519 40.6362 214.235 40.1675C214.95 39.6925 215.793 39.455 216.762 39.455C217.737 39.455 218.554 39.6925 219.213 40.1675C219.878 40.6362 220.381 41.279 220.723 42.096C221.065 42.913 221.236 43.8377 221.236 44.87C221.236 45.8897 221.065 46.8112 220.723 47.6345C220.381 48.4515 219.871 49.0975 219.194 49.5725C218.516 50.0475 217.677 50.285 216.676 50.285ZM217.028 48.233C217.642 48.233 218.136 48.0937 218.51 47.815C218.89 47.53 219.165 47.1342 219.336 46.6275C219.513 46.1208 219.602 45.535 219.602 44.87C219.602 44.1987 219.513 43.6128 219.336 43.1125C219.165 42.6058 218.896 42.2132 218.529 41.9345C218.161 41.6495 217.686 41.507 217.104 41.507C216.489 41.507 215.983 41.659 215.584 41.963C215.185 42.2607 214.89 42.666 214.7 43.179C214.51 43.6857 214.415 44.2493 214.415 44.87C214.415 45.497 214.507 46.067 214.691 46.58C214.881 47.0867 215.169 47.4888 215.555 47.7865C215.941 48.0842 216.432 48.233 217.028 48.233ZM233.077 50V45.06C233.077 44.737 233.055 44.3792 233.011 43.9865C232.966 43.5938 232.862 43.217 232.697 42.856C232.539 42.4887 232.298 42.1878 231.975 41.9535C231.658 41.7192 231.228 41.602 230.683 41.602C230.392 41.602 230.104 41.6495 229.819 41.7445C229.534 41.8395 229.274 42.0042 229.04 42.2385C228.812 42.4665 228.628 42.7832 228.489 43.1885C228.349 43.5875 228.28 44.1005 228.28 44.7275L226.921 44.148C226.921 43.274 227.089 42.4823 227.425 41.773C227.767 41.0637 228.267 40.5 228.926 40.082C229.584 39.6577 230.395 39.4455 231.358 39.4455C232.118 39.4455 232.745 39.5722 233.239 39.8255C233.733 40.0788 234.125 40.4018 234.417 40.7945C234.708 41.1872 234.923 41.6052 235.063 42.0485C235.202 42.4918 235.291 42.913 235.329 43.312C235.373 43.7047 235.395 44.0245 235.395 44.2715V50H233.077ZM225.962 50V39.74H228.004V42.9225H228.28V50H225.962ZM245.288 50V36.32H247.577V50H245.288ZM259.229 50V45.06C259.229 44.737 259.207 44.3792 259.163 43.9865C259.119 43.5938 259.014 43.217 258.849 42.856C258.691 42.4887 258.45 42.1878 258.127 41.9535C257.811 41.7192 257.38 41.602 256.835 41.602C256.544 41.602 256.256 41.6495 255.971 41.7445C255.686 41.8395 255.426 42.0042 255.192 42.2385C254.964 42.4665 254.78 42.7832 254.641 43.1885C254.502 43.5875 254.432 44.1005 254.432 44.7275L253.073 44.148C253.073 43.274 253.241 42.4823 253.577 41.773C253.919 41.0637 254.419 40.5 255.078 40.082C255.737 39.6577 256.547 39.4455 257.51 39.4455C258.27 39.4455 258.897 39.5722 259.391 39.8255C259.885 40.0788 260.278 40.4018 260.569 40.7945C260.86 41.1872 261.076 41.6052 261.215 42.0485C261.354 42.4918 261.443 42.913 261.481 43.312C261.525 43.7047 261.547 44.0245 261.547 44.2715V50H259.229ZM252.114 50V39.74H254.156V42.9225H254.432V50H252.114Z" fill="white"/>
<defs>
<filter id="filter0_d_25_229" x="0" y="0" width="450" height="110" filterUnits="userSpaceOnUse" color-interpolation-filters="sRGB">
<feFlood flood-opacity="0" result="BackgroundImageFix"/>
<feColorMatrix in="SourceAlpha" type="matrix" values="0 0 0 0 0 0 0 0 0 0 0 0 0 0 0 0 0 0 127 0" result="hardAlpha"/>
<feMorphology radius="4" operator="dilate" in="SourceAlpha" result="effect1_dropShadow_25_229"/>
<feOffset dy="12"/>
<feGaussianBlur stdDeviation="10.5"/>
<feComposite in2="hardAlpha" operator="out"/>
<feColorMatrix type="matrix" values="0 0 0 0 0.266667 0 0 0 0 0.380392 0 0 0 0 0.94902 0 0 0 0.15 0"/>
<feBlend mode="normal" in2="BackgroundImageFix" result="effect1_dropShadow_25_229"/>
<feBlend mode="normal" in="SourceGraphic" in2="effect1_dropShadow_25_229" result="shape"/>
</filter>
</defs>
</svg>
