<svg width="202" height="64" viewBox="0 0 202 64" fill="none" xmlns="http://www.w3.org/2000/svg">
<rect width="202" height="64" rx="32" fill="#5243E6"/>
<path d="M57.892 36.444H52.654L51.754 39H49.612L54.094 26.472H56.47L60.952 39H58.792L57.892 36.444ZM57.316 34.77L55.282 28.956L53.23 34.77H57.316ZM62.2168 33.996C62.2168 33 62.4208 32.118 62.8288 31.35C63.2488 30.582 63.8128 29.988 64.5208 29.568C65.2408 29.136 66.0388 28.92 66.9148 28.92C67.5628 28.92 68.1988 29.064 68.8228 29.352C69.4588 29.628 69.9628 30 70.3348 30.468V25.68H72.4048V39H70.3348V37.506C69.9988 37.986 69.5308 38.382 68.9308 38.694C68.3428 39.006 67.6648 39.162 66.8968 39.162C66.0328 39.162 65.2408 38.946 64.5208 38.514C63.8128 38.07 63.2488 37.458 62.8288 36.678C62.4208 35.886 62.2168 34.992 62.2168 33.996ZM70.3348 34.032C70.3348 33.348 70.1908 32.754 69.9028 32.25C69.6268 31.746 69.2608 31.362 68.8048 31.098C68.3488 30.834 67.8568 30.702 67.3288 30.702C66.8008 30.702 66.3088 30.834 65.8528 31.098C65.3968 31.35 65.0248 31.728 64.7368 32.232C64.4608 32.724 64.3228 33.312 64.3228 33.996C64.3228 34.68 64.4608 35.28 64.7368 35.796C65.0248 36.312 65.3968 36.708 65.8528 36.984C66.3208 37.248 66.8128 37.38 67.3288 37.38C67.8568 37.38 68.3488 37.248 68.8048 36.984C69.2608 36.72 69.6268 36.336 69.9028 35.832C70.1908 35.316 70.3348 34.716 70.3348 34.032ZM74.416 33.996C74.416 33 74.62 32.118 75.028 31.35C75.448 30.582 76.012 29.988 76.72 29.568C77.44 29.136 78.238 28.92 79.114 28.92C79.762 28.92 80.398 29.064 81.022 29.352C81.658 29.628 82.162 30 82.534 30.468V25.68H84.604V39H82.534V37.506C82.198 37.986 81.73 38.382 81.13 38.694C80.542 39.006 79.864 39.162 79.096 39.162C78.232 39.162 77.44 38.946 76.72 38.514C76.012 38.07 75.448 37.458 75.028 36.678C74.62 35.886 74.416 34.992 74.416 33.996ZM82.534 34.032C82.534 33.348 82.39 32.754 82.102 32.25C81.826 31.746 81.46 31.362 81.004 31.098C80.548 30.834 80.056 30.702 79.528 30.702C79 30.702 78.508 30.834 78.052 31.098C77.596 31.35 77.224 31.728 76.936 32.232C76.66 32.724 76.522 33.312 76.522 33.996C76.522 34.68 76.66 35.28 76.936 35.796C77.224 36.312 77.596 36.708 78.052 36.984C78.52 37.248 79.012 37.38 79.528 37.38C80.056 37.38 80.548 37.248 81.004 36.984C81.46 36.72 81.826 36.336 82.102 35.832C82.39 35.316 82.534 34.716 82.534 34.032ZM102.253 39H100.201L94.027 29.658V39H91.975V26.472H94.027L100.201 35.796V26.472H102.253V39ZM114.038 33.798C114.038 34.17 114.014 34.506 113.966 34.806H106.388C106.448 35.598 106.742 36.234 107.27 36.714C107.798 37.194 108.446 37.434 109.214 37.434C110.318 37.434 111.098 36.972 111.554 36.048H113.768C113.468 36.96 112.922 37.71 112.13 38.298C111.35 38.874 110.378 39.162 109.214 39.162C108.266 39.162 107.414 38.952 106.658 38.532C105.914 38.1 105.326 37.5 104.894 36.732C104.474 35.952 104.264 35.052 104.264 34.032C104.264 33.012 104.468 32.118 104.876 31.35C105.296 30.57 105.878 29.97 106.622 29.55C107.378 29.13 108.242 28.92 109.214 28.92C110.15 28.92 110.984 29.124 111.716 29.532C112.448 29.94 113.018 30.516 113.426 31.26C113.834 31.992 114.038 32.838 114.038 33.798ZM111.896 33.15C111.884 32.394 111.614 31.788 111.086 31.332C110.558 30.876 109.904 30.648 109.124 30.648C108.416 30.648 107.81 30.876 107.306 31.332C106.802 31.776 106.502 32.382 106.406 33.15H111.896ZM129.377 29.082L126.299 39H124.139L122.141 31.674L120.143 39H117.983L114.887 29.082H116.975L119.045 37.056L121.151 29.082H123.293L125.309 37.02L127.361 29.082H129.377ZM139.672 26.49C141.004 26.49 142.168 26.748 143.164 27.264C144.172 27.768 144.946 28.5 145.486 29.46C146.038 30.408 146.314 31.518 146.314 32.79C146.314 34.062 146.038 35.166 145.486 36.102C144.946 37.038 144.172 37.758 143.164 38.262C142.168 38.754 141.004 39 139.672 39H135.586V26.49H139.672ZM139.672 37.326C141.136 37.326 142.258 36.93 143.038 36.138C143.818 35.346 144.208 34.23 144.208 32.79C144.208 31.338 143.818 30.204 143.038 29.388C142.258 28.572 141.136 28.164 139.672 28.164H137.638V37.326H139.672ZM150.4 30.522C150.7 30.018 151.096 29.628 151.588 29.352C152.092 29.064 152.686 28.92 153.37 28.92V31.044H152.848C152.044 31.044 151.432 31.248 151.012 31.656C150.604 32.064 150.4 32.772 150.4 33.78V39H148.348V29.082H150.4V30.522ZM156.3 27.768C155.928 27.768 155.616 27.642 155.364 27.39C155.112 27.138 154.986 26.826 154.986 26.454C154.986 26.082 155.112 25.77 155.364 25.518C155.616 25.266 155.928 25.14 156.3 25.14C156.66 25.14 156.966 25.266 157.218 25.518C157.47 25.77 157.596 26.082 157.596 26.454C157.596 26.826 157.47 27.138 157.218 27.39C156.966 27.642 156.66 27.768 156.3 27.768ZM157.308 29.082V39H155.256V29.082H157.308ZM163.836 37.164L166.644 29.082H168.822L165.042 39H162.594L158.832 29.082H161.028L163.836 37.164ZM179.463 33.798C179.463 34.17 179.439 34.506 179.391 34.806H171.813C171.873 35.598 172.167 36.234 172.695 36.714C173.223 37.194 173.871 37.434 174.639 37.434C175.743 37.434 176.523 36.972 176.979 36.048H179.193C178.893 36.96 178.347 37.71 177.555 38.298C176.775 38.874 175.803 39.162 174.639 39.162C173.691 39.162 172.839 38.952 172.083 38.532C171.339 38.1 170.751 37.5 170.319 36.732C169.899 35.952 169.689 35.052 169.689 34.032C169.689 33.012 169.893 32.118 170.301 31.35C170.721 30.57 171.303 29.97 172.047 29.55C172.803 29.13 173.667 28.92 174.639 28.92C175.575 28.92 176.409 29.124 177.141 29.532C177.873 29.94 178.443 30.516 178.851 31.26C179.259 31.992 179.463 32.838 179.463 33.798ZM177.321 33.15C177.309 32.394 177.039 31.788 176.511 31.332C175.983 30.876 175.329 30.648 174.549 30.648C173.841 30.648 173.235 30.876 172.731 31.332C172.227 31.776 171.927 32.382 171.831 33.15H177.321ZM183.535 30.522C183.835 30.018 184.231 29.628 184.723 29.352C185.227 29.064 185.821 28.92 186.505 28.92V31.044H185.983C185.179 31.044 184.567 31.248 184.147 31.656C183.739 32.064 183.535 32.772 183.535 33.78V39H181.483V29.082H183.535V30.522Z" fill="white"/>
<g clip-path="url(#clip0_2243_1154)">
<path d="M26.8174 42C26.8174 42.4973 27.0149 42.9742 27.3666 43.3258C27.7182 43.6775 28.1951 43.875 28.6924 43.875C29.1897 43.875 29.6666 43.6775 30.0182 43.3258C30.3698 42.9742 30.5674 42.4973 30.5674 42V33.875H38.6924C39.1897 33.875 39.6666 33.6775 40.0182 33.3258C40.3698 32.9742 40.5674 32.4973 40.5674 32C40.5674 31.5027 40.3698 31.0258 40.0182 30.6742C39.6666 30.3225 39.1897 30.125 38.6924 30.125H30.5674V22C30.5674 21.5027 30.3698 21.0258 30.0182 20.6742C29.6666 20.3225 29.1897 20.125 28.6924 20.125C28.1951 20.125 27.7182 20.3225 27.3666 20.6742C27.0149 21.0258 26.8174 21.5027 26.8174 22V30.125H18.6924C18.1951 30.125 17.7182 30.3225 17.3666 30.6742C17.0149 31.0258 16.8174 31.5027 16.8174 32C16.8174 32.4973 17.0149 32.9742 17.3666 33.3258C17.7182 33.6775 18.1951 33.875 18.6924 33.875H26.8174V42Z" fill="white"/>
</g>
<defs>
<clipPath id="clip0_2243_1154">
<rect width="30" height="30" fill="white" transform="translate(16 17)"/>
</clipPath>
</defs>
</svg>
