<svg width="49" height="17" viewBox="0 0 49 17" fill="none" xmlns="http://www.w3.org/2000/svg">
<rect width="49" height="17" rx="4" fill="#EBEBEB"/>
<path d="M10.665 12L9.18 7.131L10.242 7.14L11.1915 10.2585L12.1545 7.14H13.068L14.0265 10.2585L14.9805 7.14H16.0425L14.5575 12H13.7115L12.609 8.6565L11.511 12H10.665ZM18.8883 12.135C18.3963 12.135 17.9643 12.0285 17.5923 11.8155C17.2203 11.6025 16.9293 11.307 16.7193 10.929C16.5123 10.551 16.4088 10.116 16.4088 9.624C16.4088 9.093 16.5108 8.6325 16.7148 8.2425C16.9188 7.8495 17.2023 7.545 17.5653 7.329C17.9283 7.113 18.3483 7.005 18.8253 7.005C19.3293 7.005 19.7568 7.1235 20.1078 7.3605C20.4618 7.5945 20.7243 7.926 20.8953 8.355C21.0663 8.784 21.1308 9.2895 21.0888 9.8715H20.0133V9.4755C20.0103 8.9475 19.9173 8.562 19.7343 8.319C19.5513 8.076 19.2633 7.9545 18.8703 7.9545C18.4263 7.9545 18.0963 8.0925 17.8803 8.3685C17.6643 8.6415 17.5563 9.042 17.5563 9.57C17.5563 10.062 17.6643 10.443 17.8803 10.713C18.0963 10.983 18.4113 11.118 18.8253 11.118C19.0923 11.118 19.3218 11.0595 19.5138 10.9425C19.7088 10.8225 19.8588 10.65 19.9638 10.425L21.0348 10.749C20.8488 11.187 20.5608 11.5275 20.1708 11.7705C19.7838 12.0135 19.3563 12.135 18.8883 12.135ZM17.2143 9.8715V9.0525H20.5578V9.8715H17.2143ZM24.3024 12.135C23.8104 12.135 23.3784 12.0285 23.0064 11.8155C22.6344 11.6025 22.3434 11.307 22.1334 10.929C21.9264 10.551 21.8229 10.116 21.8229 9.624C21.8229 9.093 21.9249 8.6325 22.1289 8.2425C22.3329 7.8495 22.6164 7.545 22.9794 7.329C23.3424 7.113 23.7624 7.005 24.2394 7.005C24.7434 7.005 25.1709 7.1235 25.5219 7.3605C25.8759 7.5945 26.1384 7.926 26.3094 8.355C26.4804 8.784 26.5449 9.2895 26.5029 9.8715H25.4274V9.4755C25.4244 8.9475 25.3314 8.562 25.1484 8.319C24.9654 8.076 24.6774 7.9545 24.2844 7.9545C23.8404 7.9545 23.5104 8.0925 23.2944 8.3685C23.0784 8.6415 22.9704 9.042 22.9704 9.57C22.9704 10.062 23.0784 10.443 23.2944 10.713C23.5104 10.983 23.8254 11.118 24.2394 11.118C24.5064 11.118 24.7359 11.0595 24.9279 10.9425C25.1229 10.8225 25.2729 10.65 25.3779 10.425L26.4489 10.749C26.2629 11.187 25.9749 11.5275 25.5849 11.7705C25.1979 12.0135 24.7704 12.135 24.3024 12.135ZM22.6284 9.8715V9.0525H25.9719V9.8715H22.6284ZM27.498 12L27.507 5.52H28.605V9.48L30.3825 7.14H31.737L29.8515 9.57L31.899 12H30.4635L28.605 9.66V12H27.498ZM32.4397 12V5.385H33.5242V12H32.4397ZM35.5112 14.16L36.4472 11.5905L36.4652 12.3465L34.3457 7.14H35.4752L36.9782 10.992H36.6902L38.1527 7.14H39.2372L36.5282 14.16H35.5112Z" fill="#373636"/>
</svg>
