<svg width="33" height="32" viewBox="0 0 33 32" fill="none" xmlns="http://www.w3.org/2000/svg">
<path d="M32.5 16C32.5 24.546 25.3512 31.5 16.5 31.5C7.64883 31.5 0.5 24.546 0.5 16C0.5 7.45398 7.64883 0.5 16.5 0.5C25.3512 0.5 32.5 7.45398 32.5 16Z" fill="#F2F2F2" stroke="#434040"/>
<path fill-rule="evenodd" clip-rule="evenodd" d="M14.1516 18.7616C13.9594 18.5842 13.8515 18.3438 13.8516 18.0931C13.8516 17.8424 13.9596 17.602 14.1518 17.4247L16.3261 15.4197L14.1524 13.4141C14.0572 13.3263 13.9817 13.222 13.9301 13.1073C13.8786 12.9926 13.852 12.8696 13.852 12.7454C13.852 12.6213 13.8784 12.4983 13.9299 12.3836C13.9814 12.2688 14.0569 12.1646 14.1521 12.0767C14.2473 11.9889 14.3603 11.9192 14.4847 11.8717C14.609 11.8241 14.7423 11.7996 14.877 11.7996C15.0116 11.7996 15.1449 11.824 15.2693 11.8715C15.3937 11.919 15.5068 11.9887 15.602 12.0765L18.5003 14.7516C18.6924 14.9289 18.8003 15.1694 18.8003 15.4201C18.8002 15.6708 18.6922 15.9112 18.5 16.0885L15.6009 18.7618C15.4087 18.939 15.148 19.0385 14.8762 19.0385C14.6044 19.0384 14.3438 18.9388 14.1516 18.7616Z" fill="#434040"/>
</svg>
