<svg width="40" height="25" viewBox="0 0 40 25" fill="none" xmlns="http://www.w3.org/2000/svg">
<rect width="40" height="25" rx="4" fill="#EBEBEB"/>
<path d="M7.98 18V7.92H14.49V9.502H9.667V11.987H13.65V13.569H9.667V16.418H14.49V18H7.98ZM19.2005 18.21C18.5051 18.21 17.8985 18.035 17.3805 17.685C16.8625 17.335 16.4611 16.859 16.1765 16.257C15.8918 15.655 15.7495 14.976 15.7495 14.22C15.7495 13.4547 15.8918 12.7733 16.1765 12.176C16.4658 11.574 16.8741 11.1003 17.4015 10.755C17.9288 10.405 18.5495 10.23 19.2635 10.23C19.9821 10.23 20.5841 10.405 21.0695 10.755C21.5595 11.1003 21.9305 11.574 22.1825 12.176C22.4345 12.778 22.5605 13.4593 22.5605 14.22C22.5605 14.9713 22.4345 15.6503 22.1825 16.257C21.9305 16.859 21.5548 17.335 21.0555 17.685C20.5561 18.035 19.9378 18.21 19.2005 18.21ZM19.4595 16.698C19.9121 16.698 20.2761 16.5953 20.5515 16.39C20.8315 16.18 21.0345 15.8883 21.1605 15.515C21.2911 15.1417 21.3565 14.71 21.3565 14.22C21.3565 13.7253 21.2911 13.2937 21.1605 12.925C21.0345 12.5517 20.8361 12.2623 20.5655 12.057C20.2948 11.847 19.9448 11.742 19.5155 11.742C19.0628 11.742 18.6895 11.854 18.3955 12.078C18.1015 12.2973 17.8845 12.596 17.7445 12.974C17.6045 13.3473 17.5345 13.7627 17.5345 14.22C17.5345 14.682 17.6021 15.102 17.7375 15.48C17.8775 15.8533 18.0898 16.1497 18.3745 16.369C18.6591 16.5883 19.0208 16.698 19.4595 16.698ZM21.3565 18V12.694H21.1465V7.92H22.8475V18H21.3565ZM24.9501 9.292V7.745H26.6371V9.292H24.9501ZM24.9501 18V10.44H26.6371V18H24.9501ZM33.1649 18C32.6656 18.0933 32.1756 18.133 31.6949 18.119C31.2189 18.1097 30.7919 18.0233 30.4139 17.86C30.0359 17.692 29.7489 17.4283 29.5529 17.069C29.3802 16.7423 29.2892 16.4087 29.2799 16.068C29.2706 15.7273 29.2659 15.3423 29.2659 14.913V8.34H30.9459V14.815C30.9459 15.1183 30.9482 15.3843 30.9529 15.613C30.9622 15.8417 31.0112 16.0283 31.0999 16.173C31.2679 16.453 31.5362 16.6093 31.9049 16.642C32.2736 16.6747 32.6936 16.656 33.1649 16.586V18ZM27.8939 11.763V10.44H33.1649V11.763H27.8939Z" fill="#373636"/>
</svg>
