<svg width="172" height="54" viewBox="0 0 172 54" fill="none" xmlns="http://www.w3.org/2000/svg">
<rect width="172" height="54" rx="27" fill="#5243E6"/>
<path d="M36.711 32.21C35.9737 32.21 35.3087 32.0817 34.716 31.825C34.128 31.5683 33.6427 31.202 33.26 30.726C32.882 30.2453 32.6417 29.676 32.539 29.018L34.289 28.752C34.4383 29.3493 34.744 29.8113 35.206 30.138C35.6727 30.4647 36.2093 30.628 36.816 30.628C37.1753 30.628 37.5137 30.572 37.831 30.46C38.1483 30.348 38.405 30.1847 38.601 29.97C38.8017 29.7553 38.902 29.4917 38.902 29.179C38.902 29.039 38.8787 28.9107 38.832 28.794C38.7853 28.6727 38.7153 28.5653 38.622 28.472C38.5333 28.3787 38.4167 28.2947 38.272 28.22C38.132 28.1407 37.9687 28.073 37.782 28.017L35.178 27.247C34.954 27.1817 34.7113 27.0953 34.45 26.988C34.1933 26.876 33.9483 26.7243 33.715 26.533C33.4863 26.337 33.2973 26.0897 33.148 25.791C33.0033 25.4877 32.931 25.1143 32.931 24.671C32.931 24.0223 33.0943 23.4787 33.421 23.04C33.7523 22.5967 34.1957 22.2653 34.751 22.046C35.311 21.8267 35.9317 21.7193 36.613 21.724C37.3037 21.7287 37.9197 21.8477 38.461 22.081C39.0023 22.3097 39.455 22.6433 39.819 23.082C40.183 23.5207 40.4397 24.0503 40.589 24.671L38.776 24.986C38.7013 24.6313 38.5567 24.3303 38.342 24.083C38.132 23.831 37.873 23.6397 37.565 23.509C37.2617 23.3783 36.9373 23.3083 36.592 23.299C36.256 23.2943 35.9433 23.3457 35.654 23.453C35.3693 23.5557 35.1383 23.705 34.961 23.901C34.7883 24.097 34.702 24.3257 34.702 24.587C34.702 24.8343 34.7767 25.0373 34.926 25.196C35.0753 25.35 35.2597 25.4737 35.479 25.567C35.703 25.6557 35.9293 25.7303 36.158 25.791L37.964 26.295C38.2113 26.3603 38.489 26.449 38.797 26.561C39.105 26.673 39.4013 26.8293 39.686 27.03C39.9707 27.2307 40.204 27.4943 40.386 27.821C40.5727 28.1477 40.666 28.563 40.666 29.067C40.666 29.5897 40.5563 30.0493 40.337 30.446C40.1223 30.838 39.8307 31.1647 39.462 31.426C39.0933 31.6873 38.671 31.8833 38.195 32.014C37.7237 32.1447 37.229 32.21 36.711 32.21ZM45.6182 32.21C44.8528 32.21 44.1808 32.0443 43.6022 31.713C43.0235 31.3817 42.5708 30.922 42.2442 30.334C41.9222 29.746 41.7612 29.0693 41.7612 28.304C41.7612 27.478 41.9198 26.7617 42.2372 26.155C42.5545 25.5437 42.9955 25.07 43.5602 24.734C44.1248 24.398 44.7782 24.23 45.5202 24.23C46.3042 24.23 46.9692 24.4143 47.5152 24.783C48.0658 25.147 48.4742 25.6627 48.7402 26.33C49.0062 26.9973 49.1065 27.7837 49.0412 28.689H47.3682V28.073C47.3635 27.2517 47.2188 26.652 46.9342 26.274C46.6495 25.896 46.2015 25.707 45.5902 25.707C44.8995 25.707 44.3862 25.9217 44.0502 26.351C43.7142 26.7757 43.5462 27.3987 43.5462 28.22C43.5462 28.9853 43.7142 29.578 44.0502 29.998C44.3862 30.418 44.8762 30.628 45.5202 30.628C45.9355 30.628 46.2925 30.537 46.5912 30.355C46.8945 30.1683 47.1278 29.9 47.2912 29.55L48.9572 30.054C48.6678 30.7353 48.2198 31.265 47.6132 31.643C47.0112 32.021 46.3462 32.21 45.6182 32.21ZM43.0142 28.689V27.415H48.2152V28.689H43.0142ZM54.04 32.21C53.2747 32.21 52.6027 32.0443 52.024 31.713C51.4454 31.3817 50.9927 30.922 50.666 30.334C50.344 29.746 50.183 29.0693 50.183 28.304C50.183 27.478 50.3417 26.7617 50.659 26.155C50.9764 25.5437 51.4174 25.07 51.982 24.734C52.5467 24.398 53.2 24.23 53.942 24.23C54.726 24.23 55.391 24.4143 55.937 24.783C56.4877 25.147 56.896 25.6627 57.162 26.33C57.428 26.9973 57.5284 27.7837 57.463 28.689H55.79V28.073C55.7854 27.2517 55.6407 26.652 55.356 26.274C55.0714 25.896 54.6234 25.707 54.012 25.707C53.3214 25.707 52.808 25.9217 52.472 26.351C52.136 26.7757 51.968 27.3987 51.968 28.22C51.968 28.9853 52.136 29.578 52.472 29.998C52.808 30.418 53.298 30.628 53.942 30.628C54.3574 30.628 54.7144 30.537 55.013 30.355C55.3164 30.1683 55.5497 29.9 55.713 29.55L57.379 30.054C57.0897 30.7353 56.6417 31.265 56.035 31.643C55.433 32.021 54.768 32.21 54.04 32.21ZM51.436 28.689V27.415H56.637V28.689H51.436ZM61.1277 32L64.3057 21.92H66.7767L69.9547 32H68.2187L65.3347 22.956H65.7127L62.8637 32H61.1277ZM62.8987 29.816V28.241H68.1907V29.816H62.8987ZM71.3602 32V21.71H73.0472V32H71.3602ZM75.2841 32V21.71H76.9711V32H75.2841ZM85.6016 32.21C84.8643 32.21 84.1993 32.0817 83.6066 31.825C83.0186 31.5683 82.5333 31.202 82.1506 30.726C81.7726 30.2453 81.5323 29.676 81.4296 29.018L83.1796 28.752C83.329 29.3493 83.6346 29.8113 84.0966 30.138C84.5633 30.4647 85.1 30.628 85.7066 30.628C86.066 30.628 86.4043 30.572 86.7216 30.46C87.039 30.348 87.2956 30.1847 87.4916 29.97C87.6923 29.7553 87.7926 29.4917 87.7926 29.179C87.7926 29.039 87.7693 28.9107 87.7226 28.794C87.676 28.6727 87.606 28.5653 87.5126 28.472C87.424 28.3787 87.3073 28.2947 87.1626 28.22C87.0226 28.1407 86.8593 28.073 86.6726 28.017L84.0686 27.247C83.8446 27.1817 83.602 27.0953 83.3406 26.988C83.084 26.876 82.839 26.7243 82.6056 26.533C82.377 26.337 82.188 26.0897 82.0386 25.791C81.894 25.4877 81.8216 25.1143 81.8216 24.671C81.8216 24.0223 81.985 23.4787 82.3116 23.04C82.643 22.5967 83.0863 22.2653 83.6416 22.046C84.2016 21.8267 84.8223 21.7193 85.5036 21.724C86.1943 21.7287 86.8103 21.8477 87.3516 22.081C87.893 22.3097 88.3456 22.6433 88.7096 23.082C89.0736 23.5207 89.3303 24.0503 89.4796 24.671L87.6666 24.986C87.592 24.6313 87.4473 24.3303 87.2326 24.083C87.0226 23.831 86.7636 23.6397 86.4556 23.509C86.1523 23.3783 85.828 23.3083 85.4826 23.299C85.1466 23.2943 84.834 23.3457 84.5446 23.453C84.26 23.5557 84.029 23.705 83.8516 23.901C83.679 24.097 83.5926 24.3257 83.5926 24.587C83.5926 24.8343 83.6673 25.0373 83.8166 25.196C83.966 25.35 84.1503 25.4737 84.3696 25.567C84.5936 25.6557 84.82 25.7303 85.0486 25.791L86.8546 26.295C87.102 26.3603 87.3796 26.449 87.6876 26.561C87.9956 26.673 88.292 26.8293 88.5766 27.03C88.8613 27.2307 89.0946 27.4943 89.2766 27.821C89.4633 28.1477 89.5566 28.563 89.5566 29.067C89.5566 29.5897 89.447 30.0493 89.2276 30.446C89.013 30.838 88.7213 31.1647 88.3526 31.426C87.984 31.6873 87.5616 31.8833 87.0856 32.014C86.6143 32.1447 86.1196 32.21 85.6016 32.21ZM94.5088 32.21C93.7435 32.21 93.0715 32.0443 92.4928 31.713C91.9141 31.3817 91.4615 30.922 91.1348 30.334C90.8128 29.746 90.6518 29.0693 90.6518 28.304C90.6518 27.478 90.8105 26.7617 91.1278 26.155C91.4451 25.5437 91.8861 25.07 92.4508 24.734C93.0155 24.398 93.6688 24.23 94.4108 24.23C95.1948 24.23 95.8598 24.4143 96.4058 24.783C96.9565 25.147 97.3648 25.6627 97.6308 26.33C97.8968 26.9973 97.9971 27.7837 97.9318 28.689H96.2588V28.073C96.2541 27.2517 96.1095 26.652 95.8248 26.274C95.5401 25.896 95.0921 25.707 94.4808 25.707C93.7901 25.707 93.2768 25.9217 92.9408 26.351C92.6048 26.7757 92.4368 27.3987 92.4368 28.22C92.4368 28.9853 92.6048 29.578 92.9408 29.998C93.2768 30.418 93.7668 30.628 94.4108 30.628C94.8261 30.628 95.1831 30.537 95.4818 30.355C95.7851 30.1683 96.0185 29.9 96.1818 29.55L97.8478 30.054C97.5585 30.7353 97.1105 31.265 96.5038 31.643C95.9018 32.021 95.2368 32.21 94.5088 32.21ZM91.9048 28.689V27.415H97.1058V28.689H91.9048ZM99.4937 32V24.44H100.985V26.281L100.803 26.043C100.896 25.791 101.02 25.5623 101.174 25.357C101.332 25.147 101.521 24.9743 101.741 24.839C101.927 24.713 102.133 24.615 102.357 24.545C102.585 24.4703 102.819 24.426 103.057 24.412C103.295 24.3933 103.526 24.4027 103.75 24.44V26.015C103.526 25.9497 103.267 25.9287 102.973 25.952C102.683 25.9753 102.422 26.057 102.189 26.197C101.955 26.323 101.764 26.484 101.615 26.68C101.47 26.876 101.363 27.1 101.293 27.352C101.223 27.5993 101.188 27.8677 101.188 28.157V32H99.4937ZM107.129 32L104.385 24.44H106.072L107.976 29.921L109.873 24.44H111.567L108.823 32H107.129ZM112.964 23.292V21.745H114.651V23.292H112.964ZM112.964 32V24.44H114.651V32H112.964ZM120.031 32.21C119.251 32.21 118.586 32.0373 118.036 31.692C117.485 31.342 117.063 30.866 116.769 30.264C116.479 29.662 116.332 28.9807 116.328 28.22C116.332 27.4453 116.484 26.7593 116.783 26.162C117.086 25.56 117.515 25.0887 118.071 24.748C118.626 24.4027 119.286 24.23 120.052 24.23C120.91 24.23 121.636 24.447 122.229 24.881C122.826 25.3103 123.216 25.8983 123.398 26.645L121.718 27.1C121.587 26.694 121.37 26.379 121.067 26.155C120.763 25.9263 120.418 25.812 120.031 25.812C119.592 25.812 119.23 25.917 118.946 26.127C118.661 26.3323 118.451 26.617 118.316 26.981C118.18 27.345 118.113 27.758 118.113 28.22C118.113 28.9387 118.274 29.5197 118.596 29.963C118.918 30.4063 119.396 30.628 120.031 30.628C120.479 30.628 120.831 30.5253 121.088 30.32C121.349 30.1147 121.545 29.8183 121.676 29.431L123.398 29.816C123.164 30.586 122.756 31.1787 122.173 31.594C121.589 32.0047 120.875 32.21 120.031 32.21ZM128.032 32.21C127.267 32.21 126.595 32.0443 126.016 31.713C125.438 31.3817 124.985 30.922 124.658 30.334C124.336 29.746 124.175 29.0693 124.175 28.304C124.175 27.478 124.334 26.7617 124.651 26.155C124.969 25.5437 125.41 25.07 125.974 24.734C126.539 24.398 127.192 24.23 127.934 24.23C128.718 24.23 129.383 24.4143 129.929 24.783C130.48 25.147 130.888 25.6627 131.154 26.33C131.42 26.9973 131.521 27.7837 131.455 28.689H129.782V28.073C129.778 27.2517 129.633 26.652 129.348 26.274C129.064 25.896 128.616 25.707 128.004 25.707C127.314 25.707 126.8 25.9217 126.464 26.351C126.128 26.7757 125.96 27.3987 125.96 28.22C125.96 28.9853 126.128 29.578 126.464 29.998C126.8 30.418 127.29 30.628 127.934 30.628C128.35 30.628 128.707 30.537 129.005 30.355C129.309 30.1683 129.542 29.9 129.705 29.55L131.371 30.054C131.082 30.7353 130.634 31.265 130.027 31.643C129.425 32.021 128.76 32.21 128.032 32.21ZM125.428 28.689V27.415H130.629V28.689H125.428ZM135.936 32.21C135.003 32.21 134.244 32 133.661 31.58C133.078 31.16 132.723 30.5697 132.597 29.809L134.319 29.543C134.408 29.9163 134.604 30.2103 134.907 30.425C135.21 30.6397 135.593 30.747 136.055 30.747C136.461 30.747 136.774 30.6677 136.993 30.509C137.217 30.3457 137.329 30.124 137.329 29.844C137.329 29.6713 137.287 29.5337 137.203 29.431C137.124 29.3237 136.946 29.221 136.671 29.123C136.396 29.025 135.973 28.9013 135.404 28.752C134.769 28.584 134.265 28.4043 133.892 28.213C133.519 28.017 133.25 27.786 133.087 27.52C132.924 27.254 132.842 26.932 132.842 26.554C132.842 26.0827 132.966 25.672 133.213 25.322C133.46 24.972 133.806 24.7037 134.249 24.517C134.692 24.3257 135.215 24.23 135.817 24.23C136.405 24.23 136.925 24.321 137.378 24.503C137.835 24.685 138.204 24.944 138.484 25.28C138.764 25.616 138.937 26.0103 139.002 26.463L137.28 26.771C137.238 26.449 137.091 26.1947 136.839 26.008C136.592 25.8213 136.26 25.7163 135.845 25.693C135.448 25.6697 135.129 25.7303 134.886 25.875C134.643 26.015 134.522 26.2133 134.522 26.47C134.522 26.6147 134.571 26.7383 134.669 26.841C134.767 26.9437 134.963 27.0463 135.257 27.149C135.556 27.2517 135.999 27.3777 136.587 27.527C137.189 27.681 137.67 27.8583 138.029 28.059C138.393 28.255 138.654 28.4907 138.813 28.766C138.976 29.0413 139.058 29.375 139.058 29.767C139.058 30.5277 138.78 31.125 138.225 31.559C137.674 31.993 136.911 32.21 135.936 32.21Z" fill="white"/>
</svg>
