<svg width="65" height="64" viewBox="0 0 65 64" fill="none" xmlns="http://www.w3.org/2000/svg">
<g filter="url(#filter0_d_89_726)">
<rect x="10.5" y="8" width="44" height="44" rx="12" fill="white" shape-rendering="crispEdges"/>
<g clip-path="url(#clip0_89_726)">
<path fill-rule="evenodd" clip-rule="evenodd" d="M31.522 21H38.5C39.2956 21 40.0587 21.3161 40.6213 21.8787C41.1839 22.4413 41.5 23.2044 41.5 24C41.7652 24 42.0196 24.1054 42.2071 24.2929C42.3946 24.4804 42.5 24.7348 42.5 25V27C42.5 27.2652 42.3946 27.5196 42.2071 27.7071C42.0196 27.8946 41.7652 28 41.5 28V35C41.5 35.3511 41.4076 35.6959 41.232 36C41.0565 36.304 40.804 36.5565 40.5 36.732V37.5C40.5 37.8978 40.342 38.2794 40.0607 38.5607C39.7794 38.842 39.3978 39 39 39C38.6022 39 38.2206 38.842 37.9393 38.5607C37.658 38.2794 37.5 37.8978 37.5 37.5V37H27.5V37.5C27.5 37.8978 27.342 38.2794 27.0607 38.5607C26.7794 38.842 26.3978 39 26 39C25.6022 39 25.2206 38.842 24.9393 38.5607C24.658 38.2794 24.5 37.8978 24.5 37.5V36.732C24.196 36.5565 23.9435 36.304 23.768 36C23.5924 35.6959 23.5 35.3511 23.5 35V28C23.2348 28 22.9804 27.8946 22.7929 27.7071C22.6054 27.5196 22.5 27.2652 22.5 27V25C22.5 24.7348 22.6054 24.4804 22.7929 24.2929C22.9804 24.1054 23.2348 24 23.5 24C23.5 23.2044 23.8161 22.4413 24.3787 21.8787C24.9413 21.3161 25.7044 21 26.5 21H31.522ZM32.118 23H34.882L33.606 25.553C33.5424 25.6709 33.5032 25.8003 33.4906 25.9337C33.478 26.067 33.4923 26.2015 33.5327 26.3292C33.5731 26.4569 33.6387 26.5751 33.7257 26.677C33.8126 26.7788 33.9192 26.8622 34.039 26.9221C34.1588 26.982 34.2893 27.0172 34.423 27.0256C34.5567 27.0341 34.6906 27.0156 34.817 26.9713C34.9434 26.927 35.0596 26.8578 35.1587 26.7677C35.2578 26.6776 35.3378 26.5686 35.394 26.447L37.118 23H38.5C38.7652 23 39.0196 23.1054 39.2071 23.2929C39.3946 23.4804 39.5 23.7348 39.5 24V29H25.5V24C25.5 23.7348 25.6054 23.4804 25.7929 23.2929C25.9804 23.1054 26.2348 23 26.5 23H29.882L28.606 25.553C28.497 25.7889 28.4842 26.058 28.5701 26.3032C28.6561 26.5484 28.8342 26.7506 29.0666 26.8668C29.299 26.983 29.5676 27.0042 29.8153 26.9258C30.0631 26.8475 30.2707 26.6757 30.394 26.447L32.118 23ZM26.5 33C26.5 32.7348 26.6054 32.4804 26.7929 32.2929C26.9804 32.1054 27.2348 32 27.5 32H28.5C28.7652 32 29.0196 32.1054 29.2071 32.2929C29.3946 32.4804 29.5 32.7348 29.5 33C29.5 33.2652 29.3946 33.5196 29.2071 33.7071C29.0196 33.8946 28.7652 34 28.5 34H27.5C27.2348 34 26.9804 33.8946 26.7929 33.7071C26.6054 33.5196 26.5 33.2652 26.5 33ZM35.5 33C35.5 32.7348 35.6054 32.4804 35.7929 32.2929C35.9804 32.1054 36.2348 32 36.5 32H37.5C37.7652 32 38.0196 32.1054 38.2071 32.2929C38.3946 32.4804 38.5 32.7348 38.5 33C38.5 33.2652 38.3946 33.5196 38.2071 33.7071C38.0196 33.8946 37.7652 34 37.5 34H36.5C36.2348 34 35.9804 33.8946 35.7929 33.7071C35.6054 33.5196 35.5 33.2652 35.5 33Z" fill="#5243E6"/>
</g>
</g>
<defs>
<filter id="filter0_d_89_726" x="0.5" y="0" width="64" height="64" filterUnits="userSpaceOnUse" color-interpolation-filters="sRGB">
<feFlood flood-opacity="0" result="BackgroundImageFix"/>
<feColorMatrix in="SourceAlpha" type="matrix" values="0 0 0 0 0 0 0 0 0 0 0 0 0 0 0 0 0 0 127 0" result="hardAlpha"/>
<feOffset dy="2"/>
<feGaussianBlur stdDeviation="5"/>
<feComposite in2="hardAlpha" operator="out"/>
<feColorMatrix type="matrix" values="0 0 0 0 0.486275 0 0 0 0 0.552941 0 0 0 0 0.709804 0 0 0 0.12 0"/>
<feBlend mode="normal" in2="BackgroundImageFix" result="effect1_dropShadow_89_726"/>
<feBlend mode="normal" in="SourceGraphic" in2="effect1_dropShadow_89_726" result="shape"/>
</filter>
<clipPath id="clip0_89_726">
<rect width="24" height="24" fill="white" transform="translate(20.5 18)"/>
</clipPath>
</defs>
</svg>
