<svg width="176" height="54" viewBox="0 0 176 54" fill="none" xmlns="http://www.w3.org/2000/svg">
<rect width="176" height="54" rx="27" fill="#5243E6"/>
<path d="M36.711 32.21C35.9737 32.21 35.3087 32.0817 34.716 31.825C34.128 31.5683 33.6427 31.202 33.26 30.726C32.882 30.2453 32.6417 29.676 32.539 29.018L34.289 28.752C34.4383 29.3493 34.744 29.8113 35.206 30.138C35.6727 30.4647 36.2093 30.628 36.816 30.628C37.1753 30.628 37.5137 30.572 37.831 30.46C38.1483 30.348 38.405 30.1847 38.601 29.97C38.8017 29.7553 38.902 29.4917 38.902 29.179C38.902 29.039 38.8787 28.9107 38.832 28.794C38.7853 28.6727 38.7153 28.5653 38.622 28.472C38.5333 28.3787 38.4167 28.2947 38.272 28.22C38.132 28.1407 37.9687 28.073 37.782 28.017L35.178 27.247C34.954 27.1817 34.7113 27.0953 34.45 26.988C34.1933 26.876 33.9483 26.7243 33.715 26.533C33.4863 26.337 33.2973 26.0897 33.148 25.791C33.0033 25.4877 32.931 25.1143 32.931 24.671C32.931 24.0223 33.0943 23.4787 33.421 23.04C33.7523 22.5967 34.1957 22.2653 34.751 22.046C35.311 21.8267 35.9317 21.7193 36.613 21.724C37.3037 21.7287 37.9197 21.8477 38.461 22.081C39.0023 22.3097 39.455 22.6433 39.819 23.082C40.183 23.5207 40.4397 24.0503 40.589 24.671L38.776 24.986C38.7013 24.6313 38.5567 24.3303 38.342 24.083C38.132 23.831 37.873 23.6397 37.565 23.509C37.2617 23.3783 36.9373 23.3083 36.592 23.299C36.256 23.2943 35.9433 23.3457 35.654 23.453C35.3693 23.5557 35.1383 23.705 34.961 23.901C34.7883 24.097 34.702 24.3257 34.702 24.587C34.702 24.8343 34.7767 25.0373 34.926 25.196C35.0753 25.35 35.2597 25.4737 35.479 25.567C35.703 25.6557 35.9293 25.7303 36.158 25.791L37.964 26.295C38.2113 26.3603 38.489 26.449 38.797 26.561C39.105 26.673 39.4013 26.8293 39.686 27.03C39.9707 27.2307 40.204 27.4943 40.386 27.821C40.5727 28.1477 40.666 28.563 40.666 29.067C40.666 29.5897 40.5563 30.0493 40.337 30.446C40.1223 30.838 39.8307 31.1647 39.462 31.426C39.0933 31.6873 38.671 31.8833 38.195 32.014C37.7237 32.1447 37.229 32.21 36.711 32.21ZM45.6182 32.21C44.8528 32.21 44.1808 32.0443 43.6022 31.713C43.0235 31.3817 42.5708 30.922 42.2442 30.334C41.9222 29.746 41.7612 29.0693 41.7612 28.304C41.7612 27.478 41.9198 26.7617 42.2372 26.155C42.5545 25.5437 42.9955 25.07 43.5602 24.734C44.1248 24.398 44.7782 24.23 45.5202 24.23C46.3042 24.23 46.9692 24.4143 47.5152 24.783C48.0658 25.147 48.4742 25.6627 48.7402 26.33C49.0062 26.9973 49.1065 27.7837 49.0412 28.689H47.3682V28.073C47.3635 27.2517 47.2188 26.652 46.9342 26.274C46.6495 25.896 46.2015 25.707 45.5902 25.707C44.8995 25.707 44.3862 25.9217 44.0502 26.351C43.7142 26.7757 43.5462 27.3987 43.5462 28.22C43.5462 28.9853 43.7142 29.578 44.0502 29.998C44.3862 30.418 44.8762 30.628 45.5202 30.628C45.9355 30.628 46.2925 30.537 46.5912 30.355C46.8945 30.1683 47.1278 29.9 47.2912 29.55L48.9572 30.054C48.6678 30.7353 48.2198 31.265 47.6132 31.643C47.0112 32.021 46.3462 32.21 45.6182 32.21ZM43.0142 28.689V27.415H48.2152V28.689H43.0142ZM54.04 32.21C53.2747 32.21 52.6027 32.0443 52.024 31.713C51.4454 31.3817 50.9927 30.922 50.666 30.334C50.344 29.746 50.183 29.0693 50.183 28.304C50.183 27.478 50.3417 26.7617 50.659 26.155C50.9764 25.5437 51.4174 25.07 51.982 24.734C52.5467 24.398 53.2 24.23 53.942 24.23C54.726 24.23 55.391 24.4143 55.937 24.783C56.4877 25.147 56.896 25.6627 57.162 26.33C57.428 26.9973 57.5284 27.7837 57.463 28.689H55.79V28.073C55.7854 27.2517 55.6407 26.652 55.356 26.274C55.0714 25.896 54.6234 25.707 54.012 25.707C53.3214 25.707 52.808 25.9217 52.472 26.351C52.136 26.7757 51.968 27.3987 51.968 28.22C51.968 28.9853 52.136 29.578 52.472 29.998C52.808 30.418 53.298 30.628 53.942 30.628C54.3574 30.628 54.7144 30.537 55.013 30.355C55.3164 30.1683 55.5497 29.9 55.713 29.55L57.379 30.054C57.0897 30.7353 56.6417 31.265 56.035 31.643C55.433 32.021 54.768 32.21 54.04 32.21ZM51.436 28.689V27.415H56.637V28.689H51.436ZM61.1277 32L64.3057 21.92H66.7767L69.9547 32H68.2187L65.3347 22.956H65.7127L62.8637 32H61.1277ZM62.8987 29.816V28.241H68.1907V29.816H62.8987ZM71.3602 32V21.71H73.0472V32H71.3602ZM75.2841 32V21.71H76.9711V32H75.2841ZM81.8706 32V21.92H86.0356C86.1336 21.92 86.2596 21.9247 86.4136 21.934C86.5676 21.9387 86.71 21.9527 86.8406 21.976C87.424 22.0647 87.9046 22.2583 88.2826 22.557C88.6653 22.8557 88.9476 23.2337 89.1296 23.691C89.3163 24.1437 89.4096 24.6477 89.4096 25.203C89.4096 25.7537 89.3163 26.2577 89.1296 26.715C88.943 27.1677 88.6583 27.5433 88.2756 27.842C87.8976 28.1407 87.4193 28.3343 86.8406 28.423C86.71 28.4417 86.5653 28.4557 86.4066 28.465C86.2526 28.4743 86.129 28.479 86.0356 28.479H83.5576V32H81.8706ZM83.5576 26.904H85.9656C86.059 26.904 86.164 26.8993 86.2806 26.89C86.3973 26.8807 86.5046 26.862 86.6026 26.834C86.8826 26.764 87.102 26.6403 87.2606 26.463C87.424 26.2857 87.5383 26.085 87.6036 25.861C87.6736 25.637 87.7086 25.4177 87.7086 25.203C87.7086 24.9883 87.6736 24.769 87.6036 24.545C87.5383 24.3163 87.424 24.1133 87.2606 23.936C87.102 23.7587 86.8826 23.635 86.6026 23.565C86.5046 23.537 86.3973 23.5207 86.2806 23.516C86.164 23.5067 86.059 23.502 85.9656 23.502H83.5576V26.904ZM90.812 32V24.44H92.303V26.281L92.121 26.043C92.2144 25.791 92.338 25.5623 92.492 25.357C92.6507 25.147 92.8397 24.9743 93.059 24.839C93.2457 24.713 93.451 24.615 93.675 24.545C93.9037 24.4703 94.137 24.426 94.375 24.412C94.613 24.3933 94.844 24.4027 95.068 24.44V26.015C94.844 25.9497 94.585 25.9287 94.291 25.952C94.0017 25.9753 93.7404 26.057 93.507 26.197C93.2737 26.323 93.0824 26.484 92.933 26.68C92.7884 26.876 92.681 27.1 92.611 27.352C92.541 27.5993 92.506 27.8677 92.506 28.157V32H90.812ZM99.6061 32.21C98.8501 32.21 98.1898 32.0397 97.6251 31.699C97.0604 31.3583 96.6218 30.8893 96.3091 30.292C96.0011 29.69 95.8471 28.9993 95.8471 28.22C95.8471 27.4267 96.0058 26.7313 96.3231 26.134C96.6404 25.5367 97.0814 25.07 97.6461 24.734C98.2108 24.398 98.8641 24.23 99.6061 24.23C100.367 24.23 101.029 24.4003 101.594 24.741C102.159 25.0817 102.597 25.553 102.91 26.155C103.223 26.7523 103.379 27.4407 103.379 28.22C103.379 29.004 103.22 29.697 102.903 30.299C102.59 30.8963 102.152 31.3653 101.587 31.706C101.022 32.042 100.362 32.21 99.6061 32.21ZM99.6061 30.628C100.278 30.628 100.777 30.404 101.104 29.956C101.431 29.508 101.594 28.9293 101.594 28.22C101.594 27.4873 101.428 26.904 101.097 26.47C100.766 26.0313 100.269 25.812 99.6061 25.812C99.1534 25.812 98.7801 25.9147 98.4861 26.12C98.1968 26.3207 97.9821 26.603 97.8421 26.967C97.7021 27.3263 97.6321 27.744 97.6321 28.22C97.6321 28.9527 97.7978 29.5383 98.1291 29.977C98.4651 30.411 98.9574 30.628 99.6061 30.628ZM107.952 32.21C107.257 32.21 106.65 32.035 106.132 31.685C105.614 31.335 105.213 30.859 104.928 30.257C104.644 29.655 104.501 28.976 104.501 28.22C104.501 27.4547 104.644 26.7733 104.928 26.176C105.218 25.574 105.626 25.1003 106.153 24.755C106.681 24.405 107.301 24.23 108.015 24.23C108.734 24.23 109.336 24.405 109.821 24.755C110.311 25.1003 110.682 25.574 110.934 26.176C111.186 26.778 111.312 27.4593 111.312 28.22C111.312 28.9713 111.186 29.6503 110.934 30.257C110.682 30.859 110.307 31.335 109.807 31.685C109.308 32.035 108.69 32.21 107.952 32.21ZM108.211 30.698C108.664 30.698 109.028 30.5953 109.303 30.39C109.583 30.18 109.786 29.8883 109.912 29.515C110.043 29.1417 110.108 28.71 110.108 28.22C110.108 27.7253 110.043 27.2937 109.912 26.925C109.786 26.5517 109.588 26.2623 109.317 26.057C109.047 25.847 108.697 25.742 108.267 25.742C107.815 25.742 107.441 25.854 107.147 26.078C106.853 26.2973 106.636 26.596 106.496 26.974C106.356 27.3473 106.286 27.7627 106.286 28.22C106.286 28.682 106.354 29.102 106.489 29.48C106.629 29.8533 106.842 30.1497 107.126 30.369C107.411 30.5883 107.773 30.698 108.211 30.698ZM110.108 32V26.694H109.898V21.92H111.599V32H110.108ZM116.397 32.217C115.837 32.217 115.375 32.1237 115.011 31.937C114.647 31.7503 114.358 31.5123 114.143 31.223C113.928 30.9337 113.77 30.6257 113.667 30.299C113.564 29.9723 113.497 29.6643 113.464 29.375C113.436 29.081 113.422 28.843 113.422 28.661V24.44H115.13V28.08C115.13 28.3133 115.146 28.577 115.179 28.871C115.212 29.1603 115.286 29.4403 115.403 29.711C115.524 29.977 115.702 30.1963 115.935 30.369C116.173 30.5417 116.493 30.628 116.894 30.628C117.109 30.628 117.321 30.593 117.531 30.523C117.741 30.453 117.93 30.334 118.098 30.166C118.271 29.9933 118.408 29.7577 118.511 29.459C118.614 29.1603 118.665 28.7823 118.665 28.325L119.666 28.752C119.666 29.396 119.54 29.9793 119.288 30.502C119.041 31.0247 118.674 31.4423 118.189 31.755C117.704 32.063 117.106 32.217 116.397 32.217ZM118.868 32V29.655H118.665V24.44H120.359V32H118.868ZM125.609 32.21C124.829 32.21 124.164 32.0373 123.614 31.692C123.063 31.342 122.641 30.866 122.347 30.264C122.057 29.662 121.91 28.9807 121.906 28.22C121.91 27.4453 122.062 26.7593 122.361 26.162C122.664 25.56 123.093 25.0887 123.649 24.748C124.204 24.4027 124.864 24.23 125.63 24.23C126.488 24.23 127.214 24.447 127.807 24.881C128.404 25.3103 128.794 25.8983 128.976 26.645L127.296 27.1C127.165 26.694 126.948 26.379 126.645 26.155C126.341 25.9263 125.996 25.812 125.609 25.812C125.17 25.812 124.808 25.917 124.524 26.127C124.239 26.3323 124.029 26.617 123.894 26.981C123.758 27.345 123.691 27.758 123.691 28.22C123.691 28.9387 123.852 29.5197 124.174 29.963C124.496 30.4063 124.974 30.628 125.609 30.628C126.057 30.628 126.409 30.5253 126.666 30.32C126.927 30.1147 127.123 29.8183 127.254 29.431L128.976 29.816C128.742 30.586 128.334 31.1787 127.751 31.594C127.167 32.0047 126.453 32.21 125.609 32.21ZM134.809 32C134.31 32.0933 133.82 32.133 133.339 32.119C132.863 32.1097 132.436 32.0233 132.058 31.86C131.68 31.692 131.393 31.4283 131.197 31.069C131.025 30.7423 130.934 30.4087 130.924 30.068C130.915 29.7273 130.91 29.3423 130.91 28.913V22.34H132.59V28.815C132.59 29.1183 132.593 29.3843 132.597 29.613C132.607 29.8417 132.656 30.0283 132.744 30.173C132.912 30.453 133.181 30.6093 133.549 30.642C133.918 30.6747 134.338 30.656 134.809 30.586V32ZM129.538 25.763V24.44H134.809V25.763H129.538ZM139.354 32.21C138.421 32.21 137.662 32 137.079 31.58C136.496 31.16 136.141 30.5697 136.015 29.809L137.737 29.543C137.826 29.9163 138.022 30.2103 138.325 30.425C138.628 30.6397 139.011 30.747 139.473 30.747C139.879 30.747 140.192 30.6677 140.411 30.509C140.635 30.3457 140.747 30.124 140.747 29.844C140.747 29.6713 140.705 29.5337 140.621 29.431C140.542 29.3237 140.364 29.221 140.089 29.123C139.814 29.025 139.391 28.9013 138.822 28.752C138.187 28.584 137.683 28.4043 137.31 28.213C136.937 28.017 136.668 27.786 136.505 27.52C136.342 27.254 136.26 26.932 136.26 26.554C136.26 26.0827 136.384 25.672 136.631 25.322C136.878 24.972 137.224 24.7037 137.667 24.517C138.11 24.3257 138.633 24.23 139.235 24.23C139.823 24.23 140.343 24.321 140.796 24.503C141.253 24.685 141.622 24.944 141.902 25.28C142.182 25.616 142.355 26.0103 142.42 26.463L140.698 26.771C140.656 26.449 140.509 26.1947 140.257 26.008C140.01 25.8213 139.678 25.7163 139.263 25.693C138.866 25.6697 138.547 25.7303 138.304 25.875C138.061 26.015 137.94 26.2133 137.94 26.47C137.94 26.6147 137.989 26.7383 138.087 26.841C138.185 26.9437 138.381 27.0463 138.675 27.149C138.974 27.2517 139.417 27.3777 140.005 27.527C140.607 27.681 141.088 27.8583 141.447 28.059C141.811 28.255 142.072 28.4907 142.231 28.766C142.394 29.0413 142.476 29.375 142.476 29.767C142.476 30.5277 142.198 31.125 141.643 31.559C141.092 31.993 140.329 32.21 139.354 32.21Z" fill="white"/>
</svg>
