<svg width="16" height="14" viewBox="0 0 16 14" fill="none" xmlns="http://www.w3.org/2000/svg">
<path d="M6.64362 12.8947C6.64362 13.1879 6.76861 13.469 6.99109 13.6763C7.21358 13.8836 7.51533 14 7.82997 14C8.14461 14 8.44636 13.8836 8.66885 13.6763C8.89133 13.469 9.01632 13.1879 9.01632 12.8947V8.10526H14.1572C14.4718 8.10526 14.7736 7.98882 14.9961 7.78154C15.2185 7.57426 15.3435 7.29313 15.3435 7C15.3435 6.70687 15.2185 6.42574 14.9961 6.21846C14.7736 6.01118 14.4718 5.89474 14.1572 5.89474H9.01632V1.10526C9.01632 0.812129 8.89133 0.531001 8.66885 0.323724C8.44636 0.116447 8.14461 0 7.82997 0C7.51533 0 7.21358 0.116447 6.99109 0.323724C6.76861 0.531001 6.64362 0.812129 6.64362 1.10526V5.89474H1.50276C1.18812 5.89474 0.886365 6.01118 0.663881 6.21846C0.441397 6.42574 0.316406 6.70687 0.316406 7C0.316406 7.29313 0.441397 7.57426 0.663881 7.78154C0.886365 7.98882 1.18812 8.10526 1.50276 8.10526H6.64362V12.8947Z" fill="#454242"/>
</svg>
