<svg width="28" height="50" viewBox="0 0 28 50" fill="none" xmlns="http://www.w3.org/2000/svg">
<path style="mix-blend-mode:multiply" d="M8.73432 47.3605C11.0402 47.3558 12.9047 45.1538 12.9 42.8178L12.8241 5.19038C12.8209 4.06925 12.3785 2.99526 11.594 2.20442C10.8096 1.41359 9.74734 0.970614 8.64072 0.972847L7.53699 0.507128C5.23115 0.511781 0.32706 2.88315 0.331766 5.21559L0.407665 42.8285C0.416171 47.0435 8.73432 47.3605 8.73432 47.3605Z" fill="url(#paint0_linear_441_510)"/>
<path d="M9.37452 48.6507L9.37073 46.7716L19.0381 46.7521L19.0419 48.6312C15.8619 49.3745 12.5574 49.3812 9.37452 48.6507Z" fill="url(#paint1_linear_441_510)"/>
<path d="M24.6741 27.3808C24.6533 29.4957 24.8303 39.1661 24.1933 44.634C23.9504 46.7021 23.5381 46.449 22.8452 47.3101C22.5551 47.249 22.6329 46.7846 22.3755 46.9701L20.1116 48.2298C19.7598 48.1407 19.3996 48.0904 19.0371 48.0796L19.035 47.0312L9.36769 47.0507L9.36903 47.7109C8.97807 47.8067 8.60233 47.9577 8.25281 48.1594L6.02698 47.0031C5.76523 46.8186 5.83059 47.2683 5.54428 47.3305C4.84793 46.4722 4.44745 46.7415 4.1998 44.6743C3.5407 39.2091 3.67873 29.538 3.6494 27.4233C3.64852 26.988 3.96899 24.332 3.94408 20.857C3.88919 13.1778 3.90497 1.47923 4.53747 0.861289C5.65239 -0.229193 22.5559 -0.263303 23.6752 0.822671C24.303 1.43807 24.3696 13.1546 24.3457 20.8194C24.3384 24.2801 24.6803 26.9455 24.6741 27.3808Z" fill="url(#paint2_linear_441_510)"/>
<path d="M4.5377 27.748C4.53674 27.2729 5.15412 24.4821 5.03938 20.8549C4.78748 13.1289 4.51006 1.63046 5.1676 0.997955C6.32895 -0.147034 22.2983 0.0129954 23.0701 0.96183C23.6516 1.68614 23.4526 13.113 23.2569 20.8217C23.1676 24.4494 23.8141 27.2303 23.8115 27.7128C23.7869 29.7442 24.5219 39.0725 23.9238 44.319C23.5332 47.7405 22.938 47.2991 20.7519 48.0835C17.5139 49.2435 10.9976 49.38 7.6616 48.1099C5.29305 47.2042 4.88246 47.7781 4.47812 44.3583C3.84452 39.1106 4.54176 29.7613 4.5377 27.748Z" fill="url(#paint3_radial_441_510)"/>
<path d="M8.95452 39.249L11.3309 47.5656C11.3316 47.9283 12.614 48.2449 14.1966 48.2417C15.7792 48.2385 17.0604 47.9312 17.0596 47.554L19.3988 39.2279L8.95452 39.249Z" fill="url(#paint4_linear_441_510)"/>
<path d="M10.0789 34.0631C8.91277 33.9566 7.7591 33.7391 6.63317 33.4135L6.76812 32.8655C7.90139 33.2346 9.07145 33.4755 10.257 33.5839C12.8665 33.7709 15.4859 33.7657 18.0947 33.5681C19.2798 33.4549 20.4489 33.2092 21.5806 32.8356L21.7142 33.3831C20.5898 33.714 19.4369 33.9362 18.2711 34.0466C15.5441 34.2444 12.8067 34.2499 10.0789 34.0631Z" fill="url(#paint5_linear_441_510)"/>
<g style="mix-blend-mode:multiply">
<path d="M14.1798 36.3184C14.1798 36.3184 14.3029 37.0218 14.3874 38.0736C14.435 38.5995 14.4756 39.2161 14.502 39.8871C14.5027 40.2172 14.532 40.5581 14.5363 40.9027L14.5384 41.9511C14.5392 42.3138 14.5399 42.6548 14.5406 42.9994C14.5412 43.344 14.5205 43.685 14.5104 44.0151C14.4866 44.6754 14.4521 45.2885 14.4066 45.8291C14.3228 46.8812 14.2025 47.5852 14.2025 47.5852C14.2025 47.5852 14.0829 46.8817 13.9949 45.8299C13.9472 45.3004 13.9066 44.6874 13.8802 44.0164C13.8795 43.6863 13.8502 43.349 13.8495 43.0008C13.8488 42.6526 13.8481 42.3043 13.8474 41.9525C13.8467 41.6006 13.846 41.2524 13.8453 40.9041C13.8446 40.5559 13.8654 40.2185 13.8719 39.8884C13.8992 39.2318 13.9338 38.615 13.9792 38.0745C14.063 37.0223 14.1798 36.3184 14.1798 36.3184Z" fill="#F2F2F2"/>
</g>
<path d="M6.10586 38.1884C7.31334 38.5589 8.54671 38.8365 9.79545 39.0189C12.7088 39.4229 15.6632 39.417 18.5748 39.0012C19.8229 38.8143 21.0552 38.5317 22.261 38.1558C22.4658 38.1062 22.6615 38.0237 22.8406 37.9116L22.8406 37.9297C22.8406 37.9297 22.9667 38.3249 22.8846 38.4302C22.7039 38.5799 22.4884 38.6802 22.2586 38.7217C21.0527 39.0976 19.8205 39.3802 18.5724 39.5671C15.6607 39.9828 12.7063 39.9888 9.79301 39.5848C8.54427 39.4024 7.3109 39.1248 6.10342 38.7543C5.874 38.712 5.65852 38.6127 5.47624 38.4653C5.39726 38.3603 5.52178 37.9647 5.52178 37.9647L5.52175 37.9465C5.70215 38.0588 5.89946 38.1405 6.10586 38.1884Z" fill="url(#paint6_linear_441_510)"/>
<path d="M10.0789 34.063C12.8067 34.2498 15.5441 34.2443 18.2711 34.0465C19.4369 33.9361 20.5898 33.7139 21.7142 33.383L22.8405 37.9114C22.6614 38.0236 22.4657 38.106 22.2609 38.1556C21.0551 38.5315 19.8228 38.8141 18.5747 39.001C15.6631 39.4168 12.7086 39.4227 9.79532 39.0187C8.54658 38.8363 7.31322 38.5587 6.10573 38.1882C5.90181 38.1396 5.70698 38.0579 5.52878 37.9463L6.63317 33.4134C7.7591 33.739 8.91277 33.9565 10.0789 34.063Z" fill="url(#paint7_linear_441_510)"/>
<path d="M5.18066 26.9122C5.1817 25.8998 5.26349 24.8892 5.4252 23.8901L6.45188 23.431L6.53423 23.4308L6.29649 29.8228L4.91189 37.4433C4.91189 37.4433 4.7862 35.4883 4.9023 32.6913C4.97749 30.9174 5.19099 28.4829 5.18066 26.9122Z" fill="url(#paint8_linear_441_510)"/>
<path d="M21.8588 23.4001L23.0091 23.8548C23.0423 24.3517 23.1411 25.3853 23.1405 26.8762C23.1437 28.4469 23.3634 30.866 23.4422 32.6505C23.5695 35.447 23.4518 37.4025 23.4518 37.4025L22.0364 29.7877L21.7729 23.3966L21.8588 23.4001Z" fill="url(#paint9_linear_441_510)"/>
<path style="mix-blend-mode:screen" d="M22.2611 38.1557C21.0552 38.5315 19.8229 38.8141 18.5749 39.001C17.9306 39.1039 17.2361 39.1815 16.513 39.2337C14.659 37.8155 12.4589 35.2517 11.5616 34.1653C13.7984 34.2542 16.0384 34.2182 18.2713 34.0574C19.4371 33.947 20.59 33.7249 21.7144 33.3939L22.8406 37.9223C22.6609 38.0307 22.4652 38.1094 22.2611 38.1557Z" fill="url(#paint10_linear_441_510)"/>
<path d="M8.65527 47.0524C8.65527 47.0524 5.48343 47.3018 5.13972 43.7585C4.77435 40.1318 4.52502 37.2303 4.52502 37.2303C4.52502 37.2303 5.93379 45.1353 8.65527 47.0524Z" fill="url(#paint11_linear_441_510)"/>
<path d="M19.768 46.6673C19.8575 46.6852 22.8503 48.2172 23.2709 43.7219C23.6216 40.0938 23.8593 37.1913 23.8593 37.1913C23.6574 38.3054 22.6855 44.5973 19.768 46.6673Z" fill="url(#paint12_linear_441_510)"/>
<path d="M23.4008 37.0036C23.4008 37.0036 24.428 36.802 24.4477 35.9422C24.4675 35.0825 23.4149 33.3435 23.3956 34.4462C23.3764 35.549 23.307 36.6737 23.4008 37.0036Z" fill="url(#paint13_linear_441_510)"/>
<path d="M26.9703 35.1138C26.7453 35.4117 24.677 36.0434 24.677 36.0434C24.2691 36.1749 24.1288 35.8196 24.0816 35.5187L27.0445 34.6348C27.0701 34.715 27.0767 34.8001 27.0638 34.8833C27.0509 34.9665 27.0188 35.0455 26.9703 35.1138Z" fill="url(#paint14_linear_441_510)"/>
<path d="M24.0813 35.5258C24.0616 35.4059 24.053 35.2845 24.0555 35.1631L26.9685 34.4317C27.002 34.4933 27.0274 34.5591 27.0441 34.6274L24.0813 35.5258Z" fill="url(#paint15_linear_441_510)"/>
<path d="M24.2339 29.4604C24.2922 29.4613 24.3484 29.4389 24.3906 29.3981C24.4327 29.3572 24.4573 29.3013 24.459 29.2423L24.4554 27.4286C24.4534 27.3696 24.4286 27.3137 24.3863 27.2731C24.344 27.2324 24.2876 27.2103 24.2294 27.2114L24.2339 29.4604Z" fill="#595959"/>
<path d="M4.0332 29.5009C4.00452 29.5015 3.97602 29.4963 3.94932 29.4857C3.92262 29.475 3.89824 29.4592 3.87759 29.439C3.85693 29.4189 3.84039 29.3948 3.82893 29.3681C3.81747 29.3415 3.8113 29.3128 3.81078 29.2837L3.80712 27.47C3.80752 27.441 3.81357 27.4123 3.82493 27.3856C3.83629 27.3589 3.85273 27.3347 3.8733 27.3145C3.89388 27.2942 3.91818 27.2783 3.94484 27.2676C3.9715 27.2568 3.99998 27.2515 4.02866 27.2519L4.0332 29.5009Z" fill="#595959"/>
<path d="M21.3262 22.0845C21.3273 22.5996 21.3283 23.0929 21.3292 23.5681L6.97504 23.5971C6.97408 23.1219 6.97308 22.6286 6.97204 22.1135C6.97023 21.2139 4.99327 22.7305 4.96456 22.6979C4.64485 15.0809 4.5353 1.60152 5.14635 0.998131C6.3077 -0.146859 22.2771 0.0131716 23.0488 0.962006C23.5908 1.62111 23.5536 11.5531 23.286 19.1423L23.2925 22.3417C23.2925 22.3417 21.3209 21.1885 21.3262 22.0845Z" fill="url(#paint16_linear_441_510)"/>
<path d="M16.6576 1.0801C16.6578 1.15451 16.629 1.22599 16.5775 1.27906C16.526 1.33212 16.456 1.36249 16.3825 1.36359L11.8245 1.37279C11.7505 1.37294 11.6794 1.34327 11.6269 1.29032C11.5744 1.23736 11.5448 1.16546 11.5447 1.09042C11.5455 1.016 11.5752 0.944899 11.6273 0.892514C11.6795 0.840129 11.7499 0.810685 11.8234 0.810543L16.3742 0.80136C16.4109 0.800807 16.4473 0.807571 16.4814 0.82128C16.5155 0.834989 16.5466 0.855366 16.5729 0.88125C16.5992 0.907135 16.6203 0.938026 16.6348 0.972144C16.6493 1.00626 16.6571 1.04294 16.6576 1.0801Z" fill="#08080A"/>
<path style="mix-blend-mode:multiply" d="M21.1299 33.007L21.5811 33.0061L21.5181 1.79566L21.0669 1.79657L21.1299 33.007Z" fill="url(#paint17_linear_441_510)"/>
<path style="mix-blend-mode:multiply" d="M6.76859 33.0361L7.21973 33.0352L7.15675 1.82471L6.70561 1.82562L6.76859 33.0361Z" fill="url(#paint18_linear_441_510)"/>
<path d="M6.97892 23.5898L21.3331 23.5609C21.3398 26.8582 21.3502 32.0055 21.3502 32.0055C21.3502 32.0055 19.591 33.217 14.1701 33.2026C8.74915 33.1881 6.98521 32.0345 6.98521 32.0345C6.98521 32.0345 6.9734 26.1798 6.96518 22.1062C6.98056 22.6286 6.97797 23.1219 6.97892 23.5898Z" fill="url(#paint19_linear_441_510)"/>
<path d="M19.0494 31.183C19.0498 31.3825 19.1647 31.5455 19.3044 31.5452C19.4476 31.5449 19.5583 31.3851 19.5579 31.1819L19.5015 3.25069C19.5011 3.05118 19.3898 2.88817 19.2466 2.88846C19.1069 2.88874 18.9927 3.0522 18.9931 3.25171L19.0494 31.183Z" fill="url(#paint20_linear_441_510)"/>
<path d="M18.0182 31.1852C18.0186 31.3847 18.1335 31.5477 18.2731 31.5474C18.4128 31.5471 18.527 31.3873 18.5266 31.1841L18.4702 3.25288C18.4698 3.05338 18.3549 2.89037 18.2153 2.89065C18.0757 2.89093 17.9614 3.0544 17.9618 3.25391L18.0182 31.1852Z" fill="url(#paint21_linear_441_510)"/>
<path d="M16.9874 31.1871C16.9878 31.3866 17.1027 31.5496 17.2424 31.5493C17.382 31.5491 17.4963 31.3892 17.4959 31.1861L17.4395 3.25484C17.4391 3.05533 17.3242 2.89232 17.1845 2.89261C17.0449 2.89289 16.9307 3.05635 16.9311 3.25586L16.9874 31.1871Z" fill="url(#paint22_linear_441_510)"/>
<path d="M10.7968 31.1996C10.7972 31.3991 10.9157 31.5621 11.0553 31.5618C11.195 31.5615 11.3092 31.4017 11.3088 31.1985L11.2525 3.26729C11.2521 3.06778 11.1372 2.90477 10.9975 2.90506C10.8579 2.90534 10.7401 3.06881 10.7405 3.26832L10.7968 31.1996Z" fill="url(#paint23_linear_441_510)"/>
<path d="M9.76508 31.2018C9.76548 31.4013 9.8804 31.5643 10.02 31.564C10.1633 31.5637 10.2775 31.4039 10.2771 31.2007L10.2207 3.26949C10.2203 3.06998 10.1054 2.90697 9.96221 2.90726C9.82257 2.90754 9.70832 3.07101 9.70872 3.27052L9.76508 31.2018Z" fill="url(#paint24_linear_441_510)"/>
<path d="M8.73758 31.2039C8.73798 31.4035 8.84931 31.5665 8.98895 31.5662C9.13217 31.5659 9.24284 31.4061 9.24243 31.2029L9.18607 3.27168C9.18567 3.07217 9.07435 2.90916 8.93113 2.90945C8.79149 2.90973 8.68082 3.07319 8.68122 3.2727L8.73758 31.2039Z" fill="url(#paint25_linear_441_510)"/>
<path d="M14.7174 31.1917C14.7178 31.3913 14.8327 31.5543 14.9724 31.554C15.112 31.5537 15.2262 31.3939 15.2258 31.1907L15.1695 3.25948C15.1691 3.05997 15.0542 2.89696 14.9145 2.89724C14.7749 2.89753 14.6606 3.06099 14.661 3.2605L14.7174 31.1917Z" fill="url(#paint26_linear_441_510)"/>
<path d="M13.6861 31.1939C13.6865 31.3935 13.8015 31.5565 13.9411 31.5562C14.0807 31.5559 14.195 31.3961 14.1946 31.1929L14.1382 3.26167C14.1378 3.06216 14.0229 2.89916 13.8833 2.89944C13.7436 2.89972 13.6294 3.06319 13.6298 3.2627L13.6861 31.1939Z" fill="url(#paint27_linear_441_510)"/>
<path d="M12.6544 31.1959C12.6548 31.3954 12.7661 31.5584 12.9094 31.5581C13.049 31.5578 13.1633 31.398 13.1628 31.1949L13.1065 3.26363C13.1061 3.06412 12.9912 2.90111 12.8515 2.90139C12.7083 2.90168 12.5976 3.06514 12.598 3.26465L12.6544 31.1959Z" fill="url(#paint28_linear_441_510)"/>
<path d="M4.9432 37.0697C4.9432 37.0697 3.91521 36.8759 3.88841 36.0162C3.86161 35.1566 4.91075 33.4133 4.93804 34.516C4.96533 35.6187 5.03562 36.7394 4.9432 37.0697Z" fill="url(#paint29_linear_441_510)"/>
<path d="M1.36643 35.2088C1.5926 35.5058 3.66339 36.1292 3.66339 36.1292C4.06825 36.259 4.21076 35.9068 4.2567 35.6056L1.29028 34.7302C1.26383 34.8102 1.25695 34.8956 1.27021 34.979C1.28348 35.0624 1.31649 35.1412 1.36643 35.2088Z" fill="url(#paint30_linear_441_510)"/>
<path d="M4.25666 35.5914C4.27363 35.4712 4.28176 35.3499 4.28098 35.2286L1.36504 34.5271C1.33219 34.5878 1.30706 34.6524 1.29024 34.7195L4.25666 35.5914Z" fill="url(#paint31_linear_441_510)"/>
<path d="M14.4001 30.1912C14.3997 29.9808 14.2956 29.8287 14.1667 29.8289C14.0378 29.8292 13.9379 29.9963 13.9383 30.1921C13.9387 30.388 14.0428 30.5547 14.1681 30.5544C14.2935 30.5542 14.4006 30.398 14.4001 30.1912Z" fill="url(#paint32_linear_441_510)"/>
<path d="M14.2388 30.188L14.2037 25.2257L14.1178 25.2259L14.0991 30.1883L14.2388 30.188Z" fill="black"/>
<path d="M20.1404 48.23C20.1404 48.23 22.7173 47.677 23.2558 46.6276C23.7944 45.5782 23.3282 45.2527 23.3282 45.2527C23.3282 45.2527 20.9204 46.1644 20.1404 48.23Z" fill="url(#paint33_linear_441_510)"/>
<path d="M23.1462 45.5321C23.2451 45.8742 23.2257 46.2403 23.091 46.5697C22.8129 47.1216 21.5752 47.6936 20.7701 47.9383C21.0181 46.6319 22.5811 45.8089 23.1462 45.5321Z" fill="url(#paint34_linear_441_510)"/>
<path style="mix-blend-mode:screen" d="M22.2279 46.4591C22.2278 46.4046 22.3423 46.3427 22.4962 46.3207C22.6501 46.2986 22.7826 46.3201 22.7899 46.3854C22.7972 46.4506 22.6756 46.5017 22.5217 46.5238C22.3678 46.5458 22.2352 46.5135 22.2279 46.4591Z" fill="url(#paint35_linear_441_510)"/>
<path style="mix-blend-mode:screen" d="M22.1521 46.2488C22.152 46.1581 22.3344 46.0598 22.5885 46.0266C22.8427 45.9935 23.054 46.0257 23.0614 46.1309C23.0687 46.236 22.8791 46.3162 22.6286 46.3494C22.378 46.3825 22.1631 46.3358 22.1521 46.2488Z" fill="url(#paint36_linear_441_510)"/>
<path d="M8.04883 48.2544C8.04883 48.2544 5.46619 47.7119 4.927 46.6646C4.38781 45.6174 4.84903 45.29 4.84903 45.29C4.84903 45.29 7.26054 46.192 8.04883 48.2544Z" fill="url(#paint37_linear_441_510)"/>
<path d="M5.0321 45.5688C4.93286 45.9108 4.95256 46.277 5.0879 46.6061C5.37187 47.1569 6.60829 47.7239 7.41797 47.9653C7.1647 46.66 5.60195 45.8433 5.0321 45.5688Z" fill="url(#paint38_linear_441_510)"/>
<path style="mix-blend-mode:screen" d="M5.95444 46.4919C5.95433 46.4374 5.83963 46.376 5.68563 46.3546C5.53162 46.3331 5.39919 46.3551 5.39216 46.4204C5.38513 46.4857 5.50697 46.5363 5.66097 46.5577C5.81498 46.5792 5.94739 46.5463 5.95444 46.4919Z" fill="url(#paint39_linear_441_510)"/>
<path style="mix-blend-mode:screen" d="M6.02907 46.2814C6.02889 46.1907 5.84608 46.0931 5.5918 46.061C5.33752 46.0288 5.12634 46.0619 5.11582 46.1671C5.10529 46.2723 5.30237 46.3517 5.55308 46.3839C5.80378 46.416 6.00776 46.3685 6.02907 46.2814Z" fill="url(#paint40_linear_441_510)"/>
<path d="M21.9155 21.3031L21.8438 12.387L22.9752 12.3847L23.1372 21.6707L21.9155 21.3031Z" fill="#08080A"/>
<path d="M21.8962 11.7451L21.735 2.8292L22.828 3.30219L23.1172 11.7427L21.8962 11.7451Z" fill="#08080A"/>
<path d="M6.36889 21.3347L6.4046 12.4184L5.26959 12.4206L5.1451 21.7072L6.36889 21.3347Z" fill="#08080A"/>
<path d="M6.34962 11.7766L6.47127 2.86014L5.38018 3.34116L5.12509 11.7791L6.34962 11.7766Z" fill="#08080A"/>
<defs>
<linearGradient id="paint0_linear_441_510" x1="7.96737" y1="23.9323" x2="0.100738" y2="23.828" gradientUnits="userSpaceOnUse">
<stop stop-color="#242424"/>
<stop offset="1" stop-color="white"/>
</linearGradient>
<linearGradient id="paint1_linear_441_510" x1="9.37292" y1="47.8594" x2="19.0367" y2="47.8399" gradientUnits="userSpaceOnUse">
<stop/>
<stop offset="1" stop-color="#1B1C1C"/>
</linearGradient>
<linearGradient id="paint2_linear_441_510" x1="3.64736" y1="20.7367" x2="24.705" y2="20.6942" gradientUnits="userSpaceOnUse">
<stop stop-color="#D1D1D1"/>
<stop offset="0.17" stop-color="#E5E6E6"/>
<stop offset="0.88" stop-color="#BDBFBE"/>
<stop offset="1" stop-color="#7C807D"/>
</linearGradient>
<radialGradient id="paint3_radial_441_510" cx="0" cy="0" r="1" gradientUnits="userSpaceOnUse" gradientTransform="translate(14.6349 27.6896) rotate(-0.115616) scale(15.1444 28.0303)">
<stop stop-color="white"/>
<stop offset="1" stop-color="#D6D6D6"/>
</radialGradient>
<linearGradient id="paint4_linear_441_510" x1="14.1822" y1="39.3182" x2="14.2002" y2="48.2163" gradientUnits="userSpaceOnUse">
<stop stop-color="#F7F7F7"/>
<stop offset="1" stop-color="#DBDBDB"/>
</linearGradient>
<linearGradient id="paint5_linear_441_510" x1="6.63343" y1="33.5405" x2="21.718" y2="33.51" gradientUnits="userSpaceOnUse">
<stop/>
<stop offset="1" stop-color="#1B1C1C"/>
</linearGradient>
<linearGradient id="paint6_linear_441_510" x1="5.45568" y1="38.9224" x2="22.9177" y2="38.8872" gradientUnits="userSpaceOnUse">
<stop/>
<stop offset="1" stop-color="#1B1C1C"/>
</linearGradient>
<linearGradient id="paint7_linear_441_510" x1="5.52561" y1="36.3757" x2="22.8373" y2="36.3407" gradientUnits="userSpaceOnUse">
<stop stop-color="#363B39"/>
<stop offset="1" stop-color="#0C0D0D"/>
</linearGradient>
<linearGradient id="paint8_linear_441_510" x1="4.84404" y1="30.4352" x2="6.55194" y2="30.4317" gradientUnits="userSpaceOnUse">
<stop stop-color="#363B39"/>
<stop offset="1"/>
</linearGradient>
<linearGradient id="paint9_linear_441_510" x1="21.787" y1="30.4012" x2="23.4949" y2="30.3978" gradientUnits="userSpaceOnUse">
<stop stop-color="#363B39"/>
<stop offset="1"/>
</linearGradient>
<linearGradient id="paint10_linear_441_510" x1="14.0155" y1="38.3355" x2="18.6535" y2="35.0678" gradientUnits="userSpaceOnUse">
<stop stop-color="#363B39"/>
<stop offset="1"/>
</linearGradient>
<linearGradient id="paint11_linear_441_510" x1="3.50412" y1="51.2017" x2="7.73066" y2="39.1118" gradientUnits="userSpaceOnUse">
<stop stop-color="#F7F7F7"/>
<stop offset="1" stop-color="#DBDBDB"/>
</linearGradient>
<linearGradient id="paint12_linear_441_510" x1="25.0838" y1="51.4049" x2="20.7201" y2="39.0791" gradientUnits="userSpaceOnUse">
<stop stop-color="#F7F7F7"/>
<stop offset="1" stop-color="#DBDBDB"/>
</linearGradient>
<linearGradient id="paint13_linear_441_510" x1="23.1853" y1="36.6594" x2="25.4206" y2="32.3657" gradientUnits="userSpaceOnUse">
<stop stop-color="#363B39"/>
<stop offset="1" stop-color="#1B1C1C"/>
</linearGradient>
<linearGradient id="paint14_linear_441_510" x1="24.1237" y1="35.3553" x2="27.1175" y2="35.3493" gradientUnits="userSpaceOnUse">
<stop stop-color="#363B39"/>
<stop offset="1" stop-color="#0C0D0D"/>
</linearGradient>
<linearGradient id="paint15_linear_441_510" x1="24.0551" y1="34.9817" x2="27.0448" y2="34.9757" gradientUnits="userSpaceOnUse">
<stop stop-color="#D6D6D6"/>
<stop offset="1" stop-color="white"/>
</linearGradient>
<linearGradient id="paint16_linear_441_510" x1="5.12539" y1="11.9059" x2="23.1854" y2="11.8695" gradientUnits="userSpaceOnUse">
<stop stop-color="#C2C2C2"/>
<stop offset="0.06" stop-color="#E1E1E1"/>
<stop offset="0.1" stop-color="#F0F0F0"/>
<stop offset="0.2" stop-color="#F5F5F5"/>
<stop offset="0.51" stop-color="#F7F7F7"/>
<stop offset="0.81" stop-color="#F5F5F5"/>
<stop offset="0.9" stop-color="#F0F0F0"/>
<stop offset="0.94" stop-color="#E0E0E0"/>
<stop offset="1" stop-color="#BFBFBF"/>
</linearGradient>
<linearGradient id="paint17_linear_441_510" x1="21.0984" y1="17.4018" x2="21.5496" y2="17.4009" gradientUnits="userSpaceOnUse">
<stop stop-color="#F7F7F7"/>
<stop offset="0.28" stop-color="white"/>
<stop offset="1"/>
</linearGradient>
<linearGradient id="paint18_linear_441_510" x1="6.7371" y1="17.4308" x2="7.18466" y2="17.4299" gradientUnits="userSpaceOnUse">
<stop stop-color="#7A7A7A"/>
<stop offset="0.72" stop-color="white"/>
<stop offset="1" stop-color="#F7F7F7"/>
</linearGradient>
<linearGradient id="paint19_linear_441_510" x1="14.1737" y1="33.2098" x2="14.1559" y2="24.3879" gradientUnits="userSpaceOnUse">
<stop stop-color="#DBDBDB"/>
<stop offset="1" stop-color="#F7F7F7"/>
</linearGradient>
<linearGradient id="paint20_linear_441_510" x1="19.5296" y1="17.1945" x2="19.0212" y2="17.1956" gradientUnits="userSpaceOnUse">
<stop stop-color="#F7F7F7"/>
<stop offset="1" stop-color="#DBDBDB"/>
</linearGradient>
<linearGradient id="paint21_linear_441_510" x1="18.4984" y1="17.1967" x2="17.99" y2="17.1978" gradientUnits="userSpaceOnUse">
<stop stop-color="#F7F7F7"/>
<stop offset="1" stop-color="#DBDBDB"/>
</linearGradient>
<linearGradient id="paint22_linear_441_510" x1="17.4676" y1="17.1987" x2="16.9592" y2="17.1997" gradientUnits="userSpaceOnUse">
<stop stop-color="#F7F7F7"/>
<stop offset="1" stop-color="#DBDBDB"/>
</linearGradient>
<linearGradient id="paint23_linear_441_510" x1="11.2806" y1="17.2111" x2="10.7686" y2="17.2122" gradientUnits="userSpaceOnUse">
<stop stop-color="#F7F7F7"/>
<stop offset="1" stop-color="#DBDBDB"/>
</linearGradient>
<linearGradient id="paint24_linear_441_510" x1="10.2453" y1="17.2134" x2="9.73686" y2="17.2144" gradientUnits="userSpaceOnUse">
<stop stop-color="#F7F7F7"/>
<stop offset="1" stop-color="#DBDBDB"/>
</linearGradient>
<linearGradient id="paint25_linear_441_510" x1="9.21421" y1="17.2155" x2="8.70578" y2="17.2166" gradientUnits="userSpaceOnUse">
<stop stop-color="#F7F7F7"/>
<stop offset="1" stop-color="#DBDBDB"/>
</linearGradient>
<linearGradient id="paint26_linear_441_510" x1="15.1976" y1="17.2033" x2="14.6892" y2="17.2044" gradientUnits="userSpaceOnUse">
<stop stop-color="#F7F7F7"/>
<stop offset="1" stop-color="#DBDBDB"/>
</linearGradient>
<linearGradient id="paint27_linear_441_510" x1="14.1664" y1="17.2055" x2="13.6579" y2="17.2066" gradientUnits="userSpaceOnUse">
<stop stop-color="#F7F7F7"/>
<stop offset="1" stop-color="#DBDBDB"/>
</linearGradient>
<linearGradient id="paint28_linear_441_510" x1="13.1346" y1="17.2075" x2="12.6262" y2="17.2085" gradientUnits="userSpaceOnUse">
<stop stop-color="#F7F7F7"/>
<stop offset="1" stop-color="#DBDBDB"/>
</linearGradient>
<linearGradient id="paint29_linear_441_510" x1="5.15375" y1="36.7246" x2="2.90475" y2="32.4436" gradientUnits="userSpaceOnUse">
<stop stop-color="#363B39"/>
<stop offset="1" stop-color="#1B1C1C"/>
</linearGradient>
<linearGradient id="paint30_linear_441_510" x1="3.94956" y1="35.4249" x2="0.955693" y2="35.4309" gradientUnits="userSpaceOnUse">
<stop stop-color="#363B39"/>
<stop offset="1" stop-color="#0C0D0D"/>
</linearGradient>
<linearGradient id="paint31_linear_441_510" x1="4.28063" y1="35.0544" x2="1.28735" y2="35.0605" gradientUnits="userSpaceOnUse">
<stop stop-color="#D6D6D6"/>
<stop offset="1" stop-color="white"/>
</linearGradient>
<linearGradient id="paint32_linear_441_510" x1="13.949" y1="30.1885" x2="14.393" y2="30.1876" gradientUnits="userSpaceOnUse">
<stop stop-color="#363B39"/>
<stop offset="1" stop-color="#0C0D0D"/>
</linearGradient>
<linearGradient id="paint33_linear_441_510" x1="22.4256" y1="45.7267" x2="20.8014" y2="49.4192" gradientUnits="userSpaceOnUse">
<stop stop-color="#9C9C9C"/>
<stop offset="1" stop-color="#1B1C1C"/>
</linearGradient>
<linearGradient id="paint34_linear_441_510" x1="21.8977" y1="45.7772" x2="22.0993" y2="48.2821" gradientUnits="userSpaceOnUse">
<stop stop-color="white"/>
<stop offset="1"/>
</linearGradient>
<linearGradient id="paint35_linear_441_510" x1="22.5474" y1="46.3141" x2="22.4112" y2="46.6265" gradientUnits="userSpaceOnUse">
<stop stop-color="#9C9C9C"/>
<stop offset="1" stop-color="#1B1C1C"/>
</linearGradient>
<linearGradient id="paint36_linear_441_510" x1="22.6722" y1="46.0198" x2="22.4473" y2="46.5292" gradientUnits="userSpaceOnUse">
<stop stop-color="#9C9C9C"/>
<stop offset="1" stop-color="#1B1C1C"/>
</linearGradient>
<linearGradient id="paint37_linear_441_510" x1="5.96157" y1="45.9094" x2="7.58301" y2="49.5933" gradientUnits="userSpaceOnUse">
<stop stop-color="#9C9C9C"/>
<stop offset="1" stop-color="#1B1C1C"/>
</linearGradient>
<linearGradient id="paint38_linear_441_510" x1="6.4885" y1="45.9601" x2="6.28352" y2="48.4571" gradientUnits="userSpaceOnUse">
<stop stop-color="white"/>
<stop offset="1"/>
</linearGradient>
<linearGradient id="paint39_linear_441_510" x1="5.84051" y1="46.4923" x2="5.97607" y2="46.8079" gradientUnits="userSpaceOnUse">
<stop stop-color="#9C9C9C"/>
<stop offset="1" stop-color="#1B1C1C"/>
</linearGradient>
<linearGradient id="paint40_linear_441_510" x1="5.71519" y1="46.202" x2="5.93604" y2="46.7103" gradientUnits="userSpaceOnUse">
<stop stop-color="#9C9C9C"/>
<stop offset="1" stop-color="#1B1C1C"/>
</linearGradient>
</defs>
</svg>
