<svg width="24" height="24" viewBox="0 0 24 24" fill="none" xmlns="http://www.w3.org/2000/svg">
<g clip-path="url(#clip0_2033_3115)">
<path fill-rule="evenodd" clip-rule="evenodd" d="M10.7721 2.68799C11.1232 2.41488 11.5553 2.2666 12.0001 2.2666C12.4449 2.2666 12.877 2.41488 13.2281 2.68799L21.6121 9.20799C22.3651 9.79499 21.9491 11 20.9971 11H20.0001V19C20.0001 19.5304 19.7894 20.0391 19.4143 20.4142C19.0392 20.7893 18.5305 21 18.0001 21H6.0001C5.46967 21 4.96096 20.7893 4.58589 20.4142C4.21082 20.0391 4.0001 19.5304 4.0001 19V11H3.0031C2.0501 11 1.6361 9.79399 2.3881 9.20899L10.7721 2.68799ZM5.6251 9.22499C5.8541 9.40999 6.0001 9.69299 6.0001 10.01V19H18.0001V10.01C18.0001 9.69299 18.1461 9.40999 18.3751 9.22499L12.0001 4.26699L5.6251 9.22499Z" fill="#7C8DB5"/>
</g>
<defs>
<clipPath id="clip0_2033_3115">
<rect width="24" height="24" fill="white"/>
</clipPath>
</defs>
</svg>
