<svg width="24" height="24" viewBox="0 0 24 24" fill="none" xmlns="http://www.w3.org/2000/svg">
<g clip-path="url(#clip0_210_885)">
<path fill-rule="evenodd" clip-rule="evenodd" d="M10.772 2.688C11.1231 2.41489 11.5552 2.26661 12 2.26661C12.4448 2.26661 12.8769 2.41489 13.228 2.688L21.612 9.208C22.365 9.795 21.949 11 20.997 11H20V19C20 19.5304 19.7893 20.0391 19.4142 20.4142C19.0392 20.7893 18.5304 21 18 21H6.00001C5.46958 21 4.96087 20.7893 4.5858 20.4142C4.21073 20.0391 4.00001 19.5304 4.00001 19V11H3.00301C2.05001 11 1.63601 9.794 2.38801 9.209L10.772 2.688ZM5.62501 9.225C5.85401 9.41 6.00001 9.693 6.00001 10.01V19H18V10.01C18 9.693 18.146 9.41 18.375 9.225L12 4.267L5.62501 9.225Z" fill="#347AE2"/>
</g>
<defs>
<clipPath id="clip0_210_885">
<rect width="24" height="24" fill="white"/>
</clipPath>
</defs>
</svg>
