<svg width="66" height="67" viewBox="0 0 66 67" fill="none" xmlns="http://www.w3.org/2000/svg">
<g filter="url(#filter0_d_2473_2306)">
<ellipse cx="30.91" cy="31.5" rx="24.91" ry="25.5" fill="white"/>
<path d="M36.025 21C36.4308 21 36.8306 21.0976 37.1897 21.2844C37.5488 21.4712 37.8565 21.7416 38.0863 22.0722L38.195 22.2452L42.67 29.9843C42.8496 30.295 42.9588 30.6407 42.99 30.9972L43 31.2109V36.7673C43 37.0737 42.9424 37.3774 42.83 37.6629L42.7362 37.8729L41.3387 40.6338C41.1465 41.0142 40.8582 41.3391 40.5017 41.5772C40.1452 41.8152 39.7326 41.9583 39.3037 41.9926L39.1025 42H36.75C36.1193 42.0002 35.5118 41.7648 35.0493 41.341C34.5868 40.9172 34.3036 40.3363 34.2563 39.7147L34.25 39.5294H26.75C26.7502 40.1527 26.512 40.7531 26.0831 41.2101C25.6543 41.6671 25.0664 41.9471 24.4375 41.9938L24.25 42H21.8975C21.4677 41.9998 21.0452 41.8902 20.6707 41.6816C20.2963 41.473 19.9826 41.1725 19.76 40.8092L19.6612 40.6338L18.2637 37.8716C18.1254 37.5977 18.0398 37.3007 18.0113 36.9958L18 36.7673V31.2109C18 30.8535 18.0785 30.5003 18.23 30.1758L18.33 29.9843L22.805 22.2452C23.0064 21.8969 23.2905 21.6023 23.6329 21.3869C23.9752 21.1715 24.3655 21.0416 24.77 21.0086L24.975 21H36.025ZM36.025 23.4706H24.975L20.5 31.2109V36.7673L21.8975 39.5294H24.25V38.4176C24.2498 38.0828 24.3748 37.7597 24.6008 37.5103C24.8269 37.2609 25.1382 37.1028 25.475 37.0662L25.625 37.0588H35.375C35.7138 37.0587 36.0408 37.1821 36.2932 37.4055C36.5455 37.6289 36.7055 37.9366 36.7425 38.2694L36.75 38.4176V39.5294H39.1025L40.5 36.7673V31.2109L36.025 23.4706ZM36.1925 29.7768C36.4889 29.631 36.8318 29.6073 37.1458 29.7111C37.4599 29.8149 37.7194 30.0375 37.8675 30.3302C38.0125 30.6239 38.035 30.9621 37.9303 31.2721C37.8256 31.5821 37.6019 31.8392 37.3075 31.9879C35.2525 33.0009 32.7625 33.3529 30.5 33.3529C28.1925 33.3529 25.7875 33.0046 23.6975 31.9904C23.4031 31.8408 23.1794 31.5837 23.0739 31.2736C22.9684 30.9636 22.9894 30.6251 23.1325 30.3302C23.2722 30.0603 23.5067 29.85 23.792 29.7388C24.0774 29.6276 24.394 29.6231 24.6825 29.7261L25.0162 29.8682L25.3212 29.988L25.595 30.0868L25.92 30.1931L26.2975 30.3067L26.7225 30.4191L27.1937 30.5303L27.7075 30.6316C28.6288 30.7983 29.5634 30.8822 30.5 30.8824C32.395 30.8824 34.46 30.5958 36.1925 29.7768Z" fill="#3080AD"/>
</g>
<defs>
<filter id="filter0_d_2473_2306" x="0" y="0" width="65.82" height="67" filterUnits="userSpaceOnUse" color-interpolation-filters="sRGB">
<feFlood flood-opacity="0" result="BackgroundImageFix"/>
<feColorMatrix in="SourceAlpha" type="matrix" values="0 0 0 0 0 0 0 0 0 0 0 0 0 0 0 0 0 0 127 0" result="hardAlpha"/>
<feOffset dx="2" dy="2"/>
<feGaussianBlur stdDeviation="4"/>
<feComposite in2="hardAlpha" operator="out"/>
<feColorMatrix type="matrix" values="0 0 0 0 0 0 0 0 0 0 0 0 0 0 0 0 0 0 0.25 0"/>
<feBlend mode="normal" in2="BackgroundImageFix" result="effect1_dropShadow_2473_2306"/>
<feBlend mode="normal" in="SourceGraphic" in2="effect1_dropShadow_2473_2306" result="shape"/>
</filter>
</defs>
</svg>
