<svg width="50" height="51" viewBox="0 0 50 51" fill="none" xmlns="http://www.w3.org/2000/svg">
<ellipse cx="24.91" cy="25.5" rx="24.91" ry="25.5" fill="white"/>
<path d="M30.025 15C30.4308 15 30.8306 15.0976 31.1897 15.2844C31.5488 15.4712 31.8565 15.7416 32.0863 16.0722L32.195 16.2452L36.67 23.9843C36.8496 24.295 36.9588 24.6407 36.99 24.9972L37 25.2109V30.7673C37 31.0737 36.9424 31.3774 36.83 31.6629L36.7362 31.8729L35.3387 34.6338C35.1465 35.0142 34.8582 35.3391 34.5017 35.5772C34.1452 35.8152 33.7326 35.9583 33.3037 35.9926L33.1025 36H30.75C30.1193 36.0002 29.5118 35.7648 29.0493 35.341C28.5868 34.9172 28.3036 34.3363 28.2563 33.7147L28.25 33.5294H20.75C20.7502 34.1527 20.512 34.7531 20.0831 35.2101C19.6543 35.6671 19.0664 35.9471 18.4375 35.9938L18.25 36H15.8975C15.4677 35.9998 15.0452 35.8902 14.6707 35.6816C14.2963 35.473 13.9826 35.1725 13.76 34.8092L13.6612 34.6338L12.2637 31.8716C12.1254 31.5977 12.0398 31.3007 12.0113 30.9958L12 30.7673V25.2109C12 24.8535 12.0785 24.5003 12.23 24.1758L12.33 23.9843L16.805 16.2452C17.0064 15.8969 17.2905 15.6023 17.6329 15.3869C17.9752 15.1715 18.3655 15.0416 18.77 15.0086L18.975 15H30.025ZM30.025 17.4706H18.975L14.5 25.2109V30.7673L15.8975 33.5294H18.25V32.4176C18.2498 32.0828 18.3748 31.7597 18.6008 31.5103C18.8269 31.2609 19.1382 31.1028 19.475 31.0662L19.625 31.0588H29.375C29.7138 31.0587 30.0408 31.1821 30.2932 31.4055C30.5455 31.6289 30.7055 31.9366 30.7425 32.2694L30.75 32.4176V33.5294H33.1025L34.5 30.7673V25.2109L30.025 17.4706ZM30.1925 23.7768C30.4889 23.631 30.8318 23.6073 31.1458 23.7111C31.4599 23.8149 31.7194 24.0375 31.8675 24.3302C32.0125 24.6239 32.035 24.9621 31.9303 25.2721C31.8256 25.5821 31.6019 25.8392 31.3075 25.9879C29.2525 27.0009 26.7625 27.3529 24.5 27.3529C22.1925 27.3529 19.7875 27.0046 17.6975 25.9904C17.4031 25.8408 17.1794 25.5837 17.0739 25.2736C16.9684 24.9636 16.9894 24.6251 17.1325 24.3302C17.2722 24.0603 17.5067 23.85 17.792 23.7388C18.0774 23.6276 18.394 23.6231 18.6825 23.7261L19.0162 23.8682L19.3212 23.988L19.595 24.0868L19.92 24.1931L20.2975 24.3067L20.7225 24.4191L21.1937 24.5303L21.7075 24.6316C22.6288 24.7983 23.5634 24.8822 24.5 24.8824C26.395 24.8824 28.46 24.5958 30.1925 23.7768Z" fill="#3080AD"/>
</svg>
