<svg width="24" height="24" viewBox="0 0 24 24" fill="none" xmlns="http://www.w3.org/2000/svg">
<g clip-path="url(#clip0_2033_3119)">
<path fill-rule="evenodd" clip-rule="evenodd" d="M12 13C14.396 13 16.575 13.694 18.178 14.672C18.978 15.16 19.662 15.736 20.156 16.362C20.642 16.977 21 17.713 21 18.5C21 19.345 20.589 20.011 19.997 20.486C19.437 20.936 18.698 21.234 17.913 21.442C16.335 21.859 14.229 22 12 22C9.771 22 7.665 21.86 6.087 21.442C5.302 21.234 4.563 20.936 4.003 20.486C3.41 20.01 3 19.345 3 18.5C3 17.713 3.358 16.977 3.844 16.361C4.338 15.736 5.021 15.161 5.822 14.671C7.425 13.695 9.605 13 12 13ZM12 15C9.977 15 8.157 15.59 6.864 16.379C6.217 16.773 5.729 17.201 5.414 17.601C5.09 18.011 5 18.321 5 18.5C5 18.622 5.037 18.751 5.255 18.926C5.504 19.126 5.937 19.333 6.599 19.508C7.917 19.858 9.811 20 12 20C14.19 20 16.083 19.857 17.4 19.508C18.063 19.333 18.496 19.126 18.745 18.926C18.963 18.751 19 18.622 19 18.5C19 18.32 18.91 18.011 18.587 17.601C18.271 17.201 17.783 16.773 17.136 16.379C15.843 15.589 14.023 15 12 15ZM12 2C13.3261 2 14.5979 2.52678 15.5355 3.46447C16.4732 4.40215 17 5.67392 17 7C17 8.32608 16.4732 9.59785 15.5355 10.5355C14.5979 11.4732 13.3261 12 12 12C10.6739 12 9.40215 11.4732 8.46447 10.5355C7.52678 9.59785 7 8.32608 7 7C7 5.67392 7.52678 4.40215 8.46447 3.46447C9.40215 2.52678 10.6739 2 12 2ZM12 4C11.606 4 11.2159 4.0776 10.8519 4.22836C10.488 4.37913 10.1573 4.6001 9.87868 4.87868C9.6001 5.15726 9.37913 5.48797 9.22836 5.85195C9.0776 6.21593 9 6.60603 9 7C9 7.39397 9.0776 7.78407 9.22836 8.14805C9.37913 8.51203 9.6001 8.84274 9.87868 9.12132C10.1573 9.3999 10.488 9.62087 10.8519 9.77164C11.2159 9.9224 11.606 10 12 10C12.7956 10 13.5587 9.68393 14.1213 9.12132C14.6839 8.55871 15 7.79565 15 7C15 6.20435 14.6839 5.44129 14.1213 4.87868C13.5587 4.31607 12.7956 4 12 4Z" fill="#347AE2"/>
</g>
<defs>
<clipPath id="clip0_2033_3119">
<rect width="24" height="24" fill="white"/>
</clipPath>
</defs>
</svg>
