<svg width="24" height="24" viewBox="0 0 24 24" fill="none" xmlns="http://www.w3.org/2000/svg">
<path fill-rule="evenodd" clip-rule="evenodd" d="M5.71419 4.8499C5.51304 4.8499 5.30131 4.93721 5.13143 5.12439C4.95907 5.31431 4.8499 5.58809 4.8499 5.88879V19.111C4.8499 19.4117 4.95907 19.6855 5.13143 19.8754C5.30131 20.0626 5.51304 20.1499 5.71419 20.1499H15.1499V11.9999V5.88879C15.1499 5.58809 15.0407 5.31431 14.8684 5.12439C14.6985 4.93721 14.4868 4.8499 14.2856 4.8499H5.71419ZM5.71419 21.8499H15.9999H17.9999C18.7558 21.8499 19.4807 21.5496 20.0152 21.0152C20.5496 20.4807 20.8499 19.7558 20.8499 18.9999V11.9999C20.8499 11.5305 20.4693 11.1499 19.9999 11.1499H16.8499V5.88879C16.8499 5.18757 16.5978 4.50045 16.1272 3.9819C15.6541 3.46061 14.9938 3.1499 14.2856 3.1499H5.71419C5.00603 3.1499 4.34569 3.46061 3.87258 3.9819C3.40196 4.50045 3.1499 5.18757 3.1499 5.88879V19.111C3.1499 19.8122 3.40196 20.4993 3.87258 21.0179C4.34568 21.5392 5.00603 21.8499 5.71419 21.8499ZM16.8499 20.1499V12.8499H19.1499V18.9999C19.1499 19.3049 19.0287 19.5974 18.8131 19.8131C18.5974 20.0287 18.3049 20.1499 17.9999 20.1499H16.8499ZM7.9999 8.1499C7.53046 8.1499 7.1499 8.53046 7.1499 8.9999C7.1499 9.46934 7.53046 9.8499 7.9999 9.8499H11.9999C12.4693 9.8499 12.8499 9.46934 12.8499 8.9999C12.8499 8.53046 12.4693 8.1499 11.9999 8.1499H7.9999ZM7.1499 11.9999C7.1499 11.5305 7.53046 11.1499 7.9999 11.1499H11.9999C12.4693 11.1499 12.8499 11.5305 12.8499 11.9999C12.8499 12.4693 12.4693 12.8499 11.9999 12.8499H7.9999C7.53046 12.8499 7.1499 12.4693 7.1499 11.9999ZM7.9999 15.1499C7.53046 15.1499 7.1499 15.5305 7.1499 15.9999C7.1499 16.4693 7.53046 16.8499 7.9999 16.8499H10.9999C11.4693 16.8499 11.8499 16.4693 11.8499 15.9999C11.8499 15.5305 11.4693 15.1499 10.9999 15.1499H7.9999Z" fill="#7C8DB5"/>
</svg>
