<svg width="24" height="24" viewBox="0 0 24 24" fill="none" xmlns="http://www.w3.org/2000/svg">
<path d="M10.807 7.427L8.32998 4.95L12.785 4.455L13.28 0L16.165 2.885L19.05 0L19.545 4.455L24 4.95L21.417 7.533C20.734 7.189 19.967 7 19.167 7H12.834C12.12 7 11.432 7.151 10.807 7.427ZM24 18V22H22V24H18V22H14V24H9.99998V22H7.99998V18C7.99998 17.324 8.06798 16.657 8.18898 16H23.811C23.932 16.657 24 17.324 24 18ZM13.5 18.991C13.5 18.168 12.833 17.5 12.009 17.5H11.99C11.167 17.5 10.499 18.167 10.499 18.991V19.01C10.499 19.833 11.166 20.501 11.99 20.501H12.009C12.832 20.501 13.5 19.834 13.5 19.01V18.991ZM21.5 18.991C21.5 18.168 20.833 17.5 20.009 17.5H19.99C19.167 17.5 18.499 18.167 18.499 18.991V19.01C18.499 19.833 19.166 20.501 19.99 20.501H20.009C20.832 20.501 21.5 19.834 21.5 19.01V18.991ZM12.833 9H19.166C20.381 9 21.468 9.725 21.936 10.847L23.154 13.769C23.186 13.845 23.207 13.924 23.237 14H8.76298C8.79298 13.924 8.81498 13.845 8.84598 13.769L10.064 10.846C10.531 9.724 11.618 9 12.833 9ZM5.79998 16.128L3.40198 16.627L2.99498 14.669L1.03698 15.076L0.222977 11.16C0.0849766 10.498 0.0159766 9.831 0.000976562 9.163L8.04398 7.491L9.15998 8.607C8.76998 9.03 8.44898 9.525 8.21898 10.078L5.80098 16.129L5.79998 16.128ZM4.65598 12.791C5.46198 12.623 5.97998 11.834 5.81198 11.028L5.80798 11.01C5.63998 10.204 4.85098 9.687 4.04498 9.854L4.02698 9.858C3.22098 10.026 2.70298 10.815 2.87098 11.621L2.87498 11.639C3.04298 12.445 3.83198 12.963 4.63798 12.795L4.65598 12.791ZM6.21398 3.172L10.973 2.643L11.233 0.306C10.652 0.027 9.98398 -0.063 9.32298 0.074L3.12198 1.365C1.93698 1.612 1.01498 2.547 0.786977 3.736L0.188977 6.845L0.386977 7.04L6.35198 5.8L5.56798 5.016L6.21398 3.172Z" fill="#3E4E65"/>
</svg>
