<svg width="39" height="32" viewBox="0 0 39 32" fill="none" xmlns="http://www.w3.org/2000/svg">
<path d="M13.9702 4.03995C14.3783 4.12589 14.729 4.34456 14.9453 4.64787C15.1616 4.95117 15.2256 5.31427 15.1234 5.65728L8.77862 26.9906C8.73105 27.1631 8.64311 27.3258 8.51992 27.4694C8.39674 27.613 8.24078 27.7345 8.06113 27.8269C7.88149 27.9192 7.68176 27.9806 7.4736 28.0074C7.26543 28.0342 7.05301 28.0259 6.8487 27.983C6.6444 27.94 6.45231 27.8633 6.28365 27.7573C6.11498 27.6514 5.97311 27.5182 5.86632 27.3656C5.75952 27.2131 5.68994 27.0441 5.66162 26.8687C5.63331 26.6933 5.64683 26.5149 5.7014 26.3439L12.0462 5.01061C12.0966 4.84065 12.1864 4.68072 12.3104 4.53994C12.4345 4.39916 12.5903 4.2803 12.7689 4.19016C12.9476 4.10002 13.1457 4.04035 13.3518 4.01458C13.5579 3.98881 13.7681 3.99743 13.9702 4.03995ZM27.813 5.00928L34.1578 26.3426C34.2123 26.5136 34.2259 26.692 34.1975 26.8674C34.1692 27.0428 34.0996 27.2117 33.9928 27.3643C33.886 27.5169 33.7442 27.65 33.5755 27.756C33.4068 27.862 33.2148 27.9387 33.0105 27.9816C32.8062 28.0246 32.5937 28.0329 32.3856 28.0061C32.1774 27.9793 31.9777 27.9179 31.798 27.8255C31.6184 27.7331 31.4624 27.6116 31.3392 27.4681C31.216 27.3245 31.1281 27.1617 31.0805 26.9893L24.7358 5.65595C24.6812 5.48498 24.6677 5.30658 24.696 5.13117C24.7243 4.95576 24.7939 4.78684 24.9007 4.63427C25.0075 4.48171 25.1493 4.34854 25.318 4.24255C25.4867 4.13656 25.6788 4.05986 25.8831 4.01692C26.0874 3.97399 26.2998 3.96568 26.508 3.99249C26.7161 4.01929 26.9158 4.08067 27.0955 4.17304C27.2751 4.26542 27.4311 4.38693 27.5543 4.53051C27.6775 4.67408 27.7654 4.83684 27.813 5.00928ZM19.9296 22.6666C20.3181 22.6667 20.6931 22.7866 20.9834 23.0036C21.2737 23.2206 21.4592 23.5196 21.5047 23.8439L21.5158 23.9999V26.6666C21.5153 27.0065 21.3605 27.3333 21.083 27.5804C20.8054 27.8276 20.4261 27.9763 20.0225 27.9962C19.6189 28.0161 19.2215 27.9057 18.9115 27.6876C18.6015 27.4695 18.4022 27.1601 18.3545 26.8226L18.3434 26.6666V23.9999C18.3434 23.6463 18.5105 23.3072 18.808 23.0571C19.1054 22.8071 19.5089 22.6666 19.9296 22.6666ZM19.9296 13.3333C20.3503 13.3333 20.7537 13.4738 21.0512 13.7238C21.3487 13.9739 21.5158 14.313 21.5158 14.6666V17.3333C21.5158 17.6869 21.3487 18.026 21.0512 18.2761C20.7537 18.5261 20.3503 18.6666 19.9296 18.6666C19.5089 18.6666 19.1054 18.5261 18.808 18.2761C18.5105 18.026 18.3434 17.6869 18.3434 17.3333V14.6666C18.3434 14.313 18.5105 13.9739 18.808 13.7238C19.1054 13.4738 19.5089 13.3333 19.9296 13.3333ZM19.9296 3.99995C20.3181 3.99999 20.6931 4.11989 20.9834 4.3369C21.2737 4.55391 21.4592 4.85295 21.5047 5.17728L21.5158 5.33328V7.99995C21.5153 8.33979 21.3605 8.66666 21.083 8.91377C20.8054 9.16089 20.4261 9.30959 20.0225 9.32951C19.6189 9.34943 19.2215 9.23905 18.9115 9.02093C18.6015 8.80281 18.4022 8.49341 18.3545 8.15595L18.3434 7.99995V5.33328C18.3434 4.97966 18.5105 4.64052 18.808 4.39047C19.1054 4.14042 19.5089 3.99995 19.9296 3.99995Z" fill="#3E4E65"/>
</svg>
