<svg width="24" height="21" viewBox="0 0 24 21" fill="none" xmlns="http://www.w3.org/2000/svg">
<path d="M17.8508 0.691497C18.0923 0.513074 18.3903 0.436599 18.6842 0.477624C18.9782 0.518649 19.246 0.674094 19.4333 0.912348C19.6205 1.1506 19.7131 1.45377 19.6922 1.76021C19.6713 2.06665 19.5385 2.35335 19.3208 2.562L19.2065 2.65746L16.7553 4.47116C16.4034 4.73102 16.1297 5.0887 15.9658 5.50287C15.8019 5.91704 15.7544 6.3708 15.829 6.8117L15.8663 6.99537L19.7665 2.95591C19.9765 2.7392 20.2582 2.61338 20.5544 2.60401C20.8507 2.59464 21.1393 2.70242 21.3617 2.90546C21.584 3.1085 21.7234 3.39158 21.7515 3.6972C21.7796 4.00281 21.6943 4.30805 21.513 4.55091L21.4162 4.6645L17.516 8.70395C18.3385 8.92145 19.2485 8.65562 19.833 7.9427L19.9532 7.7832L21.7043 5.2445C21.8771 4.9954 22.1348 4.82366 22.4253 4.76409C22.7158 4.70453 23.0173 4.7616 23.2686 4.92374C23.52 5.08587 23.7024 5.34094 23.7789 5.63722C23.8555 5.93351 23.8203 6.24884 23.6807 6.51929L23.6025 6.64858L21.8525 9.1885C21.2048 10.1272 20.252 10.7925 19.169 11.0624C18.0859 11.3323 16.9452 11.1887 15.9562 10.6578L15.7462 10.537L13.0663 13.3113L17.9162 18.3356C18.117 18.5436 18.2377 18.8205 18.2555 19.1141C18.2734 19.4078 18.1871 19.6981 18.013 19.9306L17.9162 20.0442C17.7153 20.2522 17.448 20.3772 17.1645 20.3957C16.8809 20.4141 16.6006 20.3248 16.3762 20.1445L16.2665 20.0442L11.4167 15.0199L6.56683 20.0442C6.36594 20.2522 6.09866 20.3772 5.81513 20.3957C5.5316 20.4141 5.2513 20.3248 5.02683 20.1445L4.91717 20.0442C4.71629 19.8361 4.59562 19.5593 4.5778 19.2656C4.55997 18.972 4.64621 18.6816 4.82033 18.4492L4.91717 18.3356L9.767 13.3113L7.88867 11.3659C7.39447 11.6424 6.8608 11.8354 6.30783 11.9375L6.01617 11.9822C5.31816 12.0734 4.60923 11.9954 3.94533 11.7542C3.28143 11.5131 2.68074 11.1154 2.19067 10.5926C1.10683 9.46883 0.487333 8.05629 0.333333 6.69933C0.181666 5.36412 0.473333 3.93345 1.41833 2.95591C2.36217 1.97716 3.74233 1.67508 5.0315 1.83216C6.34167 1.99287 7.70667 2.6345 8.7905 3.75704C9.29511 4.26448 9.67898 4.88643 9.91181 5.57381C10.1446 6.2612 10.2201 6.99521 10.1322 7.71795C10.0622 8.32816 9.89067 8.90695 9.6585 9.41083L9.53717 9.65733L11.4155 11.6027L14.0965 8.82841C13.5347 7.83491 13.3368 6.66519 13.539 5.53303C13.7412 4.40087 14.33 3.38187 15.1978 2.66229L15.3985 2.50521L17.8508 0.691497Z" fill="#09244B"/>
</svg>
