<svg width="30" height="26" viewBox="0 0 30 26" fill="none" xmlns="http://www.w3.org/2000/svg">
<path d="M8.97024 1.03995C9.3783 1.12589 9.72903 1.34456 9.94529 1.64787C10.1616 1.95117 10.2256 2.31427 10.1234 2.65728L3.77862 23.9906C3.73105 24.1631 3.64311 24.3258 3.51992 24.4694C3.39674 24.613 3.24078 24.7345 3.06113 24.8269C2.88149 24.9192 2.68176 24.9806 2.4736 25.0074C2.26543 25.0342 2.05301 25.0259 1.8487 24.983C1.6444 24.94 1.45231 24.8633 1.28365 24.7573C1.11498 24.6514 0.973114 24.5182 0.866317 24.3656C0.759521 24.2131 0.689936 24.0441 0.66162 23.8687C0.633305 23.6933 0.646827 23.5149 0.701396 23.3439L7.04618 2.01061C7.09663 1.84065 7.18643 1.68072 7.31044 1.53994C7.43446 1.39916 7.59026 1.2803 7.76894 1.19016C7.94762 1.10002 8.14568 1.04035 8.35181 1.01458C8.55793 0.988806 8.76808 0.997426 8.97024 1.03995ZM22.813 2.00928L29.1578 23.3426C29.2123 23.5136 29.2259 23.692 29.1975 23.8674C29.1692 24.0428 29.0996 24.2117 28.9928 24.3643C28.886 24.5169 28.7442 24.65 28.5755 24.756C28.4068 24.862 28.2148 24.9387 28.0105 24.9816C27.8062 25.0246 27.5937 25.0329 27.3856 25.0061C27.1774 24.9793 26.9777 24.9179 26.798 24.8255C26.6184 24.7331 26.4624 24.6116 26.3392 24.4681C26.216 24.3245 26.1281 24.1617 26.0805 23.9893L19.7358 2.65595C19.6812 2.48498 19.6677 2.30658 19.696 2.13117C19.7243 1.95576 19.7939 1.78684 19.9007 1.63427C20.0075 1.48171 20.1493 1.34854 20.318 1.24255C20.4867 1.13656 20.6788 1.05986 20.8831 1.01692C21.0874 0.973989 21.2998 0.965682 21.508 0.992486C21.7161 1.01929 21.9158 1.08067 22.0955 1.17304C22.2751 1.26542 22.4311 1.38693 22.5543 1.53051C22.6775 1.67408 22.7654 1.83684 22.813 2.00928ZM14.9296 19.6666C15.3181 19.6667 15.6931 19.7866 15.9834 20.0036C16.2737 20.2206 16.4592 20.5196 16.5047 20.8439L16.5158 20.9999V23.6666C16.5153 24.0065 16.3605 24.3333 16.083 24.5804C15.8054 24.8276 15.4261 24.9763 15.0225 24.9962C14.6189 25.0161 14.2215 24.9057 13.9115 24.6876C13.6015 24.4695 13.4022 24.1601 13.3545 23.8226L13.3434 23.6666V20.9999C13.3434 20.6463 13.5105 20.3072 13.808 20.0571C14.1054 19.8071 14.5089 19.6666 14.9296 19.6666ZM14.9296 10.3333C15.3503 10.3333 15.7537 10.4738 16.0512 10.7238C16.3487 10.9739 16.5158 11.313 16.5158 11.6666V14.3333C16.5158 14.6869 16.3487 15.026 16.0512 15.2761C15.7537 15.5261 15.3503 15.6666 14.9296 15.6666C14.5089 15.6666 14.1054 15.5261 13.808 15.2761C13.5105 15.026 13.3434 14.6869 13.3434 14.3333V11.6666C13.3434 11.313 13.5105 10.9739 13.808 10.7238C14.1054 10.4738 14.5089 10.3333 14.9296 10.3333ZM14.9296 0.999948C15.3181 0.999992 15.6931 1.11989 15.9834 1.3369C16.2737 1.55391 16.4592 1.85295 16.5047 2.17728L16.5158 2.33328V4.99995C16.5153 5.33979 16.3605 5.66666 16.083 5.91377C15.8054 6.16089 15.4261 6.30959 15.0225 6.32951C14.6189 6.34943 14.2215 6.23905 13.9115 6.02093C13.6015 5.80281 13.4022 5.49341 13.3545 5.15595L13.3434 4.99995V2.33328C13.3434 1.97966 13.5105 1.64052 13.808 1.39047C14.1054 1.14042 14.5089 0.999948 14.9296 0.999948Z" fill="#3E4E65"/>
</svg>
