<svg width="27" height="21" viewBox="0 0 27 21" fill="none" xmlns="http://www.w3.org/2000/svg">
<path d="M16.8854 2C17.2655 1.99997 17.64 2.08715 17.9764 2.25403C18.3128 2.4209 18.6011 2.66244 18.8163 2.95779L18.9182 3.11228L23.1102 10.0254C23.2785 10.303 23.3808 10.6117 23.41 10.9302L23.4194 11.1211V16.0844C23.4194 16.3581 23.3654 16.6294 23.2601 16.8844L23.1723 17.072L21.8631 19.5382C21.6831 19.878 21.413 20.1683 21.079 20.3809C20.7451 20.5935 20.3585 20.7214 19.9568 20.752L19.7683 20.7586H17.5645C16.9737 20.7588 16.4046 20.5485 15.9714 20.1699C15.5381 19.7914 15.2727 19.2724 15.2284 18.7172L15.2226 18.5517H8.19677C8.19696 19.1085 7.97381 19.6448 7.57207 20.053C7.17032 20.4613 6.61966 20.7113 6.03048 20.7531L5.85484 20.7586H3.65108C3.24843 20.7585 2.85263 20.6605 2.50188 20.4742C2.15114 20.2879 1.85729 20.0194 1.64872 19.6949L1.55622 19.5382L0.247074 17.0709C0.117466 16.8262 0.0372582 16.5609 0.0105388 16.2886L1.04231e-09 16.0844V11.1211C-1.01071e-05 10.8018 0.0735005 10.4863 0.215458 10.1964L0.309135 10.0254L4.5012 3.11228C4.68983 2.80119 4.956 2.53805 5.27671 2.34561C5.59742 2.15317 5.96304 2.0372 6.34196 2.00772L6.534 2H16.8854ZM16.8854 4.2069H6.534L2.34194 11.1211V16.0844L3.65108 18.5517H5.85484V17.5586C5.85468 17.2595 5.97171 16.9709 6.18349 16.7481C6.39527 16.5253 6.68688 16.3841 7.00239 16.3514L7.1429 16.3448H16.2765C16.5939 16.3447 16.9001 16.455 17.1366 16.6545C17.373 16.8541 17.5229 17.1289 17.5575 17.4262L17.5645 17.5586V18.5517H19.7683L21.0774 16.0844V11.1211L16.8854 4.2069ZM17.0423 9.84C17.32 9.70976 17.6411 9.68866 17.9353 9.78134C18.2295 9.87402 18.4726 10.0729 18.6114 10.3343C18.7472 10.5967 18.7683 10.8989 18.6702 11.1758C18.5721 11.4527 18.3626 11.6823 18.0868 11.8152C16.1617 12.72 13.8291 13.0345 11.7097 13.0345C9.54807 13.0345 7.29513 12.7233 5.33727 11.8174C5.06153 11.6838 4.85197 11.4541 4.75313 11.1771C4.65429 10.9002 4.67397 10.5978 4.80799 10.3343C4.93884 10.0933 5.15852 9.90545 5.42584 9.80611C5.69315 9.70677 5.98975 9.70273 6.25999 9.79476L6.57264 9.92166L6.85836 10.0287L7.1148 10.117L7.41925 10.2119L7.77288 10.3134L8.17101 10.4138L8.61247 10.5131L9.09373 10.6036C9.95675 10.7525 10.8323 10.8275 11.7097 10.8276C13.4849 10.8276 15.4193 10.5716 17.0423 9.84Z" fill="#3E4E65"/>
<path d="M26.25 0C26.4489 0 26.6397 0.0737498 26.7803 0.205025C26.921 0.336301 27 0.514348 27 0.7V4.7551C27 4.94074 26.9209 5.11875 26.7802 5.25L25.125 6.7949C24.9844 6.92618 24.7936 6.99996 24.5948 7H21.75C21.5511 7 21.3603 6.92625 21.2197 6.79497C21.079 6.6637 21 6.48565 21 6.3V0.7C21 0.514348 21.079 0.336301 21.2197 0.205025C21.3603 0.0737498 21.5511 0 21.75 0H26.25ZM26.25 0.7H21.75V6.3H24V4.725C24 4.58576 24.0593 4.45223 24.1648 4.35377C24.2702 4.25531 24.4133 4.2 24.5625 4.2H26.25V0.7ZM26.0948 4.9H24.75V6.1551L26.0948 4.9ZM23.25 3.15C23.3495 3.15 23.4448 3.18687 23.5152 3.25251C23.5855 3.31815 23.625 3.40717 23.625 3.5C23.625 3.59283 23.5855 3.68185 23.5152 3.74749C23.4448 3.81312 23.3495 3.85 23.25 3.85H22.875C22.7755 3.85 22.6802 3.81312 22.6098 3.74749C22.5395 3.68185 22.5 3.59283 22.5 3.5C22.5 3.40717 22.5395 3.31815 22.6098 3.25251C22.6802 3.18687 22.7755 3.15 22.875 3.15H23.25ZM25.125 1.75C25.2245 1.75 25.3198 1.78687 25.3902 1.85251C25.4605 1.91815 25.5 2.00717 25.5 2.1C25.5 2.19283 25.4605 2.28185 25.3902 2.34749C25.3198 2.41313 25.2245 2.45 25.125 2.45H22.875C22.7755 2.45 22.6802 2.41313 22.6098 2.34749C22.5395 2.28185 22.5 2.19283 22.5 2.1C22.5 2.00717 22.5395 1.91815 22.6098 1.85251C22.6802 1.78687 22.7755 1.75 22.875 1.75H25.125Z" fill="#3E4E65"/>
</svg>
