<svg width="37" height="37" viewBox="0 0 37 37" fill="none" xmlns="http://www.w3.org/2000/svg">
<g clip-path="url(#clip0_573_441)">
<path fill-rule="evenodd" clip-rule="evenodd" d="M19.982 4.625C20.7403 4.62475 21.4706 4.91854 22.0265 5.44747C22.5825 5.97641 22.9231 6.70139 22.9799 7.47708L22.9875 7.70833V18.5H24.4902C25.2484 18.4998 25.9787 18.7935 26.5347 19.3225C27.0907 19.8514 27.4312 20.5764 27.4881 21.3521L27.4956 21.5833V25.4375C27.4952 25.6301 27.5652 25.8159 27.6917 25.9583C27.8182 26.1006 27.9921 26.1892 28.1791 26.2066C28.366 26.224 28.5526 26.169 28.702 26.0523C28.8514 25.9356 28.9528 25.7658 28.9863 25.5763L28.9983 25.4375V18.5C28.3968 18.4984 27.8094 18.3133 27.3108 17.9681C26.6616 17.516 26.2105 16.8215 26.0538 16.0327C25.8971 15.244 26.0473 14.4237 26.4722 13.747L26.5849 13.579L24.9305 11.8832C24.6581 11.6064 24.4991 11.2332 24.4861 10.8402C24.4731 10.4471 24.6071 10.0637 24.8605 9.76865C25.114 9.47355 25.4678 9.289 25.8496 9.25277C26.2313 9.21654 26.6121 9.33137 26.914 9.57375L27.0553 9.70171L31.1231 13.875C31.6221 14.3869 31.9295 15.0625 31.9917 15.7836L32.0037 16.0549V25.4375C32.0061 26.4394 31.6281 27.4029 30.9498 28.1237C30.2715 28.8446 29.3463 29.2661 28.3702 29.299C27.3942 29.3318 26.444 28.9735 25.7211 28.2998C24.9982 27.6262 24.5594 26.6902 24.4977 25.6903L24.4902 25.4375V21.5833H22.9875V29.2917C23.3705 29.2921 23.7389 29.4426 24.0174 29.7123C24.2959 29.9821 24.4635 30.3507 24.4859 30.743C24.5084 31.1352 24.384 31.5215 24.1381 31.8228C23.8923 32.1241 23.5436 32.3178 23.1633 32.3642L22.9875 32.375H4.95491C4.57189 32.3746 4.2035 32.2241 3.92499 31.9544C3.64649 31.6846 3.47889 31.3159 3.45644 30.9237C3.434 30.5314 3.5584 30.1452 3.80423 29.8438C4.05005 29.5425 4.39876 29.3489 4.77909 29.3025L4.95491 29.2917V7.70833C4.95467 6.93044 5.24103 6.18121 5.7566 5.61082C6.27216 5.04043 6.97883 4.69105 7.73492 4.63271L7.96033 4.625H19.982ZM19.982 20.0417H7.96033V29.2917H19.982V20.0417ZM19.982 7.70833H7.96033V16.9583H19.982V7.70833Z" fill="#3E4E65"/>
</g>
<defs>
<clipPath id="clip0_573_441">
<rect width="36.0651" height="37" fill="white" transform="translate(0.446777)"/>
</clipPath>
</defs>
</svg>
