<svg width="25" height="26" viewBox="0 0 25 26" fill="none" xmlns="http://www.w3.org/2000/svg">
<path d="M14.1238 9.91003C14.5105 8.63003 14.554 7.33003 14.2543 6.01003C13.9546 4.69002 13.3408 3.54003 12.4128 2.56002C11.6975 1.80002 10.8565 1.23502 9.8898 0.865025C8.92313 0.495025 7.92746 0.350025 6.9028 0.430025C6.59346 0.450025 6.34696 0.570025 6.1633 0.790025C5.97963 1.01002 5.88296 1.26502 5.8733 1.55502C5.86363 1.84502 5.96513 2.11002 6.1778 2.35002C6.5258 2.69002 7.1348 3.21502 8.0048 3.92502C8.8748 4.63503 9.47413 5.16002 9.8028 5.50002C10.1315 5.84002 10.291 6.23502 10.2813 6.68502C10.2716 7.13502 10.1121 7.52002 9.8028 7.84002L7.5118 10.21C7.20246 10.53 6.82546 10.695 6.3808 10.705C5.93613 10.715 5.5688 10.56 5.2788 10.24L2.2048 6.49003C1.9728 6.27003 1.71663 6.16002 1.4363 6.16002C1.15596 6.16002 0.909462 6.25502 0.696795 6.44502C0.484128 6.63502 0.368128 6.89002 0.348795 7.21002C0.252128 8.41002 0.440628 9.56502 0.914295 10.675C1.38796 11.785 2.08396 12.715 3.0023 13.465C3.92063 14.215 4.9598 14.7 6.1198 14.92C7.2798 15.14 8.4108 15.07 9.5128 14.71C9.6868 14.65 9.85596 14.645 10.0203 14.695C10.1846 14.745 10.3151 14.84 10.4118 14.98L17.4298 24.31C17.9711 24.91 18.614 25.32 19.3583 25.54C20.1026 25.76 20.8518 25.77 21.6058 25.57C22.3598 25.37 23.0075 24.985 23.5488 24.415C24.0901 23.845 24.4575 23.175 24.6508 22.405C24.8441 21.635 24.8345 20.86 24.6218 20.08C24.4091 19.3 24.0128 18.64 23.4328 18.1L14.4138 10.84C14.2785 10.74 14.1866 10.605 14.1383 10.435C14.09 10.265 14.0851 10.09 14.1238 9.91003ZM21.4318 22.24C21.2385 22.46 21.0016 22.595 20.7213 22.645C20.441 22.695 20.1655 22.665 19.8948 22.555C19.6241 22.445 19.4115 22.27 19.2568 22.03C19.1021 21.79 19.0248 21.52 19.0248 21.22C19.0248 20.92 19.1021 20.645 19.2568 20.395C19.4115 20.145 19.6241 19.965 19.8948 19.855C20.1655 19.745 20.441 19.72 20.7213 19.78C21.0016 19.84 21.2385 19.97 21.4318 20.17C21.7025 20.45 21.8378 20.795 21.8378 21.205C21.8378 21.615 21.7025 21.96 21.4318 22.24Z" fill="#3E4E65"/>
</svg>
