<svg width="23" height="22" viewBox="0 0 23 22" fill="none" xmlns="http://www.w3.org/2000/svg">
<path fill-rule="evenodd" clip-rule="evenodd" d="M11.5 0.166626C17.7134 0.166626 22.75 5.01671 22.75 11C22.75 16.9832 17.7134 21.8333 11.5 21.8333C5.28663 21.8333 0.25 16.9832 0.25 11C0.25 5.01671 5.28663 0.166626 11.5 0.166626ZM11.5 2.33329C9.11305 2.33329 6.82387 3.24639 5.13604 4.8717C3.44821 6.49702 2.5 8.70142 2.5 11C2.5 13.2985 3.44821 15.5029 5.13604 17.1282C6.82387 18.7535 9.11305 19.6666 11.5 19.6666C13.8869 19.6666 16.1761 18.7535 17.864 17.1282C19.5518 15.5029 20.5 13.2985 20.5 11C20.5 8.70142 19.5518 6.49702 17.864 4.8717C16.1761 3.24639 13.8869 2.33329 11.5 2.33329ZM13.1875 5.58329C14.2141 5.58187 15.2006 5.96656 15.9369 6.6554C16.6732 7.34424 17.101 8.28275 17.1292 9.27092C17.1574 10.2591 16.7837 11.2188 16.0877 11.9455C15.3918 12.6722 14.4286 13.1084 13.4035 13.1612L13.1875 13.1666H10.375V15.3333C10.3747 15.6094 10.2649 15.875 10.068 16.0758C9.87121 16.2766 9.60218 16.3974 9.31593 16.4136C9.02968 16.4297 8.74782 16.3401 8.52794 16.1628C8.30805 15.9856 8.16674 15.7342 8.13287 15.46L8.125 15.3333V7.74996C8.12482 7.20333 8.33921 6.67685 8.72518 6.27603C9.11116 5.87522 9.6402 5.62971 10.2063 5.58871L10.375 5.58329H13.1875ZM13.1875 7.74996H10.375V11H13.1875C13.6209 10.9998 14.0375 10.839 14.3512 10.551C14.6648 10.263 14.8514 9.86989 14.8722 9.45305C14.893 9.03621 14.7465 8.62764 14.4631 8.31199C14.1796 7.99634 13.7808 7.79781 13.3495 7.75754L13.1875 7.74996Z" fill="#3E4E65"/>
</svg>
