<svg width="28" height="29" viewBox="0 0 28 29" fill="none" xmlns="http://www.w3.org/2000/svg">
<path d="M15.3476 17.9775L15.1738 18.1575C14.4901 18.8656 14.4901 20.0123 15.1738 20.7204C15.5156 21.0744 15.9636 21.2509 16.4116 21.2509C16.8596 21.2509 17.3076 21.0744 17.6495 20.7204L25.8161 12.2621C26.4998 11.554 26.4998 10.4073 25.8161 9.69919C25.1325 8.9911 24.0253 8.9911 23.3416 9.69919L23.022 10.0303L16.6485 3.44606L16.9868 3.09565C17.6705 2.38756 17.6705 1.24085 16.9868 0.532771C16.3031 -0.175312 15.196 -0.175312 14.5123 0.532771L6.34563 8.9911C5.66196 9.69919 5.66196 10.8459 6.34563 11.554C6.68746 11.908 7.13546 12.0844 7.58346 12.0844C8.03146 12.0844 8.47946 11.908 8.82129 11.554L8.97529 11.3945L10.9353 13.4196L0.519292 24.0868C-0.167875 24.7901 -0.174875 25.938 0.505292 26.6497C0.847125 27.0086 1.29863 27.1874 1.74896 27.1874C2.19346 27.1874 2.63913 27.0122 2.97979 26.663L13.4121 15.9777L15.3476 17.9775ZM14.174 6.00773L20.5475 12.5919L17.8233 15.4134L11.4498 8.82919L14.174 6.00773ZM28.0001 27.1874C28.0001 28.1879 27.2161 28.9999 26.2501 28.9999H12.2501C11.2841 28.9999 10.5001 28.1879 10.5001 27.1874C10.5001 26.3802 11.0123 25.7048 11.717 25.4704C11.9526 24.0469 13.1438 22.9582 14.5835 22.9582H23.9168C25.3576 22.9582 26.5488 24.0469 26.7833 25.4704C27.4868 25.7048 28.0001 26.3814 28.0001 27.1874Z" fill="#3E4E65"/>
</svg>
