<svg width="39" height="32" viewBox="0 0 39 32" fill="none" xmlns="http://www.w3.org/2000/svg">
<path d="M26 4V28" stroke="#3E4E65" stroke-width="3" stroke-linecap="round"/>
<path d="M11.5 4L11.5 28" stroke="#3E4E65" stroke-width="3" stroke-linecap="round"/>
<path d="M19.0344 22.6667C19.423 22.6667 19.7979 22.7866 20.0883 23.0036C20.3786 23.2206 20.5641 23.5197 20.6095 23.844L20.6206 24V26.6667C20.6202 27.0065 20.4654 27.3334 20.1878 27.5805C19.9103 27.8276 19.531 27.9763 19.1274 27.9962C18.7238 28.0161 18.3264 27.9058 18.0164 27.6876C17.7063 27.4695 17.5071 27.1601 17.4593 26.8227L17.4482 26.6667V24C17.4482 23.6464 17.6154 23.3072 17.9128 23.0572C18.2103 22.8071 18.6138 22.6667 19.0344 22.6667ZM19.0344 13.3333C19.4551 13.3333 19.8586 13.4738 20.156 13.7239C20.4535 13.9739 20.6206 14.313 20.6206 14.6667V17.3333C20.6206 17.687 20.4535 18.0261 20.156 18.2761C19.8586 18.5262 19.4551 18.6667 19.0344 18.6667C18.6138 18.6667 18.2103 18.5262 17.9128 18.2761C17.6154 18.0261 17.4482 17.687 17.4482 17.3333V14.6667C17.4482 14.313 17.6154 13.9739 17.9128 13.7239C18.2103 13.4738 18.6138 13.3333 19.0344 13.3333ZM19.0344 4C19.423 4.00004 19.7979 4.11994 20.0883 4.33695C20.3786 4.55397 20.5641 4.853 20.6095 5.17733L20.6206 5.33333V8C20.6202 8.33984 20.4654 8.66671 20.1878 8.91382C19.9103 9.16094 19.531 9.30965 19.1274 9.32956C18.7238 9.34948 18.3264 9.2391 18.0164 9.02098C17.7063 8.80286 17.5071 8.49346 17.4593 8.156L17.4482 8V5.33333C17.4482 4.97971 17.6154 4.64057 17.9128 4.39052C18.2103 4.14048 18.6138 4 19.0344 4Z" fill="#3E4E65"/>
<g clip-path="url(#clip0_1972_2262)">
<path d="M33.3227 0.827637C35.7724 0.827637 37.7582 2.68019 37.7582 4.96557C37.7582 7.25095 35.7724 9.1035 33.3227 9.1035C30.873 9.1035 28.8872 7.25095 28.8872 4.96557C28.8872 2.68019 30.873 0.827637 33.3227 0.827637ZM33.3227 1.65522C32.3816 1.65522 31.4791 2.00399 30.8136 2.6248C30.1482 3.24561 29.7743 4.08761 29.7743 4.96557C29.7743 5.84353 30.1482 6.68552 30.8136 7.30633C31.4791 7.92714 32.3816 8.27591 33.3227 8.27591C34.2638 8.27591 35.1663 7.92714 35.8318 7.30633C36.4972 6.68552 36.8711 5.84353 36.8711 4.96557C36.8711 4.08761 36.4972 3.24561 35.8318 2.6248C35.1663 2.00399 34.2638 1.65522 33.3227 1.65522ZM33.3227 2.48281C33.4313 2.48282 33.5362 2.52003 33.6174 2.58738C33.6986 2.65473 33.7504 2.74753 33.7631 2.84819L33.7662 2.8966V3.3104H34.6533C34.7664 3.31051 34.8751 3.3509 34.9573 3.4233C35.0395 3.4957 35.089 3.59465 35.0956 3.69994C35.1023 3.80522 35.0655 3.9089 34.993 3.98977C34.9204 4.07065 34.8175 4.12263 34.7052 4.13508L34.6533 4.13798H32.4356C32.3802 4.13789 32.3267 4.15715 32.2858 4.19198C32.2448 4.22682 32.2193 4.27469 32.2143 4.32618C32.2093 4.37767 32.2251 4.42905 32.2587 4.47019C32.2923 4.51133 32.3411 4.53925 32.3957 4.54846L32.4356 4.55177H34.2098C34.498 4.55112 34.7752 4.65521 34.9826 4.84198C35.19 5.02876 35.3113 5.28353 35.3208 5.55231C35.3302 5.82108 35.2271 6.08273 35.0333 6.28179C34.8395 6.48085 34.5702 6.60168 34.2825 6.61867L34.2098 6.62074H33.7662V7.03453C33.7661 7.14 33.7228 7.24144 33.6452 7.31813C33.5676 7.39482 33.4615 7.44097 33.3487 7.44716C33.2358 7.45334 33.1247 7.41908 33.038 7.35139C32.9513 7.2837 32.8956 7.18768 32.8822 7.08295L32.8791 7.03453V6.62074H31.992C31.879 6.62062 31.7703 6.58024 31.6881 6.50784C31.6058 6.43544 31.5564 6.33648 31.5498 6.2312C31.5431 6.12591 31.5798 6.02224 31.6524 5.94136C31.725 5.86048 31.8279 5.80851 31.9402 5.79605L31.992 5.79315H34.2098C34.2652 5.79325 34.3187 5.77398 34.3596 5.73915C34.4006 5.70432 34.4261 5.65644 34.4311 5.60495C34.4361 5.55346 34.4202 5.50209 34.3867 5.46095C34.3531 5.41981 34.3042 5.39188 34.2497 5.38267L34.2098 5.37936H32.4356C32.1473 5.38001 31.8701 5.27592 31.6627 5.08915C31.4554 4.90238 31.3341 4.6476 31.3246 4.37883C31.3152 4.11005 31.4183 3.84841 31.6121 3.64934C31.8059 3.45028 32.0752 3.32945 32.3629 3.31246L32.4356 3.3104H32.8791V2.8966C32.8791 2.78686 32.9259 2.68161 33.0091 2.60401C33.0922 2.52641 33.2051 2.48281 33.3227 2.48281Z" fill="#3E4E65"/>
</g>
<defs>
<clipPath id="clip0_1972_2262">
<rect width="10.6452" height="9.93103" fill="white" transform="translate(28)"/>
</clipPath>
</defs>
</svg>
