<svg width="24" height="24" viewBox="0 0 24 24" fill="none" xmlns="http://www.w3.org/2000/svg">
<path d="M12 22H5C3.346 22 2 20.654 2 19V5C2 3.346 3.346 2 5 2H9.515C9.678 2 9.84 2.008 10 2.023V7C10 8.654 11.346 10 13 10H18.813C19.122 10 19.414 9.857 19.603 9.613C19.792 9.369 19.858 9.051 19.782 8.752C19.471 7.536 18.838 6.423 17.949 5.535L14.465 2.051C13.143 0.729 11.385 0 9.515 0H5C2.243 0 0 2.243 0 5V19C0 21.757 2.243 24 5 24H12C12.553 24 13 23.553 13 23C13 22.447 12.553 22 12 22ZM12 2.659C12.38 2.877 12.732 3.147 13.051 3.465L16.535 6.949C16.849 7.263 17.119 7.617 17.339 8H13C12.448 8 12 7.552 12 7V2.659ZM11 18C11 18.553 10.553 19 10 19H5C4.447 19 4 18.553 4 18C4 17.447 4.447 17 5 17H10C10.553 17 11 17.447 11 18ZM11 14C11 14.553 10.553 15 10 15H5C4.447 15 4 14.553 4 14C4 13.447 4.447 13 5 13H10C10.553 13 11 13.447 11 14ZM22.63 12.315L18.815 11.05C18.612 10.982 18.389 10.982 18.186 11.05L14.371 12.315C13.552 12.586 13.001 13.349 13.001 14.211V17.535C13.001 21.105 16.716 23.238 17.851 23.805C17.851 23.805 18.157 24.014 18.502 24.014C18.847 24.014 19.084 23.858 19.084 23.858C20.237 23.394 24.001 21.566 24.001 17.536V14.212C24.001 13.35 23.45 12.587 22.631 12.316L22.63 12.315ZM22 17.536C22 20.117 19.577 21.46 18.546 21.915C17.632 21.425 15 19.817 15 17.536V14.214L18.5 13.054L22 14.212V17.536Z" fill="#3E4E65"/>
</svg>
