<svg width="33" height="32" viewBox="0 0 33 32" fill="none" xmlns="http://www.w3.org/2000/svg">
<g clip-path="url(#clip0_735_434)">
<path d="M16.1573 2.66669C18.4962 2.66669 20.4184 3.45602 21.7247 4.21202C23.4933 5.23469 24.1718 7.15869 24.1718 8.87602V11.156C25.384 11.9153 26.5541 12.7396 27.6768 13.6254C27.9432 13.8493 28.1115 14.1683 28.1457 14.5143C28.1799 14.8603 28.0774 15.2059 27.86 15.4775C27.6426 15.7492 27.3275 15.9253 26.9819 15.9683C26.6362 16.0114 26.2874 15.918 26.0098 15.708C25.4121 15.2382 24.7991 14.7882 24.1718 14.3587V23.448C24.1718 25.0089 23.5506 26.5059 22.4449 27.6096C21.3392 28.7133 19.8396 29.3334 18.2758 29.3334H14.0389C12.4751 29.3334 10.9755 28.7133 9.86977 27.6096C8.76406 26.5059 8.14288 25.0089 8.14288 23.448V14.3587C7.51909 14.7907 6.90064 15.2347 6.30623 15.708C6.02956 15.929 5.67625 16.0313 5.32405 15.9923C4.97185 15.9533 4.64959 15.7762 4.42818 15.5C4.20676 15.2238 4.10433 14.8712 4.14341 14.5196C4.18249 14.168 4.35988 13.8464 4.63655 13.6254C5.75975 12.74 6.93024 11.9161 8.14288 11.1574V8.87602C8.14288 7.15735 8.82144 5.23469 10.59 4.21202C11.8963 3.45602 13.8198 2.66669 16.1573 2.66669ZM21.5003 15.2187L21.3387 15.3814L21.157 15.5734C20.583 16.2278 20.2384 17.0512 20.1753 17.9187L20.1646 18.2094V22.6667L20.1579 22.8667C20.1101 23.5016 19.8363 24.0985 19.386 24.5494C18.9357 25.0003 18.3387 25.2756 17.7028 25.3254L17.4931 25.3334H14.8216L14.6212 25.3267C13.9852 25.279 13.3872 25.0057 12.9355 24.5562C12.4837 24.1067 12.208 23.5108 12.1581 22.876L12.1501 22.6667V18.2094L12.1408 17.9454C12.0836 17.0774 11.7446 16.2517 11.175 15.5934L10.976 15.38L10.8144 15.22V23.4467L10.8251 23.7027C10.8859 24.4657 11.2171 25.1822 11.7593 25.7234C12.3016 26.2647 13.0193 26.5953 13.7837 26.656L14.0389 26.6667H18.2758L18.531 26.656C19.2954 26.5953 20.0131 26.2647 20.5554 25.7234C21.0976 25.1822 21.4288 24.4657 21.4896 23.7027L21.5003 23.448V15.2187ZM16.1573 10.6667C15.4173 10.6667 14.4423 10.9227 13.3149 11.396C12.9355 11.556 12.5508 11.7347 12.1675 11.9267L11.5931 12.224L12.8661 13.4947C14.032 14.6588 14.7252 16.2123 14.8123 17.856L14.8216 18.2094V22.6667H17.4931V18.2094C17.4928 16.5631 18.1028 14.9749 19.2055 13.7507L19.4486 13.4947L20.7216 12.224C20.1486 11.9174 19.5688 11.6347 18.9985 11.396C17.8738 10.9227 16.8987 10.6667 16.1573 10.6667ZM16.1573 5.33335C14.4249 5.33335 12.9649 5.92002 11.9297 6.52002C11.2458 6.91335 10.8144 7.76402 10.8144 8.87469V9.62135C11.2966 9.37469 11.7881 9.14269 12.2783 8.93602C13.5313 8.41069 14.8937 8.00002 16.1573 8.00002C17.421 8.00002 18.7834 8.41069 20.0364 8.93735C20.5266 9.14402 21.0181 9.37602 21.5003 9.62135V8.87469C21.5003 7.76535 21.0689 6.91469 20.385 6.51869C19.3498 5.92002 17.8898 5.33335 16.1573 5.33335Z" fill="#3E4E65"/>
<g clip-path="url(#clip1_735_434)">
<path fill-rule="evenodd" clip-rule="evenodd" d="M28.4148 1.21868C27.8819 1.71004 27.3892 2.24762 26.942 2.82572C26.2014 3.79392 25.5862 4.93792 25.5862 6.01902C25.5862 6.80709 25.8842 7.56289 26.4147 8.12014C26.9451 8.67739 27.6646 8.99045 28.4148 8.99045C29.165 8.99045 29.8845 8.67739 30.415 8.12014C30.9454 7.56289 31.2435 6.80709 31.2435 6.01902C31.2435 4.93792 30.6282 3.79392 29.8876 2.82572C29.4404 2.24761 28.9478 1.71004 28.4148 1.21868ZM28.0608 0.235134C28.1604 0.148749 28.2856 0.101501 28.4148 0.101501C28.544 0.101501 28.6692 0.148749 28.7689 0.235134C29.4464 0.826881 30.0671 1.48688 30.6221 2.20569C31.3953 3.21548 32.1863 4.5858 32.1863 6.01902C32.1863 7.06978 31.789 8.07751 31.0817 8.82051C30.3744 9.56351 29.4151 9.98092 28.4148 9.98092C27.4146 9.98092 26.4553 9.56351 25.748 8.82051C25.0407 8.07751 24.6433 7.06978 24.6433 6.01902C24.6433 4.5858 25.4344 3.21548 26.2075 2.20519C26.7625 1.48658 27.3835 0.826752 28.0608 0.235134Z" fill="#3E4E65"/>
<path fill-rule="evenodd" clip-rule="evenodd" d="M24.6433 0.516942C24.3769 0.744306 24.1305 0.993055 23.9069 1.26056C23.5366 1.70856 23.229 2.23792 23.229 2.73817C23.229 3.10283 23.378 3.45255 23.6433 3.7104C23.9085 3.96825 24.2682 4.11311 24.6433 4.11311C25.0184 4.11311 25.3782 3.96825 25.6434 3.7104C25.9086 3.45255 26.0576 3.10283 26.0576 2.73817C26.0576 2.23792 25.75 1.70856 25.3797 1.26056C25.1561 0.993054 24.9098 0.744305 24.6433 0.516942ZM24.4663 0.0618349C24.5161 0.0218626 24.5787 0 24.6433 0C24.7079 0 24.7705 0.0218626 24.8204 0.0618349C25.1591 0.335649 25.4694 0.641045 25.747 0.973653C26.1335 1.44091 26.5291 2.07499 26.5291 2.73817C26.5291 3.22438 26.3304 3.69068 25.9768 4.03448C25.6231 4.37828 25.1435 4.57143 24.6433 4.57143C24.1432 4.57143 23.6635 4.37828 23.3099 4.03448C22.9562 3.69068 22.7576 3.22438 22.7576 2.73817C22.7576 2.07499 23.1531 1.44091 23.5397 0.973424C23.8171 0.640908 24.1277 0.33559 24.4663 0.0618349Z" fill="#3E4E65"/>
</g>
</g>
<defs>
<clipPath id="clip0_735_434">
<rect width="32.0579" height="32" fill="white" transform="translate(0.128418)"/>
</clipPath>
<clipPath id="clip1_735_434">
<rect width="11.3145" height="11.8857" fill="white" transform="translate(22.7576 -0.914307)"/>
</clipPath>
</defs>
</svg>
