<svg width="20" height="24" viewBox="0 0 20 24" fill="none" xmlns="http://www.w3.org/2000/svg">
<path d="M18 24H2C1.448 24 1 23.553 1 23C1 19.691 3.691 17 7 17H13C16.309 17 19 19.691 19 23C19 23.553 18.552 24 18 24ZM18.5 6H18C18 3.794 16.206 2 14 2H11V1C11 0.447 10.552 0 10 0C9.448 0 9 0.447 9 1V2H6C3.794 2 2 3.794 2 6H1.5C0.673 6 0 6.673 0 7.5V9.5C0 10.327 0.673 11 1.5 11H2C2 13.206 3.794 15 6 15H14C16.206 15 18 13.206 18 11H18.5C19.327 11 20 10.327 20 9.5V7.5C20 6.673 19.327 6 18.5 6ZM7.5 10C6.672 10 6 9.328 6 8.5C6 7.672 6.672 7 7.5 7C8.328 7 9 7.672 9 8.5C9 9.328 8.328 10 7.5 10ZM12.5 10C11.672 10 11 9.328 11 8.5C11 7.672 11.672 7 12.5 7C13.328 7 14 7.672 14 8.5C14 9.328 13.328 10 12.5 10Z" fill="#3E4E65"/>
</svg>
