<svg width="23" height="31" viewBox="0 0 23 31" fill="none" xmlns="http://www.w3.org/2000/svg">
<path fill-rule="evenodd" clip-rule="evenodd" d="M8.77493 3.83335C8.77493 3.05981 9.06518 2.31794 9.58184 1.77096C10.0985 1.22398 10.7992 0.916687 11.5299 0.916687H15.6624C16.393 0.916687 17.0938 1.22398 17.6104 1.77096C18.1271 2.31794 18.4173 3.05981 18.4173 3.83335V5.29169C19.5133 5.29169 20.5644 5.75262 21.3394 6.57309C22.1144 7.39357 22.5498 8.50636 22.5498 9.66669V25.7084C22.5498 26.8687 22.1144 27.9815 21.3394 28.8019C20.5644 29.6224 19.5133 30.0834 18.4173 30.0834H4.64247C3.54647 30.0834 2.49537 29.6224 1.72038 28.8019C0.945393 27.9815 0.51001 26.8687 0.51001 25.7084V13.5561C0.51001 12.6094 0.800017 11.6884 1.3365 10.9311L4.09147 7.04169C4.4764 6.49833 4.97553 6.05731 5.54935 5.75357C6.12316 5.44982 6.7559 5.29169 7.39744 5.29169H8.77493V3.83335ZM15.6624 3.83335V5.29169H11.5299V3.83335H15.6624ZM6.29545 8.79169C6.42376 8.61057 6.59014 8.46356 6.78141 8.36231C6.97268 8.26106 7.18359 8.20835 7.39744 8.20835H18.4173C18.7827 8.20835 19.133 8.362 19.3914 8.63549C19.6497 8.90898 19.7948 9.27991 19.7948 9.66669V25.7084C19.7948 26.0951 19.6497 26.4661 19.3914 26.7396C19.133 27.013 18.7827 27.1667 18.4173 27.1667H4.64247C4.27714 27.1667 3.92677 27.013 3.66844 26.7396C3.41011 26.4661 3.26498 26.0951 3.26498 25.7084V13.5561C3.26498 13.2405 3.36165 12.9335 3.54048 12.6811L6.29545 8.79169ZM8.77493 15.5C8.77493 15.1132 8.6298 14.7423 8.37147 14.4688C8.11314 14.1953 7.76277 14.0417 7.39744 14.0417C7.03211 14.0417 6.68174 14.1953 6.42341 14.4688C6.16508 14.7423 6.01996 15.1132 6.01996 15.5V22.7917C6.01996 23.1785 6.16508 23.5494 6.42341 23.8229C6.68174 24.0964 7.03211 24.25 7.39744 24.25C7.76277 24.25 8.11314 24.0964 8.37147 23.8229C8.6298 23.5494 8.77493 23.1785 8.77493 22.7917V15.5Z" fill="#3E4E65"/>
</svg>
