<svg width="28" height="25" viewBox="0 0 28 25" fill="none" xmlns="http://www.w3.org/2000/svg">
<path d="M17.2081 5.62067C17.5883 5.62063 17.9628 5.70782 18.2992 5.87469C18.6356 6.04157 18.9239 6.28311 19.139 6.57846L19.2409 6.73294L23.433 13.646C23.6013 13.9236 23.7035 14.2324 23.7327 14.5509L23.7421 14.7418V19.7051C23.7421 19.9787 23.6881 20.25 23.5829 20.5051L23.495 20.6927L22.1859 23.1589C22.0058 23.4987 21.7358 23.7889 21.4018 24.0016C21.0678 24.2142 20.6813 24.342 20.2796 24.3727L20.091 24.3793H17.8873C17.2964 24.3795 16.7273 24.1692 16.2941 23.7906C15.8609 23.412 15.5955 22.8931 15.5512 22.3379L15.5453 22.1724H8.51953C8.51971 22.7292 8.29657 23.2654 7.89482 23.6737C7.49307 24.0819 6.94242 24.332 6.35324 24.3738L6.17759 24.3793H3.97383C3.57119 24.3791 3.17538 24.2812 2.82464 24.0948C2.47389 23.9085 2.18005 23.6401 1.97148 23.3156L1.87897 23.1589L0.569828 20.6916C0.440219 20.4468 0.360012 20.1816 0.333293 19.9092L0.322754 19.7051V14.7418C0.322744 14.4225 0.396254 14.107 0.538212 13.8171L0.631889 13.646L4.82395 6.73294C5.01258 6.42185 5.27875 6.15872 5.59946 5.96628C5.92018 5.77383 6.28579 5.65786 6.66471 5.62839L6.85675 5.62067H17.2081ZM17.2081 7.82756H6.85675L2.66469 14.7418V19.7051L3.97383 22.1724H6.17759V21.1793C6.17743 20.8802 6.29446 20.5916 6.50624 20.3688C6.71802 20.146 7.00963 20.0047 7.32514 19.9721L7.46566 19.9655H16.5992C16.9166 19.9653 17.2229 20.0756 17.4593 20.2752C17.6957 20.4748 17.8456 20.7496 17.8802 21.0469L17.8873 21.1793V22.1724H20.091L21.4002 19.7051V14.7418L17.2081 7.82756ZM17.365 13.4607C17.6427 13.3304 17.9639 13.3093 18.2581 13.402C18.5522 13.4947 18.7954 13.6936 18.9341 13.955C19.0699 14.2174 19.091 14.5195 18.9929 14.7964C18.8948 15.0734 18.6854 15.3029 18.4095 15.4358C16.4844 16.3407 14.1519 16.6551 12.0324 16.6551C9.87082 16.6551 7.61788 16.344 5.66002 15.438C5.38428 15.3044 5.17472 15.0747 5.07588 14.7978C4.97705 14.5208 4.99673 14.2185 5.13075 13.955C5.2616 13.7139 5.48128 13.5261 5.74859 13.4268C6.01591 13.3274 6.3125 13.3234 6.58275 13.4154L6.8954 13.5423L7.18111 13.6494L7.43755 13.7376L7.74201 13.8325L8.09564 13.934L8.49377 14.0345L8.93522 14.1338L9.41649 14.2243C10.2795 14.3732 11.1551 14.4482 12.0324 14.4483C13.8076 14.4483 15.7421 14.1923 17.365 13.4607Z" fill="#3E4E65"/>
<g clip-path="url(#clip0_1971_1175)">
<path d="M23.7421 0.93103C26.1918 0.93103 28.1776 2.78358 28.1776 5.06896C28.1776 7.35434 26.1918 9.20689 23.7421 9.20689C21.2924 9.20689 19.3066 7.35434 19.3066 5.06896C19.3066 2.78358 21.2924 0.93103 23.7421 0.93103ZM23.7421 1.75862C22.801 1.75862 21.8985 2.10738 21.233 2.72819C20.5676 3.349 20.1937 4.191 20.1937 5.06896C20.1937 5.94692 20.5676 6.78892 21.233 7.40973C21.8985 8.03054 22.801 8.37931 23.7421 8.37931C24.6832 8.37931 25.5858 8.03054 26.2512 7.40973C26.9167 6.78892 27.2905 5.94692 27.2905 5.06896C27.2905 4.191 26.9167 3.349 26.2512 2.72819C25.5858 2.10738 24.6832 1.75862 23.7421 1.75862ZM23.7421 2.5862C23.8508 2.58622 23.9556 2.62343 24.0368 2.69077C24.118 2.75812 24.1699 2.85093 24.1826 2.95158L24.1857 3V3.41379H25.0728C25.1858 3.41391 25.2946 3.45429 25.3768 3.52669C25.459 3.59909 25.5084 3.69805 25.5151 3.80333C25.5217 3.90862 25.485 4.01229 25.4124 4.09317C25.3398 4.17404 25.2369 4.22602 25.1247 4.23848L25.0728 4.24137H22.855C22.7996 4.24128 22.7462 4.26055 22.7052 4.29538C22.6642 4.33021 22.6388 4.37809 22.6338 4.42958C22.6287 4.48107 22.6446 4.53244 22.6781 4.57358C22.7117 4.61472 22.7606 4.64265 22.8151 4.65186L22.855 4.65517H24.6292C24.9175 4.65451 25.1947 4.75861 25.4021 4.94538C25.6095 5.13215 25.7307 5.38693 25.7402 5.6557C25.7497 5.92448 25.6465 6.18612 25.4527 6.38519C25.2589 6.58425 24.9896 6.70508 24.702 6.72206L24.6292 6.72413H24.1857V7.13793C24.1855 7.24339 24.1423 7.34484 24.0647 7.42153C23.987 7.49822 23.881 7.54437 23.7681 7.55055C23.6553 7.55673 23.5441 7.52248 23.4574 7.45478C23.3707 7.38709 23.315 7.29107 23.3017 7.18634L23.2986 7.13793V6.72413H22.4115C22.2984 6.72402 22.1897 6.68363 22.1075 6.61123C22.0253 6.53883 21.9758 6.43988 21.9692 6.33459C21.9626 6.2293 21.9993 6.12563 22.0718 6.04475C22.1444 5.96388 22.2473 5.9119 22.3596 5.89944L22.4115 5.89655H24.6292C24.6846 5.89664 24.7381 5.87738 24.779 5.84254C24.82 5.80771 24.8455 5.75984 24.8505 5.70835C24.8555 5.65686 24.8397 5.60548 24.8061 5.56434C24.7725 5.5232 24.7237 5.49528 24.6691 5.48606L24.6292 5.48275H22.855C22.5668 5.48341 22.2896 5.37932 22.0822 5.19254C21.8748 5.00577 21.7535 4.751 21.7441 4.48222C21.7346 4.21345 21.8377 3.9518 22.0315 3.75274C22.2253 3.55367 22.4946 3.43284 22.7823 3.41586L22.855 3.41379H23.2986V3C23.2986 2.89025 23.3453 2.785 23.4285 2.7074C23.5117 2.6298 23.6245 2.5862 23.7421 2.5862Z" fill="#3E4E65"/>
</g>
<defs>
<clipPath id="clip0_1971_1175">
<rect width="10.6452" height="9.93103" fill="white" transform="translate(18.4194 0.103455)"/>
</clipPath>
</defs>
</svg>
