<svg width="29" height="29" viewBox="0 0 29 29" fill="none" xmlns="http://www.w3.org/2000/svg">
<path fill-rule="evenodd" clip-rule="evenodd" d="M16.982 0.625C17.7403 0.624754 18.4706 0.918543 19.0265 1.44747C19.5825 1.97641 19.9231 2.70139 19.9799 3.47708L19.9875 3.70833V14.5H21.4902C22.2484 14.4998 22.9787 14.7935 23.5347 15.3225C24.0907 15.8514 24.4312 16.5764 24.4881 17.3521L24.4956 17.5833V21.4375C24.4952 21.6301 24.5652 21.8159 24.6917 21.9583C24.8182 22.1006 24.9921 22.1892 25.1791 22.2066C25.366 22.224 25.5526 22.169 25.702 22.0523C25.8514 21.9356 25.9528 21.7658 25.9863 21.5763L25.9983 21.4375V14.5C25.3968 14.4984 24.8094 14.3133 24.3108 13.9681C23.6616 13.516 23.2105 12.8215 23.0538 12.0327C22.8971 11.244 23.0473 10.4237 23.4722 9.74704L23.5849 9.579L21.9305 7.88317C21.6581 7.60637 21.4991 7.23325 21.4861 6.84016C21.4731 6.44707 21.6071 6.06374 21.8605 5.76865C22.114 5.47355 22.4678 5.289 22.8496 5.25277C23.2313 5.21654 23.6121 5.33137 23.914 5.57375L24.0553 5.70171L28.1231 9.875C28.6221 10.3869 28.9295 11.0625 28.9917 11.7836L29.0037 12.0549V21.4375C29.0061 22.4394 28.6281 23.4029 27.9498 24.1237C27.2715 24.8446 26.3463 25.2661 25.3702 25.299C24.3942 25.3318 23.444 24.9735 22.7211 24.2998C21.9982 23.6262 21.5594 22.6902 21.4977 21.6903L21.4902 21.4375V17.5833H19.9875V25.2917C20.3705 25.2921 20.7389 25.4426 21.0174 25.7123C21.2959 25.9821 21.4635 26.3507 21.4859 26.743C21.5084 27.1352 21.384 27.5215 21.1381 27.8228C20.8923 28.1241 20.5436 28.3178 20.1633 28.3642L19.9875 28.375H1.95491C1.57189 28.3746 1.2035 28.2241 0.924994 27.9544C0.646487 27.6846 0.478888 27.3159 0.456442 26.9237C0.433996 26.5314 0.558396 26.1452 0.804225 25.8438C1.05005 25.5425 1.39876 25.3489 1.77909 25.3025L1.95491 25.2917V3.70833C1.95467 2.93044 2.24103 2.18121 2.7566 1.61082C3.27216 1.04043 3.97883 0.69105 4.73492 0.632709L4.96033 0.625H16.982ZM16.982 16.0417H4.96033V25.2917H16.982V16.0417ZM16.982 3.70833H4.96033V12.9583H16.982V3.70833Z" fill="#3E4E65"/>
</svg>
