<svg width="22" height="26" viewBox="0 0 22 26" fill="none" xmlns="http://www.w3.org/2000/svg">
<path d="M19.0002 0.5C19.7074 0.5 20.3857 0.763392 20.8858 1.23223C21.3859 1.70107 21.6668 2.33696 21.6668 3V17.4825C21.6667 18.1455 21.3856 18.7813 20.8855 19.25L15.0002 24.7675C14.5002 25.2364 13.822 25.4999 13.1148 25.5H3.00016C2.29292 25.5 1.61464 25.2366 1.11454 24.7678C0.614448 24.2989 0.333496 23.663 0.333496 23V3C0.333496 2.33696 0.614448 1.70107 1.11454 1.23223C1.61464 0.763392 2.29292 0.5 3.00016 0.5H19.0002ZM19.0002 3H3.00016V23H11.0002V17.375C11.0002 16.8777 11.2109 16.4008 11.5859 16.0492C11.961 15.6975 12.4697 15.5 13.0002 15.5H19.0002V3ZM18.4482 18H13.6668V22.4825L18.4482 18ZM8.3335 11.75C8.68712 11.75 9.02626 11.8817 9.27631 12.1161C9.52635 12.3505 9.66683 12.6685 9.66683 13C9.66683 13.3315 9.52635 13.6495 9.27631 13.8839C9.02626 14.1183 8.68712 14.25 8.3335 14.25H7.00016C6.64654 14.25 6.3074 14.1183 6.05735 13.8839C5.80731 13.6495 5.66683 13.3315 5.66683 13C5.66683 12.6685 5.80731 12.3505 6.05735 12.1161C6.3074 11.8817 6.64654 11.75 7.00016 11.75H8.3335ZM15.0002 6.75C15.3538 6.75 15.6929 6.8817 15.943 7.11612C16.193 7.35054 16.3335 7.66848 16.3335 8C16.3335 8.33152 16.193 8.64946 15.943 8.88388C15.6929 9.1183 15.3538 9.25 15.0002 9.25H7.00016C6.64654 9.25 6.3074 9.1183 6.05735 8.88388C5.80731 8.64946 5.66683 8.33152 5.66683 8C5.66683 7.66848 5.80731 7.35054 6.05735 7.11612C6.3074 6.8817 6.64654 6.75 7.00016 6.75H15.0002Z" fill="#3E4E65"/>
</svg>
