<svg width="34" height="35" viewBox="0 0 34 35" fill="none" xmlns="http://www.w3.org/2000/svg">
<g clip-path="url(#clip0_711_434)">
<path fill-rule="evenodd" clip-rule="evenodd" d="M14.4458 5.83335C14.4458 5.05981 14.7361 4.31794 15.2527 3.77096C15.7694 3.22398 16.4701 2.91669 17.2008 2.91669H21.3333C22.0639 2.91669 22.7647 3.22398 23.2813 3.77096C23.798 4.31794 24.0882 5.05981 24.0882 5.83335V7.29169C25.1842 7.29169 26.2353 7.75262 27.0103 8.57309C27.7853 9.39357 28.2207 10.5064 28.2207 11.6667V27.7084C28.2207 28.8687 27.7853 29.9815 27.0103 30.8019C26.2353 31.6224 25.1842 32.0834 24.0882 32.0834H10.3134C9.21737 32.0834 8.16626 31.6224 7.39128 30.8019C6.61629 29.9815 6.18091 28.8687 6.18091 27.7084V15.5561C6.18091 14.6094 6.47092 13.6884 7.0074 12.9311L9.76237 9.04169C10.1473 8.49833 10.6464 8.05731 11.2202 7.75357C11.7941 7.44982 12.4268 7.29169 13.0683 7.29169H14.4458V5.83335ZM21.3333 5.83335V7.29169H17.2008V5.83335H21.3333ZM11.9664 10.7917C12.0947 10.6106 12.261 10.4636 12.4523 10.3623C12.6436 10.2611 12.8545 10.2084 13.0683 10.2084H24.0882C24.4536 10.2084 24.8039 10.362 25.0623 10.6355C25.3206 10.909 25.4657 11.2799 25.4657 11.6667V27.7084C25.4657 28.0951 25.3206 28.4661 25.0623 28.7396C24.8039 29.013 24.4536 29.1667 24.0882 29.1667H10.3134C9.94804 29.1667 9.59767 29.013 9.33934 28.7396C9.08101 28.4661 8.93588 28.0951 8.93588 27.7084V15.5561C8.93588 15.2405 9.03255 14.9335 9.21138 14.6811L11.9664 10.7917ZM14.4458 17.5C14.4458 17.1132 14.3007 16.7423 14.0424 16.4688C13.784 16.1953 13.4337 16.0417 13.0683 16.0417C12.703 16.0417 12.3526 16.1953 12.0943 16.4688C11.836 16.7423 11.6909 17.1132 11.6909 17.5V24.7917C11.6909 25.1785 11.836 25.5494 12.0943 25.8229C12.3526 26.0964 12.703 26.25 13.0683 26.25C13.4337 26.25 13.784 26.0964 14.0424 25.8229C14.3007 25.5494 14.4458 25.1785 14.4458 24.7917V17.5Z" fill="#3E4E65"/>
</g>
<defs>
<clipPath id="clip0_711_434">
<rect width="33.0597" height="35" fill="white" transform="translate(0.670898)"/>
</clipPath>
</defs>
</svg>
