<svg width="117" height="60" viewBox="0 0 117 60" fill="none" xmlns="http://www.w3.org/2000/svg">
<rect x="0.5" y="0.5" width="116" height="59" rx="9.5" fill="#F6F6F6" stroke="#DDDFDD"/>
<path fill-rule="evenodd" clip-rule="evenodd" d="M72.44 30.3182C72.44 29.3255 72.3509 28.371 72.1855 27.4546H59V32.87H66.5345C66.21 34.62 65.2236 36.1028 63.7409 37.0955V40.6082H68.2655C70.9127 38.171 72.44 34.5819 72.44 30.3182Z" fill="#4285F4"/>
<path fill-rule="evenodd" clip-rule="evenodd" d="M59 43.9999C62.78 43.9999 65.9491 42.7463 68.2655 40.6081L63.7409 37.0954C62.4873 37.9354 60.8836 38.4317 59 38.4317C55.3536 38.4317 52.2673 35.969 51.1664 32.6599H46.4891V36.2872C48.7927 40.8626 53.5273 43.9999 59 43.9999Z" fill="#34A853"/>
<path fill-rule="evenodd" clip-rule="evenodd" d="M51.1664 32.6599C50.8864 31.8199 50.7273 30.9226 50.7273 29.9999C50.7273 29.0772 50.8864 28.1799 51.1664 27.3399V23.7126H46.4891C45.5409 25.6026 45 27.7408 45 29.9999C45 32.259 45.5409 34.3972 46.4891 36.2872L51.1664 32.6599Z" fill="#FBBC05"/>
<path fill-rule="evenodd" clip-rule="evenodd" d="M59 21.5682C61.0555 21.5682 62.9009 22.2745 64.3518 23.6618L68.3673 19.6464C65.9427 17.3873 62.7736 16 59 16C53.5273 16 48.7927 19.1373 46.4891 23.7127L51.1664 27.34C52.2673 24.0309 55.3536 21.5682 59 21.5682Z" fill="#EA4335"/>
</svg>
