<svg width="36" height="19" viewBox="0 0 36 19" fill="none" xmlns="http://www.w3.org/2000/svg">
<path d="M6 1H3C1.89543 1 1 1.89543 1 3V6C1 7.10457 1.89543 8 3 8H6C7.10457 8 8 7.10457 8 6V3C8 1.89543 7.10457 1 6 1Z" fill="#5243E6" stroke="#5243E6"/>
<path d="M13 11H10C8.89543 11 8 11.8954 8 13V16C8 17.1046 8.89543 18 10 18H13C14.1046 18 15 17.1046 15 16V13C15 11.8954 14.1046 11 13 11Z" fill="#5243E6" stroke="#5243E6"/>
<path d="M23 11H20C18.8954 11 18 11.8954 18 13V16C18 17.1046 18.8954 18 20 18H23C24.1046 18 25 17.1046 25 16V13C25 11.8954 24.1046 11 23 11Z" fill="#55C1F8" stroke="#55C1F8"/>
<path d="M23 1H20C18.8954 1 18 1.89543 18 3V6C18 7.10457 18.8954 8 20 8H23C24.1046 8 25 7.10457 25 6V3C25 1.89543 24.1046 1 23 1Z" fill="#55C1F8" stroke="#55C1F8"/>
<path d="M33 11H30C28.8954 11 28 11.8954 28 13V16C28 17.1046 28.8954 18 30 18H33C34.1046 18 35 17.1046 35 16V13C35 11.8954 34.1046 11 33 11Z" fill="#55C1F8" stroke="#55C1F8"/>
</svg>
