<svg width="106" height="28" viewBox="0 0 106 28" fill="none" xmlns="http://www.w3.org/2000/svg">
<rect width="106" height="28" rx="14" fill="white"/>
<rect x="8" y="8" width="12" height="12" rx="6" fill="black"/>
<path d="M17 14L12.5 16.5981L12.5 11.4019L17 14Z" fill="white"/>
<path d="M26.888 18V9.6H27.896V13.308H32.252V9.6H33.26V18H32.252V14.136H27.896V18H26.888ZM37.6845 18.144C37.1245 18.144 36.6205 18.016 36.1725 17.76C35.7245 17.504 35.3685 17.144 35.1045 16.68C34.8485 16.208 34.7205 15.656 34.7205 15.024C34.7205 14.392 34.8525 13.844 35.1165 13.38C35.3805 12.908 35.7365 12.544 36.1845 12.288C36.6405 12.032 37.1485 11.904 37.7085 11.904C38.2685 11.904 38.7725 12.032 39.2205 12.288C39.6685 12.544 40.0205 12.908 40.2765 13.38C40.5405 13.844 40.6725 14.392 40.6725 15.024C40.6725 15.656 40.5405 16.208 40.2765 16.68C40.0125 17.144 39.6525 17.504 39.1965 17.76C38.7485 18.016 38.2445 18.144 37.6845 18.144ZM37.6845 17.28C38.0285 17.28 38.3485 17.196 38.6445 17.028C38.9405 16.86 39.1805 16.608 39.3645 16.272C39.5485 15.936 39.6405 15.52 39.6405 15.024C39.6405 14.528 39.5485 14.112 39.3645 13.776C39.1885 13.44 38.9525 13.188 38.6565 13.02C38.3605 12.852 38.0445 12.768 37.7085 12.768C37.3645 12.768 37.0445 12.852 36.7485 13.02C36.4525 13.188 36.2125 13.44 36.0285 13.776C35.8445 14.112 35.7525 14.528 35.7525 15.024C35.7525 15.52 35.8445 15.936 36.0285 16.272C36.2125 16.608 36.4485 16.86 36.7365 17.028C37.0325 17.196 37.3485 17.28 37.6845 17.28ZM43.0514 18L41.3114 12.048H42.3194L43.5794 16.716L44.9714 12.048H46.1114L47.5154 16.716L48.7634 12.048H49.7834L48.0434 18H47.0114L45.5474 13.092L44.0834 18H43.0514ZM54.1341 18V9.6H55.1421V18H54.1341ZM59.2152 18C58.6712 18 58.2432 17.868 57.9312 17.604C57.6192 17.34 57.4632 16.864 57.4632 16.176V12.9H56.4312V12.048H57.4632L57.5952 10.62H58.4712V12.048H60.2232V12.9H58.4712V16.176C58.4712 16.552 58.5472 16.808 58.6992 16.944C58.8512 17.072 59.1192 17.136 59.5032 17.136H60.1272V18H59.2152ZM66.4676 18.012L64.1636 9.6H65.2436L67.0556 16.812L69.1196 9.6H70.2356L72.2396 16.812L74.0756 9.6H75.1556L72.8036 18H71.6516L69.6476 11.064L67.5956 18L66.4676 18.012ZM78.3838 18.144C77.8238 18.144 77.3198 18.016 76.8718 17.76C76.4238 17.504 76.0678 17.144 75.8038 16.68C75.5478 16.208 75.4198 15.656 75.4198 15.024C75.4198 14.392 75.5518 13.844 75.8158 13.38C76.0798 12.908 76.4358 12.544 76.8838 12.288C77.3398 12.032 77.8478 11.904 78.4078 11.904C78.9678 11.904 79.4718 12.032 79.9198 12.288C80.3678 12.544 80.7198 12.908 80.9758 13.38C81.2398 13.844 81.3718 14.392 81.3718 15.024C81.3718 15.656 81.2398 16.208 80.9758 16.68C80.7118 17.144 80.3518 17.504 79.8958 17.76C79.4478 18.016 78.9438 18.144 78.3838 18.144ZM78.3838 17.28C78.7278 17.28 79.0478 17.196 79.3438 17.028C79.6398 16.86 79.8798 16.608 80.0638 16.272C80.2478 15.936 80.3398 15.52 80.3398 15.024C80.3398 14.528 80.2478 14.112 80.0638 13.776C79.8878 13.44 79.6518 13.188 79.3558 13.02C79.0598 12.852 78.7438 12.768 78.4078 12.768C78.0638 12.768 77.7438 12.852 77.4478 13.02C77.1518 13.188 76.9118 13.44 76.7278 13.776C76.5438 14.112 76.4518 14.528 76.4518 15.024C76.4518 15.52 76.5438 15.936 76.7278 16.272C76.9118 16.608 77.1478 16.86 77.4358 17.028C77.7318 17.196 78.0478 17.28 78.3838 17.28ZM82.7733 18V12.048H83.6853L83.7693 13.188C83.9533 12.796 84.2333 12.484 84.6093 12.252C84.9853 12.02 85.4493 11.904 86.0013 11.904V12.96H85.7253C85.3733 12.96 85.0493 13.024 84.7533 13.152C84.4573 13.272 84.2213 13.48 84.0453 13.776C83.8693 14.072 83.7813 14.48 83.7813 15V18H82.7733ZM87.1327 18V9.36H88.1407V14.556L90.5767 12.048H91.8127L89.1727 14.736L92.1487 18H90.8647L88.1407 14.916V18H87.1327ZM95.108 18.144C94.396 18.144 93.804 17.964 93.332 17.604C92.86 17.244 92.584 16.756 92.504 16.14H93.536C93.6 16.452 93.764 16.724 94.028 16.956C94.3 17.18 94.664 17.292 95.12 17.292C95.544 17.292 95.856 17.204 96.056 17.028C96.256 16.844 96.356 16.628 96.356 16.38C96.356 16.02 96.224 15.78 95.96 15.66C95.704 15.54 95.34 15.432 94.868 15.336C94.548 15.272 94.228 15.18 93.908 15.06C93.588 14.94 93.32 14.772 93.104 14.556C92.888 14.332 92.78 14.04 92.78 13.68C92.78 13.16 92.972 12.736 93.356 12.408C93.748 12.072 94.276 11.904 94.94 11.904C95.572 11.904 96.088 12.064 96.488 12.384C96.896 12.696 97.132 13.144 97.196 13.728H96.2C96.16 13.424 96.028 13.188 95.804 13.02C95.588 12.844 95.296 12.756 94.928 12.756C94.568 12.756 94.288 12.832 94.088 12.984C93.896 13.136 93.8 13.336 93.8 13.584C93.8 13.824 93.924 14.012 94.172 14.148C94.428 14.284 94.772 14.4 95.204 14.496C95.572 14.576 95.92 14.676 96.248 14.796C96.584 14.908 96.856 15.08 97.064 15.312C97.28 15.536 97.388 15.864 97.388 16.296C97.396 16.832 97.192 17.276 96.776 17.628C96.368 17.972 95.812 18.144 95.108 18.144Z" fill="black"/>
</svg>
