<svg width="95" height="42" viewBox="0 0 95 42" fill="none" xmlns="http://www.w3.org/2000/svg">
<g filter="url(#filter0_d_1635_1456)">
<rect x="10.9114" y="8" width="73.132" height="22" rx="8" fill="#F2D3E5" shape-rendering="crispEdges"/>
</g>
<path d="M29.2704 14.98V22H27.5604V14.98H29.2704ZM33.9096 16.36C34.563 16.36 35.083 16.5733 35.4696 17C35.863 17.42 36.0596 18 36.0596 18.74V22H34.3596V18.97C34.3596 18.5967 34.263 18.3067 34.0696 18.1C33.8763 17.8933 33.6163 17.79 33.2896 17.79C32.963 17.79 32.703 17.8933 32.5096 18.1C32.3163 18.3067 32.2196 18.5967 32.2196 18.97V22H30.5096V16.42H32.2196V17.16C32.393 16.9133 32.6263 16.72 32.9196 16.58C33.213 16.4333 33.543 16.36 33.9096 16.36ZM36.9079 19.2C36.9079 18.6267 37.0146 18.1233 37.2279 17.69C37.4479 17.2567 37.7446 16.9233 38.1179 16.69C38.4913 16.4567 38.9079 16.34 39.3679 16.34C39.7613 16.34 40.1046 16.42 40.3979 16.58C40.6979 16.74 40.9279 16.95 41.0879 17.21V16.42H42.7979V22H41.0879V21.21C40.9213 21.47 40.6879 21.68 40.3879 21.84C40.0946 22 39.7513 22.08 39.3579 22.08C38.9046 22.08 38.4913 21.9633 38.1179 21.73C37.7446 21.49 37.4479 21.1533 37.2279 20.72C37.0146 20.28 36.9079 19.7733 36.9079 19.2ZM41.0879 19.21C41.0879 18.7833 40.9679 18.4467 40.7279 18.2C40.4946 17.9533 40.2079 17.83 39.8679 17.83C39.5279 17.83 39.2379 17.9533 38.9979 18.2C38.7646 18.44 38.6479 18.7733 38.6479 19.2C38.6479 19.6267 38.7646 19.9667 38.9979 20.22C39.2379 20.4667 39.5279 20.59 39.8679 20.59C40.2079 20.59 40.4946 20.4667 40.7279 20.22C40.9679 19.9733 41.0879 19.6367 41.0879 19.21ZM43.695 19.21C43.695 18.63 43.8117 18.1233 44.045 17.69C44.285 17.2567 44.615 16.9233 45.035 16.69C45.4617 16.4567 45.9484 16.34 46.495 16.34C47.195 16.34 47.7784 16.5233 48.245 16.89C48.7184 17.2567 49.0284 17.7733 49.175 18.44H47.355C47.2017 18.0133 46.905 17.8 46.465 17.8C46.1517 17.8 45.9017 17.9233 45.715 18.17C45.5284 18.41 45.435 18.7567 45.435 19.21C45.435 19.6633 45.5284 20.0133 45.715 20.26C45.9017 20.5 46.1517 20.62 46.465 20.62C46.905 20.62 47.2017 20.4067 47.355 19.98H49.175C49.0284 20.6333 48.7184 21.1467 48.245 21.52C47.7717 21.8933 47.1884 22.08 46.495 22.08C45.9484 22.08 45.4617 21.9633 45.035 21.73C44.615 21.4967 44.285 21.1633 44.045 20.73C43.8117 20.2967 43.695 19.79 43.695 19.21ZM53.1997 20.55V22H52.3297C51.7097 22 51.2264 21.85 50.8797 21.55C50.5331 21.2433 50.3597 20.7467 50.3597 20.06V17.84H49.6797V16.42H50.3597V15.06H52.0697V16.42H53.1897V17.84H52.0697V20.08C52.0697 20.2467 52.1097 20.3667 52.1897 20.44C52.2697 20.5133 52.4031 20.55 52.5897 20.55H53.1997ZM55.0122 15.84C54.7122 15.84 54.4656 15.7533 54.2722 15.58C54.0856 15.4 53.9922 15.18 53.9922 14.92C53.9922 14.6533 54.0856 14.4333 54.2722 14.26C54.4656 14.08 54.7122 13.99 55.0122 13.99C55.3056 13.99 55.5456 14.08 55.7322 14.26C55.9256 14.4333 56.0222 14.6533 56.0222 14.92C56.0222 15.18 55.9256 15.4 55.7322 15.58C55.5456 15.7533 55.3056 15.84 55.0122 15.84ZM55.8622 16.42V22H54.1522V16.42H55.8622ZM59.6114 20.4L60.8214 16.42H62.6414L60.6614 22H58.5514L56.5714 16.42H58.4014L59.6114 20.4ZM68.6212 19.12C68.6212 19.28 68.6112 19.4467 68.5912 19.62H64.7212C64.7479 19.9667 64.8579 20.2333 65.0512 20.42C65.2512 20.6 65.4945 20.69 65.7812 20.69C66.2079 20.69 66.5045 20.51 66.6712 20.15H68.4912C68.3979 20.5167 68.2279 20.8467 67.9812 21.14C67.7412 21.4333 67.4379 21.6633 67.0712 21.83C66.7045 21.9967 66.2945 22.08 65.8412 22.08C65.2945 22.08 64.8079 21.9633 64.3812 21.73C63.9545 21.4967 63.6212 21.1633 63.3812 20.73C63.1412 20.2967 63.0212 19.79 63.0212 19.21C63.0212 18.63 63.1379 18.1233 63.3712 17.69C63.6112 17.2567 63.9445 16.9233 64.3712 16.69C64.7979 16.4567 65.2879 16.34 65.8412 16.34C66.3812 16.34 66.8612 16.4533 67.2812 16.68C67.7012 16.9067 68.0279 17.23 68.2612 17.65C68.5012 18.07 68.6212 18.56 68.6212 19.12ZM66.8712 18.67C66.8712 18.3767 66.7712 18.1433 66.5712 17.97C66.3712 17.7967 66.1212 17.71 65.8212 17.71C65.5345 17.71 65.2912 17.7933 65.0912 17.96C64.8979 18.1267 64.7779 18.3633 64.7312 18.67H66.8712Z" fill="#D37BA5"/>
<defs>
<filter id="filter0_d_1635_1456" x="0.911377" y="0" width="93.1321" height="42" filterUnits="userSpaceOnUse" color-interpolation-filters="sRGB">
<feFlood flood-opacity="0" result="BackgroundImageFix"/>
<feColorMatrix in="SourceAlpha" type="matrix" values="0 0 0 0 0 0 0 0 0 0 0 0 0 0 0 0 0 0 127 0" result="hardAlpha"/>
<feOffset dy="2"/>
<feGaussianBlur stdDeviation="5"/>
<feComposite in2="hardAlpha" operator="out"/>
<feColorMatrix type="matrix" values="0 0 0 0 0.486275 0 0 0 0 0.552941 0 0 0 0 0.709804 0 0 0 0.12 0"/>
<feBlend mode="normal" in2="BackgroundImageFix" result="effect1_dropShadow_1635_1456"/>
<feBlend mode="normal" in="SourceGraphic" in2="effect1_dropShadow_1635_1456" result="shape"/>
</filter>
</defs>
</svg>
