<svg width="100" height="16" viewBox="0 0 100 16" fill="none" xmlns="http://www.w3.org/2000/svg">
<rect x="0.5" y="0.5" width="99" height="15" fill="#FAFBFC"/>
<rect x="0.5" y="0.5" width="99" height="15" stroke="#CCCCCC"/>
<path d="M10.169 12.165C9.377 12.165 8.69317 11.9927 8.1175 11.648C7.5455 11.3033 7.10367 10.8212 6.792 10.2015C6.484 9.58183 6.33 8.86133 6.33 8.04C6.33 7.21867 6.484 6.49817 6.792 5.8785C7.10367 5.25883 7.5455 4.77667 8.1175 4.432C8.69317 4.08733 9.377 3.915 10.169 3.915C11.0783 3.915 11.841 4.1405 12.457 4.5915C13.0767 5.0425 13.513 5.653 13.766 6.423L12.259 6.841C12.1123 6.36067 11.8648 5.9885 11.5165 5.7245C11.1682 5.45683 10.719 5.323 10.169 5.323C9.66667 5.323 9.24683 5.43483 8.9095 5.6585C8.57583 5.88217 8.32467 6.1975 8.156 6.6045C7.98733 7.0115 7.903 7.49 7.903 8.04C7.903 8.59 7.98733 9.0685 8.156 9.4755C8.32467 9.8825 8.57583 10.1978 8.9095 10.4215C9.24683 10.6452 9.66667 10.757 10.169 10.757C10.719 10.757 11.1682 10.6232 11.5165 10.3555C11.8648 10.0878 12.1123 9.71567 12.259 9.239L13.766 9.657C13.513 10.427 13.0767 11.0375 12.457 11.4885C11.841 11.9395 11.0783 12.165 10.169 12.165ZM19.025 12V9.195C19.025 9.05933 19.0177 8.887 19.003 8.678C18.9884 8.46533 18.9425 8.25267 18.8655 8.04C18.7885 7.82733 18.662 7.6495 18.486 7.5065C18.3137 7.3635 18.068 7.292 17.749 7.292C17.6207 7.292 17.4832 7.31217 17.3365 7.3525C17.1899 7.39283 17.0524 7.47167 16.924 7.589C16.7957 7.70267 16.6894 7.87133 16.605 8.095C16.5244 8.31867 16.484 8.61567 16.484 8.986L15.626 8.579C15.626 8.10967 15.7214 7.66967 15.912 7.259C16.1027 6.84833 16.3887 6.5165 16.77 6.2635C17.155 6.0105 17.639 5.884 18.222 5.884C18.6877 5.884 19.0672 5.96283 19.3605 6.1205C19.6539 6.27817 19.8812 6.478 20.0425 6.72C20.2075 6.962 20.3249 7.215 20.3945 7.479C20.4642 7.73933 20.5064 7.97767 20.521 8.194C20.5357 8.41033 20.543 8.568 20.543 8.667V12H19.025ZM14.966 12V4.08H16.297V8.15H16.484V12H14.966ZM24.6432 12.165C24.0455 12.165 23.5212 12.0312 23.0702 11.7635C22.6192 11.4958 22.2672 11.1273 22.0142 10.658C21.7649 10.185 21.6402 9.64233 21.6402 9.03C21.6402 8.41033 21.7685 7.86583 22.0252 7.3965C22.2819 6.9235 22.6357 6.555 23.0867 6.291C23.5377 6.027 24.0565 5.895 24.6432 5.895C25.2409 5.895 25.7652 6.02883 26.2162 6.2965C26.6709 6.56417 27.0247 6.9345 27.2777 7.4075C27.5307 7.87683 27.6572 8.41767 27.6572 9.03C27.6572 9.646 27.5289 10.1905 27.2722 10.6635C27.0192 11.1328 26.6654 11.5013 26.2107 11.769C25.7597 12.033 25.2372 12.165 24.6432 12.165ZM24.6432 10.768C25.1235 10.768 25.481 10.6067 25.7157 10.284C25.954 9.95767 26.0732 9.53967 26.0732 9.03C26.0732 8.502 25.9522 8.08033 25.7102 7.765C25.4719 7.44967 25.1162 7.292 24.6432 7.292C24.3169 7.292 24.0492 7.36533 23.8402 7.512C23.6312 7.65867 23.4754 7.86217 23.3727 8.1225C23.2737 8.38283 23.2242 8.68533 23.2242 9.03C23.2242 9.56167 23.3434 9.98517 23.5817 10.3005C23.8237 10.6122 24.1775 10.768 24.6432 10.768ZM31.5397 12.165C30.942 12.165 30.4177 12.0312 29.9667 11.7635C29.5157 11.4958 29.1637 11.1273 28.9107 10.658C28.6613 10.185 28.5367 9.64233 28.5367 9.03C28.5367 8.41033 28.665 7.86583 28.9217 7.3965C29.1783 6.9235 29.5322 6.555 29.9832 6.291C30.4342 6.027 30.953 5.895 31.5397 5.895C32.1373 5.895 32.6617 6.02883 33.1127 6.2965C33.5673 6.56417 33.9212 6.9345 34.1742 7.4075C34.4272 7.87683 34.5537 8.41767 34.5537 9.03C34.5537 9.646 34.4253 10.1905 34.1687 10.6635C33.9157 11.1328 33.5618 11.5013 33.1072 11.769C32.6562 12.033 32.1337 12.165 31.5397 12.165ZM31.5397 10.768C32.02 10.768 32.3775 10.6067 32.6122 10.284C32.8505 9.95767 32.9697 9.53967 32.9697 9.03C32.9697 8.502 32.8487 8.08033 32.6067 7.765C32.3683 7.44967 32.0127 7.292 31.5397 7.292C31.2133 7.292 30.9457 7.36533 30.7367 7.512C30.5277 7.65867 30.3718 7.86217 30.2692 8.1225C30.1702 8.38283 30.1207 8.68533 30.1207 9.03C30.1207 9.56167 30.2398 9.98517 30.4782 10.3005C30.7202 10.6122 31.074 10.768 31.5397 10.768ZM37.923 12.165C37.175 12.165 36.57 11.9963 36.108 11.659C35.6497 11.318 35.371 10.8377 35.272 10.218L36.801 9.987C36.8634 10.2657 37.0009 10.4838 37.2135 10.6415C37.4299 10.7992 37.703 10.878 38.033 10.878C38.3044 10.878 38.5134 10.8267 38.66 10.724C38.8067 10.6177 38.88 10.471 38.88 10.284C38.88 10.1667 38.8507 10.0732 38.792 10.0035C38.7334 9.93017 38.6014 9.85867 38.396 9.789C38.1944 9.71933 37.879 9.62767 37.45 9.514C36.966 9.38933 36.5792 9.25 36.2895 9.096C35.9999 8.942 35.7909 8.75867 35.6625 8.546C35.5342 8.32967 35.47 8.06933 35.47 7.765C35.47 7.38367 35.5672 7.05367 35.7615 6.775C35.9559 6.49267 36.229 6.27633 36.581 6.126C36.9367 5.972 37.3547 5.895 37.835 5.895C38.3007 5.895 38.7132 5.9665 39.0725 6.1095C39.4319 6.2525 39.7215 6.456 39.9415 6.72C40.1652 6.984 40.3027 7.29567 40.354 7.655L38.825 7.93C38.7994 7.71 38.704 7.53583 38.539 7.4075C38.374 7.27917 38.1504 7.204 37.868 7.182C37.593 7.16367 37.3712 7.20033 37.2025 7.292C37.0375 7.38367 36.955 7.51567 36.955 7.688C36.955 7.79067 36.9899 7.87683 37.0595 7.9465C37.1329 8.01617 37.2814 8.08767 37.505 8.161C37.7324 8.23433 38.077 8.32967 38.539 8.447C38.99 8.56433 39.3512 8.70183 39.6225 8.8595C39.8975 9.0135 40.0974 9.2005 40.222 9.4205C40.3467 9.63683 40.409 9.899 40.409 10.207C40.409 10.8157 40.189 11.2942 39.749 11.6425C39.309 11.9908 38.7004 12.165 37.923 12.165ZM44.3787 12.165C43.77 12.165 43.2328 12.0348 42.7672 11.7745C42.3052 11.5105 41.9422 11.1493 41.6782 10.691C41.4178 10.229 41.2877 9.701 41.2877 9.107C41.2877 8.458 41.416 7.89333 41.6727 7.413C41.9293 6.93267 42.2832 6.5605 42.7342 6.2965C43.1852 6.02883 43.704 5.895 44.2907 5.895C44.914 5.895 45.4438 6.04167 45.8802 6.335C46.3165 6.62833 46.6392 7.04083 46.8482 7.5725C47.0572 8.10417 47.1305 8.72933 47.0682 9.448H45.5887V8.898C45.5887 8.293 45.4915 7.8585 45.2972 7.5945C45.1065 7.32683 44.793 7.193 44.3567 7.193C43.847 7.193 43.4712 7.34883 43.2292 7.6605C42.9908 7.9685 42.8717 8.425 42.8717 9.03C42.8717 9.58367 42.9908 10.0127 43.2292 10.317C43.4712 10.6177 43.825 10.768 44.2907 10.768C44.584 10.768 44.8352 10.7038 45.0442 10.5755C45.2532 10.4472 45.4127 10.262 45.5227 10.02L47.0187 10.449C46.795 10.9917 46.4412 11.4133 45.9572 11.714C45.4768 12.0147 44.9507 12.165 44.3787 12.165ZM42.4097 9.448V8.337H46.3477V9.448H42.4097ZM50.5122 12V4.08H53.8562C53.9332 4.08 54.0359 4.08367 54.1642 4.091C54.2962 4.09467 54.4135 4.10567 54.5162 4.124C54.9892 4.19733 55.376 4.35317 55.6767 4.5915C55.981 4.82983 56.2047 5.1305 56.3477 5.4935C56.4907 5.85283 56.5622 6.25433 56.5622 6.698C56.5622 7.14167 56.4889 7.545 56.3422 7.908C56.1992 8.26733 55.9755 8.56617 55.6712 8.8045C55.3705 9.04283 54.9855 9.19867 54.5162 9.272C54.4135 9.28667 54.2962 9.29767 54.1642 9.305C54.0322 9.31233 53.9295 9.316 53.8562 9.316H52.0082V12H50.5122ZM52.0082 7.919H53.7902C53.8672 7.919 53.9515 7.91533 54.0432 7.908C54.1349 7.90067 54.2192 7.886 54.2962 7.864C54.4979 7.809 54.6537 7.71733 54.7637 7.589C54.8737 7.457 54.9489 7.31217 54.9892 7.1545C55.0332 6.99317 55.0552 6.841 55.0552 6.698C55.0552 6.555 55.0332 6.40467 54.9892 6.247C54.9489 6.08567 54.8737 5.94083 54.7637 5.8125C54.6537 5.6805 54.4979 5.587 54.2962 5.532C54.2192 5.51 54.1349 5.49533 54.0432 5.488C53.9515 5.48067 53.8672 5.477 53.7902 5.477H52.0082V7.919ZM57.7765 5.235V3.915H59.2725V5.235H57.7765ZM57.7765 12V6.06H59.2725V12H57.7765ZM63.5394 12.165C62.9234 12.165 62.3954 12.0275 61.9554 11.7525C61.5154 11.4775 61.178 11.1035 60.9434 10.6305C60.7087 10.1575 60.5914 9.624 60.5914 9.03C60.5914 8.42867 60.7124 7.8915 60.9544 7.4185C61.2 6.9455 61.5447 6.57333 61.9884 6.302C62.432 6.03067 62.9564 5.895 63.5614 5.895C64.2617 5.895 64.8484 6.07283 65.3214 6.4285C65.798 6.7805 66.1024 7.26267 66.2344 7.875L64.7384 8.271C64.6504 7.963 64.4964 7.72283 64.2764 7.5505C64.06 7.37817 63.8144 7.292 63.5394 7.292C63.224 7.292 62.9655 7.369 62.7639 7.523C62.5622 7.67333 62.4137 7.8805 62.3184 8.1445C62.223 8.40483 62.1754 8.7 62.1754 9.03C62.1754 9.547 62.289 9.96683 62.5164 10.2895C62.7474 10.6085 63.0884 10.768 63.5394 10.768C63.8767 10.768 64.1334 10.691 64.3094 10.537C64.4854 10.383 64.6174 10.163 64.7054 9.877L66.2344 10.196C66.0657 10.8267 65.7467 11.3125 65.2774 11.6535C64.808 11.9945 64.2287 12.165 63.5394 12.165ZM70.8985 12C70.4878 12.077 70.0845 12.11 69.6885 12.099C69.2961 12.0917 68.9441 12.0238 68.6325 11.8955C68.3245 11.7635 68.0898 11.5527 67.9285 11.263C67.7818 10.9917 67.7048 10.7167 67.6975 10.438C67.6901 10.1557 67.6865 9.83667 67.6865 9.481V4.41H69.1825V9.393C69.1825 9.624 69.1843 9.833 69.188 10.02C69.1953 10.2033 69.2338 10.35 69.3035 10.46C69.4355 10.669 69.6463 10.7827 69.936 10.801C70.2256 10.8193 70.5465 10.8047 70.8985 10.757V12ZM66.6745 7.215V6.06H70.8985V7.215H66.6745ZM74.4331 12.176C73.9675 12.176 73.588 12.0972 73.2946 11.9395C73.0013 11.7818 72.7721 11.582 72.6071 11.34C72.4458 11.098 72.3303 10.8468 72.2606 10.5865C72.191 10.3225 72.1488 10.0823 72.1341 9.866C72.1195 9.64967 72.1121 9.492 72.1121 9.393V6.06H73.6301V8.865C73.6301 9.00067 73.6375 9.17483 73.6521 9.3875C73.6668 9.5965 73.7126 9.80733 73.7896 10.02C73.8666 10.2327 73.9913 10.4105 74.1636 10.5535C74.3396 10.6965 74.5871 10.768 74.9061 10.768C75.0345 10.768 75.172 10.7478 75.3186 10.7075C75.4653 10.6672 75.6028 10.5902 75.7311 10.4765C75.8595 10.3592 75.964 10.1887 76.0446 9.965C76.129 9.73767 76.1711 9.44067 76.1711 9.074L77.0291 9.481C77.0291 9.95033 76.9338 10.3903 76.7431 10.801C76.5525 11.2117 76.2646 11.5435 75.8796 11.7965C75.4983 12.0495 75.0161 12.176 74.4331 12.176ZM76.3581 12V10.031H76.1711V6.06H77.6781V12H76.3581ZM79.2153 12V6.06H80.5353V7.512L80.3923 7.325C80.4693 7.11967 80.572 6.93267 80.7003 6.764C80.8286 6.59533 80.9863 6.456 81.1733 6.346C81.3163 6.258 81.4721 6.19017 81.6408 6.1425C81.8095 6.09117 81.9836 6.06 82.1633 6.049C82.343 6.03433 82.5226 6.038 82.7023 6.06V7.457C82.5373 7.40567 82.3448 7.38917 82.1248 7.4075C81.9085 7.42217 81.7123 7.47167 81.5363 7.556C81.3603 7.63667 81.2118 7.74483 81.0908 7.8805C80.9698 8.0125 80.8781 8.17017 80.8158 8.3535C80.7535 8.53317 80.7223 8.73667 80.7223 8.964V12H79.2153ZM86.4021 12.165C85.7934 12.165 85.2563 12.0348 84.7906 11.7745C84.3286 11.5105 83.9656 11.1493 83.7016 10.691C83.4413 10.229 83.3111 9.701 83.3111 9.107C83.3111 8.458 83.4394 7.89333 83.6961 7.413C83.9528 6.93267 84.3066 6.5605 84.7576 6.2965C85.2086 6.02883 85.7274 5.895 86.3141 5.895C86.9374 5.895 87.4673 6.04167 87.9036 6.335C88.3399 6.62833 88.6626 7.04083 88.8716 7.5725C89.0806 8.10417 89.1539 8.72933 89.0916 9.448H87.6121V8.898C87.6121 8.293 87.5149 7.8585 87.3206 7.5945C87.1299 7.32683 86.8164 7.193 86.3801 7.193C85.8704 7.193 85.4946 7.34883 85.2526 7.6605C85.0143 7.9685 84.8951 8.425 84.8951 9.03C84.8951 9.58367 85.0143 10.0127 85.2526 10.317C85.4946 10.6177 85.8484 10.768 86.3141 10.768C86.6074 10.768 86.8586 10.7038 87.0676 10.5755C87.2766 10.4472 87.4361 10.262 87.5461 10.02L89.0421 10.449C88.8184 10.9917 88.4646 11.4133 87.9806 11.714C87.5003 12.0147 86.9741 12.165 86.4021 12.165ZM84.4331 9.448V8.337H88.3711V9.448H84.4331Z" fill="#999999"/>
</svg>
