<svg width="140" height="54" viewBox="0 0 140 54" fill="none" xmlns="http://www.w3.org/2000/svg">
<rect width="140" height="54" rx="27" fill="#5243E6"/>
<path d="M33.12 32V21.92H34.807V30.418H39.259V32H33.12ZM43.8818 32.21C43.1165 32.21 42.4445 32.0443 41.8658 31.713C41.2872 31.3817 40.8345 30.922 40.5078 30.334C40.1858 29.746 40.0248 29.0693 40.0248 28.304C40.0248 27.478 40.1835 26.7617 40.5008 26.155C40.8182 25.5437 41.2592 25.07 41.8238 24.734C42.3885 24.398 43.0418 24.23 43.7838 24.23C44.5678 24.23 45.2328 24.4143 45.7788 24.783C46.3295 25.147 46.7378 25.6627 47.0038 26.33C47.2698 26.9973 47.3702 27.7837 47.3048 28.689H45.6318V28.073C45.6272 27.2517 45.4825 26.652 45.1978 26.274C44.9132 25.896 44.4652 25.707 43.8538 25.707C43.1632 25.707 42.6498 25.9217 42.3138 26.351C41.9778 26.7757 41.8098 27.3987 41.8098 28.22C41.8098 28.9853 41.9778 29.578 42.3138 29.998C42.6498 30.418 43.1398 30.628 43.7838 30.628C44.1992 30.628 44.5562 30.537 44.8548 30.355C45.1582 30.1683 45.3915 29.9 45.5548 29.55L47.2208 30.054C46.9315 30.7353 46.4835 31.265 45.8768 31.643C45.2748 32.021 44.6098 32.21 43.8818 32.21ZM41.2778 28.689V27.415H46.4788V28.689H41.2778ZM50.844 32.21C50.298 32.21 49.836 32.1073 49.458 31.902C49.08 31.692 48.793 31.4143 48.597 31.069C48.4057 30.7237 48.31 30.3433 48.31 29.928C48.31 29.564 48.3707 29.2373 48.492 28.948C48.6133 28.654 48.8 28.402 49.052 28.192C49.304 27.9773 49.6307 27.8023 50.032 27.667C50.3353 27.569 50.69 27.4803 51.096 27.401C51.5067 27.3217 51.95 27.2493 52.426 27.184C52.9067 27.114 53.4083 27.0393 53.931 26.96L53.329 27.303C53.3337 26.7803 53.217 26.3953 52.979 26.148C52.741 25.9007 52.3397 25.777 51.775 25.777C51.4343 25.777 51.1053 25.8563 50.788 26.015C50.4707 26.1737 50.249 26.4467 50.123 26.834L48.583 26.351C48.7697 25.7117 49.1243 25.1983 49.647 24.811C50.1743 24.4237 50.8837 24.23 51.775 24.23C52.447 24.23 53.0373 24.3397 53.546 24.559C54.0593 24.7783 54.4397 25.1377 54.687 25.637C54.8223 25.903 54.904 26.176 54.932 26.456C54.96 26.7313 54.974 27.0323 54.974 27.359V32H53.497V30.362L53.742 30.628C53.4013 31.174 53.0023 31.5753 52.545 31.832C52.0923 32.084 51.5253 32.21 50.844 32.21ZM51.18 30.866C51.5627 30.866 51.8893 30.7983 52.16 30.663C52.4307 30.5277 52.6453 30.362 52.804 30.166C52.9673 29.97 53.077 29.7857 53.133 29.613C53.2217 29.3983 53.2707 29.1533 53.28 28.878C53.294 28.598 53.301 28.3717 53.301 28.199L53.819 28.353C53.3103 28.4323 52.874 28.5023 52.51 28.563C52.146 28.6237 51.8333 28.682 51.572 28.738C51.3107 28.7893 51.0797 28.8477 50.879 28.913C50.683 28.983 50.5173 29.0647 50.382 29.158C50.2467 29.2513 50.1417 29.3587 50.067 29.48C49.997 29.6013 49.962 29.7437 49.962 29.907C49.962 30.0937 50.0087 30.2593 50.102 30.404C50.1953 30.544 50.3307 30.656 50.508 30.74C50.69 30.824 50.914 30.866 51.18 30.866ZM56.7964 32V24.44H58.2874V26.281L58.1054 26.043C58.1987 25.791 58.3224 25.5623 58.4764 25.357C58.6351 25.147 58.8241 24.9743 59.0434 24.839C59.2301 24.713 59.4354 24.615 59.6594 24.545C59.8881 24.4703 60.1214 24.426 60.3594 24.412C60.5974 24.3933 60.8284 24.4027 61.0524 24.44V26.015C60.8284 25.9497 60.5694 25.9287 60.2754 25.952C59.9861 25.9753 59.7247 26.057 59.4914 26.197C59.2581 26.323 59.0667 26.484 58.9174 26.68C58.7727 26.876 58.6654 27.1 58.5954 27.352C58.5254 27.5993 58.4904 27.8677 58.4904 28.157V32H56.7964ZM67.6172 32V28.36C67.6172 28.122 67.6009 27.8583 67.5682 27.569C67.5355 27.2797 67.4585 27.002 67.3372 26.736C67.2205 26.4653 67.0432 26.2437 66.8052 26.071C66.5719 25.8983 66.2545 25.812 65.8532 25.812C65.6385 25.812 65.4262 25.847 65.2162 25.917C65.0062 25.987 64.8149 26.1083 64.6422 26.281C64.4742 26.449 64.3389 26.6823 64.2362 26.981C64.1335 27.275 64.0822 27.653 64.0822 28.115L63.0812 27.688C63.0812 27.044 63.2049 26.4607 63.4522 25.938C63.7042 25.4153 64.0729 25 64.5582 24.692C65.0435 24.3793 65.6409 24.223 66.3502 24.223C66.9102 24.223 67.3722 24.3163 67.7362 24.503C68.1002 24.6897 68.3895 24.9277 68.6042 25.217C68.8189 25.5063 68.9775 25.8143 69.0802 26.141C69.1829 26.4677 69.2482 26.778 69.2762 27.072C69.3089 27.3613 69.3252 27.597 69.3252 27.779V32H67.6172ZM62.3742 32V24.44H63.8792V26.785H64.0822V32H62.3742ZM73.9546 32V21.92H75.4736L78.9596 29.06L82.4456 21.92H83.9646V32H82.3896V25.539L79.2956 32H78.6236L75.5366 25.539V32H73.9546ZM89.2702 32.21C88.5142 32.21 87.8538 32.0397 87.2892 31.699C86.7245 31.3583 86.2858 30.8893 85.9732 30.292C85.6652 29.69 85.5112 28.9993 85.5112 28.22C85.5112 27.4267 85.6698 26.7313 85.9872 26.134C86.3045 25.5367 86.7455 25.07 87.3102 24.734C87.8748 24.398 88.5282 24.23 89.2702 24.23C90.0308 24.23 90.6935 24.4003 91.2582 24.741C91.8228 25.0817 92.2615 25.553 92.5742 26.155C92.8868 26.7523 93.0432 27.4407 93.0432 28.22C93.0432 29.004 92.8845 29.697 92.5672 30.299C92.2545 30.8963 91.8158 31.3653 91.2512 31.706C90.6865 32.042 90.0262 32.21 89.2702 32.21ZM89.2702 30.628C89.9422 30.628 90.4415 30.404 90.7682 29.956C91.0948 29.508 91.2582 28.9293 91.2582 28.22C91.2582 27.4873 91.0925 26.904 90.7612 26.47C90.4298 26.0313 89.9328 25.812 89.2702 25.812C88.8175 25.812 88.4442 25.9147 88.1502 26.12C87.8608 26.3207 87.6462 26.603 87.5062 26.967C87.3662 27.3263 87.2962 27.744 87.2962 28.22C87.2962 28.9527 87.4618 29.5383 87.7932 29.977C88.1292 30.411 88.6215 30.628 89.2702 30.628ZM94.5855 32V24.44H96.0765V26.281L95.8945 26.043C95.9878 25.791 96.1115 25.5623 96.2655 25.357C96.4241 25.147 96.6131 24.9743 96.8325 24.839C97.0191 24.713 97.2245 24.615 97.4485 24.545C97.6771 24.4703 97.9105 24.426 98.1485 24.412C98.3865 24.3933 98.6175 24.4027 98.8415 24.44V26.015C98.6175 25.9497 98.3585 25.9287 98.0645 25.952C97.7751 25.9753 97.5138 26.057 97.2805 26.197C97.0471 26.323 96.8558 26.484 96.7065 26.68C96.5618 26.876 96.4545 27.1 96.3845 27.352C96.3145 27.5993 96.2795 27.8677 96.2795 28.157V32H94.5855ZM103.478 32.21C102.712 32.21 102.04 32.0443 101.462 31.713C100.883 31.3817 100.43 30.922 100.104 30.334C99.7815 29.746 99.6205 29.0693 99.6205 28.304C99.6205 27.478 99.7792 26.7617 100.097 26.155C100.414 25.5437 100.855 25.07 101.42 24.734C101.984 24.398 102.638 24.23 103.38 24.23C104.164 24.23 104.829 24.4143 105.375 24.783C105.925 25.147 106.334 25.6627 106.6 26.33C106.866 26.9973 106.966 27.7837 106.901 28.689H105.228V28.073C105.223 27.2517 105.078 26.652 104.794 26.274C104.509 25.896 104.061 25.707 103.45 25.707C102.759 25.707 102.246 25.9217 101.91 26.351C101.574 26.7757 101.406 27.3987 101.406 28.22C101.406 28.9853 101.574 29.578 101.91 29.998C102.246 30.418 102.736 30.628 103.38 30.628C103.795 30.628 104.152 30.537 104.451 30.355C104.754 30.1683 104.987 29.9 105.151 29.55L106.817 30.054C106.527 30.7353 106.079 31.265 105.473 31.643C104.871 32.021 104.206 32.21 103.478 32.21ZM100.874 28.689V27.415H106.075V28.689H100.874Z" fill="white"/>
</svg>
