<svg width="22" height="22" viewBox="0 0 22 22" fill="none" xmlns="http://www.w3.org/2000/svg">
<g clip-path="url(#clip0_466_485)">
<path d="M10.8776 1.79462C13.0164 1.79462 15.0677 2.64547 16.5801 4.15999C18.0925 5.67451 18.9422 7.72865 18.9422 9.87051C18.9422 12.6289 17.4404 14.8865 15.8579 16.5062C15.0671 17.3065 14.2045 18.0322 13.2808 18.6741L12.8991 18.9344L12.7199 19.0537L12.3821 19.2691L12.081 19.453L11.7082 19.6702C11.4551 19.8144 11.1688 19.8903 10.8776 19.8903C10.5863 19.8903 10.3001 19.8144 10.0469 19.6702L9.67416 19.453L9.20821 19.1659L9.03616 19.0537L8.66878 18.8087C7.67233 18.1333 6.74409 17.3622 5.89724 16.5062C4.31479 14.8856 2.81299 12.6289 2.81299 9.87051C2.81299 7.72865 3.66265 5.67451 5.17505 4.15999C6.68745 2.64547 8.73871 1.79462 10.8776 1.79462ZM10.8776 7.17855C10.5246 7.17855 10.175 7.24818 9.84885 7.38346C9.5227 7.51874 9.22636 7.71703 8.97673 7.967C8.72711 8.21698 8.5291 8.51374 8.39401 8.84034C8.25891 9.16694 8.18938 9.517 8.18938 9.87051C8.18938 10.224 8.25891 10.5741 8.39401 10.9007C8.5291 11.2273 8.72711 11.524 8.97673 11.774C9.22636 12.024 9.5227 12.2223 9.84885 12.3576C10.175 12.4928 10.5246 12.5625 10.8776 12.5625C11.5905 12.5625 12.2743 12.2789 12.7784 11.774C13.2826 11.2692 13.5658 10.5845 13.5658 9.87051C13.5658 9.15656 13.2826 8.47184 12.7784 7.967C12.2743 7.46216 11.5905 7.17855 10.8776 7.17855Z" fill="#5243E6"/>
</g>
<defs>
<clipPath id="clip0_466_485">
<rect width="21.5056" height="21.5357" fill="white" transform="translate(0.124756)"/>
</clipPath>
</defs>
</svg>
