<svg width="61" height="57" viewBox="0 0 61 57" fill="none" xmlns="http://www.w3.org/2000/svg">
<g filter="url(#filter0_d_89_697)">
<rect x="10.5" y="8" width="40" height="37" rx="12" fill="white" shape-rendering="crispEdges"/>
<path d="M34.92 18C35.2447 18 35.5645 18.079 35.8518 18.2302C36.1391 18.3814 36.3852 18.6003 36.569 18.868L36.656 19.008L40.236 25.273C40.3797 25.5246 40.4671 25.8044 40.492 26.093L40.5 26.266V30.764C40.5 31.012 40.4539 31.2579 40.364 31.489L40.289 31.659L39.171 33.894C39.0172 34.2019 38.7866 34.465 38.5014 34.6577C38.2162 34.8504 37.8861 34.9662 37.543 34.994L37.382 35H35.5C34.9954 35.0002 34.5094 34.8096 34.1395 34.4665C33.7695 34.1234 33.5428 33.6532 33.505 33.15L33.5 33H27.5C27.5002 33.5046 27.3096 33.9906 26.9665 34.3605C26.6234 34.7305 26.1532 34.9572 25.65 34.995L25.5 35H23.618C23.2741 34.9999 22.9361 34.9111 22.6366 34.7422C22.3371 34.5734 22.0861 34.3301 21.908 34.036L21.829 33.894L20.711 31.658C20.6003 31.4362 20.5318 31.1958 20.509 30.949L20.5 30.764V26.266C20.5 25.9766 20.5628 25.6907 20.684 25.428L20.764 25.273L24.344 19.008C24.5051 18.7261 24.7324 18.4876 25.0063 18.3132C25.2802 18.1388 25.5924 18.0337 25.916 18.007L26.08 18H34.92ZM34.92 20H26.08L22.5 26.266V30.764L23.618 33H25.5V32.1C25.4999 31.8289 25.5998 31.5674 25.7807 31.3655C25.9615 31.1636 26.2106 31.0356 26.48 31.006L26.6 31H34.4C34.6711 30.9999 34.9326 31.0998 35.1345 31.2807C35.3364 31.4615 35.4644 31.7106 35.494 31.98L35.5 32.1V33H37.382L38.5 30.764V26.266L34.92 20ZM35.054 25.105C35.2911 24.987 35.5654 24.9678 35.8167 25.0518C36.0679 25.1358 36.2755 25.3161 36.394 25.553C36.51 25.7908 36.528 26.0646 36.4442 26.3155C36.3605 26.5665 36.1816 26.7746 35.946 26.895C34.302 27.715 32.31 28 30.5 28C28.654 28 26.73 27.718 25.058 26.897C24.8225 26.7759 24.6436 26.5677 24.5591 26.3168C24.4747 26.0658 24.4915 25.7918 24.606 25.553C24.7177 25.3345 24.9053 25.1643 25.1336 25.0743C25.3619 24.9843 25.6152 24.9806 25.846 25.064L26.113 25.179L26.357 25.276L26.576 25.356L26.836 25.442L27.138 25.534L27.478 25.625L27.855 25.715L28.266 25.797C29.003 25.932 29.7507 25.9999 30.5 26C32.016 26 33.668 25.768 35.054 25.105Z" fill="#3080AD"/>
</g>
<defs>
<filter id="filter0_d_89_697" x="0.5" y="0" width="60" height="57" filterUnits="userSpaceOnUse" color-interpolation-filters="sRGB">
<feFlood flood-opacity="0" result="BackgroundImageFix"/>
<feColorMatrix in="SourceAlpha" type="matrix" values="0 0 0 0 0 0 0 0 0 0 0 0 0 0 0 0 0 0 127 0" result="hardAlpha"/>
<feOffset dy="2"/>
<feGaussianBlur stdDeviation="5"/>
<feComposite in2="hardAlpha" operator="out"/>
<feColorMatrix type="matrix" values="0 0 0 0 0.486275 0 0 0 0 0.552941 0 0 0 0 0.709804 0 0 0 0.12 0"/>
<feBlend mode="normal" in2="BackgroundImageFix" result="effect1_dropShadow_89_697"/>
<feBlend mode="normal" in="SourceGraphic" in2="effect1_dropShadow_89_697" result="shape"/>
</filter>
</defs>
</svg>
