<svg width="19" height="17" viewBox="0 0 19 17" fill="none" xmlns="http://www.w3.org/2000/svg">
<path d="M9.2501 0.0624084C14.1978 0.0624084 18.2084 3.83988 18.2084 8.49991C18.2084 13.1599 14.1978 16.9374 9.2501 16.9374C4.30241 16.9374 0.291763 13.1599 0.291763 8.49991C0.291763 3.83988 4.30241 0.0624084 9.2501 0.0624084ZM12.4169 5.44638L7.98249 9.62294L6.08333 7.83335C6.00015 7.75495 5.9014 7.69276 5.79271 7.65031C5.68401 7.60786 5.56751 7.586 5.44984 7.58596C5.2122 7.58588 4.98426 7.67471 4.81617 7.83292C4.64807 7.99113 4.55359 8.20576 4.55351 8.42958C4.55342 8.6534 4.64775 8.86809 4.81572 9.02641L7.28643 11.3535C7.37794 11.4397 7.48659 11.5081 7.60618 11.5548C7.72577 11.6014 7.85394 11.6255 7.98339 11.6255C8.11283 11.6255 8.24101 11.6014 8.3606 11.5548C8.48018 11.5081 8.58884 11.4397 8.68035 11.3535L13.6845 6.64028C13.8526 6.48196 13.947 6.26723 13.947 6.04333C13.947 5.81943 13.8526 5.6047 13.6845 5.44638C13.5164 5.28805 13.2884 5.19911 13.0507 5.19911C12.8129 5.19911 12.585 5.28805 12.4169 5.44638Z" fill="#09244B"/>
</svg>
