<svg width="22" height="21" viewBox="0 0 22 21" fill="none" xmlns="http://www.w3.org/2000/svg">
<path d="M11.2501 2.06241C16.1978 2.06241 20.2084 5.83988 20.2084 10.4999C20.2084 15.1599 16.1978 18.9374 11.2501 18.9374C6.30241 18.9374 2.29176 15.1599 2.29176 10.4999C2.29176 5.83988 6.30241 2.06241 11.2501 2.06241ZM14.4169 7.44638L9.98249 11.6229L8.08332 9.83335C8.00015 9.75495 7.9014 9.69276 7.7927 9.65031C7.68401 9.60786 7.5675 9.586 7.44984 9.58596C7.2122 9.58588 6.98426 9.67471 6.81617 9.83292C6.64807 9.99113 6.55359 10.2058 6.5535 10.4296C6.55342 10.6534 6.64774 10.8681 6.81572 11.0264L9.28643 13.3535C9.37794 13.4397 9.48659 13.5081 9.60618 13.5548C9.72576 13.6014 9.85394 13.6255 9.98338 13.6255C10.1128 13.6255 10.241 13.6014 10.3606 13.5548C10.4802 13.5081 10.5888 13.4397 10.6803 13.3535L15.6845 8.64028C15.8526 8.48196 15.947 8.26723 15.947 8.04333C15.947 7.81943 15.8526 7.6047 15.6845 7.44638C15.5164 7.28805 15.2884 7.19911 15.0507 7.19911C14.8129 7.19911 14.585 7.28805 14.4169 7.44638Z" fill="#32DE43"/>
</svg>
