<svg width="12" height="12" viewBox="0 0 12 12" fill="none" xmlns="http://www.w3.org/2000/svg">
<g clip-path="url(#clip0_2799_1127)">
<path fill-rule="evenodd" clip-rule="evenodd" d="M6 1C8.7615 1 11 3.2385 11 6C11 8.7615 8.7615 11 6 11C3.2385 11 1 8.7615 1 6C1 3.2385 3.2385 1 6 1ZM4.1565 7.3905C3.6345 6.973 2.9265 6.8115 2.1025 6.9045C2.27739 7.65578 2.66552 8.34057 3.22024 8.87657C3.77496 9.41258 4.47266 9.77698 5.2295 9.926C5.133 8.6135 4.7015 7.8255 4.1565 7.3905ZM7.8435 7.3905C7.2985 7.8265 6.867 8.6135 6.7705 9.9255C7.52718 9.77643 8.22473 9.41206 8.77935 8.87616C9.33397 8.34026 9.72206 7.65562 9.897 6.9045C9.0735 6.8115 8.3655 6.973 7.8435 7.3905ZM6 5C5.525 5 5.134 5.185 4.847 5.389L4.598 5.5625C4.336 5.74 4.035 5.9225 3.6975 6.0425C4.09159 6.1605 4.4594 6.35297 4.781 6.6095C5.343 7.0595 5.7575 7.703 6 8.539C6.2425 7.703 6.657 7.059 7.219 6.6095C7.54063 6.35314 7.90844 6.16083 8.3025 6.043C7.965 5.9225 7.664 5.74 7.402 5.5625L7.153 5.389C6.866 5.185 6.475 5 6 5ZM6 2C5.06809 2.00012 4.16544 2.32551 3.44779 2.92002C2.73015 3.51453 2.2425 4.34088 2.069 5.2565L2.0475 5.3805L3.1525 5.1595C3.4435 5.1015 3.72 4.948 4.029 4.7395L4.2675 4.5735C4.666 4.2905 5.2565 4 6 4C6.694 4 7.2545 4.253 7.65 4.517L7.971 4.7395C8.241 4.922 8.487 5.062 8.739 5.1335L8.8475 5.1595L9.9525 5.3805C9.80461 4.43846 9.32513 3.58022 8.60046 2.96042C7.87579 2.34062 6.95357 2.00002 6 2Z" fill="#09244B"/>
</g>
<defs>
<clipPath id="clip0_2799_1127">
<rect width="12" height="12" fill="white"/>
</clipPath>
</defs>
</svg>
