<svg width="95" height="42" viewBox="0 0 95 42" fill="none" xmlns="http://www.w3.org/2000/svg">
<g filter="url(#filter0_d_1635_2400)">
<rect x="10.9097" y="8" width="73.132" height="22" rx="8" fill="#FFFBAB" shape-rendering="crispEdges"/>
</g>
<path d="M33.7204 17.18C33.7204 17.5533 33.6304 17.9033 33.4504 18.23C33.2771 18.5567 33.0004 18.82 32.6204 19.02C32.2471 19.22 31.7738 19.32 31.2004 19.32H30.0304V22H28.6304V15.02H31.2004C31.7404 15.02 32.2004 15.1133 32.5804 15.3C32.9604 15.4867 33.2438 15.7433 33.4304 16.07C33.6238 16.3967 33.7204 16.7667 33.7204 17.18ZM31.1404 18.19C31.5271 18.19 31.8138 18.1033 32.0004 17.93C32.1871 17.75 32.2804 17.5 32.2804 17.18C32.2804 16.5 31.9004 16.16 31.1404 16.16H30.0304V18.19H31.1404ZM34.3544 19.21C34.3544 18.65 34.4644 18.1533 34.6844 17.72C34.9111 17.2867 35.2144 16.9533 35.5944 16.72C35.9811 16.4867 36.4111 16.37 36.8844 16.37C37.2977 16.37 37.6577 16.4533 37.9644 16.62C38.2777 16.7867 38.5277 16.9967 38.7144 17.25V16.46H40.1244V22H38.7144V21.19C38.5344 21.45 38.2844 21.6667 37.9644 21.84C37.6511 22.0067 37.2877 22.09 36.8744 22.09C36.4077 22.09 35.9811 21.97 35.5944 21.73C35.2144 21.49 34.9111 21.1533 34.6844 20.72C34.4644 20.28 34.3544 19.7767 34.3544 19.21ZM38.7144 19.23C38.7144 18.89 38.6477 18.6 38.5144 18.36C38.3811 18.1133 38.2011 17.9267 37.9744 17.8C37.7477 17.6667 37.5044 17.6 37.2444 17.6C36.9844 17.6 36.7444 17.6633 36.5244 17.79C36.3044 17.9167 36.1244 18.1033 35.9844 18.35C35.8511 18.59 35.7844 18.8767 35.7844 19.21C35.7844 19.5433 35.8511 19.8367 35.9844 20.09C36.1244 20.3367 36.3044 20.5267 36.5244 20.66C36.7511 20.7933 36.9911 20.86 37.2444 20.86C37.5044 20.86 37.7477 20.7967 37.9744 20.67C38.2011 20.5367 38.3811 20.35 38.5144 20.11C38.6477 19.8633 38.7144 19.57 38.7144 19.23ZM42.8918 17.32C43.0718 17.0267 43.3051 16.7967 43.5918 16.63C43.8851 16.4633 44.2184 16.38 44.5918 16.38V17.85H44.2218C43.7818 17.85 43.4484 17.9533 43.2218 18.16C43.0018 18.3667 42.8918 18.7267 42.8918 19.24V22H41.4918V16.46H42.8918V17.32ZM48.8147 22L46.9347 19.64V22H45.5347V14.6H46.9347V18.81L48.7947 16.46H50.6147L48.1747 19.24L50.6347 22H48.8147ZM52.0846 15.8C51.8379 15.8 51.6312 15.7233 51.4646 15.57C51.3046 15.41 51.2246 15.2133 51.2246 14.98C51.2246 14.7467 51.3046 14.5533 51.4646 14.4C51.6312 14.24 51.8379 14.16 52.0846 14.16C52.3312 14.16 52.5346 14.24 52.6946 14.4C52.8612 14.5533 52.9446 14.7467 52.9446 14.98C52.9446 15.2133 52.8612 15.41 52.6946 15.57C52.5346 15.7233 52.3312 15.8 52.0846 15.8ZM52.7746 16.46V22H51.3746V16.46H52.7746ZM57.2278 16.38C57.8878 16.38 58.4211 16.59 58.8278 17.01C59.2344 17.4233 59.4378 18.0033 59.4378 18.75V22H58.0378V18.94C58.0378 18.5 57.9278 18.1633 57.7078 17.93C57.4878 17.69 57.1878 17.57 56.8078 17.57C56.4211 17.57 56.1144 17.69 55.8878 17.93C55.6678 18.1633 55.5578 18.5 55.5578 18.94V22H54.1578V16.46H55.5578V17.15C55.7444 16.91 55.9811 16.7233 56.2678 16.59C56.5611 16.45 56.8811 16.38 57.2278 16.38ZM62.9391 16.37C63.3524 16.37 63.7158 16.4533 64.0291 16.62C64.3424 16.78 64.5891 16.99 64.7691 17.25V16.46H66.1791V22.04C66.1791 22.5533 66.0758 23.01 65.8691 23.41C65.6624 23.8167 65.3524 24.1367 64.9391 24.37C64.5258 24.61 64.0258 24.73 63.4391 24.73C62.6524 24.73 62.0058 24.5467 61.4991 24.18C60.9991 23.8133 60.7158 23.3133 60.6491 22.68H62.0391C62.1124 22.9333 62.2691 23.1333 62.5091 23.28C62.7558 23.4333 63.0524 23.51 63.3991 23.51C63.8058 23.51 64.1358 23.3867 64.3891 23.14C64.6424 22.9 64.7691 22.5333 64.7691 22.04V21.18C64.5891 21.44 64.3391 21.6567 64.0191 21.83C63.7058 22.0033 63.3458 22.09 62.9391 22.09C62.4724 22.09 62.0458 21.97 61.6591 21.73C61.2724 21.49 60.9658 21.1533 60.7391 20.72C60.5191 20.28 60.4091 19.7767 60.4091 19.21C60.4091 18.65 60.5191 18.1533 60.7391 17.72C60.9658 17.2867 61.2691 16.9533 61.6491 16.72C62.0358 16.4867 62.4658 16.37 62.9391 16.37ZM64.7691 19.23C64.7691 18.89 64.7024 18.6 64.5691 18.36C64.4358 18.1133 64.2558 17.9267 64.0291 17.8C63.8024 17.6667 63.5591 17.6 63.2991 17.6C63.0391 17.6 62.7991 17.6633 62.5791 17.79C62.3591 17.9167 62.1791 18.1033 62.0391 18.35C61.9058 18.59 61.8391 18.8767 61.8391 19.21C61.8391 19.5433 61.9058 19.8367 62.0391 20.09C62.1791 20.3367 62.3591 20.5267 62.5791 20.66C62.8058 20.7933 63.0458 20.86 63.2991 20.86C63.5591 20.86 63.8024 20.7967 64.0291 20.67C64.2558 20.5367 64.4358 20.35 64.5691 20.11C64.7024 19.8633 64.7691 19.57 64.7691 19.23Z" fill="#F1BB4A"/>
<defs>
<filter id="filter0_d_1635_2400" x="0.909668" y="0" width="93.1321" height="42" filterUnits="userSpaceOnUse" color-interpolation-filters="sRGB">
<feFlood flood-opacity="0" result="BackgroundImageFix"/>
<feColorMatrix in="SourceAlpha" type="matrix" values="0 0 0 0 0 0 0 0 0 0 0 0 0 0 0 0 0 0 127 0" result="hardAlpha"/>
<feOffset dy="2"/>
<feGaussianBlur stdDeviation="5"/>
<feComposite in2="hardAlpha" operator="out"/>
<feColorMatrix type="matrix" values="0 0 0 0 0.486275 0 0 0 0 0.552941 0 0 0 0 0.709804 0 0 0 0.12 0"/>
<feBlend mode="normal" in2="BackgroundImageFix" result="effect1_dropShadow_1635_2400"/>
<feBlend mode="normal" in="SourceGraphic" in2="effect1_dropShadow_1635_2400" result="shape"/>
</filter>
</defs>
</svg>
