<svg width="121" height="19" viewBox="0 0 121 19" fill="none" xmlns="http://www.w3.org/2000/svg">
<rect x="0.114258" width="120.7" height="19" rx="9.5" fill="#FFF3E1"/>
<path d="M18.8843 14V6.08H22.2283C22.3053 6.08 22.4079 6.08367 22.5363 6.091C22.6683 6.09467 22.7856 6.10567 22.8883 6.124C23.3613 6.19733 23.7481 6.35317 24.0488 6.5915C24.3531 6.82983 24.5768 7.1305 24.7198 7.4935C24.8628 7.85283 24.9343 8.25433 24.9343 8.698C24.9343 9.14167 24.8609 9.545 24.7143 9.908C24.5713 10.2673 24.3476 10.5662 24.0433 10.8045C23.7426 11.0428 23.3576 11.1987 22.8883 11.272C22.7856 11.2867 22.6683 11.2977 22.5363 11.305C22.4043 11.3123 22.3016 11.316 22.2283 11.316H20.3803V14H18.8843ZM20.3803 9.919H22.1623C22.2393 9.919 22.3236 9.91533 22.4153 9.908C22.5069 9.90067 22.5913 9.886 22.6683 9.864C22.8699 9.809 23.0258 9.71733 23.1358 9.589C23.2458 9.457 23.3209 9.31217 23.3613 9.1545C23.4053 8.99317 23.4273 8.841 23.4273 8.698C23.4273 8.555 23.4053 8.40467 23.3613 8.247C23.3209 8.08567 23.2458 7.94083 23.1358 7.8125C23.0258 7.6805 22.8699 7.587 22.6683 7.532C22.5913 7.51 22.5069 7.49533 22.4153 7.488C22.3236 7.48067 22.2393 7.477 22.1623 7.477H20.3803V9.919ZM28.6921 14.165C28.0835 14.165 27.5463 14.0348 27.0806 13.7745C26.6186 13.5105 26.2556 13.1493 25.9916 12.691C25.7313 12.229 25.6011 11.701 25.6011 11.107C25.6011 10.458 25.7295 9.89333 25.9861 9.413C26.2428 8.93267 26.5966 8.5605 27.0476 8.2965C27.4986 8.02883 28.0175 7.895 28.6041 7.895C29.2275 7.895 29.7573 8.04167 30.1936 8.335C30.63 8.62833 30.9526 9.04083 31.1616 9.5725C31.3706 10.1042 31.444 10.7293 31.3816 11.448H29.9021V10.898C29.9021 10.293 29.805 9.8585 29.6106 9.5945C29.42 9.32683 29.1065 9.193 28.6701 9.193C28.1605 9.193 27.7846 9.34883 27.5426 9.6605C27.3043 9.9685 27.1851 10.425 27.1851 11.03C27.1851 11.5837 27.3043 12.0127 27.5426 12.317C27.7846 12.6177 28.1385 12.768 28.6041 12.768C28.8975 12.768 29.1486 12.7038 29.3576 12.5755C29.5666 12.4472 29.7261 12.262 29.8361 12.02L31.3321 12.449C31.1085 12.9917 30.7546 13.4133 30.2706 13.714C29.7903 14.0147 29.2641 14.165 28.6921 14.165ZM26.7231 11.448V10.337H30.6611V11.448H26.7231ZM36.5104 14V11.195C36.5104 11.0593 36.503 10.887 36.4884 10.678C36.4737 10.4653 36.4279 10.2527 36.3509 10.04C36.2739 9.82733 36.1474 9.6495 35.9714 9.5065C35.799 9.3635 35.5534 9.292 35.2344 9.292C35.106 9.292 34.9685 9.31217 34.8219 9.3525C34.6752 9.39283 34.5377 9.47167 34.4094 9.589C34.281 9.70267 34.1747 9.87133 34.0904 10.095C34.0097 10.3187 33.9694 10.6157 33.9694 10.986L33.1114 10.579C33.1114 10.1097 33.2067 9.66967 33.3974 9.259C33.588 8.84833 33.874 8.5165 34.2554 8.2635C34.6404 8.0105 35.1244 7.884 35.7074 7.884C36.173 7.884 36.5525 7.96283 36.8459 8.1205C37.1392 8.27817 37.3665 8.478 37.5279 8.72C37.6929 8.962 37.8102 9.215 37.8799 9.479C37.9495 9.73933 37.9917 9.97767 38.0064 10.194C38.021 10.4103 38.0284 10.568 38.0284 10.667V14H36.5104ZM32.4514 14V8.06H33.7824V10.029H33.9694V14H32.4514ZM41.7571 14.165C41.2108 14.165 40.7323 14.0275 40.3216 13.7525C39.911 13.4775 39.5901 13.1035 39.3591 12.6305C39.1318 12.1575 39.0181 11.624 39.0181 11.03C39.0181 10.425 39.1336 9.88783 39.3646 9.4185C39.5993 8.9455 39.9275 8.57333 40.3491 8.302C40.7708 8.03067 41.2658 7.895 41.8341 7.895C42.3988 7.895 42.8736 8.0325 43.2586 8.3075C43.6436 8.5825 43.9351 8.9565 44.1331 9.4295C44.3311 9.9025 44.4301 10.436 44.4301 11.03C44.4301 11.624 44.3293 12.1575 44.1276 12.6305C43.9296 13.1035 43.6326 13.4775 43.2366 13.7525C42.8406 14.0275 42.3475 14.165 41.7571 14.165ZM41.9991 12.834C42.3328 12.834 42.5986 12.7588 42.7966 12.6085C42.9983 12.4582 43.1431 12.2473 43.2311 11.976C43.3191 11.7047 43.3631 11.3893 43.3631 11.03C43.3631 10.6707 43.3191 10.3553 43.2311 10.084C43.1431 9.81267 43.002 9.60183 42.8076 9.4515C42.617 9.30117 42.3658 9.226 42.0541 9.226C41.7205 9.226 41.4455 9.3085 41.2291 9.4735C41.0165 9.63483 40.8588 9.853 40.7561 10.128C40.6535 10.3993 40.6021 10.7 40.6021 11.03C40.6021 11.3637 40.6516 11.668 40.7506 11.943C40.8496 12.2143 41.0018 12.4307 41.2071 12.592C41.4125 12.7533 41.6765 12.834 41.9991 12.834ZM43.3631 14V9.93H43.1761V6.08H44.6831V14H43.3631ZM46.3331 7.235V5.915H47.8291V7.235H46.3331ZM46.3331 14V8.06H47.8291V14H46.3331ZM53.526 14V11.195C53.526 11.0593 53.5187 10.887 53.504 10.678C53.4893 10.4653 53.4435 10.2527 53.3665 10.04C53.2895 9.82733 53.163 9.6495 52.987 9.5065C52.8147 9.3635 52.569 9.292 52.25 9.292C52.1217 9.292 51.9842 9.31217 51.8375 9.3525C51.6908 9.39283 51.5533 9.47167 51.425 9.589C51.2967 9.70267 51.1903 9.87133 51.106 10.095C51.0253 10.3187 50.985 10.6157 50.985 10.986L50.127 10.579C50.127 10.1097 50.2223 9.66967 50.413 9.259C50.6037 8.84833 50.8897 8.5165 51.271 8.2635C51.656 8.0105 52.14 7.884 52.723 7.884C53.1887 7.884 53.5682 7.96283 53.8615 8.1205C54.1548 8.27817 54.3822 8.478 54.5435 8.72C54.7085 8.962 54.8258 9.215 54.8955 9.479C54.9652 9.73933 55.0073 9.97767 55.022 10.194C55.0367 10.4103 55.044 10.568 55.044 10.667V14H53.526ZM49.467 14V8.06H50.798V10.029H50.985V14H49.467ZM59.0122 16.805C58.6748 16.805 58.354 16.75 58.0497 16.64C57.7453 16.5337 57.4722 16.3833 57.2302 16.189C56.9918 15.9983 56.7975 15.7747 56.6472 15.518L58.0332 14.847C58.1285 15.023 58.2642 15.1568 58.4402 15.2485C58.6198 15.3402 58.8142 15.386 59.0232 15.386C59.2468 15.386 59.4577 15.3475 59.6557 15.2705C59.8537 15.1972 60.0113 15.0853 60.1287 14.935C60.2497 14.7883 60.3065 14.605 60.2992 14.385V12.658H60.4862V8.06H61.7952V14.407C61.7952 14.5537 61.7878 14.6912 61.7732 14.8195C61.7622 14.9515 61.7402 15.0817 61.7072 15.21C61.6118 15.573 61.434 15.8718 61.1737 16.1065C60.917 16.3412 60.6017 16.5153 60.2277 16.629C59.8537 16.7463 59.4485 16.805 59.0122 16.805ZM58.8802 14.165C58.3338 14.165 57.8553 14.0275 57.4447 13.7525C57.034 13.4775 56.7132 13.1035 56.4822 12.6305C56.2548 12.1575 56.1412 11.624 56.1412 11.03C56.1412 10.425 56.2567 9.88783 56.4877 9.4185C56.7223 8.9455 57.0505 8.57333 57.4722 8.302C57.8938 8.03067 58.3888 7.895 58.9572 7.895C59.5218 7.895 59.9967 8.0325 60.3817 8.3075C60.7667 8.5825 61.0582 8.9565 61.2562 9.4295C61.4542 9.9025 61.5532 10.436 61.5532 11.03C61.5532 11.624 61.4523 12.1575 61.2507 12.6305C61.0527 13.1035 60.7557 13.4775 60.3597 13.7525C59.9637 14.0275 59.4705 14.165 58.8802 14.165ZM59.1222 12.834C59.4558 12.834 59.7217 12.7588 59.9197 12.6085C60.1213 12.4582 60.2662 12.2473 60.3542 11.976C60.4422 11.7047 60.4862 11.3893 60.4862 11.03C60.4862 10.6707 60.4422 10.3553 60.3542 10.084C60.2662 9.81267 60.125 9.60183 59.9307 9.4515C59.74 9.30117 59.4888 9.226 59.1772 9.226C58.8435 9.226 58.5685 9.3085 58.3522 9.4735C58.1395 9.63483 57.9818 9.853 57.8792 10.128C57.7765 10.3993 57.7252 10.7 57.7252 11.03C57.7252 11.3637 57.7747 11.668 57.8737 11.943C57.9727 12.2143 58.1248 12.4307 58.3302 12.592C58.5355 12.7533 58.7995 12.834 59.1222 12.834ZM64.9876 14L67.4076 6.08H69.6406L72.0606 14H70.5206L68.3646 7.015H68.6506L66.5276 14H64.9876ZM66.4396 12.35V10.953H70.6196V12.35H66.4396ZM75.9614 14.165C75.371 14.165 74.8779 14.0275 74.4819 13.7525C74.0859 13.4775 73.787 13.1035 73.5854 12.6305C73.3874 12.1575 73.2884 11.624 73.2884 11.03C73.2884 10.436 73.3874 9.9025 73.5854 9.4295C73.7834 8.9565 74.0749 8.5825 74.4599 8.3075C74.8449 8.0325 75.3197 7.895 75.8844 7.895C76.4527 7.895 76.9477 8.03067 77.3694 8.302C77.791 8.57333 78.1174 8.9455 78.3484 9.4185C78.583 9.88783 78.7004 10.425 78.7004 11.03C78.7004 11.624 78.5849 12.1575 78.3539 12.6305C78.1265 13.1035 77.8075 13.4775 77.3969 13.7525C76.9862 14.0275 76.5077 14.165 75.9614 14.165ZM73.0354 16.64V8.06H74.3554V12.13H74.5424V16.64H73.0354ZM75.7194 12.834C76.042 12.834 76.306 12.7533 76.5114 12.592C76.7167 12.4307 76.8689 12.2143 76.9679 11.943C77.0669 11.668 77.1164 11.3637 77.1164 11.03C77.1164 10.7 77.065 10.3993 76.9624 10.128C76.8597 9.853 76.7002 9.63483 76.4839 9.4735C76.2712 9.3085 75.998 9.226 75.6644 9.226C75.3527 9.226 75.0997 9.30117 74.9054 9.4515C74.7147 9.60183 74.5754 9.81267 74.4874 10.084C74.3994 10.3553 74.3554 10.6707 74.3554 11.03C74.3554 11.3893 74.3994 11.7047 74.4874 11.976C74.5754 12.2473 74.7184 12.4582 74.9164 12.6085C75.118 12.7588 75.3857 12.834 75.7194 12.834ZM82.8256 14.165C82.2353 14.165 81.7421 14.0275 81.3461 13.7525C80.9501 13.4775 80.6513 13.1035 80.4496 12.6305C80.2516 12.1575 80.1526 11.624 80.1526 11.03C80.1526 10.436 80.2516 9.9025 80.4496 9.4295C80.6476 8.9565 80.9391 8.5825 81.3241 8.3075C81.7091 8.0325 82.184 7.895 82.7486 7.895C83.317 7.895 83.812 8.03067 84.2336 8.302C84.6553 8.57333 84.9816 8.9455 85.2126 9.4185C85.4473 9.88783 85.5646 10.425 85.5646 11.03C85.5646 11.624 85.4491 12.1575 85.2181 12.6305C84.9908 13.1035 84.6718 13.4775 84.2611 13.7525C83.8505 14.0275 83.372 14.165 82.8256 14.165ZM79.8996 16.64V8.06H81.2196V12.13H81.4066V16.64H79.8996ZM82.5836 12.834C82.9063 12.834 83.1703 12.7533 83.3756 12.592C83.581 12.4307 83.7331 12.2143 83.8321 11.943C83.9311 11.668 83.9806 11.3637 83.9806 11.03C83.9806 10.7 83.9293 10.3993 83.8266 10.128C83.724 9.853 83.5645 9.63483 83.3481 9.4735C83.1355 9.3085 82.8623 9.226 82.5286 9.226C82.217 9.226 81.964 9.30117 81.7696 9.4515C81.579 9.60183 81.4396 9.81267 81.3516 10.084C81.2636 10.3553 81.2196 10.6707 81.2196 11.03C81.2196 11.3893 81.2636 11.7047 81.3516 11.976C81.4396 12.2473 81.5826 12.4582 81.7806 12.6085C81.9823 12.7588 82.25 12.834 82.5836 12.834ZM86.7749 14V8.06H88.0949V9.512L87.9519 9.325C88.0289 9.11967 88.1315 8.93267 88.2599 8.764C88.3882 8.59533 88.5459 8.456 88.7329 8.346C88.8759 8.258 89.0317 8.19017 89.2004 8.1425C89.369 8.09117 89.5432 8.06 89.7229 8.049C89.9025 8.03433 90.0822 8.038 90.2619 8.06V9.457C90.0969 9.40567 89.9044 9.38917 89.6844 9.4075C89.468 9.42217 89.2719 9.47167 89.0959 9.556C88.9199 9.63667 88.7714 9.74483 88.6504 9.8805C88.5294 10.0125 88.4377 10.1702 88.3754 10.3535C88.313 10.5332 88.2819 10.7367 88.2819 10.964V14H86.7749ZM93.8737 14.165C93.276 14.165 92.7517 14.0312 92.3007 13.7635C91.8497 13.4958 91.4977 13.1273 91.2447 12.658C90.9953 12.185 90.8707 11.6423 90.8707 11.03C90.8707 10.4103 90.999 9.86583 91.2557 9.3965C91.5123 8.9235 91.8662 8.555 92.3172 8.291C92.7682 8.027 93.287 7.895 93.8737 7.895C94.4713 7.895 94.9957 8.02883 95.4467 8.2965C95.9013 8.56417 96.2552 8.9345 96.5082 9.4075C96.7612 9.87683 96.8877 10.4177 96.8877 11.03C96.8877 11.646 96.7593 12.1905 96.5027 12.6635C96.2497 13.1328 95.8958 13.5013 95.4412 13.769C94.9902 14.033 94.4677 14.165 93.8737 14.165ZM93.8737 12.768C94.354 12.768 94.7115 12.6067 94.9462 12.284C95.1845 11.9577 95.3037 11.5397 95.3037 11.03C95.3037 10.502 95.1827 10.0803 94.9407 9.765C94.7023 9.44967 94.3467 9.292 93.8737 9.292C93.5473 9.292 93.2797 9.36533 93.0707 9.512C92.8617 9.65867 92.7058 9.86217 92.6032 10.1225C92.5042 10.3828 92.4547 10.6853 92.4547 11.03C92.4547 11.5617 92.5738 11.9852 92.8122 12.3005C93.0542 12.6122 93.408 12.768 93.8737 12.768ZM99.4883 14L97.3323 8.06H98.8283L100.236 12.174L101.644 8.06H103.14L100.984 14H99.4883ZM105.451 14.165C105.026 14.165 104.665 14.0843 104.368 13.923C104.074 13.758 103.851 13.5398 103.697 13.2685C103.546 12.9935 103.471 12.691 103.471 12.361C103.471 12.086 103.513 11.8348 103.598 11.6075C103.682 11.3802 103.818 11.1803 104.005 11.008C104.195 10.832 104.45 10.6853 104.769 10.568C104.989 10.4873 105.251 10.4158 105.556 10.3535C105.86 10.2912 106.205 10.2325 106.59 10.1775C106.975 10.1188 107.398 10.0547 107.86 9.985L107.321 10.282C107.321 9.93 107.237 9.6715 107.068 9.5065C106.9 9.3415 106.617 9.259 106.221 9.259C106.001 9.259 105.772 9.31217 105.534 9.4185C105.295 9.52483 105.129 9.71367 105.033 9.985L103.68 9.556C103.831 9.06467 104.113 8.665 104.527 8.357C104.942 8.049 105.506 7.895 106.221 7.895C106.746 7.895 107.211 7.97567 107.618 8.137C108.025 8.29833 108.333 8.577 108.542 8.973C108.66 9.193 108.729 9.413 108.751 9.633C108.773 9.853 108.784 10.0987 108.784 10.37V14H107.475V12.779L107.662 13.032C107.373 13.4317 107.059 13.7213 106.722 13.901C106.388 14.077 105.965 14.165 105.451 14.165ZM105.77 12.988C106.045 12.988 106.276 12.9403 106.463 12.845C106.654 12.746 106.804 12.6342 106.914 12.5095C107.028 12.3848 107.105 12.2803 107.145 12.196C107.222 12.0347 107.266 11.8477 107.277 11.635C107.292 11.4187 107.299 11.239 107.299 11.096L107.739 11.206C107.296 11.2793 106.936 11.3417 106.661 11.393C106.386 11.4407 106.164 11.4847 105.996 11.525C105.827 11.5653 105.679 11.6093 105.55 11.657C105.404 11.7157 105.284 11.7798 105.193 11.8495C105.105 11.9155 105.039 11.9888 104.995 12.0695C104.954 12.1502 104.934 12.24 104.934 12.339C104.934 12.4747 104.967 12.592 105.033 12.691C105.103 12.7863 105.2 12.8597 105.325 12.911C105.449 12.9623 105.598 12.988 105.77 12.988ZM110.324 14V5.915H111.82V14H110.324Z" fill="#2A2828"/>
<circle cx="8.11426" cy="10" r="4" fill="#E7AE1C"/>
</svg>
