<svg width="24" height="24" viewBox="0 0 24 24" fill="none" xmlns="http://www.w3.org/2000/svg">
<g clip-path="url(#clip0_2726_757)">
<path d="M9 12C9.25488 12.0003 9.50003 12.0979 9.68537 12.2728C9.8707 12.4478 9.98224 12.687 9.99717 12.9414C10.0121 13.1958 9.92933 13.4464 9.76574 13.6418C9.60215 13.8373 9.3701 13.9629 9.117 13.993L9 14H4V15C4.00003 15.2449 4.08996 15.4813 4.25272 15.6644C4.41547 15.8474 4.63975 15.9643 4.883 15.993L5 16H6.5C6.87288 16 7.23239 16.1389 7.50842 16.3896C7.78445 16.6403 7.9572 16.9848 7.993 17.356L8 17.5V18L10.133 16.4C10.429 16.1782 10.7807 16.0429 11.149 16.009L11.333 16H18C18.2449 16 18.4813 15.91 18.6644 15.7473C18.8474 15.5845 18.9643 15.3603 18.993 15.117L19 15V12H21V15C21 15.7652 20.7077 16.5015 20.1827 17.0583C19.6578 17.615 18.9399 17.9501 18.176 17.995L18 18H11.333L8 20.5C7.209 21.093 6.094 20.575 6.006 19.621L6 19.5V18H5C4.23479 18 3.49849 17.7077 2.94174 17.1827C2.38499 16.6578 2.04989 15.9399 2.005 15.176L2 15V13C2.00003 12.7551 2.08996 12.5187 2.25272 12.3356C2.41547 12.1526 2.63975 12.0357 2.883 12.007L3 12H9ZM15 12C15.2549 12.0003 15.5 12.0979 15.6854 12.2728C15.8707 12.4478 15.9822 12.687 15.9972 12.9414C16.0121 13.1958 15.9293 13.4464 15.7657 13.6418C15.6021 13.8373 15.3701 13.9629 15.117 13.993L15 14H13C12.7451 13.9997 12.5 13.9021 12.3146 13.7272C12.1293 13.5522 12.0178 13.313 12.0028 13.0586C11.9879 12.8042 12.0707 12.5536 12.2343 12.3582C12.3979 12.1627 12.6299 12.0371 12.883 12.007L13 12H15ZM7 8C7.25488 8.00028 7.50003 8.09788 7.68537 8.27285C7.8707 8.44782 7.98223 8.68695 7.99717 8.94139C8.01211 9.19584 7.92933 9.44638 7.76574 9.64183C7.60214 9.83729 7.3701 9.9629 7.117 9.993L7 10H5C4.74512 9.99972 4.49997 9.90212 4.31463 9.72715C4.1293 9.55218 4.01777 9.31305 4.00283 9.05861C3.98789 8.80416 4.07067 8.55362 4.23426 8.35817C4.39786 8.16271 4.6299 8.0371 4.883 8.007L5 8H7ZM19 8L19.117 8.007C19.3601 8.03591 19.5841 8.15296 19.7466 8.33597C19.9091 8.51897 19.9989 8.75524 19.9989 9C19.9989 9.24476 19.9091 9.48103 19.7466 9.66403C19.5841 9.84704 19.3601 9.96409 19.117 9.993L19 10H11C10.7451 9.99972 10.5 9.90212 10.3146 9.72715C10.1293 9.55218 10.0178 9.31305 10.0028 9.05861C9.98789 8.80416 10.0707 8.55362 10.2343 8.35817C10.3979 8.16271 10.6299 8.0371 10.883 8.007L11 8H19ZM18 3C18.7652 2.99996 19.5015 3.29233 20.0583 3.81728C20.615 4.34224 20.9501 5.06011 20.995 5.824L21 6V8H19V6C19 5.75507 18.91 5.51866 18.7473 5.33563C18.5845 5.15259 18.3603 5.03566 18.117 5.007L18 5H5C4.75507 5.00003 4.51866 5.08996 4.33563 5.25272C4.15259 5.41547 4.03566 5.63975 4.007 5.883L4 6V8H2V6C1.99996 5.23479 2.29233 4.49849 2.81728 3.94174C3.34224 3.38499 4.06011 3.04989 4.824 3.005L5 3H18Z" fill="#8C95A3"/>
</g>
<defs>
<clipPath id="clip0_2726_757">
<rect width="24" height="24" fill="white"/>
</clipPath>
</defs>
</svg>
