<svg width="20" height="20" viewBox="0 0 20 20" fill="none" xmlns="http://www.w3.org/2000/svg">
<g clip-path="url(#clip0_2726_794)">
<path d="M9.9783 1.66675C14.5708 1.66675 18.2935 5.39758 18.2935 10.0001C18.2935 14.6026 14.5708 18.3334 9.9783 18.3334C5.38581 18.3334 1.66309 14.6026 1.66309 10.0001C1.66309 5.39758 5.38581 1.66675 9.9783 1.66675ZM9.9783 3.33341C8.21404 3.33341 6.52203 4.03579 5.27451 5.28604C4.02698 6.53628 3.32613 8.23197 3.32613 10.0001C3.32613 11.7682 4.02698 13.4639 5.27451 14.7141C6.52203 15.9644 8.21404 16.6667 9.9783 16.6667C11.7426 16.6667 13.4346 15.9644 14.6821 14.7141C15.9296 13.4639 16.6305 11.7682 16.6305 10.0001C16.6305 8.23197 15.9296 6.53628 14.6821 5.28604C13.4346 4.03579 11.7426 3.33341 9.9783 3.33341ZM8.21465 7.05341L9.9783 8.82175L11.742 7.05341C11.8192 6.97599 11.9109 6.91457 12.0119 6.87267C12.1128 6.83077 12.221 6.8092 12.3303 6.8092C12.4395 6.8092 12.5477 6.83077 12.6487 6.87267C12.7496 6.91457 12.8413 6.97599 12.9186 7.05341C12.9958 7.13084 13.0571 7.22276 13.0989 7.32392C13.1407 7.42508 13.1622 7.5335 13.1622 7.643C13.1622 7.75249 13.1407 7.86092 13.0989 7.96208C13.0571 8.06324 12.9958 8.15516 12.9186 8.23258L11.1541 9.99925L12.9186 11.7676C13.0746 11.9239 13.1622 12.136 13.1622 12.3572C13.1622 12.5783 13.0746 12.7904 12.9186 12.9467C12.7625 13.1031 12.5509 13.191 12.3303 13.191C12.1096 13.191 11.898 13.1031 11.742 12.9467L9.9783 11.1784L8.21465 12.9467C8.05862 13.1031 7.847 13.191 7.62634 13.191C7.40569 13.191 7.19407 13.1031 7.03804 12.9467C6.88202 12.7904 6.79436 12.5783 6.79436 12.3572C6.79436 12.136 6.88202 11.9239 7.03804 11.7676L8.80253 10.0001L7.03887 8.23258C6.88285 8.07632 6.79515 7.86435 6.79507 7.64329C6.79499 7.42223 6.88254 7.2102 7.03846 7.05383C7.19438 6.89746 7.40589 6.80957 7.62647 6.8095C7.84704 6.80942 8.05862 6.89716 8.21465 7.05341Z" fill="#A72828"/>
</g>
<defs>
<clipPath id="clip0_2726_794">
<rect width="19.9565" height="20" fill="white"/>
</clipPath>
</defs>
</svg>
