<svg width="15" height="15" viewBox="0 0 15 15" fill="none" xmlns="http://www.w3.org/2000/svg">
<g clip-path="url(#clip0_2726_835)">
<path fill-rule="evenodd" clip-rule="evenodd" d="M7.50007 8.38384L11.0357 11.9195C11.1536 12.0333 11.3115 12.0963 11.4753 12.0949C11.6392 12.0935 11.796 12.0277 11.9118 11.9119C12.0277 11.796 12.0934 11.6392 12.0949 11.4753C12.0963 11.3115 12.0333 11.1536 11.9194 11.0357L8.38382 7.50009L11.9194 3.96447C12.0333 3.84659 12.0963 3.68872 12.0949 3.52484C12.0934 3.36097 12.0277 3.20421 11.9118 3.08833C11.796 2.97245 11.6392 2.90672 11.4753 2.9053C11.3115 2.90387 11.1536 2.96687 11.0357 3.08072L7.50007 6.61634L3.96445 3.08072C3.84604 2.96968 3.68908 2.90907 3.52678 2.91171C3.36448 2.91434 3.20957 2.98002 3.09483 3.09484C2.98009 3.20966 2.91452 3.36462 2.912 3.52692C2.90948 3.68922 2.9702 3.84614 3.08132 3.96447L6.61632 7.50009L3.0807 11.0357C3.021 11.0934 2.97339 11.1623 2.94063 11.2386C2.90788 11.3148 2.89064 11.3969 2.88992 11.4798C2.8892 11.5628 2.90501 11.6451 2.93643 11.7219C2.96786 11.7987 3.01427 11.8685 3.07295 11.9272C3.13163 11.9859 3.20142 12.0323 3.27823 12.0637C3.35504 12.0952 3.43734 12.111 3.52032 12.1102C3.60331 12.1095 3.68532 12.0923 3.76158 12.0595C3.83783 12.0268 3.90679 11.9792 3.96445 11.9195L7.50007 8.38384Z" fill="#CA2626"/>
</g>
<defs>
<clipPath id="clip0_2726_835">
<rect width="15" height="15" fill="white"/>
</clipPath>
</defs>
</svg>
