<svg width="121" height="19" viewBox="0 0 121 19" fill="none" xmlns="http://www.w3.org/2000/svg">
<rect width="120.7" height="19" rx="9.5" fill="#FFD3D3"/>
<path d="M36.77 14V6.08H40.114C40.191 6.08 40.2937 6.08367 40.422 6.091C40.554 6.09467 40.6713 6.10567 40.774 6.124C41.247 6.19733 41.6338 6.35317 41.9345 6.5915C42.2388 6.82983 42.4625 7.1305 42.6055 7.4935C42.7485 7.85283 42.82 8.25433 42.82 8.698C42.82 9.36167 42.655 9.93 42.325 10.403C41.995 10.8723 41.478 11.162 40.774 11.272L40.114 11.316H38.266V14H36.77ZM41.236 14L39.674 10.777L41.214 10.48L42.93 14H41.236ZM38.266 9.919H40.048C40.125 9.919 40.2093 9.91533 40.301 9.908C40.3927 9.90067 40.477 9.886 40.554 9.864C40.7557 9.809 40.9115 9.71733 41.0215 9.589C41.1315 9.457 41.2067 9.31217 41.247 9.1545C41.291 8.99317 41.313 8.841 41.313 8.698C41.313 8.555 41.291 8.40467 41.247 8.247C41.2067 8.08567 41.1315 7.94083 41.0215 7.8125C40.9115 7.6805 40.7557 7.587 40.554 7.532C40.477 7.51 40.3927 7.49533 40.301 7.488C40.2093 7.48067 40.125 7.477 40.048 7.477H38.266V9.919ZM46.9001 14.165C46.2915 14.165 45.7543 14.0348 45.2886 13.7745C44.8266 13.5105 44.4636 13.1493 44.1996 12.691C43.9393 12.229 43.8091 11.701 43.8091 11.107C43.8091 10.458 43.9375 9.89333 44.1941 9.413C44.4508 8.93267 44.8046 8.5605 45.2556 8.2965C45.7066 8.02883 46.2255 7.895 46.8121 7.895C47.4355 7.895 47.9653 8.04167 48.4016 8.335C48.838 8.62833 49.1606 9.04083 49.3696 9.5725C49.5786 10.1042 49.652 10.7293 49.5896 11.448H48.1101V10.898C48.1101 10.293 48.013 9.8585 47.8186 9.5945C47.628 9.32683 47.3145 9.193 46.8781 9.193C46.3685 9.193 45.9926 9.34883 45.7506 9.6605C45.5123 9.9685 45.3931 10.425 45.3931 11.03C45.3931 11.5837 45.5123 12.0127 45.7506 12.317C45.9926 12.6177 46.3465 12.768 46.8121 12.768C47.1055 12.768 47.3566 12.7038 47.5656 12.5755C47.7746 12.4472 47.9341 12.262 48.0441 12.02L49.5401 12.449C49.3165 12.9917 48.9626 13.4133 48.4786 13.714C47.9983 14.0147 47.4721 14.165 46.9001 14.165ZM44.9311 11.448V10.337H48.8691V11.448H44.9311ZM49.9515 16.64V15.243H50.2155C50.5565 15.243 50.7894 15.166 50.914 15.012C51.0424 14.858 51.1065 14.638 51.1065 14.352V8.06H52.6025V15.078C52.6025 15.551 52.454 15.9287 52.157 16.211C51.8637 16.497 51.4659 16.64 50.9635 16.64H49.9515ZM51.1065 7.235V5.915H52.6025V7.235H51.1065ZM56.9011 14.165C56.2925 14.165 55.7553 14.0348 55.2896 13.7745C54.8276 13.5105 54.4646 13.1493 54.2006 12.691C53.9403 12.229 53.8101 11.701 53.8101 11.107C53.8101 10.458 53.9385 9.89333 54.1951 9.413C54.4518 8.93267 54.8056 8.5605 55.2566 8.2965C55.7076 8.02883 56.2265 7.895 56.8131 7.895C57.4365 7.895 57.9663 8.04167 58.4026 8.335C58.839 8.62833 59.1616 9.04083 59.3706 9.5725C59.5796 10.1042 59.653 10.7293 59.5906 11.448H58.1111V10.898C58.1111 10.293 58.014 9.8585 57.8196 9.5945C57.629 9.32683 57.3155 9.193 56.8791 9.193C56.3695 9.193 55.9936 9.34883 55.7516 9.6605C55.5133 9.9685 55.3941 10.425 55.3941 11.03C55.3941 11.5837 55.5133 12.0127 55.7516 12.317C55.9936 12.6177 56.3475 12.768 56.8131 12.768C57.1065 12.768 57.3576 12.7038 57.5666 12.5755C57.7756 12.4472 57.9351 12.262 58.0451 12.02L59.5411 12.449C59.3175 12.9917 58.9636 13.4133 58.4796 13.714C57.9993 14.0147 57.4731 14.165 56.9011 14.165ZM54.9321 11.448V10.337H58.8701V11.448H54.9321ZM63.4505 14.165C62.8345 14.165 62.3065 14.0275 61.8665 13.7525C61.4265 13.4775 61.0892 13.1035 60.8545 12.6305C60.6198 12.1575 60.5025 11.624 60.5025 11.03C60.5025 10.4287 60.6235 9.8915 60.8655 9.4185C61.1112 8.9455 61.4558 8.57333 61.8995 8.302C62.3432 8.03067 62.8675 7.895 63.4725 7.895C64.1728 7.895 64.7595 8.07283 65.2325 8.4285C65.7092 8.7805 66.0135 9.26267 66.1455 9.875L64.6495 10.271C64.5615 9.963 64.4075 9.72283 64.1875 9.5505C63.9712 9.37817 63.7255 9.292 63.4505 9.292C63.1352 9.292 62.8767 9.369 62.675 9.523C62.4733 9.67333 62.3248 9.8805 62.2295 10.1445C62.1342 10.4048 62.0865 10.7 62.0865 11.03C62.0865 11.547 62.2002 11.9668 62.4275 12.2895C62.6585 12.6085 62.9995 12.768 63.4505 12.768C63.7878 12.768 64.0445 12.691 64.2205 12.537C64.3965 12.383 64.5285 12.163 64.6165 11.877L66.1455 12.196C65.9768 12.8267 65.6578 13.3125 65.1885 13.6535C64.7192 13.9945 64.1398 14.165 63.4505 14.165ZM70.8096 14C70.3989 14.077 69.9956 14.11 69.5996 14.099C69.2073 14.0917 68.8553 14.0238 68.5436 13.8955C68.2356 13.7635 68.0009 13.5527 67.8396 13.263C67.6929 12.9917 67.6159 12.7167 67.6086 12.438C67.6013 12.1557 67.5976 11.8367 67.5976 11.481V6.41H69.0936V11.393C69.0936 11.624 69.0954 11.833 69.0991 12.02C69.1064 12.2033 69.1449 12.35 69.2146 12.46C69.3466 12.669 69.5574 12.7827 69.8471 12.801C70.1368 12.8193 70.4576 12.8047 70.8096 12.757V14ZM66.5856 9.215V8.06H70.8096V9.215H66.5856ZM74.572 14.165C73.9633 14.165 73.4262 14.0348 72.9605 13.7745C72.4985 13.5105 72.1355 13.1493 71.8715 12.691C71.6112 12.229 71.481 11.701 71.481 11.107C71.481 10.458 71.6093 9.89333 71.866 9.413C72.1227 8.93267 72.4765 8.5605 72.9275 8.2965C73.3785 8.02883 73.8973 7.895 74.484 7.895C75.1073 7.895 75.6372 8.04167 76.0735 8.335C76.5098 8.62833 76.8325 9.04083 77.0415 9.5725C77.2505 10.1042 77.3238 10.7293 77.2615 11.448H75.782V10.898C75.782 10.293 75.6848 9.8585 75.4905 9.5945C75.2998 9.32683 74.9863 9.193 74.55 9.193C74.0403 9.193 73.6645 9.34883 73.4225 9.6605C73.1842 9.9685 73.065 10.425 73.065 11.03C73.065 11.5837 73.1842 12.0127 73.4225 12.317C73.6645 12.6177 74.0183 12.768 74.484 12.768C74.7773 12.768 75.0285 12.7038 75.2375 12.5755C75.4465 12.4472 75.606 12.262 75.716 12.02L77.212 12.449C76.9883 12.9917 76.6345 13.4133 76.1505 13.714C75.6702 14.0147 75.144 14.165 74.572 14.165ZM72.603 11.448V10.337H76.541V11.448H72.603ZM80.9124 14.165C80.3661 14.165 79.8876 14.0275 79.4769 13.7525C79.0662 13.4775 78.7454 13.1035 78.5144 12.6305C78.2871 12.1575 78.1734 11.624 78.1734 11.03C78.1734 10.425 78.2889 9.88783 78.5199 9.4185C78.7546 8.9455 79.0827 8.57333 79.5044 8.302C79.9261 8.03067 80.4211 7.895 80.9894 7.895C81.5541 7.895 82.0289 8.0325 82.4139 8.3075C82.7989 8.5825 83.0904 8.9565 83.2884 9.4295C83.4864 9.9025 83.5854 10.436 83.5854 11.03C83.5854 11.624 83.4846 12.1575 83.2829 12.6305C83.0849 13.1035 82.7879 13.4775 82.3919 13.7525C81.9959 14.0275 81.5027 14.165 80.9124 14.165ZM81.1544 12.834C81.4881 12.834 81.7539 12.7588 81.9519 12.6085C82.1536 12.4582 82.2984 12.2473 82.3864 11.976C82.4744 11.7047 82.5184 11.3893 82.5184 11.03C82.5184 10.6707 82.4744 10.3553 82.3864 10.084C82.2984 9.81267 82.1572 9.60183 81.9629 9.4515C81.7722 9.30117 81.5211 9.226 81.2094 9.226C80.8757 9.226 80.6007 9.3085 80.3844 9.4735C80.1717 9.63483 80.0141 9.853 79.9114 10.128C79.8087 10.3993 79.7574 10.7 79.7574 11.03C79.7574 11.3637 79.8069 11.668 79.9059 11.943C80.0049 12.2143 80.1571 12.4307 80.3624 12.592C80.5677 12.7533 80.8317 12.834 81.1544 12.834ZM82.5184 14V9.93H82.3314V6.08H83.8384V14H82.5184Z" fill="#2A2828"/>
<circle cx="8" cy="10" r="4" fill="#CA2626"/>
</svg>
