<svg width="20" height="19" viewBox="0 0 20 19" fill="none" xmlns="http://www.w3.org/2000/svg">
<path d="M15.7257 3.67284L15.9917 3.74808C16.4044 3.87029 16.8617 4.04188 17.1132 4.35545C17.3654 4.66979 17.4143 5.12914 17.4249 5.53462L17.4283 5.79432C17.4317 6.4075 17.3434 7.19828 17.0685 8.05093C16.5263 9.73373 15.2575 11.6533 12.5775 12.9011C12.5495 13.0174 12.5287 13.1352 12.5153 13.2539L12.4765 13.614C12.4497 13.854 12.4117 14.0917 12.309 14.3108C12.1138 14.7276 11.5974 14.9477 11.1235 15.0908L10.892 15.1571L10.5944 15.2336L10.3923 15.2792C9.87034 15.3873 9.25333 15.4275 8.91353 15.0032C8.75942 14.8111 8.70937 14.5724 8.67549 14.336L8.65925 14.2179C8.60358 13.8013 8.53279 13.3854 8.42859 12.9774C8.37763 13.0213 8.3244 13.0628 8.26909 13.1017C7.8353 13.4068 7.29044 13.5144 6.75138 13.581L6.39377 13.6214L6.03732 13.6587L5.69025 13.6905L5.37737 13.7137L5.00382 13.735L4.77098 13.7446C4.65496 13.7484 4.5392 13.7256 4.43373 13.6781C4.32825 13.6305 4.23623 13.5597 4.16563 13.4717C4.09503 13.3837 4.04798 13.2812 4.02853 13.173C4.00909 13.0648 4.01784 12.9543 4.05404 12.8509L4.18355 12.4982L4.32823 12.1294L4.46303 11.8051L4.70013 11.2696C4.93348 10.7504 5.2029 10.2195 5.68526 9.88026L5.7637 9.82737L5.25321 9.57084L4.73898 9.32052C4.43734 9.1783 4.12028 9.02852 3.92171 8.781C3.55867 8.32848 3.82338 7.73967 4.10041 7.28659L4.25323 7.04759L4.37763 6.86249C4.66338 6.44901 5.05211 5.98139 5.57445 5.91641C5.82761 5.88481 6.08112 5.91655 6.33533 5.95848L6.71518 6.02421C6.84137 6.04404 6.96812 6.05991 7.09408 6.06624C9.1168 3.99988 11.4376 3.39086 13.3132 3.37008C14.1268 3.35913 14.9397 3.46114 15.7257 3.67284ZM13.3535 4.70485C11.7758 4.72255 9.78902 5.23464 8.03163 7.0974C7.81834 7.32316 7.50139 7.40029 7.1893 7.40271C7.01271 7.40472 6.83753 7.38672 6.66257 7.36203L6.13874 7.2807C6.05161 7.2684 5.96379 7.25601 5.8761 7.24767C5.62473 7.48421 5.43089 7.78004 5.27458 8.07914L6.27756 8.58764L6.6893 8.80262C7.44053 9.20624 8.15778 9.66768 8.66945 10.3055C9.53137 11.3798 9.8635 12.673 10.0521 13.9728C10.3874 13.9124 10.7283 13.8231 11.0281 13.6695L11.0672 13.4239L11.1292 12.9304C11.1524 12.7667 11.1826 12.6039 11.2339 12.4442C11.3224 12.1638 11.4902 11.9 11.7808 11.7707C14.1784 10.7059 15.2551 9.05946 15.7115 7.64396C15.9417 6.92909 16.0134 6.2713 16.0108 5.77875C16.0119 5.57471 15.9945 5.37066 15.9588 5.16882C15.7618 5.08086 15.5574 5.00877 15.3479 4.95333C14.6979 4.77943 14.026 4.69527 13.3535 4.70485ZM6.54586 10.9538C6.26039 11.1983 6.09398 11.5485 5.95051 11.8985L5.83087 12.1968L5.77109 12.3405L6.27396 12.3017C6.67256 12.2704 7.07864 12.2166 7.40788 12.0275C7.55717 11.9222 7.65494 11.7647 7.67967 11.5896C7.70441 11.4144 7.65409 11.2361 7.53977 11.0937C7.42546 10.9513 7.25653 10.8566 7.07014 10.8303C6.88374 10.8041 6.69515 10.8485 6.54586 10.9538ZM11.1816 6.84779C11.3295 6.74359 11.4982 6.66817 11.678 6.62586C11.8579 6.58354 12.0455 6.57515 12.2301 6.60117C12.4146 6.62718 12.5925 6.68709 12.7536 6.77747C12.9147 6.86786 13.0559 6.98694 13.1691 7.12794C13.2822 7.26893 13.3651 7.42907 13.4131 7.59921C13.4611 7.76934 13.4731 7.94615 13.4486 8.11953C13.4241 8.29291 13.3635 8.45947 13.2702 8.6097C13.1769 8.75993 13.0528 8.89088 12.905 8.99509C12.7571 9.09928 12.5884 9.17468 12.4084 9.21697C12.2285 9.25927 12.0409 9.26763 11.8563 9.24158C11.4835 9.18897 11.1457 8.9994 10.9172 8.71456C10.8041 8.57352 10.7212 8.41334 10.6732 8.24317C10.6253 8.07299 10.6132 7.89615 10.6378 7.72275C10.6874 7.37254 10.883 7.05823 11.1816 6.84779Z" fill="#EEC120"/>
</svg>
