<svg width="24" height="24" viewBox="0 0 24 24" fill="none" xmlns="http://www.w3.org/2000/svg">
<path fill-rule="evenodd" clip-rule="evenodd" d="M6.60534 6.51378C8.19352 7.05875 9.85683 5.9649 10.1523 4.45575C10.334 3.6714 10.5472 3.3284 10.7587 3.15285C10.9629 2.9834 11.3113 2.84999 12.068 2.84999C12.6537 2.84999 12.9861 2.99729 13.2032 3.2013C13.4367 3.42073 13.6532 3.81471 13.7831 4.52742L13.7831 4.52742L13.7839 4.53188C13.9393 5.35915 14.5088 5.98299 15.1708 6.3281C15.8347 6.67419 16.6676 6.78319 17.4528 6.50676C17.4637 6.50292 17.4746 6.49885 17.4853 6.49457C18.2385 6.19431 18.6479 6.20024 18.8979 6.28468C19.1438 6.36773 19.4259 6.5908 19.7748 7.18204C20.1315 7.78636 20.1785 8.1088 20.1375 8.32686C20.0947 8.55514 19.9136 8.8927 19.2771 9.42088L19.2655 9.43072C17.9883 10.5298 17.9883 12.4701 19.2655 13.5693L19.2771 13.5791C19.9136 14.1073 20.0947 14.4448 20.1375 14.6731C20.1785 14.8912 20.1315 15.2136 19.7748 15.8179C19.4278 16.4058 19.1415 16.6392 18.8818 16.7328C18.6166 16.8283 18.1994 16.8428 17.4486 16.5868C15.9257 16.0535 14.076 16.9607 13.7816 18.6708C13.6508 19.4305 13.4405 19.7311 13.2525 19.8767C13.0499 20.0337 12.6967 20.15 11.9699 20.15C11.2703 20.15 10.9103 20.0198 10.6987 19.8501C10.4937 19.6856 10.2861 19.3694 10.1574 18.6662C9.86049 16.9591 8.01272 16.054 6.49123 16.5867C5.74046 16.8428 5.32327 16.8283 5.05805 16.7328C4.79831 16.6392 4.512 16.4058 4.16501 15.8179C4.16026 15.8099 4.15537 15.8019 4.15036 15.794C3.8453 15.3141 3.81339 14.9815 3.87797 14.7201C3.95055 14.4262 4.18742 14.0489 4.75667 13.5825L4.77246 13.5693C6.07168 12.4512 5.92899 10.5134 4.678 9.52704C4.1104 8.97074 3.93319 8.61707 3.89201 8.36078C3.85282 8.11685 3.90911 7.78512 4.25591 7.19432C4.57397 6.6978 4.86755 6.48716 5.15513 6.39857C5.46389 6.30346 5.90801 6.3048 6.60534 6.51378ZM12.068 1.14999C11.1567 1.14999 10.3275 1.30159 9.67312 1.84463C9.02735 2.38052 8.7022 3.17439 8.49207 4.08984C8.48954 4.10088 8.48723 4.11197 8.48514 4.12311C8.37908 4.68781 7.70756 5.09964 7.14966 4.90323C7.13771 4.89902 7.12567 4.89508 7.11354 4.89141C6.25003 4.63016 5.42293 4.53725 4.65465 4.77391C3.86508 5.01714 3.27787 5.5639 2.81378 6.29402C2.80877 6.30192 2.80388 6.30989 2.79913 6.31794C2.36737 7.04945 2.08128 7.80732 2.21354 8.63046C2.34329 9.438 2.84689 10.1206 3.52865 10.7807C3.55386 10.8051 3.58055 10.8279 3.60858 10.849C4.07855 11.2029 4.11424 11.8861 3.66991 12.2752C2.96809 12.8521 2.42396 13.5173 2.22757 14.3124C2.0234 15.139 2.23346 15.9423 2.70802 16.6939C3.14487 17.4308 3.69102 18.0473 4.48188 18.3322C5.27114 18.6165 6.12876 18.5071 7.04411 18.1943L7.04413 18.1944L7.05154 18.1918C7.68662 17.9682 8.38501 18.3908 8.48285 18.9592L8.48281 18.9592L8.48431 18.9674C8.65004 19.8766 8.98174 20.6521 9.63499 21.1762C10.282 21.6952 11.0995 21.85 11.9699 21.85C12.8131 21.85 13.6375 21.7288 14.2935 21.2208C14.9641 20.7013 15.2934 19.9095 15.457 18.9592C15.5548 18.3908 16.2532 17.9682 16.8883 18.1918L16.8883 18.1918L16.8957 18.1943C17.8111 18.5071 18.6687 18.6165 19.4579 18.3322C20.2531 18.0458 20.8008 17.4242 21.2388 16.682C21.6672 15.9564 21.9636 15.1863 21.8083 14.3594C21.6554 13.5452 21.1034 12.8868 20.3696 12.2765C19.887 11.8565 19.887 11.1435 20.3696 10.7235C21.1034 10.1132 21.6554 9.45483 21.8083 8.64063C21.9636 7.81368 21.6672 7.04363 21.2388 6.31794C20.8028 5.57918 20.2508 4.94726 19.4418 4.67406C18.6426 4.40414 17.7828 4.54864 16.8749 4.90785C16.5837 5.00575 16.2451 4.97098 15.9567 4.82064C15.6627 4.66739 15.4964 4.43702 15.455 4.21978C15.2904 3.31864 14.9672 2.52618 14.3673 1.96243C13.7503 1.3827 12.9543 1.14999 12.068 1.14999ZM9.84998 11.5C9.84998 10.3126 10.8126 9.34999 12 9.34999C13.1874 9.34999 14.15 10.3126 14.15 11.5C14.15 12.6874 13.1874 13.65 12 13.65C10.8126 13.65 9.84998 12.6874 9.84998 11.5ZM12 7.64999C9.87369 7.64999 8.14998 9.3737 8.14998 11.5C8.14998 13.6263 9.87369 15.35 12 15.35C14.1263 15.35 15.85 13.6263 15.85 11.5C15.85 9.3737 14.1263 7.64999 12 7.64999Z" fill="#7C8DB5"/>
</svg>
