<svg width="12" height="12" viewBox="0 0 12 12" fill="none" xmlns="http://www.w3.org/2000/svg">
<g clip-path="url(#clip0_2799_1131)">
<path d="M9.5 1.5C9.76522 1.5 10.0196 1.60536 10.2071 1.79289C10.3946 1.98043 10.5 2.23478 10.5 2.5V9.5C10.5 9.76522 10.3946 10.0196 10.2071 10.2071C10.0196 10.3946 9.76522 10.5 9.5 10.5H2.5C2.23478 10.5 1.98043 10.3946 1.79289 10.2071C1.60536 10.0196 1.5 9.76522 1.5 9.5V2.5C1.5 2.23478 1.60536 1.98043 1.79289 1.79289C1.98043 1.60536 2.23478 1.5 2.5 1.5H9.5ZM9.5 4.5H2.5V9.5H9.5V4.5ZM4.25 7.5C4.38261 7.5 4.50979 7.55268 4.60355 7.64645C4.69732 7.74021 4.75 7.86739 4.75 8C4.75 8.13261 4.69732 8.25979 4.60355 8.35355C4.50979 8.44732 4.38261 8.5 4.25 8.5H3.75C3.61739 8.5 3.49021 8.44732 3.39645 8.35355C3.30268 8.25979 3.25 8.13261 3.25 8C3.25 7.86739 3.30268 7.74021 3.39645 7.64645C3.49021 7.55268 3.61739 7.5 3.75 7.5H4.25ZM6.25 7.5C6.37744 7.50014 6.50002 7.54894 6.59268 7.63642C6.68535 7.72391 6.74112 7.84348 6.74859 7.9707C6.75605 8.09792 6.71466 8.22319 6.63287 8.32092C6.55107 8.41864 6.43505 8.48145 6.3085 8.4965L6.25 8.5H5.75C5.62256 8.49986 5.49998 8.45106 5.40732 8.36358C5.31465 8.27609 5.25888 8.15652 5.25141 8.0293C5.24395 7.90208 5.28534 7.77681 5.36713 7.67908C5.44893 7.58136 5.56495 7.51855 5.6915 7.5035L5.75 7.5H6.25ZM4.25 5.5C4.37744 5.50014 4.50002 5.54894 4.59268 5.63642C4.68535 5.72391 4.74112 5.84348 4.74859 5.9707C4.75605 6.09792 4.71466 6.22319 4.63287 6.32092C4.55107 6.41864 4.43505 6.48145 4.3085 6.4965L4.25 6.5H3.75C3.62256 6.49986 3.49998 6.45106 3.40732 6.36358C3.31465 6.27609 3.25888 6.15652 3.25141 6.0293C3.24395 5.90208 3.28534 5.77681 3.36713 5.67908C3.44893 5.58136 3.56495 5.51855 3.6915 5.5035L3.75 5.5H4.25ZM6.25 5.5C6.38261 5.5 6.50979 5.55268 6.60355 5.64645C6.69732 5.74021 6.75 5.86739 6.75 6C6.75 6.13261 6.69732 6.25979 6.60355 6.35355C6.50979 6.44732 6.38261 6.5 6.25 6.5H5.75C5.61739 6.5 5.49021 6.44732 5.39645 6.35355C5.30268 6.25979 5.25 6.13261 5.25 6C5.25 5.86739 5.30268 5.74021 5.39645 5.64645C5.49021 5.55268 5.61739 5.5 5.75 5.5H6.25ZM8.25 5.5C8.37744 5.50014 8.50002 5.54894 8.59268 5.63642C8.68535 5.72391 8.74112 5.84348 8.74859 5.9707C8.75605 6.09792 8.71466 6.22319 8.63287 6.32092C8.55107 6.41864 8.43505 6.48145 8.3085 6.4965L8.25 6.5H7.75C7.62256 6.49986 7.49998 6.45106 7.40732 6.36358C7.31465 6.27609 7.25888 6.15652 7.25141 6.0293C7.24395 5.90208 7.28534 5.77681 7.36713 5.67908C7.44893 5.58136 7.56495 5.51855 7.6915 5.5035L7.75 5.5H8.25ZM9.5 2.5H2.5V3.5H9.5V2.5Z" fill="#7F8489"/>
</g>
<defs>
<clipPath id="clip0_2799_1131">
<rect width="12" height="12" fill="white"/>
</clipPath>
</defs>
</svg>
