<svg width="65" height="64" viewBox="0 0 65 64" fill="none" xmlns="http://www.w3.org/2000/svg">
<g filter="url(#filter0_d_1548_1456)">
<rect x="10.5" y="8" width="44" height="44" rx="12" fill="white" shape-rendering="crispEdges"/>
<g clip-path="url(#clip0_1548_1456)">
<path d="M35.5 22C36.0304 22 36.5391 22.2107 36.9142 22.5858C37.2893 22.9609 37.5 23.4696 37.5 24V25H39.02C39.3198 25 39.6157 25.0675 39.8859 25.1973C40.1561 25.3271 40.3936 25.516 40.581 25.75L42.061 27.601C42.3451 27.9557 42.4999 28.3966 42.5 28.851V33C42.5 33.5304 42.2893 34.0391 41.9142 34.4142C41.5391 34.7893 41.0304 35 40.5 35H39.5C39.5 35.7956 39.1839 36.5587 38.6213 37.1213C38.0587 37.6839 37.2956 38 36.5 38C35.7044 38 34.9413 37.6839 34.3787 37.1213C33.8161 36.5587 33.5 35.7956 33.5 35H30.5C30.5 35.394 30.4224 35.7841 30.2716 36.1481C30.1209 36.512 29.8999 36.8427 29.6213 37.1213C29.3427 37.3999 29.012 37.6209 28.6481 37.7716C28.2841 37.9224 27.894 38 27.5 38C27.106 38 26.7159 37.9224 26.3519 37.7716C25.988 37.6209 25.6573 37.3999 25.3787 37.1213C25.1001 36.8427 24.8791 36.512 24.7284 36.1481C24.5776 35.7841 24.5 35.394 24.5 35C23.9696 35 23.4609 34.7893 23.0858 34.4142C22.7107 34.0391 22.5 33.5304 22.5 33V24C22.5 23.4696 22.7107 22.9609 23.0858 22.5858C23.4609 22.2107 23.9696 22 24.5 22H35.5ZM27.5 34C27.2348 34 26.9804 34.1054 26.7929 34.2929C26.6054 34.4804 26.5 34.7348 26.5 35C26.5 35.2652 26.6054 35.5196 26.7929 35.7071C26.9804 35.8946 27.2348 36 27.5 36C27.7652 36 28.0196 35.8946 28.2071 35.7071C28.3946 35.5196 28.5 35.2652 28.5 35C28.5 34.7348 28.3946 34.4804 28.2071 34.2929C28.0196 34.1054 27.7652 34 27.5 34ZM36.5 34C36.2348 34 35.9804 34.1054 35.7929 34.2929C35.6054 34.4804 35.5 34.7348 35.5 35C35.5 35.2652 35.6054 35.5196 35.7929 35.7071C35.9804 35.8946 36.2348 36 36.5 36C36.7652 36 37.0196 35.8946 37.2071 35.7071C37.3946 35.5196 37.5 35.2652 37.5 35C37.5 34.7348 37.3946 34.4804 37.2071 34.2929C37.0196 34.1054 36.7652 34 36.5 34ZM39.02 27H37.5V31H40.5V28.85L39.02 27Z" fill="#5243E6"/>
</g>
</g>
<defs>
<filter id="filter0_d_1548_1456" x="0.5" y="0" width="64" height="64" filterUnits="userSpaceOnUse" color-interpolation-filters="sRGB">
<feFlood flood-opacity="0" result="BackgroundImageFix"/>
<feColorMatrix in="SourceAlpha" type="matrix" values="0 0 0 0 0 0 0 0 0 0 0 0 0 0 0 0 0 0 127 0" result="hardAlpha"/>
<feOffset dy="2"/>
<feGaussianBlur stdDeviation="5"/>
<feComposite in2="hardAlpha" operator="out"/>
<feColorMatrix type="matrix" values="0 0 0 0 0.486275 0 0 0 0 0.552941 0 0 0 0 0.709804 0 0 0 0.12 0"/>
<feBlend mode="normal" in2="BackgroundImageFix" result="effect1_dropShadow_1548_1456"/>
<feBlend mode="normal" in="SourceGraphic" in2="effect1_dropShadow_1548_1456" result="shape"/>
</filter>
<clipPath id="clip0_1548_1456">
<rect width="24" height="24" fill="white" transform="translate(20.5 18)"/>
</clipPath>
</defs>
</svg>
