<svg width="22" height="22" viewBox="0 0 22 22" fill="none" xmlns="http://www.w3.org/2000/svg">
<g clip-path="url(#clip0_2243_2512)">
<path d="M11 1.8335C16.0628 1.8335 20.1667 5.93741 20.1667 11.0002C20.1667 16.0629 16.0628 20.1668 11 20.1668C5.93729 20.1668 1.83337 16.0629 1.83337 11.0002C1.83337 5.93741 5.93729 1.8335 11 1.8335ZM11 3.66683C9.05512 3.66683 7.18986 4.43945 5.81459 5.81471C4.43932 7.18998 3.66671 9.05524 3.66671 11.0002C3.66671 12.9451 4.43932 14.8103 5.81459 16.1856C7.18986 17.5609 9.05512 18.3335 11 18.3335C12.945 18.3335 14.8102 17.5609 16.1855 16.1856C17.5608 14.8103 18.3334 12.9451 18.3334 11.0002C18.3334 9.05524 17.5608 7.18998 16.1855 5.81471C14.8102 4.43945 12.945 3.66683 11 3.66683ZM11 5.50016C11.2246 5.50019 11.4413 5.58262 11.609 5.73182C11.7768 5.88101 11.884 6.0866 11.9103 6.30958L11.9167 6.41683V10.6207L14.3981 13.1021C14.5625 13.267 14.658 13.4884 14.6651 13.7212C14.6722 13.954 14.5904 14.1807 14.4364 14.3554C14.2824 14.5301 14.0676 14.6396 13.8358 14.6617C13.6039 14.6838 13.3724 14.6168 13.1881 14.4743L13.102 14.3982L10.352 11.6482C10.2095 11.5057 10.118 11.3201 10.0916 11.1202L10.0834 11.0002V6.41683C10.0834 6.17371 10.18 5.94056 10.3519 5.76865C10.5238 5.59674 10.7569 5.50016 11 5.50016Z" fill="#C9CFD9"/>
<circle cx="18.5" cy="3.5" r="3.5" fill="#46EF4D"/>
</g>
<defs>
<clipPath id="clip0_2243_2512">
<rect width="22" height="22" fill="white"/>
</clipPath>
</defs>
</svg>
