<svg width="22" height="22" viewBox="0 0 22 22" fill="none" xmlns="http://www.w3.org/2000/svg">
<g clip-path="url(#clip0_2243_2508)">
<path d="M18.3334 3.6665C18.7959 3.66636 19.2414 3.84104 19.5805 4.15554C19.9197 4.47004 20.1274 4.90111 20.1621 5.36234L20.1667 5.49984V16.4998C20.1669 16.9624 19.9922 17.4079 19.6777 17.747C19.3632 18.0862 18.9321 18.2939 18.4709 18.3286L18.3334 18.3332H3.66671C3.20418 18.3333 2.75869 18.1586 2.41954 17.8441C2.08039 17.5296 1.87265 17.0986 1.83796 16.6373L1.83337 16.4998V5.49984C1.83323 5.03731 2.00791 4.59182 2.32241 4.25267C2.63691 3.91352 3.06798 3.70578 3.52921 3.67109L3.66671 3.6665H18.3334ZM18.3334 6.796L11.9717 13.1577C11.7139 13.4152 11.3644 13.5598 11 13.5598C10.6357 13.5598 10.2862 13.4152 10.0284 13.1577L3.66671 6.796V16.4998H18.3334V6.796ZM17.0372 5.49984H4.96287L11 11.537L17.0372 5.49984Z" fill="#C9CFD9"/>
</g>
<defs>
<clipPath id="clip0_2243_2508">
<rect width="22" height="22" fill="white"/>
</clipPath>
</defs>
</svg>
