<svg width="22" height="22" viewBox="0 0 22 22" fill="none" xmlns="http://www.w3.org/2000/svg">
<g clip-path="url(#clip0_2243_2502)">
<path fill-rule="evenodd" clip-rule="evenodd" d="M11 1.8335C13.188 1.8335 15.2865 2.70269 16.8336 4.24986C18.3808 5.79704 19.25 7.89546 19.25 10.0835C19.25 12.9013 17.7137 15.2077 16.0948 16.8622C15.2859 17.6798 14.4034 18.4212 13.4585 19.0769L13.068 19.3427L12.8847 19.4647L12.5391 19.6847L12.2311 19.8726L11.8498 20.0944C11.5908 20.2418 11.298 20.3193 11 20.3193C10.702 20.3193 10.4092 20.2418 10.1502 20.0944L9.76892 19.8726L9.29225 19.5792L9.11625 19.4647L8.74042 19.2144C7.72106 18.5245 6.77148 17.7367 5.90517 16.8622C4.28633 15.2067 2.75 12.9013 2.75 10.0835C2.75 7.89546 3.61919 5.79704 5.16637 4.24986C6.71354 2.70269 8.81196 1.8335 11 1.8335ZM11 3.66683C9.29819 3.66683 7.66609 4.34287 6.46273 5.54623C5.25937 6.74959 4.58333 8.38169 4.58333 10.0835C4.58333 12.212 5.74933 14.0802 7.21508 15.5798C7.8454 16.2177 8.5266 16.8033 9.25192 17.3307L9.67175 17.6295C9.80742 17.7239 9.93758 17.8119 10.0632 17.8935L10.4207 18.1227L10.7351 18.3142L11 18.4692L11.4171 18.2226L11.7535 18.0117C11.9323 17.8981 12.1248 17.7707 12.3283 17.6295L12.7481 17.3307C13.4734 16.8033 14.1546 16.2177 14.7849 15.5798C16.2507 14.0811 17.4167 12.212 17.4167 10.0835C17.4167 8.38169 16.7406 6.74959 15.5373 5.54623C14.3339 4.34287 12.7018 3.66683 11 3.66683ZM11 6.41683C11.9725 6.41683 12.9051 6.80314 13.5927 7.49077C14.2804 8.1784 14.6667 9.11104 14.6667 10.0835C14.6667 11.056 14.2804 11.9886 13.5927 12.6762C12.9051 13.3639 11.9725 13.7502 11 13.7502C10.0275 13.7502 9.09491 13.3639 8.40728 12.6762C7.71964 11.9886 7.33333 11.056 7.33333 10.0835C7.33333 9.11104 7.71964 8.1784 8.40728 7.49077C9.09491 6.80314 10.0275 6.41683 11 6.41683ZM11 8.25016C10.5138 8.25016 10.0475 8.44332 9.70364 8.78713C9.35982 9.13095 9.16667 9.59727 9.16667 10.0835C9.16667 10.5697 9.35982 11.036 9.70364 11.3799C10.0475 11.7237 10.5138 11.9168 11 11.9168C11.4862 11.9168 11.9525 11.7237 12.2964 11.3799C12.6402 11.036 12.8333 10.5697 12.8333 10.0835C12.8333 9.59727 12.6402 9.13095 12.2964 8.78713C11.9525 8.44332 11.4862 8.25016 11 8.25016Z" fill="#C9CFD9"/>
</g>
<defs>
<clipPath id="clip0_2243_2502">
<rect width="22" height="22" fill="white"/>
</clipPath>
</defs>
</svg>
