<svg width="22" height="22" viewBox="0 0 22 22" fill="none" xmlns="http://www.w3.org/2000/svg">
<g clip-path="url(#clip0_2243_2497)">
<path d="M6.28554 2.24102C7.44329 3.08527 8.31963 4.27144 9.06579 5.36135L9.65063 6.22119C9.83224 6.48662 9.91534 6.80719 9.88554 7.12743C9.85574 7.44766 9.71493 7.7474 9.48746 7.97477L8.24446 9.21777L8.37554 9.49644C8.69638 10.1464 9.25004 11.0823 10.0833 11.9164C10.725 12.5581 11.4262 13.0329 12.012 13.3648L12.3484 13.5454L12.6481 13.6939L12.782 13.7553L14.024 12.5123C14.2523 12.2843 14.5534 12.1437 14.8747 12.1151C15.196 12.0864 15.5172 12.1715 15.7822 12.3555L16.7117 12.9999C17.7677 13.7424 18.8705 14.5885 19.7275 15.6867C19.8757 15.8773 19.9699 16.1041 20.0004 16.3436C20.0309 16.5831 19.9965 16.8263 19.9008 17.0479C19.1335 18.8382 17.192 20.3626 15.1726 20.2874L14.8976 20.2728L14.684 20.2544L14.4475 20.2269L14.19 20.1921L13.9104 20.1454L13.6115 20.0867L13.2944 20.0161L12.9589 19.9299L12.606 19.8291L12.2375 19.7099C10.5453 19.1361 8.39754 18.0086 6.19388 15.8049C3.99113 13.6022 2.86363 11.4544 2.28979 9.76227L2.17063 9.39377L2.06979 9.04085L1.98363 8.70535L1.91213 8.38819C1.89148 8.28885 1.87222 8.18923 1.85438 8.08935L1.80854 7.80977L1.77188 7.55219L1.74529 7.31569L1.72696 7.1021L1.71229 6.8271C1.63804 4.8141 3.17896 2.85885 4.96096 2.09527C5.17544 2.00266 5.41031 1.9674 5.64253 1.99295C5.87475 2.0185 6.09633 2.10399 6.28554 2.24102ZM5.43579 3.89835C4.45313 4.41169 3.50163 5.58502 3.54471 6.75927L3.56304 7.05994L3.58321 7.24785L3.60979 7.45869L3.64646 7.6906L3.69321 7.94452L3.75279 8.21769L3.82613 8.51102L3.91413 8.82177L4.01863 9.14994C4.05713 9.26177 4.09746 9.37635 4.14146 9.49369L4.28263 9.85302L4.44396 10.2261C5.01963 11.4929 5.95829 12.9761 7.49188 14.5088C9.02454 16.0414 10.5077 16.981 11.7745 17.5567L12.1476 17.718L12.507 17.8592C12.6243 17.9032 12.7389 17.9435 12.8507 17.982L13.1789 18.0865L13.4905 18.1745L13.783 18.2479L14.0561 18.3074L14.31 18.3542L14.5429 18.3909L14.7537 18.4184L14.9407 18.4367L15.2414 18.455C16.4 18.4981 17.5825 17.5521 18.094 16.5823C17.4414 15.8169 16.631 15.1889 15.7373 14.5564L15.0516 14.0789L14.8775 14.2613L14.5053 14.6674L14.3082 14.8745C13.771 15.4218 13.144 15.8865 12.3924 15.5831L12.1852 15.496L11.9322 15.3824L11.791 15.3154L11.4812 15.1605L11.1411 14.9772C10.2805 14.4982 9.48889 13.9046 8.78804 13.2126C8.09603 12.5117 7.50242 11.7201 7.02346 10.8595L6.84013 10.5204L6.68429 10.2096L6.50463 9.81544L6.41663 9.60644C6.13154 8.90152 6.52388 8.3066 7.02529 7.79144L7.23063 7.58977L7.74121 7.11952L7.92454 6.94535L7.49096 6.3101C6.84654 5.3751 6.21679 4.53177 5.43488 3.89744L5.43579 3.89835ZM13.7435 5.53644L13.8499 5.54835C14.5171 5.66605 15.13 5.99197 15.6006 6.47939C16.0712 6.96682 16.3755 7.59072 16.4697 8.26169C16.5033 8.49377 16.4467 8.7299 16.3115 8.92151C16.1763 9.11311 15.9728 9.24562 15.7429 9.29177C15.513 9.33791 15.2741 9.29419 15.0755 9.1696C14.8768 9.045 14.7334 8.84901 14.6749 8.62194L14.6538 8.51652C14.6169 8.25353 14.5047 8.00684 14.3306 7.80627C14.1566 7.6057 13.9281 7.45983 13.673 7.38627L13.5309 7.35419C13.3007 7.31339 13.0948 7.18619 12.9553 6.99862C12.8158 6.81104 12.7532 6.57725 12.7804 6.34507C12.8076 6.11289 12.9224 5.89986 13.1014 5.74955C13.2805 5.59923 13.5102 5.523 13.7435 5.53644ZM13.75 2.74977C15.2087 2.74977 16.6076 3.32923 17.639 4.36068C18.6705 5.39213 19.25 6.79108 19.25 8.24977C19.2497 8.48341 19.1602 8.70813 18.9998 8.87803C18.8395 9.04792 18.6203 9.15015 18.387 9.16385C18.1538 9.17754 17.9241 9.10165 17.7449 8.95169C17.5658 8.80174 17.4506 8.58902 17.423 8.35702L17.4166 8.24977C17.417 7.31882 17.063 6.42263 16.4266 5.74317C15.7902 5.06371 14.9191 4.6519 13.9901 4.59135L13.75 4.5831C13.5068 4.5831 13.2737 4.48653 13.1018 4.31462C12.9299 4.14271 12.8333 3.90955 12.8333 3.66644C12.8333 3.42332 12.9299 3.19016 13.1018 3.01826C13.2737 2.84635 13.5068 2.74977 13.75 2.74977Z" fill="#C9CFD9"/>
</g>
<defs>
<clipPath id="clip0_2243_2497">
<rect width="22" height="22" fill="white"/>
</clipPath>
</defs>
</svg>
