<svg width="16" height="17" viewBox="0 0 16 17" fill="none" xmlns="http://www.w3.org/2000/svg">
<path fill-rule="evenodd" clip-rule="evenodd" d="M8 8.80778C9.59733 8.80778 11.05 9.27045 12.1187 9.92245C12.652 10.2478 13.108 10.6318 13.4373 11.0491C13.7613 11.4591 14 11.9498 14 12.4744C14 13.0378 13.726 13.4818 13.3313 13.7984C12.958 14.0984 12.4653 14.2971 11.942 14.4358C10.89 14.7138 9.486 14.8078 8 14.8078C6.514 14.8078 5.11 14.7144 4.058 14.4358C3.53467 14.2971 3.042 14.0984 2.66867 13.7984C2.27333 13.4811 2 13.0378 2 12.4744C2 11.9498 2.23867 11.4591 2.56267 11.0484C2.892 10.6318 3.34733 10.2484 3.88133 9.92178C4.95 9.27111 6.40333 8.80778 8 8.80778ZM8 10.1411C6.65133 10.1411 5.438 10.5344 4.576 11.0604C4.14467 11.3231 3.81933 11.6084 3.60933 11.8751C3.39333 12.1484 3.33333 12.3551 3.33333 12.4744C3.33333 12.5558 3.358 12.6418 3.50333 12.7584C3.66933 12.8918 3.958 13.0298 4.39933 13.1464C5.278 13.3798 6.54067 13.4744 8 13.4744C9.46 13.4744 10.722 13.3791 11.6 13.1464C12.042 13.0298 12.3307 12.8918 12.4967 12.7584C12.642 12.6418 12.6667 12.5558 12.6667 12.4744C12.6667 12.3544 12.6067 12.1484 12.3913 11.8751C12.1807 11.6084 11.8553 11.3231 11.424 11.0604C10.562 10.5338 9.34867 10.1411 8 10.1411ZM8 1.47445C8.88406 1.47445 9.7319 1.82564 10.357 2.45076C10.9821 3.07588 11.3333 3.92373 11.3333 4.80778C11.3333 5.69184 10.9821 6.53968 10.357 7.1648C9.7319 7.78992 8.88406 8.14111 8 8.14111C7.11595 8.14111 6.2681 7.78992 5.64298 7.1648C5.01786 6.53968 4.66667 5.69184 4.66667 4.80778C4.66667 3.92373 5.01786 3.07588 5.64298 2.45076C6.2681 1.82564 7.11595 1.47445 8 1.47445ZM8 2.80778C7.73736 2.80778 7.47728 2.85951 7.23463 2.96002C6.99198 3.06053 6.7715 3.20785 6.58579 3.39357C6.40007 3.57928 6.25275 3.79976 6.15224 4.04241C6.05173 4.28506 6 4.54514 6 4.80778C6 5.07042 6.05173 5.3305 6.15224 5.57315C6.25275 5.8158 6.40007 6.03628 6.58579 6.22199C6.7715 6.40771 6.99198 6.55503 7.23463 6.65554C7.47728 6.75605 7.73736 6.80778 8 6.80778C8.53043 6.80778 9.03914 6.59707 9.41421 6.22199C9.78929 5.84692 10 5.33821 10 4.80778C10 4.27735 9.78929 3.76864 9.41421 3.39357C9.03914 3.01849 8.53043 2.80778 8 2.80778Z" fill="#A1AFC4"/>
</svg>
