<svg width="7" height="9" viewBox="0 0 7 9" fill="none" xmlns="http://www.w3.org/2000/svg">
<path fill-rule="evenodd" clip-rule="evenodd" d="M0.425261 8.65605C0.153478 8.43557 0.000826065 8.13661 0.000873656 7.82492C0.000921248 7.51322 0.153665 7.21431 0.425515 6.99391L3.50116 4.50118L0.426276 2.0075C0.291582 1.89835 0.184724 1.76875 0.111804 1.62611C0.0388836 1.48348 0.00132976 1.3306 0.0012861 1.1762C0.00124196 1.0218 0.0387094 0.86891 0.111549 0.726255C0.184388 0.5836 0.291171 0.453976 0.425804 0.344782C0.560437 0.235587 0.720284 0.148963 0.896213 0.0898534C1.07214 0.0307448 1.26071 0.000307494 1.45116 0.000281259C1.6416 0.000255977 1.83019 0.0306421 2.00615 0.0897043C2.18211 0.148766 2.34201 0.235348 2.4767 0.344506L6.57654 3.67058C6.84833 3.89106 7.00098 4.19002 7.00093 4.50171C7.00088 4.81341 6.84814 5.11232 6.57629 5.33272L2.47543 8.65636C2.2035 8.87669 1.83476 9.00043 1.4503 9.00037C1.06583 9.00031 0.697126 8.87646 0.425261 8.65605Z" fill="#434040"/>
</svg>
