<svg width="135" height="30" viewBox="0 0 135 30" fill="none" xmlns="http://www.w3.org/2000/svg">
<path d="M25 9.5C25 11.8333 24.6111 13 21.5 13C18.3889 13 18 11.8333 18 9.5C18 7.16667 18.4375 6 21.5 6C24.5625 6 25 7.16667 25 9.5Z" fill="#55C1F8" stroke="#3080AD" stroke-width="1.5" stroke-linecap="round" stroke-linejoin="round"/>
<path d="M25 20.5C25 22.8333 24.6111 24 21.5 24C18.3889 24 18 22.8333 18 20.5C18 18.1667 18.4375 17 21.5 17C24.5625 17 25 18.1667 25 20.5Z" fill="#55C1F8" stroke="#55C1F8" stroke-width="1.5" stroke-linecap="round" stroke-linejoin="round"/>
<path d="M36 20.5C36 22.8333 35.6111 24 32.5 24C29.3889 24 29 22.8333 29 20.5C29 18.1667 29.4375 17 32.5 17C35.5625 17 36 18.1667 36 20.5Z" fill="#55C1F8" stroke="#55C1F8" stroke-width="1.5" stroke-linecap="round" stroke-linejoin="round"/>
<path d="M50.64 21L46.1 6.6H48.58L52.38 18.66L56.23 6.6H58.71L54.17 21H50.64ZM64.1311 21.3C63.0378 21.3 62.0778 21.0633 61.2511 20.59C60.4244 20.1167 59.7778 19.46 59.3111 18.62C58.8511 17.78 58.6211 16.8133 58.6211 15.72C58.6211 14.54 58.8478 13.5167 59.3011 12.65C59.7544 11.7767 60.3844 11.1 61.1911 10.62C61.9978 10.14 62.9311 9.9 63.9911 9.9C65.1111 9.9 66.0611 10.1633 66.8411 10.69C67.6278 11.21 68.2111 11.9467 68.5911 12.9C68.9711 13.8533 69.1144 14.9767 69.0211 16.27H66.6311V15.39C66.6244 14.2167 66.4178 13.36 66.0111 12.82C65.6044 12.28 64.9644 12.01 64.0911 12.01C63.1044 12.01 62.3711 12.3167 61.8911 12.93C61.4111 13.5367 61.1711 14.4267 61.1711 15.6C61.1711 16.6933 61.4111 17.54 61.8911 18.14C62.3711 18.74 63.0711 19.04 63.9911 19.04C64.5844 19.04 65.0944 18.91 65.5211 18.65C65.9544 18.3833 66.2878 18 66.5211 17.5L68.9011 18.22C68.4878 19.1933 67.8478 19.95 66.9811 20.49C66.1211 21.03 65.1711 21.3 64.1311 21.3ZM60.4111 16.27V14.45H67.8411V16.27H60.4111ZM71.6523 21V6.6H74.0623V18.74H80.4223V21H71.6523ZM82.5164 8.56V6.35H84.9264V8.56H82.5164ZM82.5164 21V10.2H84.9264V21H82.5164ZM95.5919 21V15.8C95.5919 15.46 95.5685 15.0833 95.5219 14.67C95.4752 14.2567 95.3652 13.86 95.1919 13.48C95.0252 13.0933 94.7719 12.7767 94.4319 12.53C94.0985 12.2833 93.6452 12.16 93.0719 12.16C92.7652 12.16 92.4619 12.21 92.1619 12.31C91.8619 12.41 91.5885 12.5833 91.3419 12.83C91.1019 13.07 90.9085 13.4033 90.7619 13.83C90.6152 14.25 90.5419 14.79 90.5419 15.45L89.1119 14.84C89.1119 13.92 89.2885 13.0867 89.6419 12.34C90.0019 11.5933 90.5285 11 91.2219 10.56C91.9152 10.1133 92.7685 9.89 93.7819 9.89C94.5819 9.89 95.2419 10.0233 95.7619 10.29C96.2819 10.5567 96.6952 10.8967 97.0019 11.31C97.3085 11.7233 97.5352 12.1633 97.6819 12.63C97.8285 13.0967 97.9219 13.54 97.9619 13.96C98.0085 14.3733 98.0319 14.71 98.0319 14.97V21H95.5919ZM88.1019 21V10.2H90.2519V13.55H90.5419V21H88.1019ZM100.821 21L100.841 6.6H103.281V15.4L107.231 10.2H110.241L106.051 15.6L110.601 21H107.411L103.281 15.8V21H100.821ZM116.518 21.3C115.424 21.3 114.464 21.0633 113.638 20.59C112.811 20.1167 112.164 19.46 111.698 18.62C111.238 17.78 111.008 16.8133 111.008 15.72C111.008 14.54 111.234 13.5167 111.688 12.65C112.141 11.7767 112.771 11.1 113.578 10.62C114.384 10.14 115.318 9.9 116.378 9.9C117.498 9.9 118.448 10.1633 119.228 10.69C120.014 11.21 120.598 11.9467 120.978 12.9C121.358 13.8533 121.501 14.9767 121.408 16.27H119.018V15.39C119.011 14.2167 118.804 13.36 118.398 12.82C117.991 12.28 117.351 12.01 116.478 12.01C115.491 12.01 114.758 12.3167 114.278 12.93C113.798 13.5367 113.558 14.4267 113.558 15.6C113.558 16.6933 113.798 17.54 114.278 18.14C114.758 18.74 115.458 19.04 116.378 19.04C116.971 19.04 117.481 18.91 117.908 18.65C118.341 18.3833 118.674 18 118.908 17.5L121.288 18.22C120.874 19.1933 120.234 19.95 119.368 20.49C118.508 21.03 117.558 21.3 116.518 21.3ZM112.798 16.27V14.45H120.228V16.27H112.798ZM128.169 21.3C127.176 21.3 126.309 21.05 125.569 20.55C124.829 20.05 124.256 19.37 123.849 18.51C123.442 17.65 123.239 16.68 123.239 15.6C123.239 14.5067 123.442 13.5333 123.849 12.68C124.262 11.82 124.846 11.1433 125.599 10.65C126.352 10.15 127.239 9.9 128.259 9.9C129.286 9.9 130.146 10.15 130.839 10.65C131.539 11.1433 132.069 11.82 132.429 12.68C132.789 13.54 132.969 14.5133 132.969 15.6C132.969 16.6733 132.789 17.6433 132.429 18.51C132.069 19.37 131.532 20.05 130.819 20.55C130.106 21.05 129.222 21.3 128.169 21.3ZM128.539 19.14C129.186 19.14 129.706 18.9933 130.099 18.7C130.499 18.4 130.789 17.9833 130.969 17.45C131.156 16.9167 131.249 16.3 131.249 15.6C131.249 14.8933 131.156 14.2767 130.969 13.75C130.789 13.2167 130.506 12.8033 130.119 12.51C129.732 12.21 129.232 12.06 128.619 12.06C127.972 12.06 127.439 12.22 127.019 12.54C126.599 12.8533 126.289 13.28 126.089 13.82C125.889 14.3533 125.789 14.9467 125.789 15.6C125.789 16.26 125.886 16.86 126.079 17.4C126.279 17.9333 126.582 18.3567 126.989 18.67C127.396 18.9833 127.912 19.14 128.539 19.14ZM131.249 21V13.42H130.949V6.6H133.379V21H131.249Z" fill="black"/>
<path d="M25 9.5C25 11.8333 24.6111 13 21.5 13C18.3889 13 18 11.8333 18 9.5C18 7.16667 18.4375 6 21.5 6C24.5625 6 25 7.16667 25 9.5Z" fill="#55C1F8" stroke="#55C1F8" stroke-width="1.5" stroke-linecap="round" stroke-linejoin="round"/>
<path d="M8 9.5C8 11.8333 7.61111 13 4.5 13C1.38889 13 1 11.8333 1 9.5C1 7.16667 1.4375 6 4.5 6C7.5625 6 8 7.16667 8 9.5Z" fill="#5243E6" stroke="#5243E6" stroke-width="1.5" stroke-linecap="round" stroke-linejoin="round"/>
<path d="M15 20.5C15 22.8333 14.6111 24 11.5 24C8.38889 24 8 22.8333 8 20.5C8 18.1667 8.4375 17 11.5 17C14.5625 17 15 18.1667 15 20.5Z" fill="#5243E6" stroke="#5243E6" stroke-width="1.5" stroke-linecap="round" stroke-linejoin="round"/>
</svg>
