<svg width="134" height="27" viewBox="0 0 134 27" fill="none" xmlns="http://www.w3.org/2000/svg">
<path d="M49.64 21L45.1 6.60001H47.58L51.38 18.66L55.23 6.60001H57.71L53.17 21H49.64ZM63.1311 21.3C62.0378 21.3 61.0778 21.0633 60.2511 20.59C59.4244 20.1167 58.7778 19.46 58.3111 18.62C57.8511 17.78 57.6211 16.8133 57.6211 15.72C57.6211 14.54 57.8478 13.5167 58.3011 12.65C58.7544 11.7767 59.3844 11.1 60.1911 10.62C60.9978 10.14 61.9311 9.90001 62.9911 9.90001C64.1111 9.90001 65.0611 10.1633 65.8411 10.69C66.6278 11.21 67.2111 11.9467 67.5911 12.9C67.9711 13.8533 68.1144 14.9767 68.0211 16.27H65.6311V15.39C65.6244 14.2167 65.4178 13.36 65.0111 12.82C64.6044 12.28 63.9644 12.01 63.0911 12.01C62.1044 12.01 61.3711 12.3167 60.8911 12.93C60.4111 13.5367 60.1711 14.4267 60.1711 15.6C60.1711 16.6933 60.4111 17.54 60.8911 18.14C61.3711 18.74 62.0711 19.04 62.9911 19.04C63.5844 19.04 64.0944 18.91 64.5211 18.65C64.9544 18.3833 65.2878 18 65.5211 17.5L67.9011 18.22C67.4878 19.1933 66.8478 19.95 65.9811 20.49C65.1211 21.03 64.1711 21.3 63.1311 21.3ZM59.4111 16.27V14.45H66.8411V16.27H59.4111ZM70.6523 21V6.60001H73.0623V18.74H79.4223V21H70.6523ZM81.5164 8.56001V6.35001H83.9264V8.56001H81.5164ZM81.5164 21V10.2H83.9264V21H81.5164ZM94.5919 21V15.8C94.5919 15.46 94.5685 15.0833 94.5219 14.67C94.4752 14.2567 94.3652 13.86 94.1919 13.48C94.0252 13.0933 93.7719 12.7767 93.4319 12.53C93.0985 12.2833 92.6452 12.16 92.0719 12.16C91.7652 12.16 91.4619 12.21 91.1619 12.31C90.8619 12.41 90.5885 12.5833 90.3419 12.83C90.1019 13.07 89.9085 13.4033 89.7619 13.83C89.6152 14.25 89.5419 14.79 89.5419 15.45L88.1119 14.84C88.1119 13.92 88.2885 13.0867 88.6419 12.34C89.0019 11.5933 89.5285 11 90.2219 10.56C90.9152 10.1133 91.7685 9.89001 92.7819 9.89001C93.5819 9.89001 94.2419 10.0233 94.7619 10.29C95.2819 10.5567 95.6952 10.8967 96.0019 11.31C96.3085 11.7233 96.5352 12.1633 96.6819 12.63C96.8285 13.0967 96.9219 13.54 96.9619 13.96C97.0085 14.3733 97.0319 14.71 97.0319 14.97V21H94.5919ZM87.1019 21V10.2H89.2519V13.55H89.5419V21H87.1019ZM99.8214 21L99.8414 6.60001H102.281V15.4L106.231 10.2H109.241L105.051 15.6L109.601 21H106.411L102.281 15.8V21H99.8214ZM115.518 21.3C114.424 21.3 113.464 21.0633 112.638 20.59C111.811 20.1167 111.164 19.46 110.698 18.62C110.238 17.78 110.008 16.8133 110.008 15.72C110.008 14.54 110.234 13.5167 110.688 12.65C111.141 11.7767 111.771 11.1 112.578 10.62C113.384 10.14 114.318 9.90001 115.378 9.90001C116.498 9.90001 117.448 10.1633 118.228 10.69C119.014 11.21 119.598 11.9467 119.978 12.9C120.358 13.8533 120.501 14.9767 120.408 16.27H118.018V15.39C118.011 14.2167 117.804 13.36 117.398 12.82C116.991 12.28 116.351 12.01 115.478 12.01C114.491 12.01 113.758 12.3167 113.278 12.93C112.798 13.5367 112.558 14.4267 112.558 15.6C112.558 16.6933 112.798 17.54 113.278 18.14C113.758 18.74 114.458 19.04 115.378 19.04C115.971 19.04 116.481 18.91 116.908 18.65C117.341 18.3833 117.674 18 117.908 17.5L120.288 18.22C119.874 19.1933 119.234 19.95 118.368 20.49C117.508 21.03 116.558 21.3 115.518 21.3ZM111.798 16.27V14.45H119.228V16.27H111.798ZM127.169 21.3C126.176 21.3 125.309 21.05 124.569 20.55C123.829 20.05 123.256 19.37 122.849 18.51C122.442 17.65 122.239 16.68 122.239 15.6C122.239 14.5067 122.442 13.5333 122.849 12.68C123.262 11.82 123.846 11.1433 124.599 10.65C125.352 10.15 126.239 9.90001 127.259 9.90001C128.286 9.90001 129.146 10.15 129.839 10.65C130.539 11.1433 131.069 11.82 131.429 12.68C131.789 13.54 131.969 14.5133 131.969 15.6C131.969 16.6733 131.789 17.6433 131.429 18.51C131.069 19.37 130.532 20.05 129.819 20.55C129.106 21.05 128.222 21.3 127.169 21.3ZM127.539 19.14C128.186 19.14 128.706 18.9933 129.099 18.7C129.499 18.4 129.789 17.9833 129.969 17.45C130.156 16.9167 130.249 16.3 130.249 15.6C130.249 14.8933 130.156 14.2767 129.969 13.75C129.789 13.2167 129.506 12.8033 129.119 12.51C128.732 12.21 128.232 12.06 127.619 12.06C126.972 12.06 126.439 12.22 126.019 12.54C125.599 12.8533 125.289 13.28 125.089 13.82C124.889 14.3533 124.789 14.9467 124.789 15.6C124.789 16.26 124.886 16.86 125.079 17.4C125.279 17.9333 125.582 18.3567 125.989 18.67C126.396 18.9833 126.912 19.14 127.539 19.14ZM130.249 21V13.42H129.949V6.60001H132.379V21H130.249Z" fill="black"/>
<path d="M6 5H3C1.89543 5 1 5.89543 1 7V10C1 11.1046 1.89543 12 3 12H6C7.10457 12 8 11.1046 8 10V7C8 5.89543 7.10457 5 6 5Z" fill="#3080AD" stroke="#3080AD"/>
<path d="M13 15H10C8.89543 15 8 15.8954 8 17V20C8 21.1046 8.89543 22 10 22H13C14.1046 22 15 21.1046 15 20V17C15 15.8954 14.1046 15 13 15Z" fill="#3080AD" stroke="#3080AD"/>
<path d="M23 15H20C18.8954 15 18 15.8954 18 17V20C18 21.1046 18.8954 22 20 22H23C24.1046 22 25 21.1046 25 20V17C25 15.8954 24.1046 15 23 15Z" fill="#3080AD" stroke="#3080AD"/>
<path d="M23 5H20C18.8954 5 18 5.89543 18 7V10C18 11.1046 18.8954 12 20 12H23C24.1046 12 25 11.1046 25 10V7C25 5.89543 24.1046 5 23 5Z" fill="#3080AD" stroke="#3080AD"/>
<path d="M33 15H30C28.8954 15 28 15.8954 28 17V20C28 21.1046 28.8954 22 30 22H33C34.1046 22 35 21.1046 35 20V17C35 15.8954 34.1046 15 33 15Z" fill="#3080AD" stroke="#3080AD"/>
</svg>
