<svg width="35" height="35" viewBox="0 0 35 35" fill="none" xmlns="http://www.w3.org/2000/svg">
<g clip-path="url(#clip0_2742_842)">
<path fill-rule="evenodd" clip-rule="evenodd" d="M17.5001 20.5946L25.2336 28.3281C25.644 28.7385 26.2006 28.969 26.7809 28.969C27.3613 28.969 27.9178 28.7385 28.3282 28.3281C28.7386 27.9177 28.9691 27.3612 28.9691 26.7808C28.9691 26.2005 28.7386 25.6439 28.3282 25.2335L20.5917 17.5L28.3267 9.76644C28.5298 9.56324 28.6909 9.32204 28.8008 9.05659C28.9107 8.79114 28.9672 8.50665 28.9671 8.21936C28.9671 7.93207 28.9104 7.6476 28.8004 7.38221C28.6904 7.11681 28.5292 6.87568 28.326 6.67258C28.1228 6.46948 27.8816 6.3084 27.6162 6.19852C27.3507 6.08864 27.0662 6.03212 26.7789 6.03219C26.4916 6.03226 26.2072 6.08891 25.9418 6.19891C25.6764 6.30892 25.4353 6.47012 25.2322 6.67331L17.5001 14.4069L9.76653 6.67331C9.56484 6.46429 9.32354 6.29753 9.05671 6.18276C8.78988 6.06799 8.50287 6.00751 8.21241 6.00485C7.92196 6.00219 7.63389 6.0574 7.365 6.16727C7.09612 6.27713 6.8518 6.43944 6.64632 6.64474C6.44083 6.85003 6.27829 7.09419 6.16817 7.36297C6.05805 7.63175 6.00257 7.91978 6.00496 8.21023C6.00734 8.50069 6.06755 8.78776 6.18207 9.05469C6.29658 9.32163 6.46312 9.56309 6.67195 9.76498L14.4084 17.5L6.67341 25.235C6.46458 25.4369 6.29804 25.6783 6.18353 25.9453C6.06901 26.2122 6.0088 26.4993 6.00641 26.7897C6.00403 27.0802 6.05951 27.3682 6.16963 27.637C6.27974 27.9058 6.44229 28.1499 6.64777 28.3552C6.85326 28.5605 7.09757 28.7228 7.36646 28.8327C7.63535 28.9425 7.92342 28.9978 8.21387 28.9951C8.50433 28.9924 8.79134 28.932 9.05817 28.8172C9.325 28.7024 9.5663 28.5357 9.76799 28.3266L17.5001 20.5946Z" fill="#09244B"/>
</g>
<defs>
<clipPath id="clip0_2742_842">
<rect width="35" height="35" fill="white"/>
</clipPath>
</defs>
</svg>
